<svg id="Layer_1" data-name="Layer 1" xmlns="http://www.w3.org/2000/svg" viewBox="0 0 800 800"><defs><style>.cls-1{fill:#00a651;}.cls-2{fill:#00ad4d;}.cls-3{fill:#fff;}.cls-4{fill:#231f20;}.cls-5{fill:#9aca3c;}</style></defs><circle class="cls-1" cx="283.16" cy="368.06" r="228.09"/><circle class="cls-2" cx="537.63" cy="391.01" r="182.47"/><path class="cls-3" d="M200,352.74q0,40.67-48,40.67c-2.77,0-5.58-.14-8.43-.4q-1.12,3.8-4,3.8a4,4,0,0,1-2.72-1,3,3,0,0,1-1.11-2.34q0,.84,1.37-10.36a191.32,191.32,0,0,0,1.37-23.39,280.14,280.14,0,0,0-1.89-33.13,4.19,4.19,0,0,1-3.63-4.53,4.41,4.41,0,0,1,2.62-4l-.08-.66a1.47,1.47,0,0,0,0-.33,1.37,1.37,0,0,1,0-.29q0-3.8,4-3.8a3.64,3.64,0,0,1,3.95,3.27,73.73,73.73,0,0,1,15.52-1.81q19.68,0,30.36,10T200,352.74Zm-8.59.47q0-14.62-8.34-22.33t-24.19-7.7A71.89,71.89,0,0,0,144.59,325a296.18,296.18,0,0,1,2.06,34.67,200.3,200.3,0,0,1-1.49,24.77q1.89.18,5.28.18,18.06,0,26.85-4.33Q191.39,373.26,191.39,353.21Z"/><path class="cls-3" d="M246.78,347c0,3.06-1,5.33-2.9,6.8q-1.29,1-8.18,2.52a72,72,0,0,1-15.6,2.08,69.82,69.82,0,0,1-7.1-.44q0,16.65,11.57,16.66a9.21,9.21,0,0,0,5.77-2,43.32,43.32,0,0,0,4.63-4.73,3.44,3.44,0,0,1,2.54-1.37,3.76,3.76,0,0,1,2.92,1.39,5,5,0,0,1,1.23,3.43,4.73,4.73,0,0,1-1.17,3.09q-6.93,8.31-16.24,8.31-19.27,0-19.27-24.44,0-12.6,6.13-21.75,7-10.38,17.25-10.38A16.86,16.86,0,0,1,241.58,332Q246.79,337.9,246.78,347Zm-8,.53q-.24-6.15-2.92-9.73a8.12,8.12,0,0,0-6.71-3.58,12.49,12.49,0,0,0-9.23,4.11q-4.12,4.15-6.13,11.76a48.8,48.8,0,0,0,6.08.35A76.47,76.47,0,0,0,238.76,347.49Z"/><path class="cls-3" d="M289.8,329.23a57.57,57.57,0,0,1-1.74,11.32q-1.89,8.4-2.86,11.75a151.57,151.57,0,0,1-7.46,20.07q-5.12,11.44-8.74,11.45-2.31,0-3.55-4.95-1.65-6.86-3.31-13.71-5.68-19.83-12.13-32.7c-.57-1-1.12-2.06-1.67-3.1a5.9,5.9,0,0,1-.83-2.69q0-4,3.63-4,4.08,0,9,11.62,4.68,11.1,10.92,34.83,6.72-14.5,10.31-37.12c.64-4,1.06-6.25,1.24-6.81a3.11,3.11,0,0,1,3.15-2.34Q289.79,322.87,289.8,329.23Z"/><path class="cls-3" d="M337,347c0,3.06-1,5.33-2.9,6.8q-1.29,1-8.18,2.52a72,72,0,0,1-15.6,2.08,69.82,69.82,0,0,1-7.1-.44q0,16.65,11.57,16.66a9.21,9.21,0,0,0,5.77-2,43.32,43.32,0,0,0,4.63-4.73,3.44,3.44,0,0,1,2.54-1.37,3.76,3.76,0,0,1,2.92,1.39,5,5,0,0,1,1.23,3.43,4.73,4.73,0,0,1-1.17,3.09q-6.93,8.31-16.24,8.31-19.27,0-19.27-24.44,0-12.6,6.13-21.75,7-10.38,17.25-10.38A16.86,16.86,0,0,1,331.84,332Q337,337.9,337,347Zm-8,.53q-.24-6.15-2.92-9.73a8.12,8.12,0,0,0-6.71-3.58,12.51,12.51,0,0,0-9.24,4.11Q306,342.45,304,350.05a48.8,48.8,0,0,0,6.08.35A76.47,76.47,0,0,0,329,347.49Z"/><path class="cls-3" d="M354.82,384.17a15.51,15.51,0,0,1-.36,4.11,2.86,2.86,0,0,1-3,1.94c-2.54,0-4-2.27-4.49-6.8q-1.15-11.49-1.16-31.47,0-22.32.56-27.45.64-5.61,4-5.61,4,0,4,5.35c0,.88-.15,4.4-.45,10.54s-.44,11.81-.44,17q0,6.81.65,17.61T354.82,384.17Z"/><path class="cls-3" d="M409.28,352.57q0,13-6.93,20.7T383.84,381q-9.58,0-15-7.19t-5.44-19.95q0-13.44,6.57-20.86t17.9-7.29a19,19,0,0,1,15.52,7.38Q409.29,340.46,409.28,352.57Zm-8,.09q0-8.9-3.93-13.9a12.89,12.89,0,0,0-10.74-5q-15.21,0-15.2,20,0,9.24,3.3,14.21a10.71,10.71,0,0,0,9.48,5q8,0,12.53-5.34T401.26,352.66Z"/><path class="cls-3" d="M458.14,356.19q0,11.32-6.15,18.06T435.53,381a24.5,24.5,0,0,1-11.25-2.79,121.19,121.19,0,0,1-1.49,12.73q-1,3.88-3.69,3.89a3.94,3.94,0,0,1-2.88-1.15,3.82,3.82,0,0,1-1.17-2.83q0,.27.64-5.61.81-6.9,1.25-14.89.65-11.5.65-24.84,0-2.65-.08-6.08c-.06-2.28-.09-3.66-.09-4.13q0-5.88,3.75-5.88c2.61,0,3.95,1.35,4,4.07l.08,2.69A16.43,16.43,0,0,1,437.82,331a18.06,18.06,0,0,1,14.68,6.72Q458.14,344.62,458.14,356.19Zm-8,0q0-8.08-3.43-12.55a11.29,11.29,0,0,0-9.51-4.46q-9.53,0-11.73,6.58v4.38q0,10.25-.49,20.15A22.42,22.42,0,0,0,435.53,373q7,0,10.78-4.37T450.12,356.19Z"/><path class="cls-3" d="M476,334.54q0,26.64-1.73,39.38a26.64,26.64,0,0,1-1.54,6.89,3.79,3.79,0,0,1-6.24,1.17,3.86,3.86,0,0,1-1.13-2.81c0,.15.21-.86.64-3a84.39,84.39,0,0,0,1.25-8.45q.65-6.71.65-15,0-3.63-.08-7.65c-.06-2.68-.08-4.14-.08-4.38,0-4,.3-6.74.92-8.3a3.61,3.61,0,0,1,3.63-2.57Q476,329.76,476,334.54Zm1.73-16.84q0,6.27-5.6,6.27a4.91,4.91,0,0,1-3.81-1.72,6,6,0,0,1-1.55-4.16,6.42,6.42,0,0,1,1.69-4.5,5.4,5.4,0,0,1,4.15-1.86,4.67,4.67,0,0,1,3.71,1.64A6.39,6.39,0,0,1,477.77,317.7Z"/><path class="cls-3" d="M523.33,357.92a106.8,106.8,0,0,1-3.23,25.32q-1.61,6.63-4.8,6.63T512,385.8a7.84,7.84,0,0,1,.08-1.37,16.51,16.51,0,0,1-8.51,2.43c-5.18,0-9.24-1.6-12.15-4.81s-4.38-7.71-4.38-13.48,1.58-10.51,4.72-13.95,7.32-5.15,12.54-5.15a15.14,15.14,0,0,1,11.49,5Q515.07,337,504,337a10.71,10.71,0,0,0-5.27,1.61,10.57,10.57,0,0,1-3.64,1.62,3.22,3.22,0,0,1-2.46-1.24,4.14,4.14,0,0,1-1.09-2.83q0-2.66,3.51-4.9a16.09,16.09,0,0,1,8.95-2.44Q523.33,328.83,523.33,357.92Zm-8.19,10.38q0-11.22-9.63-11.22-10.56,0-10.56,11.13t10.48,11.23a9,9,0,0,0,7.13-2.94Q515.14,373.56,515.14,368.3Z"/><path class="cls-3" d="M583,367.51q0,11.53-9.23,19.18A27.65,27.65,0,0,1,555.62,393a40.58,40.58,0,0,1-11.9-2.08q-.72,4.29-4,4.29a3.43,3.43,0,0,1-3.42-2.26q-.93-2.11-.93-7.07,0-10.33,2.54-46.27l.32-5a60.87,60.87,0,0,1,1.33-10.43q1-3.31,3.95-3.31,3.68,0,3.67,5.35,0-1.55-1.41,15.88-1.53,18.66-2,39.85a39.31,39.31,0,0,0,12.38,2.34q8.1,0,13.26-4.91a15.8,15.8,0,0,0,5-11.86q0-13.86-17.41-13.86c-.41,0-1,0-1.84.05s-1.44,0-1.87,0c-2.48,0-3.71-1.24-3.71-3.71a3.59,3.59,0,0,1,2-3.63,11.23,11.23,0,0,1,3.55-.79,35.32,35.32,0,0,0,3.91-.58,9.32,9.32,0,0,0,5.55-4.3,15,15,0,0,0,2.11-8.11,11.86,11.86,0,0,0-4.88-10.15q-4.87-3.6-13.94-3.6a32.5,32.5,0,0,0-13.39,3.27l-3.5,1.77a9,9,0,0,1-3.59.93,3.38,3.38,0,0,1-2.6-1.11,3.66,3.66,0,0,1-1-2.61q0-2.43,4-4.95,9.19-5.87,22-5.87,11.85,0,18.79,5.87t6.81,15.56A20.78,20.78,0,0,1,569.2,347a19.2,19.2,0,0,1,10.14,7.69A22.67,22.67,0,0,1,583,367.51Z"/><path class="cls-3" d="M634.39,317.83c0-.18-.17,2-.49,6.63q-.52,8-.89,17-.43,13-.44,27.67c0,2,0,4.06,0,6.17s0,3.22,0,3.33c0,4.4-1.27,6.59-3.81,6.59q-4.17,0-4.17-7.43c0-1.14,0-2,.08-2.69q-7.61,8.22-17.64,8.22-8.37,0-13.26-5.95T589,361.05q0-14.13,7.11-22.85a22.89,22.89,0,0,1,18.62-8.7,26,26,0,0,1,11.08,2.69q.29-12.24.76-14.67c.6-3,2.08-4.51,4.46-4.51S634.39,314.62,634.39,317.83Zm-9,23a18.64,18.64,0,0,0-10.59-3.62,15.42,15.42,0,0,0-13,6.21q-4.75,6.21-4.75,16.86,0,7.29,3.2,11.33a10.62,10.62,0,0,0,8.83,4.05q7.08,0,10.79-5.17c.7-1.15,1.38-2.31,2-3.49a4.49,4.49,0,0,1,2.9-2.21Q624.83,352.35,625.36,340.81Z"/><path class="cls-4" d="M246.13,474.22v16.14H199.74v-67.6h46.39v15.6H218.31v9.8H240.8v15H218.31v11.05Z"/><path class="cls-4" d="M297.86,490.36h-18v-31.7c0-2.6-.36-4.27-1.1-5a3.84,3.84,0,0,0-2.78-1.09q-4.92,0-4.92,7.53v30.26H253V440h16.72v7.13Q273.42,439,283,439a15.94,15.94,0,0,1,8.47,2.11,12.08,12.08,0,0,1,4.95,5.44q1.49,3.35,1.49,11.62Z"/><path class="cls-4" d="M335.72,440v12.83h-9.17v18.57c0,2.55.43,4.06,1.31,4.53a5.53,5.53,0,0,0,2.71.72,19.48,19.48,0,0,0,5.15-.84v14.07A50.09,50.09,0,0,1,325.24,491q-8.33,0-12.22-3.92t-3.91-12.48l0-5.89v-15.9h-6.86V440h6.86l.27-16.39,17.13-.3V440Z"/><path class="cls-4" d="M372.08,472.28l16.81,1.24a22,22,0,0,1-7.61,12.66q-6.13,5.22-16.56,5.22-11.61,0-18.52-7.35a25.63,25.63,0,0,1-6.91-18.25q0-11.3,6.82-19.07t18.2-7.78q11,0,17.82,7.33t6.8,20c0,.7,0,1.65,0,2.87H358.12c.06,3.17.57,5.53,1.54,7.06s2.8,2.31,5.51,2.31Q371,478.48,372.08,472.28Zm-1.22-13.07q0-5.1-1.87-6.86a6.26,6.26,0,0,0-4.52-1.76q-6.39,0-6.39,8.62Z"/><path class="cls-4" d="M413.24,490.36H396V440h15v10.4q2.56-11.34,12-11.34a24.26,24.26,0,0,1,2.62.2v17.58a13.63,13.63,0,0,0-3.39-.49q-8.94,0-8.94,10.94Z"/><path class="cls-4" d="M449.29,506.26h-18V440h16.58v7.13q3.48-8.16,13-8.17a14.65,14.65,0,0,1,12.87,7q4.65,7,4.65,19.09t-4.76,19.22q-4.77,7.14-12.58,7.13a13,13,0,0,1-11.7-6.44Zm0-34.32a8.48,8.48,0,0,0,1.4,5.22,4.2,4.2,0,0,0,3.48,1.86,4.49,4.49,0,0,0,4.47-3.29c.81-2.2,1.22-5.57,1.22-10.13q0-7.87-1.4-11.07t-4.21-3.2a5.07,5.07,0,0,0-3.32,1.44c-1.1,1-1.64,2.53-1.64,4.71Z"/><path class="cls-4" d="M502.77,490.36H485.52V440h15v10.4q2.58-11.34,12-11.34a24.44,24.44,0,0,1,2.62.2v17.58a13.63,13.63,0,0,0-3.39-.49q-9,0-9,10.94Z"/><path class="cls-4" d="M538.82,420.63v15.65h-18V420.63Zm0,19.36v50.37h-18V440Z"/><path class="cls-4" d="M544.24,476.1,558.47,474q1.23,5.44,9.67,5.45,7,0,7-3a2.21,2.21,0,0,0-1.35-2,25,25,0,0,0-6.42-1.46q-14-2.13-17.48-6.66a16.19,16.19,0,0,1-3.48-10.08,15.36,15.36,0,0,1,5.88-12.51q5.87-4.78,15.4-4.78,16.71,0,21.32,13.23L575.37,455q-1.9-4.46-8-4.46a8.45,8.45,0,0,0-4.31.87c-.95.58-1.42,1.15-1.42,1.71q0,2.47,4.33,3,11.29,1.37,15.32,2.81a14.65,14.65,0,0,1,6.86,5.25,15,15,0,0,1,2.85,9.22,15.72,15.72,0,0,1-6.3,13.14q-6.3,4.84-17.37,4.85Q548.67,491.4,544.24,476.1Z"/><path class="cls-4" d="M627.68,472.28l16.81,1.24a22,22,0,0,1-7.61,12.66q-6.14,5.22-16.56,5.22-11.61,0-18.52-7.35a25.64,25.64,0,0,1-6.92-18.25q0-11.3,6.83-19.07t18.2-7.78q11,0,17.82,7.33t6.8,20c0,.7,0,1.65,0,2.87H613.72c.06,3.17.57,5.53,1.54,7.06s2.8,2.31,5.51,2.31Q626.64,478.48,627.68,472.28Zm-1.22-13.07q0-5.1-1.87-6.86a6.26,6.26,0,0,0-4.52-1.76q-6.39,0-6.39,8.62Z"/><path class="cls-1" d="M280.91,630.79c-39,0-77.51-9.12-114.51-27.15C101.31,571.94,64,524.35,62.46,522.34l6.32-4.89c.38.48,37.9,48.29,101.4,79.13,84.87,41.24,173.43,34.26,263.22-20.75l1.84-1.12,2,.92c.25.12,25.12,11.74,60.12,19.11,32.1,6.75,79.56,11.2,123.37-6,42.78-16.74,74.86-50.95,95.35-101.66l7.42,3c-21.35,52.85-55,88.56-99.89,106.13-45.73,17.87-94.91,13.27-128.12,6.26a314.47,314.47,0,0,1-59.69-18.76c-50.15,30.36-100.84,46.17-150.7,47C283.68,630.78,282.29,630.79,280.91,630.79Z"/><path class="cls-5" d="M413.11,158.37s50.7,48.49,49.08,50.16,71.27-27.49,116.62-9.67C578.81,198.86,513.05,98.44,413.11,158.37Z"/><path class="cls-4" d="M342.33,657.23s98.81-42.11,98.81-50.21c0,0,61.54,40.49,123.09,35.63S421.7,704.2,342.33,657.23Z"/><path class="cls-1" d="M69.28,255.75,62,252.51c.7-1.57,17.41-38.71,56.89-73.34a227.51,227.51,0,0,1,78-45.09c35.68-12,75.06-15.13,117-9.48l-1.07,7.93c-92-12.4-153.3,21.67-188.48,52.43C86.12,218.43,69.44,255.38,69.28,255.75Z"/></svg>