<svg id="Layer_1" data-name="Layer 1" xmlns="http://www.w3.org/2000/svg" xmlns:xlink="http://www.w3.org/1999/xlink" viewBox="0 0 800 800"><defs><style>.cls-1{fill:none;}.cls-2{clip-path:url(#clip-path);}.cls-3{fill:#6900de;}.cls-4{fill:#b500de;}.cls-5{fill:#7f00de;}.cls-6{fill:#e6feff;}.cls-7{fill:#b2b2b2;}.cls-8{fill:#fff;}</style><clipPath id="clip-path"><polygon class="cls-1" points="483.38 1181.33 483.38 956.33 418.49 891.43 418.49 1181.33 483.38 1181.33"/></clipPath></defs><g class="cls-2"><rect x="418.49" y="778.14" width="64.89" height="30.85"/><rect x="433.38" y="740.9" width="35.11" height="30.85"/><rect x="418.49" y="703.67" width="64.89" height="30.85"/><rect x="433.38" y="666.43" width="35.11" height="30.85"/></g><path class="cls-3" d="M245.79,200.35l26.29,0,.05,43,23.33,0,0-42.94,26.29,0,.12,115.82-26.29,0L295.49,268l-23.34,0,.05,48.16-26.28,0Z"/><path class="cls-3" d="M373.8,233.44q17.26,0,26.3,11.47t9.06,32q0,20-9.34,31t-25.93,11q-15.88,0-25.22-11.17t-9.36-30.79q0-20.47,8.86-32T373.8,233.44Zm.24,62.9a8,8,0,0,0,7.41-4.6q2.48-4.61,2.46-15.71t-2.45-15.44a7.83,7.83,0,0,0-7.29-4.42,8,8,0,0,0-7.28,4.3q-2.52,4.3-2.5,15.75Q364.41,296.35,374,296.34Z"/><path class="cls-3" d="M449.11,236.14v9.8q10.74-12.58,21.85-12.6,13.36,0,17.28,13.77a51.67,51.67,0,0,1,11.31-10.51,22.66,22.66,0,0,1,12.27-3.31q17.61,0,17.64,24.62l.06,58-25.24,0-.05-47.11q0-11.55-7.48-11.53-7.63,0-7.62,11.37l.05,47.28-25.25,0-.05-48.5a12.22,12.22,0,0,0-2.05-7.28,6.19,6.19,0,0,0-5.25-2.86,6.41,6.41,0,0,0-5.42,2.78,12.5,12.5,0,0,0-2,7.55l.05,48.33L424,316,424,236.16Z"/><path class="cls-3" d="M585.55,291.43l21.26,0q-6,26.89-30.34,26.93-15.18,0-24-11.52T543.54,275q0-18.92,8.82-30.33t23.5-11.43a29.89,29.89,0,0,1,17,5.49,31.76,31.76,0,0,1,11.9,14.6q3.75,9.1,4.2,28.72l-42.08,0q.54,17.79,9.91,17.78a8.21,8.21,0,0,0,5.72-2.35A9.85,9.85,0,0,0,585.55,291.43Zm-18.33-23.06,18.31,0q-.27-8.42-2.36-12.44a6.92,6.92,0,0,0-6.6-4c-3.35,0-5.75,1.31-7.19,3.91S567.21,262.59,567.22,268.37Z"/><path class="cls-4" d="M407.76,419.13V330.06h34.46q22.44,0,33.6,13.31A46.53,46.53,0,0,1,487,374.17q0,20-12,32.46t-31.09,12.5Zm27.34-20.49h7.12q6.78,0,11.45-6.59t4.66-17.94a32.54,32.54,0,0,0-4.14-16.77q-4.14-7.05-12-7H435.1Z"/><path class="cls-4" d="M541.46,395.31l24.27,1.63q-2.15,9.8-11,16.68t-23.91,6.88q-16.79,0-26.76-9.69a32.19,32.19,0,0,1-10-24.05q0-14.86,9.85-25.12t26.3-10.24q15.91,0,25.74,9.66t9.82,26.29c0,.92,0,2.18-.07,3.79H521.3q.12,6.25,2.22,9.29t8,3Q540,403.47,541.46,395.31Zm-1.76-17.22c0-4.48-.94-7.5-2.7-9a9.56,9.56,0,0,0-6.53-2.32q-9.24,0-9.24,11.36Z"/><path class="cls-4" d="M616,392.38l22.18,1.89a29.82,29.82,0,0,1-9.75,18.92q-8.19,7.31-21.76,7.31-15.21,0-24.7-9.56t-9.49-24.5q0-15.27,9.42-25.15t24.5-9.89q13.38,0,21.8,7.47a28.48,28.48,0,0,1,9.65,18.89l-22.77,1.89q-1.42-10.5-8-10.5A6.4,6.4,0,0,0,601,373q-1.92,3.82-1.92,13.28,0,8.16,1.92,12.07t6.69,3.92Q614.67,402.23,616,392.38Z"/><path class="cls-4" d="M678.29,420.5q-16.51,0-26.23-10.28a34,34,0,0,1-9.72-24.11q0-14.88,10.14-24.79t26.4-9.92q16.36,0,26.32,9.79t10,24.53q0,14.88-10.09,24.83T678.29,420.5Zm.39-15.79c4.05,0,6.51-2.1,7.41-6.3a63.27,63.27,0,0,0,1.33-13.15q0-9.33-1.89-13.44t-6.78-4.11a6.91,6.91,0,0,0-6.59,4.24q-2.1,4.24-2.09,14,0,11.41,2.15,15.1A7,7,0,0,0,678.68,404.71Z"/><polygon class="cls-4" points="186.36 317.46 186.36 707.4 128.19 707.4 128.19 228.34 186.36 317.46"/><polygon class="cls-3" points="251.42 417.15 251.42 707.4 193.26 707.4 193.26 328.04 251.42 417.15"/><rect class="cls-3" x="273.47" y="431.38" width="432.45" height="276.03" rx="19.55"/><path d="M124.63,179.06s0,0,0,0h0Z"/><path d="M113.1,160.05a35.52,35.52,0,1,0,10.42,38.71l78,128.52,20.83,12.79-93.7-154.33L232.63,334l-3.39-24.18L143.3,187.26a35.47,35.47,0,1,0-30.2-27.21Zm-10,48.38a25,25,0,1,1,8.41-34.38A25.05,25.05,0,0,1,103.06,208.43Zm21.56-29.38h0s0,0,0,0Zm44.43-40a25,25,0,1,1-34.39-8.42A25.06,25.06,0,0,1,169.05,139.09Z"/><polygon points="602.57 251.5 602.58 251.5 602.58 251.5 602.57 251.5"/><rect x="621.73" y="234.12" width="15.06" height="108.59" rx="4.06" transform="translate(1258.44 577) rotate(-179.99)"/><path d="M620,221.87a51.67,51.67,0,0,1,.89-5.12c.34-1.71.67-3.41,1-5.12s.67-3.42,1-5.13A24,24,0,0,1,624,202c2.09-5.08,7.66-6.92,12.55-8.17,1.06-.28,2.42.77,1.95,2a27.94,27.94,0,0,0-.47,19.67,1.6,1.6,0,0,1-1.11,1.95,1.52,1.52,0,0,1-1.32-.25,2.91,2.91,0,0,0-.31-.3,1.48,1.48,0,0,0,.31.3,8.91,8.91,0,1,1-14.58,9.69h0A8,8,0,0,1,620,221.87Z"/><path d="M558.33,125.13a7.8,7.8,0,0,1-.58-.57A2.61,2.61,0,0,1,558.33,125.13Z"/><path d="M558.33,125.13a7.8,7.8,0,0,1-.58-.57A2.61,2.61,0,0,1,558.33,125.13Z"/><path class="cls-5" d="M687.6,443.52,289.34,697.72A10.31,10.31,0,0,1,273.47,689V456.72a24.89,24.89,0,0,1,24.89-24.89H684.18A6.34,6.34,0,0,1,687.6,443.52Z"/><rect class="cls-6" x="338.51" y="459.51" width="145.25" height="133.61" rx="7.81"/><rect class="cls-6" x="338.51" y="612.46" width="145.25" height="66.81" rx="12.87"/><rect class="cls-6" x="504.05" y="459.51" width="136.83" height="219.76" rx="6.01"/><path class="cls-4" d="M330.49,361.93c-2.15-2.48-6.32-4.08-9.72-2.83-2,.74-3.41,2.33-5.41,3.12-3.39,1.35-7.39.09-11-.94s-8-1.65-10.7.53c-.86.71-1.4,1.64-2.25,2.36-2.76,2.33-7.5,1.7-11.31.74s-8.26-2-11.54-.16c-3.1,1.74-3.59,5.19-4.2,8.2a2,2,0,0,1-.51,1.14c-1.16,1.11-3.21-.2-4.93-.62-3.11-.76-5.91,1.82-7.06,4.28s-1.83,5.35-4.54,6.79a9.72,9.72,0,0,0-1.77,1,3.44,3.44,0,0,0-1,2.12,23.76,23.76,0,0,0,1.57,13.77,4.65,4.65,0,0,0,2.6,2.85c.74.26,1.59.26,2.34.5a3.79,3.79,0,0,1,2.42,3.49c.09,1.4-.25,2.82.05,4.21.61,2.81,3.8,4.9,7.21,5.64s7,.41,10.52,0,7.08-.82,10.54-.25c1.88.31,3.69.91,5.58,1.14,4.07.49,8.13-.73,11.95-2a5.08,5.08,0,0,1,2.11-.36,7.84,7.84,0,0,1,2.74,1.33c3.81,2.05,8.84-.71,13.38-.31.95-1.91-1.23-4.32-3.77-4.18a7.51,7.51,0,0,1-2.58.09,3,3,0,0,1-1.34-.95,23.38,23.38,0,0,1-3-3.94c-1.15-1.89-2.57-4.24-5.17-4.25a5.43,5.43,0,0,0-2.36-6.42,19.23,19.23,0,0,1-3-1.88,1.7,1.7,0,0,1,0-2.73,6.25,6.25,0,0,1,1.81-.46c2.65-.56,3.95-3.52,2.33-5.31s-5.9-2.49-6-4.86c-.09-2,3-3.09,4-4.94s-.33-4.17.82-6a7.21,7.21,0,0,1,3-2.14l4.71-2.24a5.44,5.44,0,0,1,2.65-.73c.8.05,1.53.43,2.33.47,1.24.07,2.36-.7,3.61-.73,1.42,0,2.57.85,3.82,1.4a16.07,16.07,0,0,0,3.3.92c3.82.79,7.87,2,11.78,2.33C334.12,368.78,332.76,363.76,330.49,361.93Z"/><ellipse class="cls-7" cx="332.81" cy="363.06" rx="28.82" ry="4.32" transform="translate(-152.73 280.42) rotate(-37.83)"/><path d="M324,356.19h57.64a0,0,0,0,1,0,0v46a19.44,19.44,0,0,1-19.44,19.44H343.49A19.44,19.44,0,0,1,324,402.17v-46A0,0,0,0,1,324,356.19Z" transform="translate(-164.36 298.16) rotate(-37.83)"/><polygon class="cls-8" points="441.93 459.51 338.51 556.2 338.51 580.2 463.08 459.51 441.93 459.51"/><polygon class="cls-8" points="608 459.51 504.05 556.2 504.05 580.2 629.25 459.51 608 459.51"/><path class="cls-8" d="M433.49,612.46,342.92,676.1s6.77,3.17,19,3.17l92.56-66.81Z"/><polygon class="cls-8" points="640.88 473.91 504.05 605.67 504.05 631.5 640.88 499.83 640.88 473.91"/></svg>