<svg id="Layer_1" data-name="Layer 1" xmlns="http://www.w3.org/2000/svg" xmlns:xlink="http://www.w3.org/1999/xlink" viewBox="0 0 800 800"><defs><style>.cls-1{fill:none;}.cls-2{clip-path:url(#clip-path);}.cls-3{opacity:0.75;}.cls-4{fill:#b2b2b2;}.cls-5{fill:#fff;}</style><clipPath id="clip-path"><polygon class="cls-1" points="483.38 1181.33 483.38 956.33 418.49 891.43 418.49 1181.33 483.38 1181.33"/></clipPath></defs><g class="cls-2"><rect x="418.49" y="778.14" width="64.89" height="30.85"/><rect x="433.38" y="740.9" width="35.11" height="30.85"/><rect x="418.49" y="703.67" width="64.89" height="30.85"/><rect x="433.38" y="666.43" width="35.11" height="30.85"/></g><path d="M305.15,176l26.08,3.35-5.47,42.6,23.15,3,5.47-42.6,26.07,3.35L365.71,300.52l-26.08-3.35,6.13-47.76-23.15-3-6.13,47.76-26.07-3.35Z"/><path d="M427.85,225.22Q445,227.43,452.46,240t4.88,32.86q-2.55,19.88-13.24,29.57T417,310q-15.75-2-23.58-14.31t-5.33-31.73q2.61-20.31,12.89-30.58T427.85,225.22ZM420,287.63A8,8,0,0,0,428,284q3-4.25,4.45-15.26T432,253.13a7.84,7.84,0,0,0-6.67-5.32,8,8,0,0,0-7.77,3.33q-3,3.95-4.5,15.3Q410.47,286.4,420,287.63Z"/><path d="M502.2,237.56,501,247.29q12.27-11.11,23.28-9.7,13.26,1.71,15.37,15.88a51.88,51.88,0,0,1,12.57-9,22.7,22.7,0,0,1,12.6-1.71q17.46,2.25,14.33,26.69L571.72,327l-25-3.21,6-46.73q1.47-11.44-5.93-12.4-7.59-1-9,10.3l-6,46.9-25-3.21,6.18-48.1a12.26,12.26,0,0,0-1.1-7.49,6.18,6.18,0,0,0-4.84-3.51,6.39,6.39,0,0,0-5.73,2.06,12.47,12.47,0,0,0-3,7.23L492,316.73l-24.95-3.2,10.16-79.17Z"/><path d="M630.41,309.91l21.09,2.71q-9.45,25.9-33.55,22.81-15.06-1.94-22.36-14.5t-4.73-32.71q2.42-18.77,12.64-29T628.27,251a30,30,0,0,1,16.17,7.62,32,32,0,0,1,9.93,16q2.53,9.51.47,29l-41.74-5.35q-1.74,17.7,7.55,18.9a8.17,8.17,0,0,0,6-1.6A9.84,9.84,0,0,0,630.41,309.91Zm-15.22-25.22L633.35,287q.81-8.37-.74-12.64a6.91,6.91,0,0,0-6-4.84q-5-.65-7.64,2.95T615.19,284.69Z"/><g class="cls-3"><path d="M395.62,415.82V326.75h34.45q22.46,0,33.61,13.31a46.57,46.57,0,0,1,11.15,30.8q0,20-12,32.46t-31.09,12.5ZM423,395.33h7.11q6.8,0,11.45-6.59t4.67-17.95A32.44,32.44,0,0,0,442,354q-4.14-7-12-7H423Z"/><path d="M529.32,392l24.27,1.63q-2.16,9.8-11,16.67t-23.91,6.89q-16.77,0-26.75-9.69a32.15,32.15,0,0,1-10-24.05q0-14.88,9.85-25.12t26.29-10.24q15.93,0,25.74,9.65t9.82,26.3c0,.91,0,2.18-.06,3.78H509.15q.14,6.27,2.22,9.3c1.39,2,4,3,8,3Q527.82,400.16,529.32,392Zm-1.77-17.23q-.06-6.72-2.69-9a9.54,9.54,0,0,0-6.54-2.32q-9.23,0-9.23,11.35Z"/><path d="M603.83,389.06,626,391a29.83,29.83,0,0,1-9.76,18.92q-8.19,7.31-21.76,7.31-15.19,0-24.7-9.56t-9.49-24.5q0-15.27,9.43-25.16t24.5-9.88q13.38,0,21.79,7.47a28.54,28.54,0,0,1,9.66,18.89l-22.77,1.89q-1.44-10.5-8-10.51a6.4,6.4,0,0,0-6.1,3.82q-1.93,3.83-1.93,13.28,0,8.16,1.93,12.07a6.83,6.83,0,0,0,6.68,3.92Q602.53,398.92,603.83,389.06Z"/><path d="M666.14,417.19q-16.5,0-26.23-10.28a34,34,0,0,1-9.72-24.11q0-14.88,10.15-24.8t26.39-9.91q16.38,0,26.33,9.78t10,24.54q0,14.88-10.08,24.83T666.14,417.19Zm.4-15.79q6.06,0,7.4-6.3A63.26,63.26,0,0,0,675.28,382q0-9.33-1.89-13.44c-1.26-2.74-3.53-4.11-6.79-4.11a6.9,6.9,0,0,0-6.59,4.24q-2.09,4.25-2.09,14,0,11.43,2.16,15.11A7,7,0,0,0,666.54,401.4Z"/></g><rect x="190.18" y="228.34" width="58.16" height="479.07"/><rect x="120.44" y="228.34" width="58.16" height="479.07"/><rect x="273.47" y="426.02" width="432.45" height="276.03"/><path d="M191.48,169.7h0v0Z"/><path d="M210.58,158.32a35.5,35.5,0,1,0-38.79,10.12l-129.13,77L29.71,266.18,184.77,173.7,35.67,276.48l24.2-3.2,123.26-85a35.46,35.46,0,1,0,27.45-30Zm-48.3-10.41a25,25,0,1,1,34.32,8.67A25.07,25.07,0,0,1,162.28,147.91Zm29.22,21.78v0h0Zm39.6,44.75a25,25,0,1,1,8.69-34.32A25.06,25.06,0,0,1,231.1,214.44Z"/><polygon points="338.89 344.99 338.89 344.99 338.89 344.99 338.89 344.99"/><rect x="337.31" y="339.03" width="9.92" height="71.51" rx="4.06" transform="matrix(-0.87, -0.49, 0.49, -0.87, 456.48, 869.34)"/><path d="M358.47,333.61c.65-.93,1.43-1.78,2.17-2.64s1.48-1.75,2.23-2.62l2.23-2.62a15.81,15.81,0,0,1,2.11-2.22c2.84-2.24,6.63-1.49,9.84-.63a1.05,1.05,0,0,1,.49,1.75,18.41,18.41,0,0,0-6.63,11.13,1,1,0,0,1-1.26.76A1,1,0,0,1,369,336a2.76,2.76,0,0,0-.08-.27.84.84,0,0,0,.08.27,5.87,5.87,0,1,1-11.5.85h0A5.4,5.4,0,0,1,358.47,333.61Z"/><path d="M558.33,125.13a7.8,7.8,0,0,1-.58-.57A2.61,2.61,0,0,1,558.33,125.13Z"/><path d="M558.33,125.13a7.8,7.8,0,0,1-.58-.57A2.61,2.61,0,0,1,558.33,125.13Z"/><ellipse class="cls-4" cx="297.85" cy="349.63" rx="23.73" ry="3.56"/><path d="M274.11,349.63h47.47a0,0,0,0,1,0,0v34.44a19.44,19.44,0,0,1-19.44,19.44h-8.59a19.44,19.44,0,0,1-19.44-19.44V349.63A0,0,0,0,1,274.11,349.63Z"/><rect class="cls-5" x="337.22" y="451.87" width="145.25" height="133.61"/><rect class="cls-5" x="337.22" y="604.82" width="145.25" height="66.81"/><rect class="cls-5" x="502.76" y="451.87" width="136.83" height="219.76"/></svg>