<svg id="Layer_1" data-name="Layer 1" xmlns="http://www.w3.org/2000/svg" viewBox="0 0 800 800"><defs><style>.cls-1{fill:none;}.cls-2{fill:#231f20;}.cls-3{fill:#4f4f4f;}</style></defs><path class="cls-1" d="M377.58,726.49,382.49,641a264,264,0,0,1-40.41-5.7l-5-1.15-2.49-.57c-.82-.21-1.64-.46-2.46-.69-3.26-.94-6.55-1.82-9.81-2.79l-9.67-3.24c-.81-.25-1.61-.56-2.39-.88l-2.38-.93-4.76-1.84a258.12,258.12,0,0,1-36.45-18.29l-4.33-2.71-2.17-1.35-1.08-.68-1.05-.73-8.41-5.8-8.13-6.2c-1.38-1-2.65-2.14-4-3.23l-3.92-3.28a259.16,259.16,0,0,1-28.78-29L201.62,548c-1.07-1.33-2.22-2.59-3.2-4l-6.13-8.18-5.74-8.46c-1-1.38-1.82-2.88-2.73-4.32l-2.67-4.35a257.11,257.11,0,0,1-18-36.59c-1.17-3.19-2.46-6.34-3.57-9.55l-3.17-9.7c-1-3.26-1.79-6.56-2.72-9.83l-.67-2.46-.55-2.49-1.1-5A262,262,0,0,1,146,402.61l-.26-10.24-.07-2.56.05-2.57.09-5.12c.09-3.41.35-6.81.49-10.22.33-3.39.56-6.8,1-10.18a256.79,256.79,0,0,1,7.78-40c.41-1.65,1-3.26,1.45-4.89l1.49-4.88,1.66-4.82c.56-1.6,1.08-3.22,1.72-4.8,1.23-3.17,2.37-6.38,3.76-9.49l2-4.7,2.15-4.63c1.37-3.11,3-6.11,4.5-9.16.73-1.53,1.59-3,2.4-4.5l2.45-4.48c3.46-5.87,7-11.7,10.88-17.29a247.81,247.81,0,0,1,25.7-31.74,254.62,254.62,0,0,1,30.48-27.21,261.14,261.14,0,0,1,34.44-21.92l-40-75.78a347.16,347.16,0,0,0-46.16,29.38,339.61,339.61,0,0,0-40.79,36.41,333.64,333.64,0,0,0-34.42,42.49c-5.2,7.5-10,15.3-14.56,23.19l-3.3,6c-1.09,2-2.22,4-3.23,6-2,4.08-4.17,8.12-6,12.29l-2.87,6.22L86,259.72c-1.83,4.19-3.4,8.48-5,12.74-.84,2.13-1.56,4.3-2.31,6.46l-2.22,6.48-2,6.55c-.65,2.19-1.37,4.36-1.93,6.58a341.41,341.41,0,0,0-10.46,53.73c-.51,4.54-.84,9.09-1.25,13.63-.23,4.55-.55,9.1-.67,13.66L60,386.38,60,389.79l.07,3.42c.11,4.55.2,9.11.36,13.66a346.78,346.78,0,0,0,7.2,54.23l1.49,6.69.75,3.34.9,3.31c1.21,4.41,2.36,8.83,3.66,13.21l4.25,13c1.5,4.31,3.19,8.56,4.8,12.83a342.53,342.53,0,0,0,24.17,49.11l3.58,5.84c1.22,1.93,2.35,3.92,3.66,5.78l7.7,11.32,8.21,11c1.34,1.85,2.84,3.57,4.28,5.34l4.35,5.28A344.14,344.14,0,0,0,177.91,646l5.25,4.4c1.76,1.45,3.47,3,5.31,4.31L199.36,663l11.26,7.79,1.41,1,1.45.91,2.9,1.82,5.8,3.63a343.08,343.08,0,0,0,48.93,24.54l6.38,2.49,3.2,1.24c1.06.41,2.13.82,3.22,1.17l13,4.35c4.37,1.32,8.78,2.52,13.18,3.77,1.1.3,2.19.63,3.3.91l3.34.78,6.67,1.54A349.15,349.15,0,0,0,377.58,726.49Z"/><path class="cls-2" d="M208.55,157.92c-5.61-6.31-7.8-12-7.77-17.25a19,19,0,0,1,1.49-7.29,26.54,26.54,0,0,1,3.79-6.12,34.87,34.87,0,0,1,2.36-2.62c.83-.79,1.69-1.53,2.54-2.22a48.26,48.26,0,0,1,4.88-3.45,32.7,32.7,0,0,1,3.76-2c.93-.44,1.49-.66,1.49-.66A96.48,96.48,0,0,1,225.34,131a43.79,43.79,0,0,1,1,10.69,20.43,20.43,0,0,1-1.59,7.27,13.13,13.13,0,0,1-3.27,4.65,17.56,17.56,0,0,1-8.35,3.91A21.14,21.14,0,0,1,208.55,157.92Zm5.79-20.58a19.8,19.8,0,0,0-6.41,5.07c-2.52,3.38-3.7,8.18,1.41,14a8.72,8.72,0,0,0,5.91-2C217.58,152.08,218.82,147.51,214.34,137.34Z"/><path class="cls-2" d="M254.66,168.32s-.34.36-1,.91-1.56,1.31-2.67,2.2a31.48,31.48,0,0,1-4,2.67c-.77.43-1.59.84-2.46,1.22a25.48,25.48,0,0,1-2.66,1.09,20.41,20.41,0,0,1-6,1.11,19.25,19.25,0,0,1-6.7-.86c-4.67-1.48-9.78-4.91-14.84-11.65a18.7,18.7,0,0,1,1.32-4.26,14.83,14.83,0,0,1,5.86-7,12.61,12.61,0,0,1,5.38-1.73,17.69,17.69,0,0,1,7.27,1.09,36.66,36.66,0,0,1,9.21,5A81.8,81.8,0,0,1,254.66,168.32ZM216,164.61c4.62,6.19,9.3,6.34,12.77,5a16.1,16.1,0,0,0,6-4.12c-8-7.49-12.89-7.74-15.55-6A8.31,8.31,0,0,0,216,164.61Z"/><path class="cls-2" d="M184.38,179.77c-6.38-5.76-9.27-11.44-9.72-16.72a22,22,0,0,1,4.11-14.37,34.57,34.57,0,0,1,4.55-5.56A53.19,53.19,0,0,1,188,139a38,38,0,0,1,3.65-2.54c.93-.56,1.48-.85,1.48-.85,10.7,22.26,8.86,32.72,4,38.16a17.92,17.92,0,0,1-8.17,5,31.8,31.8,0,0,1-3.29.78C184.88,179.73,184.38,179.77,184.38,179.77Zm3.9-21.77a20.85,20.85,0,0,0-2.18,1.59,17.25,17.25,0,0,0-3.9,4.39c-2.27,3.75-3,8.77,2.81,14.08a10.27,10.27,0,0,0,2.13-.43,8,8,0,0,0,3.77-2.35C193.06,172.68,193.85,167.84,188.28,158Z"/><path class="cls-2" d="M232.74,184.89s-.31.4-.9,1-1.44,1.56-2.51,2.57a36.19,36.19,0,0,1-8.89,6.16,21.32,21.32,0,0,1-13,1.77c-5-1-10.51-3.8-16.39-10.1,0,0,0-.5.13-1.32a18.31,18.31,0,0,1,.78-3.22,16.19,16.19,0,0,1,5.31-7.9C203,169.5,214.14,168.88,232.74,184.89Zm-40.08.8c5.34,5.76,10.19,5.38,13.64,3.59a18.63,18.63,0,0,0,4.16-3.13,16.44,16.44,0,0,0,1.57-1.81c-9-6.75-14-6.39-16.56-4.31a7.55,7.55,0,0,0-2.38,3.6A8.93,8.93,0,0,0,192.66,185.69Z"/><path class="cls-2" d="M161.87,205.18c-7.15-5.11-10.65-10.52-11.73-16a20.09,20.09,0,0,1,.08-7.92,26.4,26.4,0,0,1,2.65-7.34,43.14,43.14,0,0,1,8.54-11c1.39-1.32,2.62-2.35,3.5-3.06s1.41-1.07,1.41-1.07c6.65,10.78,9.74,18.9,10.59,25a21.82,21.82,0,0,1-.11,8,15.9,15.9,0,0,1-2.48,5.62,19.2,19.2,0,0,1-7.85,6.16A22.86,22.86,0,0,1,161.87,205.18Zm1.72-22.83a18.2,18.2,0,0,0-2.09,1.88,21,21,0,0,0-3.51,5c-2,4.06-2.14,9.43,4.37,14.11a10.09,10.09,0,0,0,2.11-.73,9.35,9.35,0,0,0,3.59-2.89C170.08,196.87,170.24,191.68,163.59,182.35Z"/><path class="cls-2" d="M211.9,204.41s-.28.45-.8,1.2-1.3,1.77-2.31,2.93a37.63,37.63,0,0,1-8.48,7.38,25.43,25.43,0,0,1-6,2.67,21.13,21.13,0,0,1-7.17.75c-5.12-.33-11.13-2.57-17.81-8.27a20.91,20.91,0,0,1,.45-4.79,16.85,16.85,0,0,1,4.62-8.76,13.12,13.12,0,0,1,5.26-3.11,19,19,0,0,1,7.75-.72C193.6,194.35,201.58,197.39,211.9,204.41ZM171,210.22c6.12,5.26,10.89,4.14,14.31,1.95a16.6,16.6,0,0,0,3.91-3.75,19,19,0,0,0,1.43-2c-10-5.85-14.92-4.73-17.4-2.35a7.4,7.4,0,0,0-2,4A9.66,9.66,0,0,0,171,210.22Z"/><path class="cls-2" d="M141.59,234.16a34.35,34.35,0,0,1-9.19-7,20.85,20.85,0,0,1-4.51-7.81,22,22,0,0,1-.83-8.2,30.4,30.4,0,0,1,2-7.86,32.55,32.55,0,0,1,1.62-3.65c.61-1.16,1.26-2.27,1.93-3.32a58.16,58.16,0,0,1,4-5.52A53.15,53.15,0,0,1,141.2,186c7.92,10.2,11.86,18.09,13.48,24.36a22.3,22.3,0,0,1,.68,8.15,15.51,15.51,0,0,1-1.88,6.12,20.88,20.88,0,0,1-7.34,7.34,27.89,27.89,0,0,1-3.23,1.68C142.1,234,141.59,234.16,141.59,234.16Zm-.72-23.68a22,22,0,0,0-1.9,2.24,20.41,20.41,0,0,0-3.1,5.58c-1.51,4.51-1.18,10,6,13.93a10.26,10.26,0,0,0,5.45-4.45,7.36,7.36,0,0,0,.79-2.86,9.73,9.73,0,0,0-.43-3.71C146.86,218.39,144.81,214.88,140.87,210.48Z"/><path class="cls-2" d="M192.64,227a33.94,33.94,0,0,1-2.78,4.57,40,40,0,0,1-3.29,4.31c-.66.74-1.37,1.49-2.14,2.21s-1.54,1.46-2.4,2.14a23.83,23.83,0,0,1-5.84,3.48,20.75,20.75,0,0,1-7.17,1.73,25.39,25.39,0,0,1-8.78-1.13,38.94,38.94,0,0,1-10.35-5.07s-.09-.52-.15-1.41a22.39,22.39,0,0,1,.1-3.54,17.71,17.71,0,0,1,3.75-9.61,15,15,0,0,1,5-3.89,19.61,19.61,0,0,1,7.9-1.69C172.76,218.9,181.34,221.07,192.64,227Zm-41.2,11.15c6.8,4.59,11.69,2.91,14.83.15a19.15,19.15,0,0,0,3.62-4.32,17.24,17.24,0,0,0,1.21-2.29c-5.37-2.33-9.31-3.08-12.21-2.89a9.51,9.51,0,0,0-3.6.89,6.75,6.75,0,0,0-2.21,1.83A9.59,9.59,0,0,0,151.44,238.14Z"/><path class="cls-2" d="M124.29,266.71c-8.51-3.36-13.35-8-15.7-13.42a20.61,20.61,0,0,1-1.32-4.1,24.85,24.85,0,0,1-.44-4.21,31.18,31.18,0,0,1,1-8.39,49.78,49.78,0,0,1,2.84-7.65,48.26,48.26,0,0,1,3.5-6.19c1.13-1.75,2.17-3.16,2.91-4.13.37-.49.68-.86.91-1.11l.33-.38c9.19,9.45,14.23,17.11,16.47,23.27a23.3,23.3,0,0,1,1.67,8.33,16.39,16.39,0,0,1-.35,3.45,17.71,17.71,0,0,1-.89,3.07,22.11,22.11,0,0,1-6.62,8.55A24.57,24.57,0,0,1,124.29,266.71Zm-3.5-24.29s-.2.25-.52.68a17.72,17.72,0,0,0-1.18,1.87,23.6,23.6,0,0,0-2.48,6.18,11.33,11.33,0,0,0,.56,7.42c1.11,2.4,3.32,4.55,7.2,6.12a11.38,11.38,0,0,0,2-1.34,10,10,0,0,0,3-4C130.78,255.82,129.76,250.37,120.79,242.42Z"/><path class="cls-2" d="M175.41,252.54l-.57,1.43c-.37.91-.93,2.19-1.7,3.65a42,42,0,0,1-7,9.88,26.4,26.4,0,0,1-5.49,4.37,21.36,21.36,0,0,1-3.37,1.61,23.41,23.41,0,0,1-3.76,1.1c-5.33,1-12,.33-20.17-3.78a22.3,22.3,0,0,1-.65-5.1,18.64,18.64,0,0,1,2.7-10.38,14.26,14.26,0,0,1,2-2.5,16.06,16.06,0,0,1,2.72-2.16,20.35,20.35,0,0,1,7.8-2.82C154.35,246.89,163.2,247.92,175.41,252.54ZM134.8,269.48c3.72,1.91,6.78,2.24,9.24,1.71a11.35,11.35,0,0,0,5.84-3.56,18.54,18.54,0,0,0,3.15-4.95c.32-.73.57-1.36.74-1.79s.24-.71.24-.71c-11.53-3.41-16.37-.91-18.37,2.23a8.65,8.65,0,0,0-1.14,4.74A10.31,10.31,0,0,0,134.8,269.48Z"/><path class="cls-2" d="M110.68,302.63C101.63,300.36,96.12,296.2,93,291a23.19,23.19,0,0,1-2.78-8.32,32.61,32.61,0,0,1-.31-4.42,37.49,37.49,0,0,1,.37-4.38,45.54,45.54,0,0,1,1.94-8.3,67.11,67.11,0,0,1,2.8-6.87A44.1,44.1,0,0,1,97.57,254c.67-1.09,1.09-1.7,1.09-1.7,20.83,17,24,28.67,21.69,36.94A22.33,22.33,0,0,1,114.7,299,25.49,25.49,0,0,1,110.68,302.63Zm-6.55-24.55a26.55,26.55,0,0,0-1.43,2.86,22.66,22.66,0,0,0-1.75,6.72,12,12,0,0,0,1.46,7.56c1.43,2.32,4,4.24,8.09,5.31a11.32,11.32,0,0,0,1.84-1.67,11,11,0,0,0,2.57-4.52,9.18,9.18,0,0,0-1.27-7C112.09,284.65,109.21,281.57,104.13,278.08Z"/><path class="cls-2" d="M160.87,281s-.12.57-.41,1.55-.76,2.33-1.32,4a43.4,43.4,0,0,1-2.36,5.35,38.74,38.74,0,0,1-3.54,5.76,28.52,28.52,0,0,1-2.35,2.73,23.94,23.94,0,0,1-2.7,2.51,22.59,22.59,0,0,1-6.93,3.76c-5.24,1.81-12.09,2-20.89-1.08a23.58,23.58,0,0,1-1.33-5.16,20.72,20.72,0,0,1,1.44-11.08C124.18,281.62,134.87,274.77,160.87,281Zm-39.19,23c4,1.45,7.15,1.36,9.57.46a11.7,11.7,0,0,0,5.51-4.46,22.39,22.39,0,0,0,2.58-5.52,20.62,20.62,0,0,0,.71-2.7c-6-1-10.28-.64-13.17.36a8.51,8.51,0,0,0-5.21,4.47,8.78,8.78,0,0,0-.6,5A10.77,10.77,0,0,0,121.68,304Z"/><path class="cls-2" d="M101.54,341.59c-9.44-1-15.65-4.56-19.39-9.49s-5.13-11.21-5-17.3c0-1.53.09-3,.23-4.53s.42-2.92.68-4.31A71.87,71.87,0,0,1,80,298.45a63.48,63.48,0,0,1,2.88-7.06c11.7,7.3,18.57,13.84,22.54,19.68a26.47,26.47,0,0,1,3.77,8.21,18.31,18.31,0,0,1,.42,7.17,24,24,0,0,1-4.47,10.84A28.25,28.25,0,0,1,101.54,341.59ZM91.68,317.2a27.62,27.62,0,0,0-1.06,3.15,30.65,30.65,0,0,0-.72,3.3,22.38,22.38,0,0,0-.19,3.88,12.93,12.93,0,0,0,2.46,7.6c1.75,2.19,4.57,3.8,8.9,4.32a12.12,12.12,0,0,0,1.63-2,10.94,10.94,0,0,0,2-5,9.82,9.82,0,0,0-2.2-7C100.64,322.86,97.27,320.08,91.68,317.2Z"/><path class="cls-2" d="M149.58,312.27a39.45,39.45,0,0,1-1.08,5.9,45.34,45.34,0,0,1-1.66,5.83c-.37,1.05-.83,2.11-1.29,3.19a32.91,32.91,0,0,1-1.56,3.23c-2.45,4.26-5.75,8.35-10.94,10.95s-12,3.82-21.31,1.87a23.3,23.3,0,0,1-2-5.14,21.64,21.64,0,0,1,0-11.62,17.89,17.89,0,0,1,3.53-6.2,20.92,20.92,0,0,1,7.23-5.15C126.68,312.27,136.07,310.89,149.58,312.27Zm-36.73,29.17c4.27.92,7.41.38,9.75-.89a11.81,11.81,0,0,0,5-5.38,20,20,0,0,0,1.2-3.18,25.81,25.81,0,0,0,.71-2.86,20.76,20.76,0,0,0,.34-2.89c-6.24-.12-10.46.8-13.28,2.24a8.62,8.62,0,0,0-4.69,5.35,9.9,9.9,0,0,0,0,5.26A11.83,11.83,0,0,0,112.85,341.44Z"/><path class="cls-2" d="M97.65,383.1a34.48,34.48,0,0,1-12.43-1.69,21.56,21.56,0,0,1-8.5-5.31,25.17,25.17,0,0,1-5.14-7.9A35.16,35.16,0,0,1,69.24,359a47.17,47.17,0,0,1-.38-4.71c0-1.55,0-3.07.11-4.55a60.23,60.23,0,0,1,1-8A68.87,68.87,0,0,1,71.87,334a102.77,102.77,0,0,1,15.75,8.69,61,61,0,0,1,5.5,4.24,42.71,42.71,0,0,1,4.22,4.14,26.75,26.75,0,0,1,4.91,7.93,19.48,19.48,0,0,1,1.44,7.34,25.77,25.77,0,0,1-.91,6.51,28.52,28.52,0,0,1-2.11,5.31,39,39,0,0,1-2.08,3.62C98,382.62,97.65,383.1,97.65,383.1ZM84.28,359.35a28.94,28.94,0,0,0-.62,3.41,24.47,24.47,0,0,0,0,7.54,13.62,13.62,0,0,0,3.57,7.48c2,2,5.15,3.27,9.58,3.18a14.26,14.26,0,0,0,1.38-2.28,11.38,11.38,0,0,0,1.35-5.49C99.38,368.88,96.41,363.69,84.28,359.35Z"/><path class="cls-2" d="M142.19,346a41.51,41.51,0,0,1-.27,6.22c-.22,1.84-.41,4-.9,6.24-.24,1.13-.53,2.29-.88,3.47s-.69,2.37-1.14,3.56a31.77,31.77,0,0,1-3.66,6.92,23.77,23.77,0,0,1-5.87,5.94,27,27,0,0,1-8.81,4,39,39,0,0,1-12.47,1s-.37-.48-.9-1.34a23.28,23.28,0,0,1-1.88-3.66,26.45,26.45,0,0,1-1.54-5.44,18.62,18.62,0,0,1,2.65-13.46,22.51,22.51,0,0,1,6.63-6.35,33.2,33.2,0,0,1,5.06-2.66,46.85,46.85,0,0,1,6.48-2.15A83,83,0,0,1,142.19,346Zm-33.14,35.33c4.45.34,7.51-.68,9.74-2.32a12.28,12.28,0,0,0,4.29-6.27,26.72,26.72,0,0,0,1.11-6.5,23.27,23.27,0,0,0-.06-3c-12.63,1.53-16.61,6.25-17.12,10.41a10.73,10.73,0,0,0,.76,5.43A10.88,10.88,0,0,0,109.05,381.31Z"/><path class="cls-2" d="M99.73,426.48c-9.77,1.72-16.94-.12-22.23-4.16-5.14-4-8.23-10.22-10.06-16.62a61.68,61.68,0,0,1-1.52-9.52,58.3,58.3,0,0,1-.21-8.42,73.24,73.24,0,0,1,.87-8.24c27.51,8.41,35.35,19.19,36.78,28.78a23.14,23.14,0,0,1,0,6.85,43,43,0,0,1-1.35,5.78A29.54,29.54,0,0,1,99.73,426.48Zm-17-22.56a18.42,18.42,0,0,0-.15,3.61,30.57,30.57,0,0,0,1.21,7.78c1.59,5.57,5.92,10.61,14.84,9.08a13.57,13.57,0,0,0,1-2.55,13.94,13.94,0,0,0,.54-2.68,10.13,10.13,0,0,0-4.2-9.85C93.34,407.19,89.06,405.28,82.72,403.92Z"/><path class="cls-2" d="M139.34,381.76a44.7,44.7,0,0,1,.61,6.46c0,1.93.17,4.17,0,6.56a40.54,40.54,0,0,1-1.11,7.54,27.41,27.41,0,0,1-7.74,14.61c-4.28,4.21-10.82,7.51-20.7,8.25a26.79,26.79,0,0,1-3.57-4.75,22.25,22.25,0,0,1-2.35-5.38,23.09,23.09,0,0,1-1-6.76C103.69,398.64,111.42,386.75,139.34,381.76ZM111,423c9.08-.64,11.89-5.87,12.91-10.88a23.51,23.51,0,0,0,.13-6.86c-.26-1.86-.5-3.11-.5-3.11-6.36,1.71-10.2,3.91-12.58,6.24a9.83,9.83,0,0,0-3.19,7,10.16,10.16,0,0,0,.45,3.05,12.21,12.21,0,0,0,1.15,2.43A12.61,12.61,0,0,0,111,423Z"/><path class="cls-2" d="M108.48,470.9c-9.59,3.25-17.1,2.44-23.06-.94a24.73,24.73,0,0,1-7.54-6.71,44.15,44.15,0,0,1-5.27-8.94,66.93,66.93,0,0,1-3-9.63A57.27,57.27,0,0,1,68.15,436a77.31,77.31,0,0,1-.32-8.66c29,4.69,38.47,14.63,41.46,24.29,1.53,4.81,1.09,9.61.66,13.2A31.8,31.8,0,0,1,108.48,470.9ZM87.76,450.19s0,.38,0,1,.19,1.59.39,2.7a32.81,32.81,0,0,0,2.41,7.86A18.38,18.38,0,0,0,93,465.64a12.86,12.86,0,0,0,3.52,2.87c2.71,1.46,6.15,1.84,10.55.39a13.37,13.37,0,0,0,.67-2.79,14.4,14.4,0,0,0-.43-6.09C105.91,455.55,101.14,451.09,87.76,450.19Z"/><path class="cls-2" d="M141.64,419a47.12,47.12,0,0,1,1.55,6.54c.28,2,.75,4.25,1,6.73a43.21,43.21,0,0,1,0,7.89,30.9,30.9,0,0,1-1.45,8.22,28.75,28.75,0,0,1-4.06,7.92c-3.67,5-9.77,9.36-19.62,11.63a27.8,27.8,0,0,1-4.32-4.36,24.1,24.1,0,0,1-5.29-12,20.6,20.6,0,0,1-.17-3.87,17.69,17.69,0,0,1,.76-4.13,24.54,24.54,0,0,1,4.68-8.58,32.73,32.73,0,0,1,4.24-4.27,49.34,49.34,0,0,1,5.87-4.16A83.71,83.71,0,0,1,141.64,419Zm-22.35,46.56c4.53-1,7.32-3,9-5.36a11.29,11.29,0,0,0,1.7-3.77,16.32,16.32,0,0,0,.62-4,24.71,24.71,0,0,0-.92-7.07c-.25-.94-.51-1.72-.71-2.26s-.29-.86-.29-.86c-12.17,5.37-14.47,11.43-13.87,15.95a10.81,10.81,0,0,0,2.52,5.39A13.29,13.29,0,0,0,119.29,465.57Z"/><path class="cls-2" d="M124.6,515.23c-9.14,4.83-16.83,5.16-23.36,2.58a27.73,27.73,0,0,1-8.83-5.7,46.85,46.85,0,0,1-6.7-8.44A51.08,51.08,0,0,1,81,494.23c-1.24-3.13-2.2-6.13-2.94-8.73a82.74,82.74,0,0,1-1.66-8.9,106.33,106.33,0,0,1,19.13,1.79c1.33.26,2.58.55,3.79.86s2.4.63,3.51,1a44.76,44.76,0,0,1,6,2.33,28.69,28.69,0,0,1,8.43,5.89,23.28,23.28,0,0,1,5,6.83,24.93,24.93,0,0,1,1.36,3.58c.18.59.33,1.19.46,1.78s.3,1.16.41,1.73a33.3,33.3,0,0,1,.65,6.36A33.89,33.89,0,0,1,124.6,515.23Zm-24.31-18.12a34,34,0,0,0,1.06,3.79,34.51,34.51,0,0,0,3.65,7.74c3.7,5.18,9.46,9.14,17.84,4.75a15.07,15.07,0,0,0,.24-3,13.48,13.48,0,0,0-1.47-6.19,12.19,12.19,0,0,0-6.35-5.61C111.93,497.23,107.14,496.54,100.29,497.11Z"/><path class="cls-2" d="M149.61,456.85a49.75,49.75,0,0,1,2.55,6.48,54.5,54.5,0,0,1,2.1,6.73,73.53,73.53,0,0,1,1.36,8.06,33,33,0,0,1-.2,8.69,38.41,38.41,0,0,1-1,4.38,25.12,25.12,0,0,1-1.74,4.33c-2.94,5.69-8.39,11.16-17.95,15a28.29,28.29,0,0,1-5-3.83,31.4,31.4,0,0,1-4.19-4.79c-.34-.47-.68-1-1-1.48s-.57-1.07-.83-1.63a23.85,23.85,0,0,1-1.35-3.58,22,22,0,0,1-.79-8.29,25.84,25.84,0,0,1,3.39-9.56,35.68,35.68,0,0,1,3.6-5.05c.72-.85,1.51-1.7,2.36-2.55s1.82-1.73,2.84-2.6A83.9,83.9,0,0,1,149.61,456.85Zm-15,51.22c8.78-3.5,10-9.86,9.17-15.22a26.15,26.15,0,0,0-2-7.15,26.56,26.56,0,0,0-1.52-3c-5.68,3.69-8.88,7.18-10.49,10.33a10.21,10.21,0,0,0-.9,8.2,12.78,12.78,0,0,0,3.46,5.13A13.28,13.28,0,0,0,134.65,508.07Z"/><path class="cls-2" d="M148.72,558.05c-8.36,6.39-16.17,8-23.28,6.43A29.62,29.62,0,0,1,115.6,560a42.63,42.63,0,0,1-4.42-3.47,50,50,0,0,1-3.87-4.1,73.63,73.63,0,0,1-6.44-8.92c-1.74-3.05-3.18-6-4.33-8.58A62.61,62.61,0,0,1,94,528.56c-.51-1.58-.76-2.51-.76-2.51,3.8-.52,7.31-.86,10.56-1s6.32-.22,9.12-.11A54.34,54.34,0,0,1,127,527.12a34.83,34.83,0,0,1,9.63,4.67,24.71,24.71,0,0,1,6.05,6.29A31.72,31.72,0,0,1,148,551.39,34.47,34.47,0,0,1,148.72,558.05Zm-27.8-14.68a39.47,39.47,0,0,0,1.67,3.75q.42.82.93,1.74c.37.6.78,1.21,1.21,1.84a33,33,0,0,0,3,3.72c2.27,2.37,5,4.42,8.18,5s6.79-.09,10.65-3a15.84,15.84,0,0,0-.34-3.06,16.22,16.22,0,0,0-2.51-6.14,12.3,12.3,0,0,0-7.49-4.7C132.6,541.72,127.74,541.71,120.92,543.37Z"/><path class="cls-2" d="M163.81,494.38s.41.61,1.07,1.7,1.66,2.6,2.68,4.5a60.23,60.23,0,0,1,3.14,6.63,49.26,49.26,0,0,1,2.83,8,42.24,42.24,0,0,1,.86,4.4,30.36,30.36,0,0,1,.47,4.5,27.41,27.41,0,0,1-1.3,9.4c-1.91,6.25-6.37,12.66-15.38,18.15a30.8,30.8,0,0,1-5.87-3A29.38,29.38,0,0,1,142.85,538a23,23,0,0,1-2.1-8.44,23.88,23.88,0,0,1,1.68-10.28,42.48,42.48,0,0,1,7.19-11.85,66.79,66.79,0,0,1,6.08-6.37A102.73,102.73,0,0,1,163.81,494.38Zm-6.23,54.77c4.14-2.47,6.2-5.4,7-8.33a15.3,15.3,0,0,0-.37-8.73,24.24,24.24,0,0,0-1.61-3.8c-.3-.58-.61-1.14-.92-1.65s-.57-1-.85-1.47a27.49,27.49,0,0,0-2-2.91c-5.11,4.67-7.83,8.82-8.88,12.28a11.16,11.16,0,0,0,.6,8.48,12.4,12.4,0,0,0,4.33,4.75A14.55,14.55,0,0,0,157.58,549.15Z"/><path class="cls-2" d="M180.85,597.93a34.52,34.52,0,0,1-11.15,8.31,23.53,23.53,0,0,1-11.21,2,31.68,31.68,0,0,1-10.9-2.92,51.67,51.67,0,0,1-9.74-6.44,57.94,57.94,0,0,1-8.08-8.13c-1.18-1.4-2.28-2.79-3.3-4.13a47.11,47.11,0,0,1-2.72-3.88,92,92,0,0,1-4.88-8.57,110.43,110.43,0,0,1,19.7-4.31,69.43,69.43,0,0,1,7.88-.43,46.72,46.72,0,0,1,6.82.44,31.41,31.41,0,0,1,10.51,3.28,26.09,26.09,0,0,1,7.39,5.35,28.88,28.88,0,0,1,2.64,3.2c.78,1.1,1.55,2.16,2.18,3.25a37.16,37.16,0,0,1,3,6.27c.71,1.93,1.14,3.66,1.46,4.83S180.85,597.93,180.85,597.93ZM150,587.46a39.92,39.92,0,0,0,2.43,3.52c.78,1,1.72,2.16,2.8,3.32a25.44,25.44,0,0,0,3.69,3.35c5.56,4.08,12.72,6.24,19.46-.95a16.33,16.33,0,0,0-.84-3.13,15.39,15.39,0,0,0-3.71-5.83,12.19,12.19,0,0,0-3.52-2.33,13.84,13.84,0,0,0-4.87-1.28C161.61,583.81,156.59,584.66,150,587.46Z"/><path class="cls-2" d="M184.63,530.52a53.86,53.86,0,0,1,4.85,5.75c.65.91,1.42,1.85,2.17,2.88s1.53,2.13,2.28,3.31a83.75,83.75,0,0,1,4.24,7.73,37.22,37.22,0,0,1,2.91,8.89,27.86,27.86,0,0,1,.5,9.69,29.33,29.33,0,0,1-3.47,10.44,39.41,39.41,0,0,1-8.86,10.63s-.7-.12-1.87-.44a29.23,29.23,0,0,1-4.58-1.76,35.87,35.87,0,0,1-5.9-3.51,23.36,23.36,0,0,1-3-2.55,27.91,27.91,0,0,1-2.64-3.2,24.87,24.87,0,0,1-3.77-8.19,27.81,27.81,0,0,1-.07-10.83,37.31,37.31,0,0,1,1.77-6.29,48.86,48.86,0,0,1,3.38-7A84.41,84.41,0,0,1,184.63,530.52Zm3.53,56.91c7.45-6.42,6.42-13.31,3.61-18.48a41.28,41.28,0,0,0-2.27-3.65,29.87,29.87,0,0,0-2.34-2.91,27.59,27.59,0,0,0-2.61-2.6c-4.31,5.59-6.23,10.18-6.7,13.91a13.09,13.09,0,0,0,.26,5,10.74,10.74,0,0,0,1.86,3.63,14.3,14.3,0,0,0,5.28,4.11A14.9,14.9,0,0,0,188.16,587.43Z"/><path class="cls-2" d="M221,633.08c-5.93,9.26-13,13.42-20.73,14.2a29.69,29.69,0,0,1-5.81,0,29.3,29.3,0,0,1-2.94-.42c-.95-.2-1.91-.45-2.87-.73a55,55,0,0,1-11.18-4.85,81.17,81.17,0,0,1-9.73-7,68.37,68.37,0,0,1-7.58-7.22c-2.09-2.25-3.75-4.21-4.89-5.61a28.39,28.39,0,0,1-1.72-2.26,114.63,114.63,0,0,1,19.24-7.66,58.21,58.21,0,0,1,14.86-2.36A31.72,31.72,0,0,1,207.47,615a33.12,33.12,0,0,1,6.1,5.78,38.33,38.33,0,0,1,4.23,5.81,45,45,0,0,1,2.42,4.64C220.74,632.36,221,633.08,221,633.08Zm-33.36-5.43.21.24a7.13,7.13,0,0,0,.61.68c.54.56,1.33,1.34,2.32,2.23a41.7,41.7,0,0,0,7.88,5.69,17.85,17.85,0,0,0,10.17,2.22c3.43-.42,6.7-2.32,9.46-6.52a17.29,17.29,0,0,0-1.47-3,16.28,16.28,0,0,0-4.92-5.24,13.81,13.81,0,0,0-9.18-2.29C198.77,622,193.79,623.73,187.63,627.65Z"/><path class="cls-2" d="M212.17,564s.62.49,1.72,1.32,2.6,2.08,4.31,3.66,3.58,3.52,5.61,5.59a55.88,55.88,0,0,1,5.71,7.16,37.83,37.83,0,0,1,4.68,8.45c.3.77.58,1.55.82,2.36s.5,1.57.7,2.38a28.23,28.23,0,0,1,.79,5c.42,6.94-1.66,15-8.53,23.48a18.83,18.83,0,0,1-1.95-.17,35.9,35.9,0,0,1-5-1,37.24,37.24,0,0,1-6.7-2.51,29.63,29.63,0,0,1-6.76-4.93c-4.32-4-7.41-10.34-7.5-18.65a43,43,0,0,1,2.81-14.37A82.56,82.56,0,0,1,212.17,564Zm14.29,57.11c3.19-3.87,4.15-7.53,3.87-10.78a16.35,16.35,0,0,0-3.75-8.52,30.83,30.83,0,0,0-5.92-5.88c-.9-.69-1.69-1.23-2.26-1.6-.29-.18-.51-.33-.65-.43l-.23-.16c-3.36,6.43-4.4,11.37-4.16,15.22a12.09,12.09,0,0,0,3.74,8.4,16.32,16.32,0,0,0,9.36,3.75Z"/><path class="cls-2" d="M268.77,661.54c-4.19,10.4-10.61,15.89-18.3,18s-16.34.75-24.45-2.05a92,92,0,0,1-11.3-5.35,53.2,53.2,0,0,1-4.9-3c-1.51-1-2.93-2-4.22-3-2.57-1.92-4.67-3.59-6.08-4.84s-2.15-2-2.15-2c3.31-2.41,6.44-4.48,9.45-6.3a93.31,93.31,0,0,1,8.62-4.7,57.14,57.14,0,0,1,14.66-5,35.94,35.94,0,0,1,11.87-.47,30.21,30.21,0,0,1,5,1.15,29.39,29.39,0,0,1,4.48,1.67,33.23,33.23,0,0,1,7.34,4.75,42.73,42.73,0,0,1,5.46,5.11A40.41,40.41,0,0,1,268.77,661.54Zm-35.06.41a27.18,27.18,0,0,0,3.81,2.68,45.34,45.34,0,0,0,9.16,4.33,20,20,0,0,0,5.45,1,15.46,15.46,0,0,0,5.36-.58c3.41-1,6.37-3.55,8.34-8.29a18.44,18.44,0,0,0-2.1-2.76,17.27,17.27,0,0,0-6.05-4.4,14.26,14.26,0,0,0-9.8-.69C243.93,654.29,239.18,657,233.71,662Z"/><path class="cls-2" d="M246.37,593.29s.73.37,2,1.09,3,1.64,5.08,2.93c1,.64,2.11,1.36,3.23,2.16s2.28,1.68,3.51,2.53a55.11,55.11,0,0,1,7.19,6.21A37.67,37.67,0,0,1,278,625.34c1.8,6.92,1.29,15.37-4,25.22a34.71,34.71,0,0,1-7.3.07,38.75,38.75,0,0,1-7.33-1.33,33,33,0,0,1-7.85-3.79,28.22,28.22,0,0,1-3.72-2.94,27.26,27.26,0,0,1-3.21-3.94A28.9,28.9,0,0,1,240.22,628a45.14,45.14,0,0,1,.09-15,69.35,69.35,0,0,1,2.15-9.18A101.17,101.17,0,0,1,246.37,593.29ZM272,648.49c2.47-4.49,2.72-8.35,1.79-11.57a13.91,13.91,0,0,0-2.19-4.37,26.4,26.4,0,0,0-3.29-3.56,32.84,32.84,0,0,0-7.18-4.86c-2.13-1-3.6-1.69-3.6-1.69-2.2,7.15-2.27,12.29-1.27,16.14a12.89,12.89,0,0,0,5.46,7.82A17.21,17.21,0,0,0,272,648.49Z"/><path class="cls-2" d="M323.26,681.23a34,34,0,0,1-5.5,13.7,25,25,0,0,1-9.46,7.93,31.21,31.21,0,0,1-5.85,2.16c-1,.27-2.07.51-3.12.68s-2.12.27-3.2.34a61,61,0,0,1-13.24-.64,99,99,0,0,1-12.64-3.31c-1-.34-2-.65-2.9-1l-2.72-1.14c-1.75-.77-3.4-1.53-4.91-2.26-3-1.48-5.51-2.76-7.19-3.8s-2.61-1.68-2.61-1.68c2.89-3,5.69-5.69,8.38-8a96.91,96.91,0,0,1,7.85-6.31,59,59,0,0,1,14-7.65,37.13,37.13,0,0,1,12-2.66,36.65,36.65,0,0,1,5.29.22,31.49,31.49,0,0,1,4.9.85,37.83,37.83,0,0,1,8.46,3.38,44.21,44.21,0,0,1,6.62,4.1,51.11,51.11,0,0,1,4.32,3.63l1.16,1.12Zm-35.69,7.07s.42.24,1.19.62,1.89.83,3.24,1.35a47.65,47.65,0,0,0,10.24,2.65,19.72,19.72,0,0,0,11.13-1.61c3.27-1.69,5.77-4.76,6.8-9.89a19,19,0,0,0-2.71-2.39,18.11,18.11,0,0,0-7.06-3.28,17,17,0,0,0-4.73-.34,16.18,16.18,0,0,0-5.42,1.5,25.77,25.77,0,0,0-6.06,4.08A50,50,0,0,0,287.57,688.3Z"/><path class="cls-2" d="M286.69,616.83s.82.24,2.2.74,3.42,1.1,5.74,2c1.16.46,2.41,1,3.7,1.57.65.3,1.32.61,2,1l2.08,1a56.4,56.4,0,0,1,8.53,4.91,42,42,0,0,1,8.05,6.51c.61.64,1.2,1.31,1.77,2s1.13,1.34,1.65,2a29.45,29.45,0,0,1,5.83,16.06,39.79,39.79,0,0,1-1.93,14.61l-.53.19c-.35.12-.86.27-1.5.42a40.15,40.15,0,0,1-5.4.89,42.06,42.06,0,0,1-7.73,0,32.7,32.7,0,0,1-8.78-2.32,30,30,0,0,1-4.39-2.27,25.27,25.27,0,0,1-4.08-3.35,30.26,30.26,0,0,1-6.56-9.91,45.75,45.75,0,0,1-2.91-15.16,68.56,68.56,0,0,1,.36-9.63A102.36,102.36,0,0,1,286.69,616.83Zm37.13,50.73c1.6-5,1.07-8.9-.54-12a17.92,17.92,0,0,0-7.2-6.91,34.36,34.36,0,0,0-8.28-3.54c-1.18-.35-2.19-.57-2.9-.74l-1.11-.27a40.82,40.82,0,0,0,0,9.68,21.88,21.88,0,0,0,2,6.77A14.53,14.53,0,0,0,309,665a11.55,11.55,0,0,0,3.92,2.42,17.14,17.14,0,0,0,7.51.83A16.35,16.35,0,0,0,323.82,667.56Z"/><path class="cls-2" d="M260.64,130.37s-.92,2.15-2.58,5.11c-.83,1.48-1.85,3.16-3,4.88a46.7,46.7,0,0,1-4,5.28,33.83,33.83,0,0,1-2.36,2.43,28.5,28.5,0,0,1-2.57,2.23,19.82,19.82,0,0,1-6,3.15,16.78,16.78,0,0,1-7.1.82,21.51,21.51,0,0,1-4.09-.8,28.42,28.42,0,0,1-4.42-1.68,20.7,20.7,0,0,1-.19-4.5,20.93,20.93,0,0,1,2.89-9.45,17,17,0,0,1,1.78-2.46,19.5,19.5,0,0,1,2.38-2.21,21.21,21.21,0,0,1,6.69-3.5,33.21,33.21,0,0,1,9.66-1.3A55,55,0,0,1,260.64,130.37ZM225.8,150.46a9.19,9.19,0,0,0,7.22.72,11.78,11.78,0,0,0,5-3.82A26.4,26.4,0,0,0,242,140.1c-4.49-.87-7.84-.63-10.27.18a8.91,8.91,0,0,0-4.77,3.83,9.64,9.64,0,0,0-1.28,4.29A9.05,9.05,0,0,0,225.8,150.46Z"/><path d="M380.13,682.06l-.17,3a317.71,317.71,0,0,1-45-6.12l-11.09-2.56c-3.66-1-7.3-2-10.95-3.07l-2.73-.77c-.91-.28-1.8-.6-2.7-.89l-5.4-1.81L296.67,668l-5.3-2-5.3-2.06-2.65-1-2.6-1.16c-3.46-1.55-6.94-3.05-10.38-4.64L260.27,652c-1.71-.82-3.34-1.79-5-2.71l-5-2.78a291.29,291.29,0,0,1-70.8-56.57l-3.82-4.22c-1.27-1.4-2.56-2.79-3.74-4.28l-7.23-8.77-6.83-9.1c-.57-.76-1.15-1.51-1.7-2.28l-1.6-2.35-3.19-4.71A300.63,300.63,0,0,1,129,514.64a309,309,0,0,1-15.93-42.56l-3-11L107.64,450l-.61-2.78-.48-2.8-1-5.6-1-5.61-.69-5.64-.7-5.65-.34-2.82-.21-2.84-.84-11.34c-.19-7.58-.51-15.16-.25-22.74A293.21,293.21,0,0,1,106.2,337a296.42,296.42,0,0,1,11.53-44,292.28,292.28,0,0,1,18.13-41.68A301.29,301.29,0,0,1,160.22,213l1.69-2.29,1.76-2.23L167.2,204c2.36-3,4.87-5.81,7.3-8.72s5.05-5.65,7.67-8.4l4-4.09,2-2,2-2a302.72,302.72,0,0,1,34.77-29.27l1.75,2.44a300.32,300.32,0,0,0-34.42,29l-2,2-2,2-3.91,4c-2.59,2.72-5.06,5.54-7.59,8.32s-4.89,5.69-7.23,8.62L166,210.28l-1.74,2.21-1.67,2.27a298.15,298.15,0,0,0-24.12,38A289,289,0,0,0,120.57,294a289.83,289.83,0,0,0-16,88.27c-.26,7.5.06,15,.25,22.51l.82,11.23.21,2.81.35,2.79.68,5.59.69,5.59,1,5.54,1,5.55.48,2.77.6,2.75,2.45,11,3,10.86c16.47,57.81,51.75,109.84,98.59,147.38a305.56,305.56,0,0,0,37.23,25.25l4.91,2.76c1.64.91,3.25,1.88,4.94,2.68l10.07,5.05c3.4,1.57,6.85,3.06,10.27,4.6l2.58,1.14,2.62,1,5.24,2,5.25,2L303,667l5.33,1.79c.9.29,1.78.61,2.68.88l2.71.76c3.61,1,7.21,2.06,10.84,3l11,2.54A314.27,314.27,0,0,0,380.13,682.06Z"/><path class="cls-1" d="M420.69,640.76l6,85.46A348.66,348.66,0,0,0,480.5,718a323.34,323.34,0,0,0,51.86-16.76,342.71,342.71,0,0,0,48.41-25l5.75-3.66c1.92-1.22,3.85-2.42,5.68-3.76,3.72-2.61,7.45-5.19,11.13-7.86l10.78-8.33c3.53-2.85,6.95-5.84,10.41-8.77a343.4,343.4,0,0,0,38-39,329.26,329.26,0,0,0,31.28-44.55,343.53,343.53,0,0,0,23.67-49.07l2.4-6.38c.8-2.13,1.6-4.25,2.27-6.43,1.4-4.32,2.82-8.64,4.17-13l3.57-13.16c.64-2.19,1-4.43,1.56-6.64l1.47-6.66a350,350,0,0,0,6.81-54l.33-13.6c.05-4.53-.11-9.06-.17-13.59-.25-4.53-.42-9.07-.77-13.59l-.6-6.78-.3-3.39-.41-3.39a343.06,343.06,0,0,0-10.61-53.44,338.74,338.74,0,0,0-19.18-51,338.23,338.23,0,0,0-61.46-89.43,338,338,0,0,0-40.64-36.19,347,347,0,0,0-45.94-29.22l-40,75.78A260.9,260.9,0,0,1,554.25,189a252.11,252.11,0,0,1,30.37,27,247,247,0,0,1,25.64,31.54,244.51,244.51,0,0,1,20.24,35.21,253.47,253.47,0,0,1,14.28,38,256.54,256.54,0,0,1,7.89,39.81l.31,2.52.22,2.54.45,5.07c.26,3.38.38,6.78.58,10.16,0,3.4.17,6.8.13,10.2l-.25,10.19A264.93,264.93,0,0,1,649,441.53l-1.1,5c-.39,1.65-.65,3.33-1.15,4.95l-2.65,9.8L641,470.89c-.48,1.62-1.09,3.2-1.7,4.78l-1.78,4.75A257.25,257.25,0,0,1,619.9,517a242.11,242.11,0,0,1-23.36,33.25,258.29,258.29,0,0,1-28.36,29.12c-2.61,2.18-5.14,4.43-7.78,6.56l-8,6.23L544,598c-1.36,1-2.81,1.89-4.24,2.8l-4.29,2.72a256.86,256.86,0,0,1-36.08,18.61,237.66,237.66,0,0,1-38.6,12.46A263.34,263.34,0,0,1,420.69,640.76Z"/><path class="cls-2" d="M585.48,164.84c-5.05,6.74-10.16,10.18-14.82,11.67a19.87,19.87,0,0,1-6.68.89,21,21,0,0,1-6-1.1,27.18,27.18,0,0,1-2.65-1.08,26.59,26.59,0,0,1-2.45-1.21,31.88,31.88,0,0,1-4-2.66c-1.1-.89-2-1.61-2.65-2.18s-1-.91-1-.91A83.32,83.32,0,0,1,556.54,158a36.46,36.46,0,0,1,9.18-5,17.92,17.92,0,0,1,7.26-1.12,12.56,12.56,0,0,1,5.35,1.72,14.54,14.54,0,0,1,5.83,7A18.55,18.55,0,0,1,585.48,164.84Zm-20.36.52a15.79,15.79,0,0,0,6,4.09c3.45,1.35,8.12,1.19,12.73-5a8.23,8.23,0,0,0-3.2-5.17C578,157.6,573.11,157.85,565.12,165.36Z"/><path class="cls-2" d="M578.82,116.2s.55.22,1.49.66a34.58,34.58,0,0,1,3.73,2,51.41,51.41,0,0,1,4.87,3.44c.84.69,1.69,1.42,2.52,2.21a32.86,32.86,0,0,1,2.36,2.61,26.06,26.06,0,0,1,3.75,6.1A18.85,18.85,0,0,1,599,140.5c0,5.19-2.17,10.93-7.78,17.24a21.4,21.4,0,0,1-4.53-.38,17.35,17.35,0,0,1-8.31-3.87,13.16,13.16,0,0,1-3.26-4.64,20.5,20.5,0,0,1-1.57-7.25,43.82,43.82,0,0,1,1-10.68A98.57,98.57,0,0,1,578.82,116.2Zm11.64,40c5.11-5.79,3.94-10.58,1.43-13.95a19.79,19.79,0,0,0-6.38-5c-4.48,10.16-3.26,14.72-.94,17A8.67,8.67,0,0,0,590.46,156.2Z"/><path class="cls-2" d="M608.7,186c-5.87,6.29-11.41,9.15-16.37,10.14a19.15,19.15,0,0,1-6.94.12,23.34,23.34,0,0,1-6-1.83,35.07,35.07,0,0,1-8.86-6.12c-1.06-1-1.9-1.92-2.5-2.55s-.9-1-.9-1c18.57-16.05,29.64-15.47,35.4-11.11a13,13,0,0,1,3.42,3.81,18.92,18.92,0,0,1,1.88,4.06A17.3,17.3,0,0,1,608.7,186Zm-21-1.91a15.09,15.09,0,0,0,1.56,1.8,17.94,17.94,0,0,0,4.15,3.11c3.43,1.78,8.26,2.15,13.61-3.63a8.59,8.59,0,0,0-2.8-5.64C601.74,177.68,596.72,177.36,587.75,184.11Z"/><path class="cls-2" d="M606.62,135.44s.55.29,1.48.85a34.49,34.49,0,0,1,3.64,2.52,40.17,40.17,0,0,1,9.23,9.6,25.38,25.38,0,0,1,3.26,6.7,19.8,19.8,0,0,1,.81,7.62c-.45,5.28-3.33,10.94-9.71,16.72a25.55,25.55,0,0,1-4.6-.95,20.27,20.27,0,0,1-4.15-1.76,17.64,17.64,0,0,1-4-3.2C597.75,168.12,595.93,157.69,606.62,135.44Zm8.08,42.31c5.83-5.31,5.08-10.33,2.82-14.06a16.87,16.87,0,0,0-3.89-4.36,19.17,19.17,0,0,0-2.17-1.58c-5.57,9.84-4.78,14.66-2.63,17.25A9.15,9.15,0,0,0,614.7,177.75Z"/><path class="cls-2" d="M630.29,210.61c-6.66,5.71-12.66,8-17.76,8.31a20.77,20.77,0,0,1-7.16-.7,25.72,25.72,0,0,1-6-2.65,28.35,28.35,0,0,1-4.82-3.62,46.16,46.16,0,0,1-3.64-3.7,36.26,36.26,0,0,1-2.29-2.92l-.81-1.18c10.32-7.07,18.27-10.11,24.41-10.8s10.26,1.16,13,3.76a17.09,17.09,0,0,1,4.61,8.72A20.69,20.69,0,0,1,630.29,210.61ZM609.07,206a20.81,20.81,0,0,0,5.33,5.74c3.4,2.18,8.19,3.26,14.28-2a9.93,9.93,0,0,0-.19-2.18,7.4,7.4,0,0,0-2-4C624,201.23,619,200.16,609.07,206Z"/><path class="cls-2" d="M633.36,158.47s.55.35,1.42,1.05,2.09,1.73,3.48,3a45.18,45.18,0,0,1,4.41,4.74,43.07,43.07,0,0,1,4.11,6.23,26.06,26.06,0,0,1,2.63,7.31,20.32,20.32,0,0,1,.09,7.89c-1.09,5.42-4.59,10.84-11.72,16a22.51,22.51,0,0,1-4.59-1.57,18.68,18.68,0,0,1-7.83-6.1c-2.2-3.08-3.53-7.33-2.59-13.54S626.74,169.23,633.36,158.47Zm3.93,44.42c6.52-4.71,6.38-10,4.37-14.09a20.58,20.58,0,0,0-3.5-5,21.25,21.25,0,0,0-2.09-1.87c-6.65,9.35-6.47,14.5-4.47,17.37a9.18,9.18,0,0,0,3.59,2.86A10.2,10.2,0,0,0,637.29,202.89Z"/><path class="cls-2" d="M649.74,238.58c-7.42,5-13.81,6.54-19.1,6.27a21.07,21.07,0,0,1-7.17-1.68,23.62,23.62,0,0,1-5.82-3.45,40,40,0,0,1-4.54-4.31,43.57,43.57,0,0,1-3.28-4.28,34.34,34.34,0,0,1-2.77-4.55c11.26-5.94,19.85-8.16,26.09-8a20.28,20.28,0,0,1,7.9,1.65,14.59,14.59,0,0,1,5,3.87,17.33,17.33,0,0,1,3.75,9.55,22.39,22.39,0,0,1,.1,3.54A11.05,11.05,0,0,1,649.74,238.58Zm-21.17-7.43a17.38,17.38,0,0,0,1.2,2.28,18.14,18.14,0,0,0,3.62,4.29c3.13,2.74,8,4.4,14.79-.2a9.52,9.52,0,0,0-1.62-6.61c-1.07-1.42-2.93-2.51-5.81-2.68S633.92,228.81,628.57,231.15Z"/><path class="cls-2" d="M658.42,185.45A48.31,48.31,0,0,1,667,195.73a37.2,37.2,0,0,1,3.55,6.92,30.73,30.73,0,0,1,1.94,7.84,21.29,21.29,0,0,1-.82,8.17c-1.66,5.4-5.81,10.5-13.67,14.83,0,0-.5-.18-1.33-.53a26.21,26.21,0,0,1-3.22-1.65,20.77,20.77,0,0,1-7.33-7.29,15.52,15.52,0,0,1-1.88-6.09,22.22,22.22,0,0,1,.68-8.13C646.58,203.53,650.49,195.68,658.42,185.45Zm-.69,46.13c7.17-4,7.51-9.43,6-13.93a21.43,21.43,0,0,0-3.1-5.54,22.35,22.35,0,0,0-1.89-2.22c-3.94,4.4-6,7.92-6.82,10.72a8.53,8.53,0,0,0,.37,6.55A10.2,10.2,0,0,0,657.73,231.58Z"/><path class="cls-2" d="M666.3,270c-8.15,4.14-14.82,4.86-20.13,3.85a23,23,0,0,1-7.14-2.65,28,28,0,0,1-5.49-4.33,32,32,0,0,1-4.11-5,47.42,47.42,0,0,1-2.9-4.78c-.77-1.46-1.32-2.72-1.69-3.63s-.59-1.42-.59-1.42c12.23-4.68,21-5.72,27.51-4.81a19.78,19.78,0,0,1,7.8,2.77,14.47,14.47,0,0,1,4.69,4.61,18.59,18.59,0,0,1,2.7,10.33A22.27,22.27,0,0,1,666.3,270Zm-20.67-10.48a20,20,0,0,0,1,2.48,18.36,18.36,0,0,0,3.14,4.92,12,12,0,0,0,2.57,2.15,10,10,0,0,0,3.27,1.36c2.46.52,5.51.18,9.23-1.74a10.28,10.28,0,0,0,.3-2.32,8.28,8.28,0,0,0-1.15-4.71C662,258.49,657.17,256,645.63,259.48Z"/><path class="cls-2" d="M681.21,216.42s.48.52,1.25,1.47,1.78,2.36,2.91,4.11a52.84,52.84,0,0,1,3.5,6.14,48.89,48.89,0,0,1,2.83,7.61,29.73,29.73,0,0,1,1,8.36,21.1,21.1,0,0,1-1.74,8.28c-2.35,5.36-7.18,10.06-15.68,13.45A24.77,24.77,0,0,1,671,263a21.73,21.73,0,0,1-6.62-8.48,18,18,0,0,1-1.26-6.49,24,24,0,0,1,1.67-8.31C667,233.54,672.07,225.85,681.21,216.42Zm-6,47.4c3.88-1.58,6.09-3.74,7.19-6.13a10.21,10.21,0,0,0,.91-3.71,14.2,14.2,0,0,0-.37-3.68,23.37,23.37,0,0,0-2.46-6.15,20.86,20.86,0,0,0-1.72-2.52c-8.93,8-10,13.39-8.54,16.9a10.27,10.27,0,0,0,3,4A10.93,10.93,0,0,0,675.25,263.82Z"/><path class="cls-2" d="M679.33,304.52c-8.8,3.13-15.6,2.93-20.89,1.18a24.9,24.9,0,0,1-12-8.9,43.8,43.8,0,0,1-5.9-11c-.58-1.61-1.07-2.95-1.34-3.93s-.42-1.54-.42-1.54a83.61,83.61,0,0,1,16.76-2.51,38.5,38.5,0,0,1,11.78,1.27c6.47,1.83,9.93,5.48,11.83,9.3a20.43,20.43,0,0,1,1.49,11A23.58,23.58,0,0,1,679.33,304.52Zm-19.7-13.63a19.17,19.17,0,0,0,.7,2.69,25.85,25.85,0,0,0,1,2.63,17.14,17.14,0,0,0,1.57,2.85,11.23,11.23,0,0,0,5.53,4.41c2.41.88,5.54.95,9.56-.51a11.51,11.51,0,0,0,.61-2.35,9.26,9.26,0,0,0-.63-5,8.34,8.34,0,0,0-5.22-4.43C669.87,290.21,665.66,289.92,659.63,290.89Z"/><path class="cls-2" d="M700.92,251.39s.42.61,1.09,1.7a48.3,48.3,0,0,1,2.54,4.61,51.38,51.38,0,0,1,4.76,15.08c.87,5.75.24,11.92-2.7,17.07S698,299.23,689,301.53a26.23,26.23,0,0,1-4-3.58,22.13,22.13,0,0,1-5.69-9.65c-1.18-4.09-.85-9.14,2.16-15.17a48.33,48.33,0,0,1,7-10A102.63,102.63,0,0,1,700.92,251.39Zm-11.73,48.05c4.13-1.09,6.65-3,8.08-5.33a12.2,12.2,0,0,0,1.43-7.53,22.72,22.72,0,0,0-.67-3.65,24.78,24.78,0,0,0-1.11-3,25.09,25.09,0,0,0-1.42-2.84c-5.06,3.49-8,6.59-9.48,9.29a9.22,9.22,0,0,0-1.26,6.95,10.29,10.29,0,0,0,2.59,4.49A11.71,11.71,0,0,0,689.19,299.44Z"/><path class="cls-2" d="M688.08,342a39.43,39.43,0,0,1-12.23.82,27.05,27.05,0,0,1-4.88-1,24.19,24.19,0,0,1-4.22-1.62,22.76,22.76,0,0,1-6.48-4.81,28.68,28.68,0,0,1-4.47-6c-.6-1.06-1.09-2.14-1.58-3.21s-.93-2.12-1.31-3.16a58.52,58.52,0,0,1-1.68-5.8,39.64,39.64,0,0,1-1.07-5.87,83,83,0,0,1,17.26-.25,47.58,47.58,0,0,1,6.57,1.13,33.86,33.86,0,0,1,5.25,1.82,22,22,0,0,1,7.26,5.08,17.71,17.71,0,0,1,3.51,6.17,17.45,17.45,0,0,1,.73,3.15,22.65,22.65,0,0,1,.11,3.06,25.11,25.11,0,0,1-.77,5.35,20.85,20.85,0,0,1-1.31,3.73C688.37,341.46,688.08,342,688.08,342Zm-18.16-16.83a20.51,20.51,0,0,0,.34,2.87,24.16,24.16,0,0,0,1.94,6c2.08,4.18,6.3,8,14.77,6.15a9.13,9.13,0,0,0,.91-2.33,9.93,9.93,0,0,0,0-5.24C686.86,328.73,682.35,324.83,669.92,325.14Z"/><path class="cls-2" d="M716.8,290.2a63.82,63.82,0,0,1,2.87,7,57.92,57.92,0,0,1,2,7.46c.27,1.38.51,2.82.7,4.29a44.41,44.41,0,0,1,.25,4.5,34.49,34.49,0,0,1-1,9.06,24.44,24.44,0,0,1-3.94,8.19,20.8,20.8,0,0,1-3.24,3.41,23.26,23.26,0,0,1-4.28,2.8,34.59,34.59,0,0,1-11.82,3.34s-.44-.4-1.1-1.14-1.54-1.8-2.52-3.12a26.29,26.29,0,0,1-2.74-4.73,21.33,21.33,0,0,1-1-2.88,22.25,22.25,0,0,1-.71-3.15,18.21,18.21,0,0,1,.43-7.15,25,25,0,0,1,3.73-8.19,41,41,0,0,1,3.55-4.52,61.46,61.46,0,0,1,4.78-4.77A103.31,103.31,0,0,1,716.8,290.2Zm-18,47.93c8.7-1.05,11.11-6.57,11.31-11.92a23.57,23.57,0,0,0-.95-7.14,27.82,27.82,0,0,0-1.06-3.14c-11.2,5.81-13.37,11.13-13,15.24a10.67,10.67,0,0,0,2,5A14.84,14.84,0,0,0,698.75,338.13Z"/><path class="cls-2" d="M691.81,381.84c-9.71.71-16.43-1.49-21.33-4.86a23.39,23.39,0,0,1-5.86-5.89,28.28,28.28,0,0,1-3.7-6.86,49.18,49.18,0,0,1-2.06-7c-.47-2.25-.71-4.38-.94-6.21a42.94,42.94,0,0,1-.27-6.2c27.69.82,37,11,38.42,20.07a24.3,24.3,0,0,1-3.36,15.59A15,15,0,0,1,691.81,381.84Zm-16-20a23.06,23.06,0,0,0-.06,3,24.38,24.38,0,0,0,1.15,6.46c1.5,4.61,5.25,9.15,14.08,8.48a10.89,10.89,0,0,0,1.22-2.28,10.63,10.63,0,0,0,.77-5.41,8.16,8.16,0,0,0-1.12-3.14,11.06,11.06,0,0,0-2.94-3C686.23,364.14,682.1,362.61,675.78,361.88Z"/><path class="cls-2" d="M727.92,332.53a67.91,67.91,0,0,1,1.94,7.67,52.11,52.11,0,0,1,1,8,47,47,0,0,1-.22,9.22,39,39,0,0,1-2.28,9.2,25.53,25.53,0,0,1-5.14,7.89c-4.39,4.55-11.17,7.3-20.87,7.07,0,0-.38-.48-1-1.33s-1.34-2.08-2.12-3.59a26.43,26.43,0,0,1-3.07-11.74C696.36,355.61,702.31,344.35,727.92,332.53Zm-24.78,46.89c8.93.17,12.12-5.18,13.09-10.67a26.15,26.15,0,0,0,0-7.51,29.59,29.59,0,0,0-.63-3.39c-6.06,2.19-9.84,4.59-12.12,7a11.38,11.38,0,0,0-2.36,3.54,9.11,9.11,0,0,0-.77,3.36,11.33,11.33,0,0,0,1.34,5.45A13.91,13.91,0,0,0,703.14,379.42Z"/><path class="cls-2" d="M689.82,423.5c-9.9-.69-16.4-3.93-20.75-8.1a25.07,25.07,0,0,1-5.19-6.91,29,29,0,0,1-1.57-3.76c-.21-.63-.4-1.27-.57-1.91s-.37-1.28-.53-1.92a39.33,39.33,0,0,1-1.11-7.5c-.06-1.19-.08-2.34-.06-3.44s0-2.13,0-3.09a44.34,44.34,0,0,1,.61-6.43A82.73,82.73,0,0,1,678,385.22a39.15,39.15,0,0,1,11,6.53,23.57,23.57,0,0,1,5.77,7.44,17.4,17.4,0,0,1,1.82,7.47,24.67,24.67,0,0,1-3.25,12.1A26.63,26.63,0,0,1,689.82,423.5Zm-13.28-22.88s-.07.31-.16.85-.16,1.32-.26,2.25a22.57,22.57,0,0,0,.13,6.82,13.08,13.08,0,0,0,3.51,7c2,2,5,3.46,9.48,3.74a12.51,12.51,0,0,0,1.63-2.16,10.39,10.39,0,0,0,1.52-5.47,9.64,9.64,0,0,0-3.19-6.91,18.89,18.89,0,0,0-4.82-3.32A41.36,41.36,0,0,0,676.54,400.62Z"/><path class="cls-2" d="M733.4,377.84a70.37,70.37,0,0,1,.88,8.19c.07,1.23.12,2.56.12,4s-.12,2.88-.25,4.41a61.39,61.39,0,0,1-1.52,9.48c-.2.8-.4,1.6-.65,2.38s-.57,1.57-.88,2.34a36.62,36.62,0,0,1-2.17,4.45,25.81,25.81,0,0,1-6.23,7.42c-5.21,4.06-12.43,5.92-22.19,4.26a29.44,29.44,0,0,1-2.31-5.51,26.14,26.14,0,0,1-1.42-12.56,23.47,23.47,0,0,1,2.41-7.34,26.94,26.94,0,0,1,6.12-7.47,53.92,53.92,0,0,1,11-7.27A106.31,106.31,0,0,1,733.4,377.84Zm-31.79,44.81c4.48.72,7.77-.14,10.18-1.91a13.88,13.88,0,0,0,4.59-7.2,29.82,29.82,0,0,0,1.19-7.75,22.57,22.57,0,0,0-.11-2.6c-.05-.63-.11-1-.11-1a44,44,0,0,0-8,2.44,22.72,22.72,0,0,0-5.24,3A10.48,10.48,0,0,0,700,414.3a14.94,14.94,0,0,0,1.66,8.35Z"/><path class="cls-2" d="M681.48,466.1c-9.87-2.2-16-6.54-19.68-11.46a27.13,27.13,0,0,1-4.15-7.87,34.63,34.63,0,0,1-1.52-8.18,41.88,41.88,0,0,1,0-7.84c.11-1.23.28-2.42.45-3.54s.28-2.19.44-3.17a47.85,47.85,0,0,1,1.54-6.51A83.69,83.69,0,0,1,675.4,425a47.51,47.51,0,0,1,5.88,4.11c.86.69,1.65,1.4,2.38,2.11s1.35,1.41,1.94,2.12a24.2,24.2,0,0,1,4.7,8.51,20.78,20.78,0,0,1,.81,4.1,17.72,17.72,0,0,1-.13,3.87,24.12,24.12,0,0,1-2,6.79,22.88,22.88,0,0,1-3.18,5.17A28.21,28.21,0,0,1,681.48,466.1Zm-9.84-25.52s-.11.31-.28.86-.38,1.33-.64,2.26a24.26,24.26,0,0,0-.9,7c.29,5.28,2.32,11,11.41,13a13.29,13.29,0,0,0,2-2,13.92,13.92,0,0,0,1.53-2.32,10.62,10.62,0,0,0,.91-3.06,10.21,10.21,0,0,0-2.18-7.61,19.55,19.55,0,0,0-4.35-4.12A40.72,40.72,0,0,0,671.64,440.58Z"/><path class="cls-2" d="M732.42,425.42a76,76,0,0,1-.3,8.62c-.11,1.28-.26,2.66-.45,4.12s-.56,3-.92,4.53a66.38,66.38,0,0,1-3,9.6,39.56,39.56,0,0,1-5.18,8.93,25.86,25.86,0,0,1-7.46,6.72c-5.95,3.39-13.46,4.24-23.07,1.05a31,31,0,0,1-1.49-6,45.45,45.45,0,0,1-.49-6.12,24.14,24.14,0,0,1,1-7,27.21,27.21,0,0,1,1.45-3.61,21.1,21.1,0,0,1,2.13-3.6,28,28,0,0,1,7.31-6.79c.8-.54,1.66-1.06,2.57-1.58s1.82-1,2.82-1.52a59.24,59.24,0,0,1,6.72-2.81A106.06,106.06,0,0,1,732.42,425.42ZM693.5,467c8.77,2.87,13.92-1.67,16.37-7.17a32.3,32.3,0,0,0,2.38-7.83,20.62,20.62,0,0,0,.32-2.69c0-.66,0-1,0-1a45.76,45.76,0,0,0-8.44,1.33,22.75,22.75,0,0,0-5.76,2.31,11,11,0,0,0-5.24,6.24,11.89,11.89,0,0,0-.49,3.26,14,14,0,0,0,.14,2.82A13.5,13.5,0,0,0,693.5,467Z"/><path class="cls-2" d="M666.11,508.6c-9.59-3.79-15.07-9.2-18-14.85a31.15,31.15,0,0,1-3-17.31c.06-.7.16-1.38.25-2.07s.16-1.38.26-2.06c.2-1.34.46-2.65.76-3.9s.64-2.44,1-3.57.74-2.17,1-3.15a49.56,49.56,0,0,1,2.53-6.46,84,84,0,0,1,15.86,10.2,47.11,47.11,0,0,1,5.28,5.11,35.11,35.11,0,0,1,3.63,5,25.43,25.43,0,0,1,3.43,9.49,20.17,20.17,0,0,1-.69,8.26,24.53,24.53,0,0,1-3.07,6.7,31.72,31.72,0,0,1-4.17,4.78A28.46,28.46,0,0,1,666.11,508.6Zm-5.71-27.72a26.56,26.56,0,0,0-1.52,3,25.67,25.67,0,0,0-2,7.11,14.21,14.21,0,0,0,1.05,8.28c1.32,2.67,3.84,5.13,8.25,6.83a13.5,13.5,0,0,0,2.29-1.74,12.7,12.7,0,0,0,3.42-5.13C673.31,494.76,671.77,488.15,660.4,480.88Z"/><path class="cls-2" d="M724.15,474.5a80.92,80.92,0,0,1-1.62,8.86c-.29,1.32-.73,2.71-1.21,4.17s-1,3-1.63,4.55-1.28,3.15-2,4.74c-.37.79-.76,1.59-1.17,2.37s-.9,1.56-1.38,2.32c-3.84,6.1-8.79,11.63-15.4,14.16s-14.22,2.31-23.39-2.45a33.3,33.3,0,0,1-.57-6.46,32.75,32.75,0,0,1,.62-6.33,26.87,26.87,0,0,1,2.14-7.08,24.92,24.92,0,0,1,4.86-6.84,28.91,28.91,0,0,1,8.41-5.9,44.19,44.19,0,0,1,6-2.35,67.53,67.53,0,0,1,7.23-1.88A107.39,107.39,0,0,1,724.15,474.5Zm-46.08,36.88c4.21,2.14,7.74,2.26,10.69,1.16a15.34,15.34,0,0,0,7.08-6,37.57,37.57,0,0,0,4.66-11.49c-13.75-1.08-19.11,2.84-21.26,7.19a13.41,13.41,0,0,0-1.43,6.16A14.77,14.77,0,0,0,678.07,511.38Z"/><path class="cls-2" d="M643.15,549.69a39.73,39.73,0,0,1-10.42-8.7,29,29,0,0,1-3.12-4.61,31,31,0,0,1-2-4.7,27.42,27.42,0,0,1-1.37-9.34,41.61,41.61,0,0,1,.41-4.49,38.69,38.69,0,0,1,.82-4.39c.35-1.42.78-2.8,1.25-4.13s1-2.59,1.49-3.85a56.35,56.35,0,0,1,3.11-6.6c.51-.94,1-1.8,1.47-2.54l1.13-2c.65-1.09,1.07-1.69,1.07-1.69,24.51,17.88,25.91,33.47,21.35,43.33a28.57,28.57,0,0,1-15.17,13.68Zm-.95-29.28a27.66,27.66,0,0,0-2,2.91c-.56.89-1.09,2-1.71,3.14a23.67,23.67,0,0,0-1.58,3.79,14.62,14.62,0,0,0-.27,8.7c.84,2.92,2.92,5.82,7.08,8.27a14.3,14.3,0,0,0,2.67-1.4,12.86,12.86,0,0,0,4.26-4.76,11,11,0,0,0,.54-8.45C650.06,529.13,647.36,525.05,642.2,520.41Z"/><path class="cls-2" d="M707.76,523.83s-.24.92-.74,2.49c-.26.79-.55,1.75-1,2.82s-.92,2.25-1.49,3.53c-1.13,2.57-2.56,5.51-4.28,8.55a46.11,46.11,0,0,1-2.92,4.52c-1.07,1.5-2.21,3-3.41,4.41s-2.49,2.81-3.83,4.11a35.47,35.47,0,0,1-4.36,3.49,29.71,29.71,0,0,1-9.8,4.54,21.51,21.51,0,0,1-5.42.6,24.36,24.36,0,0,1-5.72-.75A34.56,34.56,0,0,1,652.67,556a36.18,36.18,0,0,1,.65-6.64,31.26,31.26,0,0,1,5.14-13.3C664.53,527,677.43,519.87,707.76,523.83Zm-53,30.62c3.88,2.86,7.46,3.56,10.67,2.92a16.44,16.44,0,0,0,8.11-5.09,32.29,32.29,0,0,0,3-3.71,27.17,27.17,0,0,0,2.07-3.6,35.26,35.26,0,0,0,1.65-3.74c-6.81-1.61-11.74-1.6-15.3-.68a12.27,12.27,0,0,0-7.44,4.71,14.71,14.71,0,0,0-2.42,6.15A15.46,15.46,0,0,0,654.8,554.45Z"/><path class="cls-2" d="M612.57,588a39.8,39.8,0,0,1-9-10.55,28,28,0,0,1-3.21-20.07,35.93,35.93,0,0,1,2.83-8.87c.32-.69.65-1.36,1-2s.65-1.35,1-2c.68-1.3,1.41-2.54,2.15-3.72,1.46-2.36,3.09-4.38,4.36-6.2a54.44,54.44,0,0,1,4.81-5.74,84.25,84.25,0,0,1,12.16,15.46,50,50,0,0,1,3.45,6.92,34.9,34.9,0,0,1,1.84,6.26,27.49,27.49,0,0,1,0,10.78,23.13,23.13,0,0,1-3.66,8.19A28.05,28.05,0,0,1,619,585.73a34.72,34.72,0,0,1-4.53,1.79A17.71,17.71,0,0,1,612.57,588Zm4.36-30a29.28,29.28,0,0,0-2.59,2.6,30.83,30.83,0,0,0-4.52,6.59c-2.76,5.16-3.72,12,3.78,18.37a15.33,15.33,0,0,0,8.15-5.15,11,11,0,0,0,2-8.59C623.25,568.09,621.29,563.52,616.93,558Z"/><path class="cls-2" d="M682.65,571.9a91.94,91.94,0,0,1-4.8,8.55,69,69,0,0,1-5.92,8c-1.17,1.4-2.41,2.81-3.73,4.2-.66.69-1.32,1.39-2,2.05s-1.46,1.29-2.21,1.92a51.77,51.77,0,0,1-9.67,6.46,30.29,30.29,0,0,1-10.84,3,23.82,23.82,0,0,1-11.19-1.89A34.78,34.78,0,0,1,621,596s.13-.7.42-1.9a38.79,38.79,0,0,1,1.39-4.83,37.49,37.49,0,0,1,7.62-12.74,27.63,27.63,0,0,1,7.3-5.39,31.43,31.43,0,0,1,10.49-3.31,50.76,50.76,0,0,1,6.8-.49,64.43,64.43,0,0,1,7.85.38A111.32,111.32,0,0,1,682.65,571.9Zm-59.16,22.82c6.8,7.14,13.94,4.94,19.45.85a37.2,37.2,0,0,0,6.4-6.7,39.35,39.35,0,0,0,2.39-3.51c-6.63-2.76-11.65-3.58-15.46-3.24a13.53,13.53,0,0,0-8.32,3.67,15.15,15.15,0,0,0-3.65,5.82A16.32,16.32,0,0,0,623.49,594.72Z"/><path class="cls-2" d="M574.32,621.76c-7-8.46-9.11-16.44-8.77-23.37a35.58,35.58,0,0,1,6.76-18.23,51.15,51.15,0,0,1,5.61-7.18c2-2.06,3.8-4.07,5.52-5.62s3.19-2.82,4.27-3.67l1.68-1.35a82.33,82.33,0,0,1,9.48,17.71,44.14,44.14,0,0,1,3,14.33,28.27,28.27,0,0,1-2.05,10.89,23.71,23.71,0,0,1-2.28,4.3,26.05,26.05,0,0,1-2.94,3.45,30.92,30.92,0,0,1-6.68,5,36.75,36.75,0,0,1-6.66,2.55A32.25,32.25,0,0,1,574.32,621.76Zm10.08-29.71s-.32.21-.86.6-1.34.92-2.23,1.62a31.06,31.06,0,0,0-5.86,5.89,26,26,0,0,0-2.4,4,13.51,13.51,0,0,0-1.22,4.56c-.24,3.24.76,6.89,4,10.73a14.68,14.68,0,0,0,3.16-.55,15.11,15.11,0,0,0,6.14-3.24,12.25,12.25,0,0,0,3.63-8.42,21.41,21.41,0,0,0-.8-6.62,34,34,0,0,0-1.37-4A49.63,49.63,0,0,0,584.4,592.05Z"/><path class="cls-2" d="M648.5,617l-.42.61c-.28.39-.67,1-1.24,1.68-1.13,1.4-2.76,3.36-4.83,5.62a72.41,72.41,0,0,1-7.47,7.25,85.24,85.24,0,0,1-9.62,7c-7.12,4-14.93,7-22.67,6.16s-14.83-4.84-20.84-14a38.25,38.25,0,0,1,3.1-6.54,40.37,40.37,0,0,1,4.16-5.83,30.83,30.83,0,0,1,6-5.81,26.38,26.38,0,0,1,3.91-2.37,29.91,29.91,0,0,1,4.48-1.93,33.21,33.21,0,0,1,11.32-1.57,56.13,56.13,0,0,1,14.85,2.25A116,116,0,0,1,648.5,617Zm-64.4,13.39c2.8,4.18,6.08,6.05,9.51,6.45a14.85,14.85,0,0,0,5.17-.37,19,19,0,0,0,4.94-1.94,41.81,41.81,0,0,0,7.8-5.7c1-.9,1.77-1.67,2.29-2.26s.79-.94.79-.94c-1.54-1-3-1.78-4.4-2.48a40.11,40.11,0,0,0-4-1.78,24.33,24.33,0,0,0-6.72-1.6,13.41,13.41,0,0,0-9.12,2.36,16.08,16.08,0,0,0-4.84,5.25A17.38,17.38,0,0,0,584.1,630.42Z"/><path class="cls-2" d="M528.84,649.21c-5.4-9.79-6-18.22-4.31-25.14a28.45,28.45,0,0,1,1.73-4.93,37.79,37.79,0,0,1,2.38-4.55,43.58,43.58,0,0,1,6.27-7.74,54.06,54.06,0,0,1,7.1-6.23c1.22-.86,2.33-1.79,3.46-2.58s2.19-1.52,3.2-2.17c2-1.31,3.82-2.22,5-3s1.95-1.1,1.95-1.1a103.49,103.49,0,0,1,4,10.45,69.48,69.48,0,0,1,2.26,9.15,44.78,44.78,0,0,1,.25,15A28,28,0,0,1,558,637.05a27.27,27.27,0,0,1-3.15,4,24.82,24.82,0,0,1-3.67,3,32.23,32.23,0,0,1-7.78,3.83,35.48,35.48,0,0,1-7.27,1.41A34.52,34.52,0,0,1,528.84,649.21ZM544.9,621s-.37.16-1,.46l-2.57,1.27a32.75,32.75,0,0,0-7.1,4.89,21.39,21.39,0,0,0-1.68,1.75,18.19,18.19,0,0,0-1.54,1.85,13.72,13.72,0,0,0-2.13,4.38c-.89,3.23-.59,7.08,1.93,11.54A17.24,17.24,0,0,0,541,645a13,13,0,0,0,5.34-7.87C547.34,633.28,547.17,628.1,544.9,621Z"/><path class="cls-2" d="M605.27,657.29s-.75.77-2.13,2.05a72.19,72.19,0,0,1-6,4.9c-1.27,1-2.67,2-4.17,3s-3.08,2.14-4.83,3.09a92.33,92.33,0,0,1-11.21,5.41,53.53,53.53,0,0,1-12.28,3,33.91,33.91,0,0,1-6.11.23,31.39,31.39,0,0,1-5.93-1c-7.7-2.1-14.16-7.54-18.46-17.89a40,40,0,0,1,4.46-6,46.18,46.18,0,0,1,5.37-5.16,32.61,32.61,0,0,1,7.27-4.79,33.84,33.84,0,0,1,4.44-1.72,28.43,28.43,0,0,1,4.93-1.18,36.75,36.75,0,0,1,11.82.36,58.22,58.22,0,0,1,14.69,4.85c2.73,1.27,5.62,2.83,8.64,4.62S601.94,654.91,605.27,657.29Zm-68.19,2.41c2,4.71,5,7.19,8.41,8.21a15.44,15.44,0,0,0,5.35.54,21.51,21.51,0,0,0,2.75-.34c.9-.21,1.79-.46,2.66-.75a44.56,44.56,0,0,0,9.09-4.39c.58-.36,1.12-.71,1.58-1l1.17-.89c.64-.5,1-.81,1-.81-5.51-4.94-10.24-7.53-14.21-8.54a13.94,13.94,0,0,0-9.75.78,17.14,17.14,0,0,0-6,4.43A18.56,18.56,0,0,0,537.08,659.7Z"/><path class="cls-2" d="M477,668.38a40.18,40.18,0,0,1-2.11-14.6,30.21,30.21,0,0,1,2.85-11.47,39.39,39.39,0,0,1,14-15.32,57.9,57.9,0,0,1,8.44-5c1.41-.64,2.73-1.35,4-1.94s2.52-1.14,3.68-1.6,2.23-.87,3.19-1.21l1.35-.46,1.14-.43c1.37-.5,2.19-.75,2.19-.75a106,106,0,0,1,2,11.25,70,70,0,0,1,.49,9.64,45.72,45.72,0,0,1-2.72,15.15,29.36,29.36,0,0,1-6.4,10,28,28,0,0,1-4,3.41,29.84,29.84,0,0,1-4.35,2.3,33.7,33.7,0,0,1-8.71,2.41,42.21,42.21,0,0,1-7.7,0A41.34,41.34,0,0,1,479,669,15.12,15.12,0,0,1,477,668.38Zm22.09-25.31s-1.61.38-4,1a34.19,34.19,0,0,0-8.21,3.62,27.81,27.81,0,0,0-4,3,14.62,14.62,0,0,0-3.06,4c-1.55,3.08-2,7-.38,12a17.16,17.16,0,0,0,3.38.63,16.91,16.91,0,0,0,7.46-.91,13.19,13.19,0,0,0,7.05-6.88C499.05,655.83,500,650.66,499.06,643.07Z"/><path class="cls-2" d="M553.32,690.6s-.93.64-2.59,1.69l-1.37.86-1.67.92c-1.2.64-2.56,1.35-4.06,2.09s-3.12,1.52-4.87,2.29a54.57,54.57,0,0,1-5.56,2.23,98.72,98.72,0,0,1-12.54,3.42c-8.81,1.41-17.9,1.4-25.33-2.28a25,25,0,0,1-9.52-7.83,34.43,34.43,0,0,1-5.66-13.63l1.54-1.55a48.12,48.12,0,0,1,4.26-3.67,44.7,44.7,0,0,1,6.53-4.16,36.64,36.64,0,0,1,8.38-3.47A40.71,40.71,0,0,1,511,666.35a37.72,37.72,0,0,1,12,2.53,59.18,59.18,0,0,1,14,7.54,99.77,99.77,0,0,1,7.89,6.21C547.58,685,550.4,687.6,553.32,690.6Zm-70.09-10.1c1.1,5.12,3.62,8.17,6.9,9.82a16,16,0,0,0,5.34,1.55,21.78,21.78,0,0,0,5.76,0,47,47,0,0,0,10.16-2.75,27.83,27.83,0,0,0,4.39-2c-4.62-6-8.95-9.53-12.78-11.25a15.18,15.18,0,0,0-10.11-1.06,18.23,18.23,0,0,0-7,3.35A19.13,19.13,0,0,0,483.23,680.5Z"/><path class="cls-2" d="M540.53,128.19a46.69,46.69,0,0,1,5.71-.56,54.27,54.27,0,0,1,5.94.05,44,44,0,0,1,6.8,1.1c1.16.29,2.32.63,3.47,1a25.72,25.72,0,0,1,3.3,1.5,21.69,21.69,0,0,1,5.74,4.36,17.55,17.55,0,0,1,3.64,6.57,19.44,19.44,0,0,1,.74,4.12,25.51,25.51,0,0,1-.2,4.79,23.28,23.28,0,0,1-4.14,1.59,22.57,22.57,0,0,1-9.6.85,19.21,19.21,0,0,1-5.57-1.74,20.26,20.26,0,0,1-5.53-4.26,32.17,32.17,0,0,1-5.3-7.58A71.39,71.39,0,0,1,540.53,128.19ZM574,150.38a8.56,8.56,0,0,0-1.85-7,11.08,11.08,0,0,0-5.51-3.29,25.19,25.19,0,0,0-8.36-.69c1.14,4.48,2.63,7.34,4.29,9.15a8.35,8.35,0,0,0,5.09,3,10.22,10.22,0,0,0,4.44-.36A11.28,11.28,0,0,0,574,150.38Z"/><path d="M423.8,685.15l-.21-3a314.46,314.46,0,0,0,44.34-6.58l10.9-2.65,10.76-3.15,2.69-.8,2.65-.92,5.3-1.83c1.76-.62,3.54-1.21,5.29-1.85l5.21-2.08c7-2.66,13.76-5.85,20.54-9l10-5.12c.84-.41,1.65-.86,2.46-1.34l2.43-1.39,4.87-2.79a306.83,306.83,0,0,0,36.83-25.55,299.06,299.06,0,0,0,32.45-30.92L624,582l1.86-2.09,1.77-2.17c2.35-2.91,4.75-5.78,7.06-8.72l6.69-9c1.14-1.48,2.12-3.07,3.18-4.61l3.14-4.65a307,307,0,0,0,21.75-39.19,301.45,301.45,0,0,0,15.39-42.09l1.47-5.42c.46-1.81,1-3.59,1.4-5.43l2.42-10.95c.22-.91.38-1.83.53-2.75l.47-2.76,1-5.53c.7-3.68,1.09-7.4,1.55-11.11l.67-5.57.17-1.39.1-1.4.21-2.79c.25-3.73.59-7.46.76-11.19l.27-11.22c.08-1.87,0-3.74,0-5.61l-.1-5.6a291.74,291.74,0,0,0-58.44-166.7,287.67,287.67,0,0,0-29.57-33.68,300.06,300.06,0,0,0-34.32-28.84l1.75-2.44a303.23,303.23,0,0,1,34.67,29.13,290.11,290.11,0,0,1,29.87,34,294.79,294.79,0,0,1,59,168.4l.1,5.67c0,1.89.09,3.78,0,5.66l-.27,11.33c-.17,3.77-.52,7.54-.77,11.3l-.21,2.83-.1,1.41-.17,1.41-.69,5.62c-.46,3.75-.85,7.51-1.56,11.22l-1,5.59-.47,2.79c-.15.93-.32,1.86-.54,2.78l-2.44,11.07c-.37,1.85-.95,3.65-1.42,5.48l-1.48,5.47a304.74,304.74,0,0,1-15.55,42.53,310.14,310.14,0,0,1-22,39.59l-3.16,4.7c-1.08,1.55-2.06,3.16-3.22,4.66l-6.75,9.1c-2.34,3-4.76,5.86-7.14,8.8l-1.79,2.2L626.29,584l-3.78,4.23a303.31,303.31,0,0,1-32.78,31.23,309.11,309.11,0,0,1-37.2,25.81l-4.92,2.81-2.46,1.41c-.81.48-1.64.94-2.48,1.36L532.58,656c-6.84,3.19-13.68,6.41-20.75,9.1l-5.26,2.1c-1.77.65-3.56,1.25-5.35,1.87l-5.35,1.85-2.68.93-2.71.8-10.88,3.19-11,2.67A316.48,316.48,0,0,1,423.8,685.15Z"/><polygon points="299.07 87.69 304.1 103.17 320.37 103.17 307.2 112.74 312.23 128.22 299.07 118.65 285.9 128.22 290.93 112.74 277.76 103.17 294.04 103.17 299.07 87.69"/><polygon points="368.36 73.51 373.39 88.99 389.67 88.99 376.5 98.56 381.53 114.04 368.36 104.47 355.19 114.04 360.22 98.56 347.06 88.99 363.33 88.99 368.36 73.51"/><polygon points="437.65 73.51 442.68 88.99 458.96 88.99 445.79 98.56 450.82 114.04 437.65 104.47 424.49 114.04 429.51 98.56 416.35 88.99 432.62 88.99 437.65 73.51"/><polygon points="503.12 93.78 508.15 109.25 524.42 109.25 511.25 118.82 516.28 134.3 503.12 124.73 489.95 134.3 494.98 118.82 481.81 109.25 498.09 109.25 503.12 93.78"/><path class="cls-3" d="M267.76,421.37V402.93l-13.73-25h6.38l6.12,12c1.68,3.29,3,5.93,4.32,9H271c1.22-2.83,2.71-5.67,4.38-9l6.25-12H288l-14.56,24.95v18.5Z"/><path class="cls-3" d="M316.09,405.51c0,11.54-8,16.57-15.53,16.57-8.44,0-14.95-6.19-14.95-16.05,0-10.44,6.83-16.57,15.47-16.57C310,389.46,316.09,396,316.09,405.51Zm-24.75.32c0,6.84,3.93,12,9.48,12s9.47-5.09,9.47-12.12c0-5.28-2.64-12-9.34-12S291.34,399.9,291.34,405.83Z"/><path class="cls-3" d="M349.35,412.86c0,3.22.06,6.06.25,8.51h-5l-.32-5.1h-.13a11.74,11.74,0,0,1-10.32,5.81c-4.89,0-10.76-2.71-10.76-13.67V390.17h5.67v17.27c0,5.93,1.81,9.93,7,9.93a8.19,8.19,0,0,0,7.48-5.16,8.32,8.32,0,0,0,.52-2.9V390.17h5.67Z"/><path class="cls-3" d="M358.75,399.9c0-3.67-.06-6.83-.25-9.73h5l.19,6.12h.26c1.42-4.19,4.83-6.83,8.64-6.83a6.11,6.11,0,0,1,1.61.2V395a8.45,8.45,0,0,0-1.94-.2c-4,0-6.83,3-7.6,7.28a16,16,0,0,0-.26,2.65v16.63h-5.61Z"/><path class="cls-3" d="M393.68,421.37V377.92h6.13l13.92,22a125.07,125.07,0,0,1,7.8,14.12l.12-.07c-.51-5.8-.64-11.08-.64-17.85V377.92h5.29v43.45h-5.68l-13.79-22.05a136.59,136.59,0,0,1-8.12-14.5l-.19.07c.32,5.47.45,10.7.45,17.91v18.57Z"/><path class="cls-3" d="M453.17,421.37l-.45-3.94h-.2a11.62,11.62,0,0,1-9.54,4.65c-6.31,0-9.54-4.45-9.54-9,0-7.54,6.71-11.67,18.76-11.61v-.64c0-2.58-.71-7.22-7.09-7.22A15.52,15.52,0,0,0,437,396l-1.29-3.74A19.43,19.43,0,0,1,446,389.46c9.54,0,11.86,6.51,11.86,12.76v11.67a44.71,44.71,0,0,0,.51,7.48Zm-.84-15.92c-6.19-.13-13.21,1-13.21,7a5,5,0,0,0,5.35,5.42,7.77,7.77,0,0,0,7.54-5.22,6.05,6.05,0,0,0,.32-1.81Z"/><path class="cls-3" d="M467,398.61c0-3.22-.07-5.86-.26-8.44h5l.26,5h.19a10.75,10.75,0,0,1,9.8-5.74,9.23,9.23,0,0,1,8.83,6.25h.13a12.91,12.91,0,0,1,3.48-4.06,10.69,10.69,0,0,1,6.9-2.19c4.12,0,10.24,2.71,10.24,13.54v18.37H506V403.71c0-6-2.19-9.61-6.77-9.61a7.35,7.35,0,0,0-6.7,5.16,9.22,9.22,0,0,0-.45,2.83v19.28h-5.54V402.68c0-5-2.19-8.58-6.51-8.58-3.55,0-6.13,2.84-7,5.67a7.91,7.91,0,0,0-.45,2.78v18.82H467Z"/><path class="cls-3" d="M523.86,406.8c.13,7.67,5,10.83,10.7,10.83A20.58,20.58,0,0,0,543.2,416l1,4.06A25.35,25.35,0,0,1,533.79,422c-9.6,0-15.34-6.32-15.34-15.73s5.54-16.82,14.63-16.82c10.19,0,12.89,9,12.89,14.7a22.42,22.42,0,0,1-.19,2.64Zm16.63-4.06c.07-3.61-1.48-9.22-7.86-9.22-5.74,0-8.25,5.29-8.7,9.22Z"/></svg>