<svg id="Layer_1" data-name="Layer 1" xmlns="http://www.w3.org/2000/svg" viewBox="0 0 800 800"><defs><style>.cls-1{fill:none;}.cls-2{fill:#231f20;}.cls-3{fill:#4f4f4f;}</style></defs><path class="cls-1" d="M640.91,638.51l-50.15-69.45a264.65,264.65,0,0,1-35,21.07l-4.58,2.25-2.29,1.12c-.77.36-1.56.68-2.34,1-3.13,1.32-6.23,2.72-9.37,4l-9.55,3.59c-.79.32-1.6.58-2.41.83l-2.43.78L518,605.3a257.78,257.78,0,0,1-39.82,8.81l-5.07.63-2.53.32-1.27.16-1.28.1-10.18.79-10.22.33c-1.7.1-3.41,0-5.11,0l-5.11-.07A259.93,259.93,0,0,1,396.77,612l-5-1c-1.67-.35-3.36-.61-5-1.07l-9.92-2.47-9.79-2.94c-1.64-.44-3.22-1.09-4.84-1.63l-4.81-1.69a257.59,257.59,0,0,1-37.06-17c-2.93-1.73-5.91-3.37-8.81-5.15L303,573.49c-2.8-1.93-5.53-4-8.31-5.92l-2.08-1.48-2-1.59-4-3.16a262,262,0,0,1-29.71-28l-6.66-7.78-1.67-1.95-1.57-2-3.17-4c-2.09-2.71-4-5.51-6.07-8.25-1.88-2.83-3.85-5.62-5.69-8.49a256.57,256.57,0,0,1-19.21-36c-.73-1.53-1.32-3.13-2-4.7l-1.92-4.73-1.75-4.79c-.58-1.6-1.2-3.18-1.7-4.81-1-3.24-2.18-6.44-3.07-9.73l-1.42-4.9-1.26-4.94c-.89-3.29-1.54-6.63-2.29-9.95-.39-1.66-.66-3.34-1-5l-.92-5c-1-6.73-2-13.48-2.47-20.28a247.52,247.52,0,0,1-.08-40.84,253.38,253.38,0,0,1,6.48-40.34,260.59,260.59,0,0,1,12.89-38.73l-78.81-33.59a346.88,346.88,0,0,0-17.28,51.91,339.83,339.83,0,0,0-8.68,54,333.89,333.89,0,0,0,.1,54.68c.7,9.1,1.93,18.15,3.33,27.17l1.22,6.74c.42,2.25.8,4.5,1.31,6.72,1,4.46,1.89,8.94,3.07,13.36l1.7,6.63,1.9,6.59c1.22,4.4,2.71,8.72,4.13,13.07.68,2.18,1.5,4.31,2.28,6.46l2.36,6.43,2.57,6.36c.87,2.11,1.69,4.24,2.64,6.32A343,343,0,0,0,160,547.21c2.46,3.84,5.07,7.58,7.62,11.36s5.32,7.41,8.1,11L180,575l2.12,2.69,2.21,2.6c3,3.47,5.9,6.94,8.89,10.38A347.22,347.22,0,0,0,233,628.16l5.37,4.25,2.69,2.12,2.78,2c3.73,2.66,7.41,5.36,11.18,7.94l11.52,7.43c3.88,2.4,7.88,4.63,11.82,6.94a342.31,342.31,0,0,0,49.74,22.85l6.46,2.27c2.16.73,4.29,1.56,6.49,2.18l13.12,3.92,13.27,3.33c2.21.59,4.46,1,6.69,1.44l6.71,1.35A343.3,343.3,0,0,0,435.18,702l6.84.11c2.28,0,4.56.1,6.84,0l13.68-.44,13.65-1.06,1.71-.14,1.7-.2,3.4-.42,6.79-.85a342,342,0,0,0,53.44-11.82l6.53-2.1,3.26-1c1.09-.35,2.17-.71,3.24-1.12l12.83-4.83c4.22-1.74,8.4-3.59,12.6-5.39,1-.46,2.1-.9,3.14-1.38l3.08-1.5,6.15-3A350,350,0,0,0,640.91,638.51Z"/><path class="cls-2" d="M151.06,304c-8.32-1.35-13.65-4.42-16.9-8.47a19,19,0,0,1-3.44-6.61,26.2,26.2,0,0,1-.93-7.13c0-1.19.07-2.37.18-3.52s.35-2.26.57-3.33a50.6,50.6,0,0,1,1.61-5.76,35.23,35.23,0,0,1,1.64-3.94c.45-.94.74-1.46.74-1.46a97.63,97.63,0,0,1,12.59,8.75,44.09,44.09,0,0,1,7.49,7.69,20.41,20.41,0,0,1,3.35,6.64,13.07,13.07,0,0,1,.4,5.68,17.57,17.57,0,0,1-4,8.29A20.74,20.74,0,0,1,151.06,304Zm-8.47-19.62a19.77,19.77,0,0,0-1.79,8c.18,4.22,2.29,8.68,9.91,9.94A8.7,8.7,0,0,0,154,297C154.39,293.77,152.47,289.45,142.59,284.38Z"/><path class="cls-2" d="M193.41,283s0,.49-.18,1.32-.38,2-.69,3.38a31.68,31.68,0,0,1-1.43,4.61,27.43,27.43,0,0,1-1.14,2.5,24.9,24.9,0,0,1-1.37,2.52,20.8,20.8,0,0,1-4,4.66,19.18,19.18,0,0,1-5.74,3.55c-4.55,1.8-10.69,2.37-18.86.33a18.65,18.65,0,0,1-1.66-4.14,14.76,14.76,0,0,1,.11-9.15,12.8,12.8,0,0,1,3.08-4.73,17.7,17.7,0,0,1,6.34-3.74,36.05,36.05,0,0,1,10.31-1.91A81.94,81.94,0,0,1,193.41,283Zm-32.35,21.52c7.48,1.89,11.21-.95,13.05-4.19a16.16,16.16,0,0,0,2-7c-10.94-.77-14.88,2.12-15.87,5.12A8.25,8.25,0,0,0,161.06,304.51Z"/><path class="cls-2" d="M146.1,336.2c-8.58-.44-14.41-3-18.09-6.84a22.05,22.05,0,0,1-5.88-13.74,34.39,34.39,0,0,1,0-7.18,51.55,51.55,0,0,1,1.07-6.15,37.37,37.37,0,0,1,1.23-4.28c.36-1,.61-1.59.61-1.59,22.34,10.52,27.51,19.79,27.18,27.08a17.78,17.78,0,0,1-3.19,9,29.43,29.43,0,0,1-2.05,2.68C146.46,335.86,146.1,336.2,146.1,336.2Zm-10.7-19.35a18.71,18.71,0,0,0-.69,2.61,16.79,16.79,0,0,0-.26,5.86c.6,4.35,3.18,8.73,11.07,9.16a9.92,9.92,0,0,0,1.37-1.68,8,8,0,0,0,1.45-4.19C148.36,325.23,145.92,321,135.4,316.85Z"/><path class="cls-2" d="M186.86,309.67s0,.51-.05,1.38-.13,2.11-.32,3.57a36.66,36.66,0,0,1-3,10.39,21.35,21.35,0,0,1-9,9.59c-4.49,2.38-10.56,3.67-19.09,2.5,0,0-.3-.4-.73-1.11a18,18,0,0,1-1.43-3,16.12,16.12,0,0,1-.86-9.48C154.1,316.46,162.32,309,186.86,309.67Zm-30.6,25.91c7.78,1.09,11.3-2.26,12.85-5.82a18.7,18.7,0,0,0,1.25-5.06,15.54,15.54,0,0,0,.07-2.39c-11.23.44-14.9,3.88-15.56,7.1a7.6,7.6,0,0,0,.42,4.3A9,9,0,0,0,156.26,335.58Z"/><path class="cls-2" d="M144.67,370.12c-8.77.55-14.9-1.45-19.17-5a19.91,19.91,0,0,1-4.93-6.2,26.61,26.61,0,0,1-2.58-7.37,43.07,43.07,0,0,1-.33-13.95c.25-1.9.54-3.48.78-4.58s.42-1.72.42-1.72c12,4.16,19.48,8.52,24,12.75a22,22,0,0,1,4.94,6.25,16,16,0,0,1,1.62,5.92,19.15,19.15,0,0,1-2.21,9.74A22.79,22.79,0,0,1,144.67,370.12Zm-13.08-18.8a18.11,18.11,0,0,0-.43,2.78,21.2,21.2,0,0,0,.44,6.11c1,4.43,4.29,8.67,12.3,8.19a9.9,9.9,0,0,0,1.17-1.9,9.19,9.19,0,0,0,1-4.5C145.8,358.49,142.65,354.37,131.59,351.32Z"/><path class="cls-2" d="M183,338s.07.53.13,1.44.12,2.2.07,3.73a37.53,37.53,0,0,1-1.94,11.07,25.07,25.07,0,0,1-2.94,5.85,21.41,21.41,0,0,1-5.09,5.1c-4.18,3-10.26,5-19,4.81a20.66,20.66,0,0,1-2.68-4,17,17,0,0,1-2-9.71,13.08,13.08,0,0,1,2.12-5.73,19.16,19.16,0,0,1,5.56-5.45C162.45,341.7,170.56,339,183,338Zm-28.08,30.32c8.06.23,11.06-3.65,12.33-7.51a16.34,16.34,0,0,0,.66-5.38,20.33,20.33,0,0,0-.17-2.48c-11.42,1.75-14.56,5.75-15,9.16a7.42,7.42,0,0,0,.94,4.39A9.66,9.66,0,0,0,154.92,368.28Z"/><path class="cls-2" d="M147.22,405.4a34.47,34.47,0,0,1-11.56.36,20.68,20.68,0,0,1-8.42-3.22,21.81,21.81,0,0,1-5.82-5.83,30.94,30.94,0,0,1-3.45-7.34,36.63,36.63,0,0,1-1-3.85c-.25-1.29-.45-2.56-.59-3.79a58.94,58.94,0,0,1-.4-6.8,53.39,53.39,0,0,1,.56-6.67c12.59,2.92,20.62,6.55,25.84,10.39a22.53,22.53,0,0,1,5.67,5.9,15.4,15.4,0,0,1,2.4,5.93,20.82,20.82,0,0,1-1.07,10.33,26.83,26.83,0,0,1-1.45,3.34C147.5,405,147.22,405.4,147.22,405.4Zm-15.5-17.91a22.53,22.53,0,0,0-.07,2.93,20.45,20.45,0,0,0,1.12,6.28c1.67,4.46,5.37,8.47,13.45,7a10.24,10.24,0,0,0,1.42-6.89,7.19,7.19,0,0,0-1.19-2.72,9.84,9.84,0,0,0-2.68-2.61C141.35,389.85,137.55,388.41,131.72,387.49Z"/><path class="cls-2" d="M182.3,367.63a33.58,33.58,0,0,1,.72,5.31,37.15,37.15,0,0,1,.17,5.41c0,1-.12,2-.26,3.06s-.28,2.11-.51,3.18a23.87,23.87,0,0,1-2.34,6.39,20.78,20.78,0,0,1-4.48,5.86,25.26,25.26,0,0,1-7.52,4.66,38.64,38.64,0,0,1-11.22,2.6,13.27,13.27,0,0,1-1-1,22.62,22.62,0,0,1-2.16-2.81,17.67,17.67,0,0,1-3.15-9.82,15,15,0,0,1,1.43-6.18A19.78,19.78,0,0,1,157,378C161.77,373.9,169.8,370.17,182.3,367.63Zm-24.93,34.65c8.17-.73,10.9-5.12,11.59-9.24a18.9,18.9,0,0,0,.09-5.64,17.09,17.09,0,0,0-.51-2.54c-5.63,1.58-9.16,3.49-11.29,5.46a9.51,9.51,0,0,0-2.23,3,6.72,6.72,0,0,0-.56,2.82A9.59,9.59,0,0,0,157.37,402.28Z"/><path class="cls-2" d="M154.32,441.57c-8.72,2.76-15.43,2.18-20.64-.5a20.67,20.67,0,0,1-3.62-2.36,24.84,24.84,0,0,1-3-3,31.56,31.56,0,0,1-4.49-7.16,49.63,49.63,0,0,1-2.62-7.73,48,48,0,0,1-1.19-7c-.22-2.07-.31-3.82-.34-5,0-.62,0-1.1,0-1.43l0-.51c13.09,1.53,21.83,4.3,27.45,7.67a23.29,23.29,0,0,1,6.56,5.4,17,17,0,0,1,1.9,2.91,18.51,18.51,0,0,1,1.25,2.94,22.17,22.17,0,0,1,.26,10.81A25.11,25.11,0,0,1,154.32,441.57Zm-18-16.63s0,.31,0,.85a16.23,16.23,0,0,0,.25,2.19,24,24,0,0,0,2,6.36,11.3,11.3,0,0,0,5.12,5.4c2.37,1.17,5.44,1.44,9.44.21a11.52,11.52,0,0,0,.71-2.3,10,10,0,0,0-.21-5C152.49,429,148.26,425.44,136.29,424.94Z"/><path class="cls-2" d="M185.05,398.32l.46,1.48c.29.94.66,2.28,1,3.9a42.23,42.23,0,0,1,.77,12.1,26.08,26.08,0,0,1-1.49,6.85,22.46,22.46,0,0,1-1.6,3.37,23,23,0,0,1-2.23,3.23c-3.48,4.16-9.1,7.83-18,9.79a22.52,22.52,0,0,1-3.72-3.55,18.63,18.63,0,0,1-4.46-9.76,14.51,14.51,0,0,1-.06-3.17,17.26,17.26,0,0,1,.75-3.39,20.48,20.48,0,0,1,4.28-7.11C165.14,407.23,172.66,402.44,185.05,398.32Zm-20.83,38.77c4.1-.87,6.68-2.54,8.25-4.51a11.29,11.29,0,0,0,2.29-6.44,18.42,18.42,0,0,0-.68-5.82c-.21-.77-.41-1.42-.56-1.86s-.25-.71-.25-.71c-11.1,4.64-13.28,9.63-12.85,13.33a8.58,8.58,0,0,0,2.11,4.39A10,10,0,0,0,164.22,437.09Z"/><path class="cls-2" d="M166.43,478c-8.46,4-15.36,4.2-21.05,2.1a23.13,23.13,0,0,1-7.4-4.7,31,31,0,0,1-3-3.24,35.77,35.77,0,0,1-2.48-3.63,44.62,44.62,0,0,1-3.73-7.66,65.53,65.53,0,0,1-2.16-7.1,44.09,44.09,0,0,1-1-5.19c-.17-1.28-.23-2-.23-2,26.85,0,36.69,7.12,40.14,15a22.31,22.31,0,0,1,1.75,11.11A26.2,26.2,0,0,1,166.43,478Zm-20.57-14.91a24.26,24.26,0,0,0,.69,3.12,22.3,22.3,0,0,0,2.88,6.32,12,12,0,0,0,5.9,4.94c2.58.9,5.74.8,9.63-1a11.78,11.78,0,0,0,.38-2.45,11.16,11.16,0,0,0-.86-5.14,9.21,9.21,0,0,0-5.39-4.61C156.18,463.19,152,462.61,145.86,463.11Z"/><path class="cls-2" d="M191.75,429.61s.26.52.65,1.46.89,2.29,1.48,3.9a43.49,43.49,0,0,1,1.54,5.64,40,40,0,0,1,.89,6.71,27.32,27.32,0,0,1-.11,3.6,23.09,23.09,0,0,1-.51,3.64,22.36,22.36,0,0,1-3,7.29c-2.93,4.71-8.1,9.2-16.89,12.35a23.75,23.75,0,0,1-4.29-3.17,20.6,20.6,0,0,1-5.87-9.51C163.64,453.21,167.62,441.15,191.75,429.61Zm-15.92,42.55c4-1.41,6.41-3.46,7.72-5.68a11.7,11.7,0,0,0,1.46-6.94,22.55,22.55,0,0,0-1.48-5.91,19.48,19.48,0,0,0-1.16-2.54c-5.28,3.07-8.38,6-10,8.58a8.51,8.51,0,0,0-1.23,6.76,8.76,8.76,0,0,0,2.71,4.28A10.94,10.94,0,0,0,175.83,472.16Z"/><path class="cls-2" d="M183.92,514c-8,5.14-15,6.34-21,4.87s-11-5.46-14.81-10.25c-.95-1.2-1.85-2.43-2.67-3.67s-1.53-2.52-2.2-3.77a74,74,0,0,1-3.23-7,66.16,66.16,0,0,1-2.22-7.3c13.68-1.72,23.14-1,29.91,1a26.73,26.73,0,0,1,8.1,4,18.33,18.33,0,0,1,4.85,5.3A24,24,0,0,1,184,508.42,28.84,28.84,0,0,1,183.92,514Zm-23-12.7a27.29,27.29,0,0,0,1.17,3.11,32.88,32.88,0,0,0,1.52,3,23.2,23.2,0,0,0,2.3,3.13,13,13,0,0,0,6.7,4.34c2.75.59,6,.07,9.64-2.26a12.29,12.29,0,0,0,0-2.57,10.89,10.89,0,0,0-1.6-5.18,9.86,9.86,0,0,0-6.13-4.06C171.39,500.06,167,500,160.87,501.32Z"/><path class="cls-2" d="M202.69,461a38.88,38.88,0,0,1,2.88,5.25,46.69,46.69,0,0,1,2.4,5.57c.37,1,.68,2.16,1,3.29a32.47,32.47,0,0,1,.83,3.5c.79,4.85.81,10.1-1.57,15.39s-6.88,10.51-15.36,14.9a23.6,23.6,0,0,1-4.82-2.7,21.57,21.57,0,0,1-7.31-9,17.78,17.78,0,0,1-1.18-7,21,21,0,0,1,2.37-8.55C184.92,475.41,191.34,468.41,202.69,461Zm-10.1,45.8c3.89-2,6-4.38,7-6.84a11.69,11.69,0,0,0,.49-7.32,19.73,19.73,0,0,0-1.07-3.23,23.24,23.24,0,0,0-1.26-2.67,20.92,20.92,0,0,0-1.55-2.46c-4.92,3.84-7.61,7.22-8.89,10.12a8.63,8.63,0,0,0-.27,7.11,9.82,9.82,0,0,0,3.34,4.06A11.24,11.24,0,0,0,192.59,506.77Z"/><path class="cls-2" d="M207.08,548.68a34.48,34.48,0,0,1-10.71,6.54,21.73,21.73,0,0,1-9.94,1.24,25.25,25.25,0,0,1-9-2.89,35.33,35.33,0,0,1-7.64-5.69,45.58,45.58,0,0,1-3.27-3.41c-1-1.19-1.92-2.4-2.78-3.6a59.76,59.76,0,0,1-4.32-6.83,68.29,68.29,0,0,1-3.36-7.21,103.25,103.25,0,0,1,17.7-3.19,59.44,59.44,0,0,1,6.94-.18,41.08,41.08,0,0,1,5.89.56,26.52,26.52,0,0,1,8.82,3.05,19.36,19.36,0,0,1,5.74,4.79,25.23,25.23,0,0,1,3.4,5.62,28,28,0,0,1,1.72,5.45c.33,1.68.58,3.08.67,4.12S207.08,548.68,207.08,548.68Zm-25.35-10a28.29,28.29,0,0,0,1.66,3,24.85,24.85,0,0,0,4.8,5.82,13.69,13.69,0,0,0,7.49,3.55c2.84.27,6.06-.71,9.44-3.58a14.27,14.27,0,0,0-.37-2.64,11.38,11.38,0,0,0-2.42-5.11C199.45,536.56,193.87,534.4,181.73,538.69Z"/><path class="cls-2" d="M218.22,491.78a42.67,42.67,0,0,1,3.72,5c1,1.56,2.19,3.35,3.24,5.41.53,1,1,2.11,1.5,3.25s1,2.27,1.36,3.48a32,32,0,0,1,1.53,7.67,23.58,23.58,0,0,1-.81,8.32,26.7,26.7,0,0,1-4.3,8.68,38.73,38.73,0,0,1-9.06,8.63s-.58-.14-1.54-.48a22.27,22.27,0,0,1-3.77-1.66,27,27,0,0,1-4.62-3.24A18.59,18.59,0,0,1,199,524.72a22.63,22.63,0,0,1,1.14-9.11,33.18,33.18,0,0,1,2.24-5.25,45.7,45.7,0,0,1,3.68-5.76A82.73,82.73,0,0,1,218.22,491.78Zm-3.42,48.33c3.66-2.55,5.4-5.27,6.09-8a12.32,12.32,0,0,0-.62-7.57,27,27,0,0,0-3.25-5.75,22.72,22.72,0,0,0-2-2.31c-8.82,9.16-8.94,15.33-6.71,18.88a10.7,10.7,0,0,0,4,3.73A10.83,10.83,0,0,0,214.8,540.11Z"/><path class="cls-2" d="M236.06,581c-6.5,7.49-13.22,10.59-19.87,10.78s-12.83-2.73-18.29-6.54a63.29,63.29,0,0,1-7.19-6.43,58.65,58.65,0,0,1-5.47-6.4,73.18,73.18,0,0,1-4.52-6.94c26.65-10.83,39.52-7.42,46.69-.88a23.13,23.13,0,0,1,4.34,5.3,42.29,42.29,0,0,1,2.59,5.35A29,29,0,0,1,236.06,581Zm-27.43-6.79a18.93,18.93,0,0,0,2.16,2.9,31,31,0,0,0,5.84,5.27c4.76,3.32,11.29,4.5,17.25-2.31a13.26,13.26,0,0,0-.79-2.65,13.45,13.45,0,0,0-1.27-2.41,10.91,10.91,0,0,0-2-2.46,10.5,10.5,0,0,0-7.46-2.54C218.94,570.09,214.41,571.31,208.63,574.25Z"/><path class="cls-2" d="M238.58,521.34a44.05,44.05,0,0,1,4.55,4.63c1.23,1.49,2.76,3.13,4.15,5.09a39.91,39.91,0,0,1,3.89,6.54,27.45,27.45,0,0,1,3.22,16.23c-.67,6-3.66,12.64-10.86,19.46a26.83,26.83,0,0,1-5.77-1.44,22,22,0,0,1-5.21-2.69,23.14,23.14,0,0,1-5-4.63C221.57,556.93,220.06,542.83,238.58,521.34Zm4,49.87c6.64-6.23,5.51-12.06,3.15-16.59a23.27,23.27,0,0,0-4.23-5.4c-1.37-1.29-2.34-2.1-2.34-2.1-3.86,5.33-5.46,9.47-5.83,12.77a9.77,9.77,0,0,0,1.92,7.42,10.11,10.11,0,0,0,2.28,2.09,12.31,12.31,0,0,0,2.42,1.16A12.82,12.82,0,0,0,242.58,571.21Z"/><path class="cls-2" d="M270.87,610c-5.39,8.57-11.73,12.69-18.48,13.82a24.69,24.69,0,0,1-10.09-.45,44,44,0,0,1-9.72-3.61,66.32,66.32,0,0,1-8.41-5.58,57.53,57.53,0,0,1-6.61-5.82,77.87,77.87,0,0,1-5.71-6.52c25.46-14.65,39.08-12.91,47.49-7.31,4.22,2.77,6.91,6.78,8.84,9.83A31.07,31.07,0,0,1,270.87,610Zm-29.14-3s.24.29.69.78,1.15,1.12,2,1.85a32.42,32.42,0,0,0,6.82,4.57,18.07,18.07,0,0,0,4.27,1.5,12.82,12.82,0,0,0,4.54,0c3-.57,5.94-2.45,8.44-6.35a13.69,13.69,0,0,0-1.24-2.59,14.42,14.42,0,0,0-4.19-4.45C259.2,599.68,252.68,599.23,241.73,607Z"/><path class="cls-2" d="M263.87,548.79a46.89,46.89,0,0,1,5.32,4.1c1.47,1.36,3.27,2.83,5,4.61a42.81,42.81,0,0,1,5,6.11,31.11,31.11,0,0,1,4.07,7.29,29.26,29.26,0,0,1,1.85,8.71c.28,6.17-1.68,13.42-7.9,21.4a27.88,27.88,0,0,1-6.1-.66,24.1,24.1,0,0,1-11.66-6,21.26,21.26,0,0,1-2.58-2.9,17.74,17.74,0,0,1-2-3.68,24.56,24.56,0,0,1-1.78-9.61,31.91,31.91,0,0,1,.59-6,49.45,49.45,0,0,1,1.93-6.93A83.38,83.38,0,0,1,263.87,548.79Zm12,50.23c2.88-3.63,3.79-6.94,3.59-9.82a11.48,11.48,0,0,0-1.06-4,16.41,16.41,0,0,0-2.05-3.5,24.82,24.82,0,0,0-5.17-4.91c-.79-.56-1.48-1-2-1.3s-.76-.48-.76-.48c-6.05,11.84-4,18-.7,21.13a10.83,10.83,0,0,0,5.35,2.59A13.09,13.09,0,0,0,275.9,599Z"/><path class="cls-2" d="M311.35,634.2c-4,9.52-9.81,14.62-16.5,16.74a26.38,26.38,0,0,1-5.14,1.07,25.39,25.39,0,0,1-5.3.07,46.09,46.09,0,0,1-10.52-2.31,51.25,51.25,0,0,1-9.59-4.38c-2.93-1.65-5.57-3.37-7.78-4.92a82.8,82.8,0,0,1-6.91-5.86,106.2,106.2,0,0,1,16-10.68c1.19-.63,2.35-1.2,3.48-1.73s2.26-1,3.34-1.45a46,46,0,0,1,6.13-2,28.81,28.81,0,0,1,10.25-.74,23.11,23.11,0,0,1,8.15,2.18,24.23,24.23,0,0,1,3.31,1.91c.52.35,1,.72,1.49,1.09s.95.72,1.4,1.09a33.21,33.21,0,0,1,4.52,4.52A33.76,33.76,0,0,1,311.35,634.2Zm-30.29,1.28a37.11,37.11,0,0,0,10.93,6c6.13,1.69,13.09,1.13,16.84-7.57a15.47,15.47,0,0,0-1.7-2.47,13.52,13.52,0,0,0-5.05-3.87,12.23,12.23,0,0,0-8.46-.35C290.16,628.23,286,630.71,281.06,635.48Z"/><path class="cls-2" d="M293.92,573.12a48.93,48.93,0,0,1,6.07,3.42,58.29,58.29,0,0,1,5.88,3.9,76.32,76.32,0,0,1,6.13,5.39,33.1,33.1,0,0,1,5.33,6.87,37.6,37.6,0,0,1,2,4,25.18,25.18,0,0,1,1.38,4.46c1.31,6.26.54,14-4.45,23a28.77,28.77,0,0,1-6.31.19,31.43,31.43,0,0,1-6.27-1.07c-.57-.16-1.14-.33-1.7-.54s-1.12-.47-1.68-.73a24.83,24.83,0,0,1-3.3-1.93,21.9,21.9,0,0,1-5.84-5.94,25.71,25.71,0,0,1-3.4-9.55,34.67,34.67,0,0,1-.39-6.19c0-1.11.1-2.27.22-3.47s.32-2.49.56-3.8A84.63,84.63,0,0,1,293.92,573.12Zm20.71,49.18c4.6-8.25,1.58-14-2.49-17.59a26.58,26.58,0,0,0-6.07-4.28A25.82,25.82,0,0,0,303,599c-2.07,6.44-2.35,11.18-1.62,14.64a10.23,10.23,0,0,0,4.48,6.92,12.9,12.9,0,0,0,5.92,1.81A13.31,13.31,0,0,0,314.63,622.3Z"/><path class="cls-2" d="M357.08,652.21c-2.46,10.23-7.5,16.4-14,19.68a29.81,29.81,0,0,1-10.48,2.7,43.8,43.8,0,0,1-5.62.1,48.38,48.38,0,0,1-5.59-.75,71.79,71.79,0,0,1-10.62-2.85c-3.27-1.27-6.26-2.65-8.78-3.92a63.94,63.94,0,0,1-6-3.33c-1.39-.9-2.16-1.46-2.16-1.46,2.61-2.8,5.12-5.28,7.53-7.47s4.77-4.16,7-5.84a53.8,53.8,0,0,1,12.35-7.17,34.61,34.61,0,0,1,10.41-2.46,25.07,25.07,0,0,1,8.67,1.06,31.9,31.9,0,0,1,12.5,7A34.25,34.25,0,0,1,357.08,652.21Zm-30.83,6.14a36.46,36.46,0,0,0,3.66,1.86c.56.25,1.17.51,1.82.76s1.36.46,2.1.66a31.73,31.73,0,0,0,4.68,1c3.26.4,6.65.29,9.53-1.25s5.21-4.35,6.38-9a15.52,15.52,0,0,0-2.19-2.16,16.25,16.25,0,0,0-5.82-3.18,12.23,12.23,0,0,0-8.77,1.08C334.27,649.7,330.49,652.76,326.25,658.35Z"/><path class="cls-2" d="M328.62,593.29s.7.21,1.9.64,2.93,1,4.92,1.8a59.49,59.49,0,0,1,6.61,3.16,49.42,49.42,0,0,1,7.24,4.41c1.18.88,2.33,1.86,3.44,2.87a31.27,31.27,0,0,1,3.21,3.2,27.7,27.7,0,0,1,4.92,8.11c2.46,6,3,13.84-.49,23.78a30.91,30.91,0,0,1-6.47,1.34,29.43,29.43,0,0,1-14-2.25,23,23,0,0,1-6.95-5.22,23.88,23.88,0,0,1-5.18-9,42.49,42.49,0,0,1-1.9-13.73,67.9,67.9,0,0,1,.7-8.78A103.16,103.16,0,0,1,328.62,593.29Zm29.71,46.43c1.66-4.54,1.41-8.11.19-10.89a15.24,15.24,0,0,0-5.79-6.54,24.84,24.84,0,0,0-3.65-1.94c-.6-.26-1.19-.49-1.76-.69s-1.09-.44-1.58-.61a28.26,28.26,0,0,0-3.39-1c-1,6.85-.52,11.79.85,15.13a11.12,11.12,0,0,0,5.83,6.2,12.14,12.14,0,0,0,6.35,1A14.18,14.18,0,0,0,358.33,639.72Z"/><path class="cls-2" d="M407.16,662.88a34.33,34.33,0,0,1-3.41,13.48,23.27,23.27,0,0,1-7.44,8.6,31.53,31.53,0,0,1-10.3,4.62,51.49,51.49,0,0,1-11.62,1.15,58.31,58.31,0,0,1-11.4-1.21c-1.8-.35-3.53-.73-5.16-1.13a45.77,45.77,0,0,1-4.57-1.29,92.23,92.23,0,0,1-9.19-3.57,110.71,110.71,0,0,1,12.57-15.77,68.73,68.73,0,0,1,5.84-5.31,47.88,47.88,0,0,1,5.57-4,31.42,31.42,0,0,1,10.23-4.08,25.68,25.68,0,0,1,9.1-.51,27.4,27.4,0,0,1,4.07.81c1.3.36,2.56.7,3.75,1.15a37.45,37.45,0,0,1,6.24,3c1.77,1,3.19,2.12,4.18,2.82S407.16,662.88,407.16,662.88Zm-30.55,11.35a40.31,40.31,0,0,0,4.1,1.2c1.24.29,2.7.59,4.27.81a24.59,24.59,0,0,0,5,.27c6.89-.34,13.81-3.18,14.51-13a16.7,16.7,0,0,0-2.63-1.89,15.29,15.29,0,0,0-6.55-2.18,12.18,12.18,0,0,0-4.21.4,13.73,13.73,0,0,0-4.58,2.09C383.33,664.06,380,667.88,376.61,674.23Z"/><path class="cls-2" d="M367.57,608.19a55.13,55.13,0,0,1,7.39,1.4c1.08.3,2.27.55,3.51.87s2.53.69,3.85,1.13a80,80,0,0,1,8.16,3.32,36.36,36.36,0,0,1,7.87,5.07,27.86,27.86,0,0,1,6.5,7.2,29,29,0,0,1,3.89,10.29,39.11,39.11,0,0,1-.16,13.83s-.62.35-1.73.84a28,28,0,0,1-4.66,1.52,34.19,34.19,0,0,1-6.79,1,23.51,23.51,0,0,1-3.92-.09,27.74,27.74,0,0,1-4.07-.83,24.83,24.83,0,0,1-8.09-4,27.92,27.92,0,0,1-6.88-8.36,37.34,37.34,0,0,1-2.6-6,48.41,48.41,0,0,1-1.76-7.52A84.07,84.07,0,0,1,367.57,608.19Zm38.64,41.93c1.73-9.68-3.41-14.38-8.85-16.61a42.88,42.88,0,0,0-4.07-1.41,34.15,34.15,0,0,0-3.65-.78A30.16,30.16,0,0,0,386,631c.18,7.06,1.59,11.84,3.58,15a13.36,13.36,0,0,0,3.33,3.68,10.74,10.74,0,0,0,3.73,1.64,14.38,14.38,0,0,0,6.69-.14A14.64,14.64,0,0,0,406.21,650.12Z"/><path class="cls-2" d="M460.48,664.83c1.25,10.93-1.64,18.64-7.12,24.09a29.34,29.34,0,0,1-4.52,3.67,27.05,27.05,0,0,1-2.54,1.52c-.87.45-1.77.86-2.69,1.24a55.3,55.3,0,0,1-11.74,3.3,81.48,81.48,0,0,1-11.94.73,70.19,70.19,0,0,1-10.43-.81c-3-.43-5.57-.91-7.33-1.28a26.88,26.88,0,0,1-2.76-.67,113.87,113.87,0,0,1,10.09-18.07,58.17,58.17,0,0,1,10-11.21,31.8,31.8,0,0,1,19-8.05,32.9,32.9,0,0,1,8.37.64,38.55,38.55,0,0,1,7,1.84,43,43,0,0,1,4.8,2.08C459.84,664.43,460.48,664.83,460.48,664.83Zm-29.31,16.83.32.06c.21,0,.51.1.9.14.78.09,1.88.2,3.21.27a42.42,42.42,0,0,0,9.7-.56,18,18,0,0,0,9.3-4.69c2.39-2.5,3.73-6,3.22-11a17.35,17.35,0,0,0-3-1.4,16.19,16.19,0,0,0-7.12-1,13.81,13.81,0,0,0-8.57,4C436.24,670.23,433.48,674.73,431.17,681.66Z"/><path class="cls-2" d="M410.06,616.8s.79,0,2.17-.06,3.34,0,5.66.12,5,.48,7.87.8a55.87,55.87,0,0,1,8.95,2,37.89,37.89,0,0,1,9,3.61c.72.4,1.43.84,2.13,1.31s1.38.9,2,1.41a28,28,0,0,1,3.79,3.4c4.7,5.13,8.16,12.66,8.2,23.6a19.07,19.07,0,0,1-1.62,1.1,37.28,37.28,0,0,1-4.5,2.37,37.69,37.69,0,0,1-6.79,2.28,29.71,29.71,0,0,1-8.36.44c-5.9-.41-12.27-3.35-17.58-9.74a43.25,43.25,0,0,1-6.89-12.92A82.87,82.87,0,0,1,410.06,616.8Zm47.12,35.3c0-5-1.53-8.46-3.8-10.81A16.4,16.4,0,0,0,445.1,637a31.51,31.51,0,0,0-8.3-.82c-1.14,0-2.1.11-2.77.18l-.78.08-.27,0c1.45,7.1,3.76,11.59,6.37,14.43a12,12,0,0,0,8.21,4.15,15.24,15.24,0,0,0,6.83-1.4A15.07,15.07,0,0,0,457.18,652.1Z"/><path class="cls-2" d="M515.51,656.77c3.31,10.71,1.79,19-2.81,25.54s-12.21,10.89-20.27,13.84a92.79,92.79,0,0,1-12.14,3,50.41,50.41,0,0,1-5.72.74c-1.82.16-3.56.26-5.16.34-3.21.13-5.89.16-7.77.07s-3-.23-3-.23c1.05-4,2.17-7.54,3.36-10.85a96.28,96.28,0,0,1,3.72-9.08A57.21,57.21,0,0,1,474,667a35.9,35.9,0,0,1,8.92-7.85,30.09,30.09,0,0,1,4.57-2.24A30.59,30.59,0,0,1,492,655.4a33.29,33.29,0,0,1,8.7-.94,41.77,41.77,0,0,1,7.46.51A40.31,40.31,0,0,1,515.51,656.77ZM488.57,679.2a26.31,26.31,0,0,0,4.64-.32,44.25,44.25,0,0,0,9.84-2.42,20.28,20.28,0,0,0,4.89-2.64,15.44,15.44,0,0,0,3.78-3.83c2-3,2.71-6.77,1.24-11.69a18.38,18.38,0,0,0-3.37-.82,17.25,17.25,0,0,0-7.47.41,14.22,14.22,0,0,0-8,5.64C491.66,666.82,489.67,671.89,488.57,679.2Z"/><path class="cls-2" d="M455.07,618s.8-.18,2.21-.4,3.4-.64,5.79-.92c1.2-.15,2.5-.28,3.87-.37s2.83-.13,4.32-.25a55.53,55.53,0,0,1,9.49.28,37.67,37.67,0,0,1,19.07,6.58c5.76,4.24,10.7,11.12,12.79,22.1a34.14,34.14,0,0,1-5.62,4.66,38.55,38.55,0,0,1-6.52,3.59,32.82,32.82,0,0,1-8.48,2,28.71,28.71,0,0,1-4.74.07,26.8,26.8,0,0,1-5-1,28.78,28.78,0,0,1-10.08-5.52A45,45,0,0,1,462.77,637a70.47,70.47,0,0,1-4.12-8.47A100.83,100.83,0,0,1,455.07,618Zm54.68,26.68c-.91-5-3.15-8.19-5.91-10.11a14.09,14.09,0,0,0-4.46-2,28.5,28.5,0,0,0-4.79-.69,33.14,33.14,0,0,0-8.64.77c-2.31.54-3.86,1-3.86,1,2.81,6.93,6,11,9.2,13.32a12.84,12.84,0,0,0,9.17,2.62,16.07,16.07,0,0,0,6.73-2.73A15.77,15.77,0,0,0,509.75,644.63Z"/><path class="cls-2" d="M570.21,637.67a34.14,34.14,0,0,1,4.38,14.1,24.9,24.9,0,0,1-2.34,12.12,31.2,31.2,0,0,1-3.18,5.37c-.62.85-1.28,1.7-2,2.5s-1.47,1.54-2.26,2.27a62,62,0,0,1-10.68,7.87,97.67,97.67,0,0,1-11.9,5.39c-1,.37-1.94.74-2.89,1l-2.83.83c-1.85.52-3.61,1-5.24,1.35-3.27.76-6,1.34-8,1.59s-3.09.34-3.09.34c.34-4.17.82-8,1.43-11.52a99.55,99.55,0,0,1,2.11-9.84,59.24,59.24,0,0,1,6-14.75,37.13,37.13,0,0,1,7.64-9.63,34.87,34.87,0,0,1,4.24-3.17,30.93,30.93,0,0,1,4.34-2.44,38.12,38.12,0,0,1,8.7-2.71,43.2,43.2,0,0,1,7.72-1,46.55,46.55,0,0,1,5.64.09l1.61.13Zm-23.24,28s.49-.08,1.32-.26,2-.55,3.37-1a47.37,47.37,0,0,0,9.62-4.39,19.91,19.91,0,0,0,7.62-8.28c1.47-3.37,1.47-7.33-1-12a19.18,19.18,0,0,0-3.6-.14,18.33,18.33,0,0,0-7.56,1.91,17,17,0,0,0-3.88,2.73,16.13,16.13,0,0,0-3.26,4.57,25.8,25.8,0,0,0-2.12,7A50.33,50.33,0,0,0,547,665.67Z"/><path class="cls-2" d="M501.2,610.78s.79-.34,2.18-.82,3.34-1.3,5.73-2.05c1.19-.37,2.49-.75,3.87-1.11.69-.18,1.41-.36,2.14-.52l2.22-.58a56.92,56.92,0,0,1,9.71-1.57,42.22,42.22,0,0,1,10.36,0c.87.12,1.75.26,2.62.44s1.73.33,2.59.55a29.73,29.73,0,0,1,14.65,8.79A39.73,39.73,0,0,1,565,626.43l-.3.48a13.63,13.63,0,0,1-.9,1.27,41.88,41.88,0,0,1-9.6,9,32.81,32.81,0,0,1-8.27,3.74,31,31,0,0,1-4.84,1,25.83,25.83,0,0,1-5.27,0,30.21,30.21,0,0,1-11.35-3.56,45.62,45.62,0,0,1-11.82-9.92,68.64,68.64,0,0,1-5.79-7.7A102.59,102.59,0,0,1,501.2,610.78ZM562,626.71c-1.9-4.87-4.79-7.58-8-9a18,18,0,0,0-9.94-.82,34.8,34.8,0,0,0-8.66,2.48c-1.14.48-2.07.94-2.72,1.26s-1,.49-1,.49a40.33,40.33,0,0,0,6.12,7.49,21.71,21.71,0,0,0,5.79,4A14.38,14.38,0,0,0,548.9,634a11.4,11.4,0,0,0,4.56-.59,17.1,17.1,0,0,0,6.35-4.09A16.58,16.58,0,0,0,562,626.71Z"/><path class="cls-2" d="M174.1,249.76s.65,2.25,1.23,5.6c.29,1.67.56,3.62.72,5.7a47.62,47.62,0,0,1,.26,6.6c-.05,1.13-.14,2.26-.3,3.37a28.6,28.6,0,0,1-.59,3.35,19.8,19.8,0,0,1-2.64,6.21,16.8,16.8,0,0,1-5,5.11,20.8,20.8,0,0,1-3.67,2,27.94,27.94,0,0,1-4.5,1.48,20.4,20.4,0,0,1-3-3.36,21,21,0,0,1-3.72-9.16,17.65,17.65,0,0,1-.17-3,18.73,18.73,0,0,1,.45-3.22,21.36,21.36,0,0,1,3-6.93,33.26,33.26,0,0,1,6.68-7.1A55.11,55.11,0,0,1,174.1,249.76Zm-14.36,37.57a9.15,9.15,0,0,0,6.06-4,11.71,11.71,0,0,0,1.44-6.09,26.57,26.57,0,0,0-1.42-8.2c-4,2.16-6.49,4.46-7.86,6.62a8.92,8.92,0,0,0-1.29,6,9.71,9.71,0,0,0,1.72,4.14A9,9,0,0,0,159.74,287.33Z"/><path d="M614.86,602.43l1.76,2.44a318.09,318.09,0,0,1-38.81,23.66l-10.21,5c-3.47,1.54-7,3-10.44,4.53l-2.61,1.12c-.87.36-1.77.68-2.65,1l-5.33,2-5.32,2L535.84,646l-5.42,1.74-2.7.87-2.75.74c-3.66,1-7.31,2-11,3l-11.11,2.45c-1.84.45-3.72.73-5.59,1.06l-5.6,1a290.94,290.94,0,0,1-90.62.78l-5.62-.87c-1.87-.29-3.75-.55-5.6-1l-11.15-2.24-11-2.75c-.92-.24-1.84-.45-2.75-.7l-2.73-.82-5.44-1.63A302.41,302.41,0,0,1,314.42,631a310.66,310.66,0,0,1-39.21-23L266,601.34,257,594.29l-2.22-1.77-2.15-1.87-4.28-3.74-4.28-3.75-4.1-3.94-4.1-3.94-2-2-2-2.06-7.8-8.28c-4.93-5.76-10-11.43-14.54-17.48a295.13,295.13,0,0,1-56-123.14,301.79,301.79,0,0,1-5.3-45.14l-.14-2.84,0-2.85-.08-5.68c0-3.79.12-7.58.17-11.37.22-3.79.35-7.58.64-11.36l.49-5.66.25-2.84.34-2.82a302.23,302.23,0,0,1,8.51-44.64l2.9.78a299.13,299.13,0,0,0-8.43,44.2l-.34,2.79-.24,2.81-.48,5.6c-.29,3.75-.43,7.5-.64,11.24-.05,3.76-.2,7.51-.17,11.26l.08,5.63,0,2.81.14,2.82a297.13,297.13,0,0,0,5.25,44.68,287.86,287.86,0,0,0,12.1,43.32,289.35,289.35,0,0,0,43.29,78.57c4.53,6,9.52,11.6,14.4,17.3l7.72,8.2,1.94,2,2,1.95,4.06,3.91,4.06,3.9,4.23,3.71,4.25,3.7,2.12,1.85,2.2,1.75,8.83,7,9.15,6.55c49.25,34.46,109.44,52.58,169.47,52.16a306,306,0,0,0,44.82-3.9l5.54-1c1.85-.33,3.71-.6,5.53-1l11-2.43c3.63-.93,7.24-1.94,10.87-2.91l2.71-.74,2.69-.86,5.35-1.72,5.36-1.73,5.27-2,5.27-2c.87-.34,1.76-.65,2.63-1l2.58-1.11c3.44-1.5,6.9-3,10.33-4.48l10.11-4.95A314.9,314.9,0,0,0,614.86,602.43Z"/><path class="cls-1" d="M662.48,602.1l-77.41-36.7a265.33,265.33,0,0,0,14.38-38.2l1.37-4.92.7-2.45c.21-.82.38-1.66.57-2.49.74-3.32,1.54-6.62,2.26-10l1.79-10c.17-.83.28-1.67.38-2.52l.32-2.53.66-5.06a255.67,255.67,0,0,0,1.43-40.76l-.3-5.1-.14-2.55-.07-1.27-.14-1.27-1.07-10.17L605.68,416c-.21-1.69-.61-3.35-.94-5l-1-5a259.35,259.35,0,0,0-11.64-39.16l-1.9-4.74c-.65-1.58-1.21-3.19-2-4.72L584,348.05,579.34,339c-.74-1.54-1.66-3-2.49-4.46l-2.54-4.43a257.24,257.24,0,0,0-23.46-33.36c-2.24-2.56-4.39-5.2-6.67-7.72l-7-7.42c-2.4-2.41-4.89-4.72-7.32-7.1L528,272.69,526.1,271l-3.84-3.36a261.65,261.65,0,0,0-32.92-24.13l-8.86-5.14-2.22-1.28L476,235.92l-4.54-2.38c-3-1.56-6.14-3-9.2-4.47-3.14-1.34-6.23-2.77-9.39-4A256.28,256.28,0,0,0,414,212.65c-1.65-.43-3.33-.72-5-1.08l-5-1-5-.85c-1.68-.28-3.35-.6-5-.8-3.37-.43-6.73-1-10.13-1.25l-5.07-.51-5.09-.34c-3.4-.28-6.8-.31-10.2-.44-1.7-.09-3.4,0-5.11,0h-5.1c-6.81.22-13.62.51-20.39,1.25a248.23,248.23,0,0,0-40.18,7.34,253.13,253.13,0,0,0-38.49,13.7,260,260,0,0,0-35.75,19.7l-47.34-71.4A345.77,345.77,0,0,1,219,150.48a338.63,338.63,0,0,1,51.51-18.34,333.78,333.78,0,0,1,53.79-9.83c9.08-1,18.2-1.4,27.33-1.66l6.85,0c2.28,0,4.57,0,6.85.07,4.56.16,9.13.24,13.68.6l6.84.46,6.82.67c4.55.4,9.07,1.09,13.6,1.69,2.27.28,4.52.69,6.77,1.07l6.75,1.15,6.72,1.38c2.23.47,4.48.88,6.7,1.45a342,342,0,0,1,52.16,16.6c4.23,1.72,8.38,3.61,12.57,5.43,4.1,2,8.24,3.89,12.3,6l6,3.17,3,1.59,3,1.7c3.94,2.28,7.89,4.54,11.81,6.86a347.67,347.67,0,0,1,44.14,32.33l5.15,4.52L586,209.6l2.47,2.37c3.28,3.18,6.61,6.31,9.83,9.55l9.4,10c3.07,3.38,6,6.9,9,10.36a342.85,342.85,0,0,1,31.5,44.77l3.41,5.94c1.11,2,2.31,3.94,3.32,6l6.24,12.18,5.68,12.46c1,2.06,1.76,4.2,2.63,6.31l2.55,6.35a345.38,345.38,0,0,1,15.58,52.4L688.9,395c.43,2.24.93,4.47,1.24,6.73l2.05,13.54,1.43,13.61.18,1.7.1,1.71.21,3.42.4,6.83a343.71,343.71,0,0,1-1.92,54.71l-.88,6.79-.45,3.4c-.14,1.13-.3,2.26-.52,3.39l-2.41,13.49c-.94,4.47-2,8.92-3,13.37-.26,1.11-.5,2.23-.78,3.34l-.92,3.3-1.84,6.6A350.37,350.37,0,0,1,662.48,602.1Z"/><path class="cls-2" d="M242.09,184.91a17.53,17.53,0,0,1-7.43,5.46A13.32,13.32,0,0,1,229,191a20.88,20.88,0,0,1-7.14-2.09,44.13,44.13,0,0,1-8.92-6,98.36,98.36,0,0,1-10.89-10.8s.46-.38,1.3-1a31.85,31.85,0,0,1,3.58-2.32,47.31,47.31,0,0,1,5.37-2.63c1-.42,2.08-.82,3.17-1.17a34.28,34.28,0,0,1,3.43-.81,25.74,25.74,0,0,1,7.18-.39A19,19,0,0,1,233.2,166c4.57,2.47,8.57,7.15,11.41,15.09A21.27,21.27,0,0,1,242.09,184.91Zm-3.85.37a8.69,8.69,0,0,0,4.63-4.21c-2.62-7.27-7.4-8.52-11.57-7.94a19.84,19.84,0,0,0-7.53,3.2C230.55,185.13,235.15,186.24,238.24,185.28Z"/><path class="cls-2" d="M228.08,211.76a36.09,36.09,0,0,1,0-10.48,17.55,17.55,0,0,1,2.53-6.91,12.72,12.72,0,0,1,4.09-3.89,14.84,14.84,0,0,1,9-1.77,18.41,18.41,0,0,1,4.37.88c3.49,7.67,4.05,13.8,3.1,18.61a19.39,19.39,0,0,1-2.45,6.29,20.65,20.65,0,0,1-3.86,4.74,26.16,26.16,0,0,1-2.23,1.82c-.75.57-1.51,1.1-2.25,1.57a31.84,31.84,0,0,1-4.28,2.24c-1.31.55-2.4,1-3.2,1.29s-1.26.41-1.26.41A81.59,81.59,0,0,1,228.08,211.76Zm12.75-20.57c-2.77,1.51-4.9,5.92-2.16,16.54a16,16,0,0,0,6.49-3.29c2.86-2.39,5-6.57,1.76-13.59A8.24,8.24,0,0,0,240.83,191.19Z"/><path class="cls-2" d="M274.57,171.45a29.55,29.55,0,0,1-2.26,2.51,17.93,17.93,0,0,1-8.31,4.78c-7.11,1.65-17.17-1.76-31.57-21.81,0,0,.52-.35,1.45-.89a35.75,35.75,0,0,1,4-2,51.32,51.32,0,0,1,5.85-2.17,34.9,34.9,0,0,1,7.06-1.33,22.07,22.07,0,0,1,14.58,3.28c4.42,2.93,8,8.19,10,16.55C275.37,170.38,275.09,170.8,274.57,171.45ZM268.31,174a8,8,0,0,0,3.86-2.18,10.11,10.11,0,0,0,1.4-1.66c-1.86-7.68-6.63-9.41-11-9.22a16.85,16.85,0,0,0-5.72,1.32,21,21,0,0,0-2.44,1.15C260.36,173,265,174.6,268.31,174Z"/><path class="cls-2" d="M264,178.86a16.2,16.2,0,0,1,9.48-.87,18.27,18.27,0,0,1,3.2.86c.78.29,1.22.51,1.22.51,2.7,8.19,2.53,14.39,1,19.23a21.3,21.3,0,0,1-7.8,10.58,33.33,33.33,0,0,1-5,3,34.87,34.87,0,0,1-4.65,1.88c-1.4.45-2.62.74-3.46,1s-1.34.29-1.34.29C251.54,191.27,257.41,181.84,264,178.86Zm10.55,1a7.63,7.63,0,0,0-4.31.36c-3,1.24-5.76,5.47-4.16,16.6a16.85,16.85,0,0,0,2.34-.51,18.68,18.68,0,0,0,4.75-2.15c3.22-2.17,5.88-6.24,3.39-13.69A8.7,8.7,0,0,0,274.59,179.88Z"/><path class="cls-2" d="M304.86,166.09a19.18,19.18,0,0,1-9.17,3.94,16.15,16.15,0,0,1-6.11-.52,21.78,21.78,0,0,1-7.05-3.72c-5-3.69-10.63-10.31-16.9-21.31,0,0,.58-.29,1.62-.72s2.54-1,4.36-1.6A43.23,43.23,0,0,1,285.39,140a26.79,26.79,0,0,1,7.71,1.2,20,20,0,0,1,7,3.72c4.24,3.56,7.31,9.23,8.36,17.95A22.73,22.73,0,0,1,304.86,166.09Zm-4.14-.45a9.28,9.28,0,0,0,4.26-1.77,10.24,10.24,0,0,0,1.66-1.5c-1-8-5.75-10.43-10.29-10.6a21,21,0,0,0-6.09.68,19.24,19.24,0,0,0-2.66.92C292.61,163.69,297.24,166,300.72,165.64Z"/><path class="cls-2" d="M286.12,179.74a18.92,18.92,0,0,1,4.35-6.45,13.15,13.15,0,0,1,5.25-3.13,17,17,0,0,1,9.91.15,20.65,20.65,0,0,1,4.41,1.91c1.8,8.59.89,14.94-1.28,19.59a21.58,21.58,0,0,1-4.09,5.93,24.92,24.92,0,0,1-5.22,3.95,37.45,37.45,0,0,1-10.54,3.92c-1.49.32-2.77.51-3.68.61s-1.43.13-1.43.13C282.58,193.93,283.75,185.46,286.12,179.74Zm20.39-7.38a7.47,7.47,0,0,0-4.5-.13c-3.28,1-6.63,4.85-6.28,16.4a19.67,19.67,0,0,0,2.47-.28,16.43,16.43,0,0,0,5.17-1.63c3.56-1.95,6.83-5.6,5.15-13.49A9.9,9.9,0,0,0,306.51,172.36Z"/><path class="cls-2" d="M342.51,159.82a28.16,28.16,0,0,1-3,2,20.79,20.79,0,0,1-10,2.92,15.49,15.49,0,0,1-6.27-1.28,22.58,22.58,0,0,1-6.83-4.51c-4.73-4.43-9.75-11.67-14.91-23.52A52.74,52.74,0,0,1,308,133.7a58.64,58.64,0,0,1,6.76-.85c1.24-.08,2.52-.12,3.83-.1a36.15,36.15,0,0,1,4,.32,31.38,31.38,0,0,1,7.84,2.06,21.89,21.89,0,0,1,6.79,4.66,20.8,20.8,0,0,1,4.7,7.7,34.52,34.52,0,0,1,1.74,11.43S343.23,159.28,342.51,159.82Zm-13.18-1.76a9.84,9.84,0,0,0,3.05,2.16,7.23,7.23,0,0,0,2.89.68,10.33,10.33,0,0,0,6.52-2.65c0-8.22-4.66-11.12-9.35-12a20.78,20.78,0,0,0-6.38,0,23.07,23.07,0,0,0-2.87.6C325.15,152.5,327.26,156,329.33,158.06Z"/><path class="cls-2" d="M318.45,173.55a19.86,19.86,0,0,1,5.27-6.13,15.09,15.09,0,0,1,5.82-2.52,17.6,17.6,0,0,1,10.23,1.32,21.57,21.57,0,0,1,3.16,1.61c.74.48,1.16.81,1.16.81a38.67,38.67,0,0,1-.52,11.51,25.11,25.11,0,0,1-3.22,8.24,20.53,20.53,0,0,1-5,5.47,24,24,0,0,1-5.85,3.45c-1,.43-2,.76-3,1.08s-2,.6-3,.82a40,40,0,0,1-5.35.82,34.61,34.61,0,0,1-5.35.25C313.08,187.52,315.28,179,318.45,173.55Zm17.34-5.82a6.79,6.79,0,0,0-2.67,1.06,9.59,9.59,0,0,0-2.51,2.73c-1.55,2.46-2.79,6.28-3.32,12.1a17.3,17.3,0,0,0,2.59,0,19.19,19.19,0,0,0,5.53-1.11c3.93-1.43,7.75-4.91,7-13.07A9.57,9.57,0,0,0,335.79,167.73Z"/><path class="cls-2" d="M375.84,161.77a22.09,22.09,0,0,1-10.67,1.71,18.06,18.06,0,0,1-3.12-.69,16.46,16.46,0,0,1-3.2-1.35,23.17,23.17,0,0,1-6.51-5.47c-4.33-4.91-8.64-13-12.52-25.6l.49-.11c.32-.08.8-.17,1.41-.26,1.21-.19,2.94-.42,5-.58a47.1,47.1,0,0,1,7.11-.1,49.71,49.71,0,0,1,8.07,1.17,31.15,31.15,0,0,1,7.86,3.12,23.89,23.89,0,0,1,3.48,2.4,20.14,20.14,0,0,1,3,3.13c3.58,4.64,5.37,11.13,4.24,20.21A25,25,0,0,1,375.84,161.77Zm-4.25-1.51a10,10,0,0,0,4.94-.7,11.52,11.52,0,0,0,2.14-1.11c.48-4.16-.35-7.13-1.92-9.25a11.26,11.26,0,0,0-6.24-4,23.46,23.46,0,0,0-6.61-.79,17.15,17.15,0,0,0-2.21.14c-.53.07-.84.13-.84.13C363.52,156.31,367.81,159.82,371.59,160.26Z"/><path class="cls-2" d="M352.62,171a20.34,20.34,0,0,1,6.21-5.49,15.86,15.86,0,0,1,3.2-1.35,14,14,0,0,1,3.13-.52,18.56,18.56,0,0,1,10.41,2.61,22.13,22.13,0,0,1,4.16,3c-.3,9.13-2.89,15.34-6.35,19.51a22.64,22.64,0,0,1-2.77,2.77,21.28,21.28,0,0,1-3,2.19,26.07,26.07,0,0,1-6.47,2.72,42.35,42.35,0,0,1-12,1.43c-1.66,0-3-.15-4-.26l-1.53-.19C345.33,184.48,348.68,176.22,352.62,171ZM376,168.52a8.63,8.63,0,0,0-4.7-1.28c-3.72.25-8.23,3.3-10.77,15.06,0,0,.27.06.73.12s1.14.14,1.94.22a18.39,18.39,0,0,0,5.84-.4,11.36,11.36,0,0,0,5.93-3.41c1.65-1.91,2.82-4.75,2.93-8.93A10,10,0,0,0,376,168.52Z"/><path class="cls-2" d="M413.43,166.42a22.39,22.39,0,0,1-11.25.29c-8.35-2-17.14-10.34-22-36.74,0,0,.73-.08,2-.15a42.58,42.58,0,0,1,5.28,0,65.06,65.06,0,0,1,7.38.83,46.49,46.49,0,0,1,8.21,2.27,39.94,39.94,0,0,1,4,1.78,30.66,30.66,0,0,1,3.72,2.4,23.08,23.08,0,0,1,6,6.43c3.09,5.21,4.1,12,1.76,21.07A25.76,25.76,0,0,1,413.43,166.42Zm-9.72-6.52a9.12,9.12,0,0,0,5.51,4.46,10.91,10.91,0,0,0,5.21-.08,11.75,11.75,0,0,0,2.34-.82c1-4.14.57-7.27-.78-9.64a12,12,0,0,0-5.94-4.91,22.51,22.51,0,0,0-6.73-1.68,25.08,25.08,0,0,0-3.19-.12C400.75,153.24,402.08,157.25,403.71,159.9Z"/><path class="cls-2" d="M402.16,166.85a20.7,20.7,0,0,1,10.41,4.05,23.15,23.15,0,0,1,3.89,3.65c-1.5,9.2-5,15.11-9.07,18.84a22.52,22.52,0,0,1-6.63,4.28,23,23,0,0,1-3.49,1.16,27.67,27.67,0,0,1-3.52.76,39.26,39.26,0,0,1-6.76.34,42.66,42.66,0,0,1-5.82-.49c-1.69-.29-3.11-.53-4.1-.74s-1.56-.38-1.56-.38C382.48,172.49,393.61,166.4,402.16,166.85Zm10.53,6.42a8.9,8.9,0,0,0-4.7-1.88,8.47,8.47,0,0,0-6.43,2.43c-2.27,2.06-4.57,5.63-6.63,11.38a19.79,19.79,0,0,0,2.71.68,23,23,0,0,0,6.08.38,11.69,11.69,0,0,0,6.56-2.7c1.94-1.69,3.53-4.4,4.18-8.62A10.71,10.71,0,0,0,412.69,173.27Z"/><path class="cls-2" d="M451.6,176.37A23.94,23.94,0,0,1,440,175.1a18.46,18.46,0,0,1-6.09-3.81,26.73,26.73,0,0,1-5.4-7.24c-3.22-6.29-5.66-15.45-6.45-29.22a63.64,63.64,0,0,1,7.58.85,71,71,0,0,1,7.51,1.91c1.35.43,2.74.88,4.11,1.47s2.74,1.24,4.09,2c5.4,2.83,10.24,7.1,12.77,12.7s2.64,12.79-1,21.58A28.66,28.66,0,0,1,451.6,176.37Zm-9.16-8a9.89,9.89,0,0,0,5.09,5.29,10.84,10.84,0,0,0,5.39.63,11.63,11.63,0,0,0,2.52-.48c1.63-4,1.56-7.29.48-9.88a12.88,12.88,0,0,0-5.48-5.8,22.47,22.47,0,0,0-3.5-1.7,32.56,32.56,0,0,0-3.24-.95,28.1,28.1,0,0,0-3.28-.58C440.26,161.23,441.09,165.52,442.44,168.41Z"/><path class="cls-2" d="M424.79,179.24a20.75,20.75,0,0,1,8-3.88,17.56,17.56,0,0,1,7.13-.12,21.63,21.63,0,0,1,10.22,5.54,24.07,24.07,0,0,1,3.53,4.26c-2.78,9.13-7.12,14.54-11.86,17.8a26.25,26.25,0,0,1-14.86,4.34,32.59,32.59,0,0,1-3.59-.17c-1.16-.12-2.32-.22-3.41-.4a46.39,46.39,0,0,1-5.92-1.34,41.12,41.12,0,0,1-5.69-1.88C413.6,190.87,419.31,183.29,424.79,179.24Zm25.15,3.95a10,10,0,0,0-4.61-2.55,8.6,8.6,0,0,0-6.94,1.56c-2.62,1.78-5.45,5-8.34,10.57a21.84,21.84,0,0,0,2.7,1.09,24.79,24.79,0,0,0,2.85.75,19.83,19.83,0,0,0,3.37.47,11.76,11.76,0,0,0,7.12-1.81c2.23-1.44,4.21-3.94,5.45-8.13A11.33,11.33,0,0,0,449.94,183.19Z"/><path class="cls-2" d="M493.76,192c-1,.1-2.45.11-4.17.09a28.72,28.72,0,0,1-5.67-.7,26,26,0,0,1-6.15-2.32,19.52,19.52,0,0,1-5.75-4.78,26.72,26.72,0,0,1-4.6-8.12,41.25,41.25,0,0,1-1.62-5.69,60.9,60.9,0,0,1-1.08-6.85,104.31,104.31,0,0,1-.08-18,67.25,67.25,0,0,1,7.7,2,58,58,0,0,1,7.5,3c1.34.63,2.7,1.32,4.05,2.08s2.66,1.67,3.95,2.6a35.44,35.44,0,0,1,7,6.47,25.6,25.6,0,0,1,4.47,8.3,21.84,21.84,0,0,1,.58,10,34.36,34.36,0,0,1-4.48,11.71S494.79,191.89,493.76,192Zm-8-3.24a11.25,11.25,0,0,0,5.45,1.45,13.72,13.72,0,0,0,2.67-.12c2.21-3.84,2.59-7.18,1.81-9.93a13.58,13.58,0,0,0-4.86-6.71,24.1,24.1,0,0,0-6.59-3.67,30.54,30.54,0,0,0-3.29-1.09C479,181.39,482.08,186.48,485.77,188.73Z"/><path class="cls-2" d="M451.86,198.81a47.79,47.79,0,0,1,5-4.66,33.2,33.2,0,0,1,4.76-3.16,22.56,22.56,0,0,1,8.75-2.77,18.63,18.63,0,0,1,13.09,4.13,26.63,26.63,0,0,1,4,4,23,23,0,0,1,2.32,3.4c.5.88.74,1.43.74,1.43a38.72,38.72,0,0,1-6.84,10.48,26.65,26.65,0,0,1-7.76,5.8,23.72,23.72,0,0,1-8,2.3,31.38,31.38,0,0,1-7.82-.11c-1.26-.17-2.48-.43-3.67-.7s-2.36-.56-3.47-.89c-2.21-.66-4.19-1.52-5.9-2.21a41.66,41.66,0,0,1-5.6-2.74A83,83,0,0,1,451.86,198.81Zm35.1-.1a10.65,10.65,0,0,0-4.39-3.27c-3.9-1.54-9.95-.31-17.35,10a21.08,21.08,0,0,0,2.63,1.5,26.06,26.06,0,0,0,6.24,2.15,12.21,12.21,0,0,0,7.55-.76c2.51-1.16,4.87-3.37,6.71-7.43A10.74,10.74,0,0,0,487,198.71Z"/><path class="cls-2" d="M526.49,213.77a43.32,43.32,0,0,1-5.72-1.59,22.81,22.81,0,0,1-6-3.3C507,203,501.34,191,507.15,162.81A72.94,72.94,0,0,1,514.8,166a59.44,59.44,0,0,1,7.29,4.22,63.16,63.16,0,0,1,7.62,5.9c4.74,4.68,8.69,10.35,9.76,16.8s-.82,13.75-7,21.5A29.57,29.57,0,0,1,526.49,213.77Zm-7.31-10.86a10.47,10.47,0,0,0,3.84,6.88,10.86,10.86,0,0,0,2.79,1.54,15.27,15.27,0,0,0,2.6.81,13.17,13.17,0,0,0,2.74.3c5.62-7.1,3.28-13.32-.85-17.39a30.28,30.28,0,0,0-6.25-4.78,19.21,19.21,0,0,0-3.23-1.61C519,194.88,518.59,199.56,519.18,202.91Z"/><path class="cls-2" d="M514.69,209a23.09,23.09,0,0,1,5.46,4.1,22.1,22.1,0,0,1,3.59,4.64,26.67,26.67,0,0,1,2.46,5.41c-5.4,8.31-11.43,12.47-17.17,14.21a27.32,27.32,0,0,1-16.53-.22,39.66,39.66,0,0,1-7.15-2.64c-2.18-1-4.07-2.22-5.75-3.15a45.83,45.83,0,0,1-5.38-3.63C492,205.61,506.13,204.54,514.69,209Zm8.18,11.12a12.87,12.87,0,0,0-1.58-2.17,10.17,10.17,0,0,0-2.46-1.85,9.79,9.79,0,0,0-7.65-.55c-3.19,1-7,3.29-11.51,8.05,0,0,1,.81,2.49,1.93a23.45,23.45,0,0,0,6.08,3.17c4.89,1.5,10.82,1.55,15.75-6.11A13.29,13.29,0,0,0,522.87,220.13Z"/><path class="cls-2" d="M561.21,241.76c-3.36-1.34-7.79-3.26-11.27-6.9-7.05-7.26-11.22-20.34-1.44-48a78.53,78.53,0,0,1,7.45,4.43,56.24,56.24,0,0,1,6.92,5.45,65.32,65.32,0,0,1,7,7.25,43.93,43.93,0,0,1,5.32,8.91,24.94,24.94,0,0,1,2.28,9.83c.1,6.85-2.79,13.83-10.24,20.69A31.46,31.46,0,0,1,561.21,241.76Zm-2.94-4.64a14.41,14.41,0,0,0,5.14,3.3,14,14,0,0,0,2.77.75c3.38-3.16,4.69-6.37,4.71-9.45a12.59,12.59,0,0,0-.83-4.46,18.22,18.22,0,0,0-2.24-3.93,32.22,32.22,0,0,0-5.74-5.88c-.87-.71-1.64-1.26-2.18-1.64s-.9-.54-.9-.54C553.38,227.45,555,233.77,558.27,237.12Z"/><path class="cls-2" d="M520.51,236.48a50.29,50.29,0,0,1,6.47-3.16,31.7,31.7,0,0,1,5.78-1.67,24.67,24.67,0,0,1,9.78,0,17.86,17.86,0,0,1,4,1.3,21.9,21.9,0,0,1,3.32,2,24.06,24.06,0,0,1,8,10.38,27.82,27.82,0,0,1,1.75,5.88c-6.71,7.56-13.49,10.81-19.61,11.65a29,29,0,0,1-8.9-.24,31.24,31.24,0,0,1-7.91-2.67,42.74,42.74,0,0,1-6.9-3.8c-2.08-1.38-3.84-2.89-5.45-4.08a47.74,47.74,0,0,1-5-4.49A84,84,0,0,1,520.51,236.48Zm36.08,11.16a10.77,10.77,0,0,0-3.52-4.79c-3.68-2.69-10.1-3.58-20.65,4.52,0,0,.22.25.61.66s.94,1,1.64,1.71a24.44,24.44,0,0,0,5.77,4.19,15.91,15.91,0,0,0,3.81,1.39,11.34,11.34,0,0,0,4.13.31c2.86-.32,6-1.82,9-5.31A12.79,12.79,0,0,0,556.59,247.64Z"/><path class="cls-2" d="M592.46,276.15a32.93,32.93,0,0,1-5.28-3.63c-.44-.37-.88-.77-1.32-1.18s-.9-.82-1.34-1.26a24.41,24.41,0,0,1-2.49-2.91,23.11,23.11,0,0,1-3.61-7.62,28.51,28.51,0,0,1-1.13-10.22,43.64,43.64,0,0,1,.83-6.39c.22-1.14.5-2.32.82-3.54s.66-2.45,1.07-3.74a105.64,105.64,0,0,1,7.6-17.65,82.05,82.05,0,0,1,7,5.73,92,92,0,0,1,6.26,6.76,51.36,51.36,0,0,1,6,8.63,46.71,46.71,0,0,1,4.19,9.92,25.77,25.77,0,0,1,.89,5.23,26.28,26.28,0,0,1-.12,5.25c-.87,7-4.84,13.56-13.47,19.26A33.29,33.29,0,0,1,592.46,276.15Zm-4.16-13.52a12.24,12.24,0,0,0,1.88,8.26,13.48,13.48,0,0,0,4.73,4.26,15,15,0,0,0,2.73,1.22c7.87-5.25,7.16-12.21,4.39-17.93a34.81,34.81,0,0,0-5-6.92,36.23,36.23,0,0,0-2.82-2.75C590.38,254.51,588.69,259.05,588.3,262.63Z"/><path class="cls-2" d="M551.84,263.83c1.25-.48,2.46-.9,3.64-1.25s2.28-.62,3.37-.84A35,35,0,0,1,565,261a25.76,25.76,0,0,1,10,1.6,22.25,22.25,0,0,1,6.9,4.67,23.92,23.92,0,0,1,2.49,2.9c.37.5.71,1,1,1.51s.58,1.05.84,1.57a32.42,32.42,0,0,1,2.19,6,28.76,28.76,0,0,1,.95,6.25c-8,6.53-15.39,8.69-21.79,8.54a24.85,24.85,0,0,1-4.63-.55,38,38,0,0,1-4.31-1.26,33.15,33.15,0,0,1-7.72-4,72.44,72.44,0,0,1-6.42-5.06,55.43,55.43,0,0,1-4.9-5.07,50,50,0,0,1-4.47-5.34A83.87,83.87,0,0,1,551.84,263.83Zm35,17.5a12.72,12.72,0,0,0-2.86-5.49c-1.55-1.78-4.09-3-7.61-3.15s-8.14,1-14.1,4.25a26.68,26.68,0,0,0,1.94,2.8,25.93,25.93,0,0,0,5.3,5.18c4.29,3.35,10.48,5.28,17.76-.74A14.06,14.06,0,0,0,586.88,281.33Z"/><path class="cls-2" d="M618.93,316.67a31.64,31.64,0,0,1-9.15-11,24.84,24.84,0,0,1-2.62-8.33,34.79,34.79,0,0,1,.52-10.69,54.07,54.07,0,0,1,4.82-13.45c1.24-2.5,2.75-5.17,4.47-7.95s3.7-5.68,6-8.76c0,0,.7.66,1.84,1.86a66.33,66.33,0,0,1,4.36,5.27c1.7,2.25,3.6,4.93,5.44,7.92a73.44,73.44,0,0,1,4.74,9.93,48.54,48.54,0,0,1,1.74,5.36,42.71,42.71,0,0,1,.93,5.54,29.53,29.53,0,0,1-.76,10.8c-2,7-7.19,13.07-16.81,17.35A34.07,34.07,0,0,1,618.93,316.67Zm-2.1-14.54a12.3,12.3,0,0,0,.53,8.82,16.33,16.33,0,0,0,4.19,5.15,15.08,15.08,0,0,0,2.52,1.76c4.39-2,6.73-4.79,7.73-7.91s.48-6.47-.51-9.6a32.07,32.07,0,0,0-1.82-4.43c-.34-.68-.69-1.33-1-1.94s-.73-1.15-1.08-1.65a38.26,38.26,0,0,0-2.49-3.27C620.14,294.25,617.82,298.52,616.83,302.13Z"/><path class="cls-2" d="M571.06,299.29a69,69,0,0,1,8.51-2.28,42.46,42.46,0,0,1,13.84-.62,23.86,23.86,0,0,1,9.83,3.45,22.92,22.92,0,0,1,6.4,5.89,29.47,29.47,0,0,1,4.76,13.38,30.26,30.26,0,0,1-.15,6.61c-9.13,5.28-16.89,6.12-23.29,4.8a27.61,27.61,0,0,1-8.87-3.37,31.58,31.58,0,0,1-3.73-2.57c-1.2-.91-2.37-1.86-3.45-2.86a49.69,49.69,0,0,1-5.64-6.32,57,57,0,0,1-4.31-5.94c-1.18-1.8-2-3.43-2.67-4.5s-1-1.76-1-1.76A102,102,0,0,1,571.06,299.29ZM612.44,321a12.34,12.34,0,0,0-2.09-6.07,11.15,11.15,0,0,0-7.16-4.6c-3.54-.74-8.48-.34-15,1.9a28.39,28.39,0,0,0,1.59,3.15c.27.46.56.94.89,1.45s.64,1.06,1,1.6a25.15,25.15,0,0,0,2.57,3.24,15.2,15.2,0,0,0,7.48,4.51c3,.7,6.52.29,10.68-2.16A14.36,14.36,0,0,0,612.44,321Z"/><path class="cls-2" d="M642.55,366.52c-.87-.85-2.19-2-3.53-3.6a37.24,37.24,0,0,1-4.09-5.6c-.65-1.08-1.22-2.26-1.81-3.47a28.75,28.75,0,0,1-1.54-3.86,25.88,25.88,0,0,1-1.15-9.05,31.49,31.49,0,0,1,2.16-10.8,50.15,50.15,0,0,1,2.88-6.19,70.81,70.81,0,0,1,4.16-6.7A109.21,109.21,0,0,1,652.87,302a92.27,92.27,0,0,1,5.17,8.39c.74,1.28,1.41,2.72,2.1,4.25s1.38,3.17,2,4.88a57.07,57.07,0,0,1,3.26,11,51.57,51.57,0,0,1,1,11.63,31.51,31.51,0,0,1-2.68,11,23.29,23.29,0,0,1-7.1,8.88,34.54,34.54,0,0,1-12.64,5.8S643.44,367.36,642.55,366.52Zm-3.25-18.86a13.92,13.92,0,0,0-1.22,4.88,12.54,12.54,0,0,0,.36,4.22,15.36,15.36,0,0,0,3.34,6,16.81,16.81,0,0,0,2.34,2.24c9.54-2.47,11.08-9.79,10.17-16.62a25.18,25.18,0,0,0-1.17-4.84c-.5-1.51-1.06-2.89-1.58-4.06a38.74,38.74,0,0,0-1.92-3.82C644,340.16,640.85,344.16,639.3,347.66Z"/><path class="cls-2" d="M602.5,335.73a47.23,47.23,0,0,1,7.72.37,36.6,36.6,0,0,1,6.37,1.46,28,28,0,0,1,9.47,5.25,24.67,24.67,0,0,1,5.37,7.24A26.94,26.94,0,0,1,633,353.9a24.71,24.71,0,0,1,.81,3.83,34.86,34.86,0,0,1,.25,6.87,28.26,28.26,0,0,1-.65,4.85c-.28,1.18-.51,1.86-.51,1.86A39.08,39.08,0,0,1,619.3,374a29.18,29.18,0,0,1-10.82-2,27.78,27.78,0,0,1-8.26-5.08,36.77,36.77,0,0,1-6.41-6.82,82.19,82.19,0,0,1-4.75-7.43c-.67-1.22-1.28-2.42-1.81-3.58s-1-2.28-1.49-3.29a55.1,55.1,0,0,1-2.72-7A83.87,83.87,0,0,1,602.5,335.73Zm29.28,30.42a14.45,14.45,0,0,0-1.07-6.61,10.84,10.84,0,0,0-2.29-3.37,13.31,13.31,0,0,0-4.23-2.61c-3.5-1.38-8.45-1.89-15.43-.79a29.64,29.64,0,0,0,1,3.54,34.14,34.14,0,0,0,1.43,3.45,42,42,0,0,0,2.12,3.74c3.19,4.95,8.74,9.15,17.95,5.69A14.9,14.9,0,0,0,631.78,366.15Z"/><path class="cls-2" d="M654.31,418.31a44.6,44.6,0,0,1-2.92-4.35,39.87,39.87,0,0,1-3.07-6.5,33,33,0,0,1-2.14-8.12,31.75,31.75,0,0,1,4.46-20.16,58.15,58.15,0,0,1,9.2-11.91,114,114,0,0,1,15.94-13.21,25.61,25.61,0,0,1,1.16,2.6c.68,1.66,1.61,4.06,2.58,7a68.48,68.48,0,0,1,2.7,10.1,80.38,80.38,0,0,1,1.45,11.88,55.48,55.48,0,0,1-1.11,12.14c-.21,1-.46,1.93-.74,2.87a28.14,28.14,0,0,1-1,2.78,29.91,29.91,0,0,1-2.79,5.1c-4.36,6.38-11.42,10.62-22.4,11.39C655.6,419.9,655.09,419.33,654.31,418.31Zm0-19.94a13.84,13.84,0,0,0-2.39,9.16,16.27,16.27,0,0,0,2.24,6.83,17.43,17.43,0,0,0,1.93,2.73c5-.4,8.25-2.36,10.26-5.17a17.91,17.91,0,0,0,2.93-10,42.11,42.11,0,0,0-1.21-9.63c-.31-1.3-.62-2.37-.85-3.11a7.88,7.88,0,0,0-.3-.86l-.12-.31C660.44,391.54,656.51,395.07,654.34,398.37Z"/><path class="cls-2" d="M619.3,379.42a43.38,43.38,0,0,1,14,4.43c7.25,4.06,11.29,9.79,12.77,15.52a29.24,29.24,0,0,1,1.08,8.3,37.47,37.47,0,0,1-2.52,11.94c-.45,1.15-.79,1.8-.79,1.8-10.76,1.94-18.8-.08-24.69-3.78a27.38,27.38,0,0,1-4-3.11c-.62-.56-1.17-1.15-1.75-1.75s-1.15-1.22-1.68-1.85a38.11,38.11,0,0,1-5.17-8.16,55.57,55.57,0,0,1-3.54-8.45c-.84-2.77-1.66-5.34-2.22-7.6s-.93-4.18-1.14-5.54-.34-2.14-.34-2.14A83.1,83.1,0,0,1,619.3,379.42Zm24.24,36.51a15.22,15.22,0,0,0,.14-7,12.07,12.07,0,0,0-5.57-7.31c-3.27-2.06-8.1-3.52-15.35-3.65l0,.27c0,.18.05.45.07.78,0,.67.15,1.63.32,2.76a31.12,31.12,0,0,0,2.32,8,16.29,16.29,0,0,0,5.68,7.37c2.72,1.81,6.39,2.72,11.32,1.78A15.3,15.3,0,0,0,643.54,415.93Z"/><path class="cls-2" d="M654.56,468.58a43.05,43.05,0,0,1-1.85-7.24,33,33,0,0,1-.65-8.72,28.5,28.5,0,0,1,.68-4.74,29.59,29.59,0,0,1,1.37-4.9,35.93,35.93,0,0,1,6.1-10.19,57.48,57.48,0,0,1,11.37-10.49,95.78,95.78,0,0,1,8.26-5.31c3-1.76,6.36-3.52,10.06-5.27,0,0,.31,1,.77,2.87s.88,4.48,1.33,7.66c.22,1.59.43,3.32.61,5.14a52.94,52.94,0,0,1,.31,5.75,92.06,92.06,0,0,1-.72,12.48c-1.43,8.46-4.22,16.76-9.93,22.44s-13.47,8.72-24.61,7.41A41.15,41.15,0,0,1,654.56,468.58Zm5.86-15.41a14.21,14.21,0,0,0-4.08,8.93,17.23,17.23,0,0,0,.95,7.42,18.33,18.33,0,0,0,1.42,3.17c5.1.54,8.72-.85,11.27-3.35a15.67,15.67,0,0,0,3.08-4.41,20.08,20.08,0,0,0,1.71-5.29,45,45,0,0,0,.59-10.11,26.3,26.3,0,0,0-.52-4.63C667.84,447.31,663.22,450.19,660.42,453.17Z"/><path class="cls-2" d="M619.59,424.68a68.81,68.81,0,0,1,9.08,2.51,45,45,0,0,1,13.23,7.14,28.66,28.66,0,0,1,7.27,8.91,26.71,26.71,0,0,1,1.92,4.7,29,29,0,0,1,.8,4.68,33.06,33.06,0,0,1-.45,8.71,38.41,38.41,0,0,1-2.34,7.06,34.07,34.07,0,0,1-3.56,6.37c-11.18-.07-18.85-3.67-24.06-8.56a37.78,37.78,0,0,1-9.93-17.56,55.82,55.82,0,0,1-2-9.28c-.16-1.49-.37-2.93-.54-4.3s-.27-2.67-.34-3.87c-.16-2.41-.12-4.44-.14-5.87s0-2.24,0-2.24A101.34,101.34,0,0,1,619.59,424.68Zm26.72,44.42a16.09,16.09,0,0,0,1.47-7.11,12.91,12.91,0,0,0-4.25-8.54c-2.9-2.73-7.44-5.13-14.76-6.63,0,0-.14,1.6-.25,4a32.67,32.67,0,0,0,.82,8.63,26.91,26.91,0,0,0,1.54,4.59,14,14,0,0,0,2.79,4c2.38,2.37,5.89,4,11,4A15.68,15.68,0,0,0,646.31,469.1Z"/><path class="cls-2" d="M648.65,532.18l-.42-1.55a48.44,48.44,0,0,1-1.12-5.53,44,44,0,0,1-.42-7.78,38.37,38.37,0,0,1,1.09-9,30.5,30.5,0,0,1,1.61-4.71,36,36,0,0,1,2.34-4.75,37.31,37.31,0,0,1,8.09-9.26A59.06,59.06,0,0,1,673.23,481a95.77,95.77,0,0,1,9.3-3.87c3.35-1.23,7-2.4,11.07-3.49,0,0,.11,1.13.22,3.1s0,4.77-.11,8.12c-.08,1.68-.2,3.49-.38,5.4-.09.95-.19,1.93-.3,2.93s-.31,2-.5,3a99.22,99.22,0,0,1-3.14,12.67,61.59,61.59,0,0,1-5.8,11.93c-.58.91-1.19,1.79-1.82,2.64s-1.38,1.65-2.1,2.42A32.42,32.42,0,0,1,675,530a25,25,0,0,1-11.49,4.49,34.3,34.3,0,0,1-14.67-1.74Zm13.89-25.07a25.47,25.47,0,0,0-6.49,3.36,15.69,15.69,0,0,0-3.9,4,16.94,16.94,0,0,0-2,4.31,18.37,18.37,0,0,0-.51,7.78,18.73,18.73,0,0,0,.8,3.51c5,1.56,8.89.84,11.94-1.21a19.9,19.9,0,0,0,6.76-9,47.56,47.56,0,0,0,2.57-10.26c.2-1.43.33-2.64.38-3.49s0-1.35,0-1.35A49.78,49.78,0,0,0,662.54,507.11Z"/><path class="cls-2" d="M620.66,473.49a69.22,69.22,0,0,1,8.62,4.3,45.76,45.76,0,0,1,11.9,9.82,30,30,0,0,1,5.55,10.52,24.87,24.87,0,0,1,1,5.18,31.11,31.11,0,0,1-.11,4.94,32.51,32.51,0,0,1-2.18,8.81,42.28,42.28,0,0,1-7.11,11.08,15.19,15.19,0,0,1-1.09,1.12l-.42.38a39.9,39.9,0,0,1-13.75-5.32,30.05,30.05,0,0,1-8.6-8.13,29.41,29.41,0,0,1-2.69-4.68c-.38-.81-.69-1.62-1-2.44s-.64-1.67-.91-2.51A41.84,41.84,0,0,1,608,496.38a56.53,56.53,0,0,1-.22-9.85c.05-.77.11-1.53.16-2.28s.07-1.48.12-2.2c.11-1.42.24-2.76.4-4,.3-2.48.74-4.54,1-6s.41-2.29.41-2.29A102.2,102.2,0,0,1,620.66,473.49ZM638.75,524a17.19,17.19,0,0,0,2.87-7,11.51,11.51,0,0,0-.24-4.6,14.6,14.6,0,0,0-2.3-5,22.16,22.16,0,0,0-5-5,40.84,40.84,0,0,0-8.49-4.66s-.12.4-.29,1.1-.48,1.7-.75,2.9a34.87,34.87,0,0,0-.86,9,17.9,17.9,0,0,0,2.61,9.63c1.92,2.88,5.11,5.23,10.25,6.21A17,17,0,0,0,638.75,524Z"/><path class="cls-2" d="M199.87,201.37a33.35,33.35,0,0,1,5.77-7.86,21.06,21.06,0,0,1,6.28-4.19,18.66,18.66,0,0,1,3.09-1,16.68,16.68,0,0,1,3-.39,21.21,21.21,0,0,1,9.69,2,20.53,20.53,0,0,1,3.85,2.32,27.93,27.93,0,0,1-.65,4.69,21,21,0,0,1-1.25,4,16.81,16.81,0,0,1-4.13,5.84,20,20,0,0,1-5.62,3.72,28.94,28.94,0,0,1-3.19,1.18,33.51,33.51,0,0,1-3.26.91,45,45,0,0,1-6.54.95c-2.07.22-4,.31-5.73.32-3.4,0-5.73-.19-5.73-.19A54.59,54.59,0,0,1,199.87,201.37ZM228,191.62a9.67,9.67,0,0,0-4.38-.94A8.93,8.93,0,0,0,218,193c-1.88,1.75-3.7,4.57-5.09,8.93a26.35,26.35,0,0,0,8.32-.08,11.8,11.8,0,0,0,5.73-2.52,9.23,9.23,0,0,0,2.83-6.69A9.32,9.32,0,0,0,228,191.62Z"/><path d="M622.27,583l2.71,1.29a319,319,0,0,0,16.22-42.46l3.07-11c.89-3.69,1.7-7.39,2.56-11.08l.63-2.78c.19-.92.34-1.86.51-2.79l1-5.6,1-5.6.73-5.64.74-5.64.35-2.82.24-2.83c.3-3.78.64-7.56.9-11.34l.4-11.37c.11-1.89,0-3.79,0-5.68l-.06-5.69a291,291,0,0,0-15.69-89.25l-1.87-5.37c-.63-1.79-1.22-3.59-2-5.34l-4.24-10.55-4.7-10.36c-.4-.86-.78-1.73-1.19-2.58l-1.3-2.53L619.76,321a301.55,301.55,0,0,0-24-38.6A307.87,307.87,0,0,0,566.05,248l-8.19-7.89-8.56-7.49-2.14-1.87L544.93,229l-4.45-3.53L536,221.94l-4.62-3.32-4.63-3.31-2.31-1.66-2.38-1.54-9.56-6.17c-6.56-3.81-13-7.73-19.83-11.13a294.18,294.18,0,0,0-41.88-17.65,297.73,297.73,0,0,0-44.11-11,292.21,292.21,0,0,0-45.27-4.07,300.52,300.52,0,0,0-45.35,3l-2.81.39-2.81.47-5.6.95c-3.74.66-7.44,1.5-11.16,2.24s-7.38,1.72-11.05,2.69l-5.48,1.51-2.74.76-2.71.84a301.68,301.68,0,0,0-42.36,16.48l1.3,2.7a299.71,299.71,0,0,1,41.93-16.31l2.69-.83,2.71-.75,5.43-1.5c3.62-1,7.29-1.77,10.93-2.66,3.68-.73,7.35-1.56,11-2.21l5.55-1,2.78-.47,2.79-.38a297,297,0,0,1,44.89-2.94,288.72,288.72,0,0,1,44.8,4A292.92,292.92,0,0,1,449.86,180a289.92,289.92,0,0,1,41.46,17.47c6.71,3.37,13.14,7.25,19.63,11l9.46,6.11,2.36,1.53,2.29,1.64,4.58,3.28,4.57,3.28,4.41,3.5,4.41,3.5,2.21,1.75,2.12,1.84,8.47,7.42,8.11,7.81c42.83,42.17,71.57,98.08,82,157.18a307.18,307.18,0,0,1,4.31,44.78l.06,5.63c0,1.88.09,3.76,0,5.63L650,474.62c-.26,3.74-.6,7.48-.9,11.22l-.23,2.81-.35,2.79-.73,5.58L647,502.6l-1,5.54-1,5.55c-.17.92-.32,1.85-.51,2.76l-.63,2.75c-.84,3.65-1.65,7.32-2.53,11l-3,10.84A315.67,315.67,0,0,1,622.27,583Z"/><polygon points="776.11 784.83 789.77 793.67 802.4 783.4 798.22 799.13 811.89 807.97 795.64 808.85 791.46 824.58 785.59 809.4 769.34 810.28 781.97 800.02 776.11 784.83"/><path class="cls-3" d="M269.68,439V420.6L256,395.6h6.38l6.13,12c1.67,3.29,3,5.93,4.31,9h.13c1.23-2.83,2.71-5.67,4.39-9l6.25-12h6.38l-14.57,24.94V439Z"/><path class="cls-3" d="M318,423.18c0,11.54-8,16.57-15.54,16.57-8.44,0-15-6.19-15-16.05,0-10.44,6.83-16.57,15.47-16.57C312,407.13,318,413.64,318,423.18Zm-24.75.32c0,6.84,3.93,12,9.47,12s9.48-5.09,9.48-12.11c0-5.29-2.65-12-9.35-12S293.27,417.58,293.27,423.5Z"/><path class="cls-3" d="M351.27,430.53c0,3.22.06,6.06.26,8.51h-5l-.32-5.09h-.13a11.74,11.74,0,0,1-10.31,5.8c-4.9,0-10.77-2.71-10.77-13.67V407.84h5.68v17.28c0,5.93,1.8,9.92,7,9.92a8,8,0,0,0,8-8.05V407.84h5.67Z"/><path class="cls-3" d="M360.68,417.58c0-3.68-.07-6.84-.26-9.74h5l.2,6.13h.25c1.42-4.19,4.84-6.84,8.64-6.84a6.06,6.06,0,0,1,1.61.2v5.35a8.42,8.42,0,0,0-1.93-.2c-4,0-6.83,3-7.61,7.29a15.73,15.73,0,0,0-.26,2.64V439h-5.6Z"/><path class="cls-3" d="M395.61,439V395.6h6.12l13.92,22a122.6,122.6,0,0,1,7.8,14.11l.13-.06c-.52-5.8-.65-11.09-.65-17.86V395.6h5.29V439h-5.67l-13.8-22a137.69,137.69,0,0,1-8.12-14.51l-.19.07c.32,5.48.45,10.7.45,17.92V439Z"/><path class="cls-3" d="M455.09,439l-.45-3.93h-.19a11.63,11.63,0,0,1-9.54,4.64c-6.32,0-9.54-4.45-9.54-9,0-7.54,6.7-11.67,18.75-11.6v-.65c0-2.58-.7-7.22-7.09-7.22a15.61,15.61,0,0,0-8.12,2.32l-1.29-3.73a19.34,19.34,0,0,1,10.25-2.78c9.54,0,11.86,6.51,11.86,12.77v11.66a43.6,43.6,0,0,0,.52,7.48Zm-.84-15.92c-6.18-.13-13.21,1-13.21,7a5,5,0,0,0,5.35,5.42,7.76,7.76,0,0,0,7.54-5.22,6.05,6.05,0,0,0,.32-1.81Z"/><path class="cls-3" d="M468.88,416.29c0-3.23-.06-5.87-.26-8.45h5l.25,5h.2a10.76,10.76,0,0,1,9.79-5.74,9.21,9.21,0,0,1,8.83,6.26h.13a12.8,12.8,0,0,1,3.48-4.06,10.66,10.66,0,0,1,6.9-2.2c4.12,0,10.25,2.71,10.25,13.54V439h-5.54V421.38c0-6-2.2-9.61-6.77-9.61a7.35,7.35,0,0,0-6.71,5.16,9.61,9.61,0,0,0-.45,2.84V439h-5.54V420.35c0-5-2.19-8.58-6.51-8.58-3.54,0-6.12,2.84-7,5.68a7.6,7.6,0,0,0-.46,2.77V439h-5.54Z"/><path class="cls-3" d="M525.79,424.47c.13,7.67,5,10.83,10.7,10.83a20.49,20.49,0,0,0,8.63-1.61l1,4.06a25.32,25.32,0,0,1-10.38,1.93c-9.6,0-15.34-6.31-15.34-15.72s5.55-16.83,14.63-16.83c10.19,0,12.9,9,12.9,14.7a20,20,0,0,1-.2,2.64Zm16.63-4.06c.06-3.61-1.49-9.22-7.87-9.22-5.73,0-8.25,5.29-8.7,9.22Z"/></svg>