<svg id="Layer_1" data-name="Layer 1" xmlns="http://www.w3.org/2000/svg" viewBox="0 0 800 800"><defs><style>.cls-1{fill:none;}.cls-2{fill:#231f20;}.cls-3{fill:#4f4f4f;}</style></defs><path class="cls-1" d="M557.37,594.72l57.26,63.72A349.06,349.06,0,0,0,652,618.84a322.51,322.51,0,0,0,30.59-45.11,341.59,341.59,0,0,0,22.84-49.45l2.29-6.42c.76-2.14,1.54-4.27,2.17-6.45,1.32-4.35,2.68-8.68,3.94-13l3.38-13.2c1-4.42,1.88-8.88,2.82-13.32a345.82,345.82,0,0,0,6-54.08,328.34,328.34,0,0,0-2.73-54.36,342.51,342.51,0,0,0-11.5-53.25l-2-6.51c-.68-2.17-1.35-4.34-2.16-6.47-1.56-4.27-3.09-8.55-4.7-12.8l-5.28-12.58c-.84-2.12-1.9-4.13-2.85-6.2l-2.94-6.15A348.83,348.83,0,0,0,664,212.66l-8.1-10.92c-2.75-3.61-5.66-7.08-8.5-10.62s-5.91-6.88-9-10.24l-4.64-5-2.33-2.49-2.4-2.41a333.09,333.09,0,0,0-87.71-64.07A338,338,0,0,0,437.89,74.2a336.57,336.57,0,0,0-54.3-3.55,345.84,345.84,0,0,0-54.19,5.2l15.08,84.33a259.72,259.72,0,0,1,40.44-3.87A250.23,250.23,0,0,1,425.48,159a252.56,252.56,0,0,1,77.23,24.42A247.86,247.86,0,0,1,568,231.09l1.8,1.8,1.73,1.86,3.47,3.72c2.29,2.51,4.46,5.12,6.71,7.67s4.31,5.25,6.37,8l6.07,8.19a264.56,264.56,0,0,1,20.77,34.91l2.18,4.59c.71,1.54,1.53,3,2.13,4.6l3.93,9.36,3.5,9.54c.61,1.57,1.1,3.19,1.6,4.81l1.51,4.85a256.71,256.71,0,0,1,8.57,39.67,241.34,241.34,0,0,1,2,40.58,258.77,258.77,0,0,1-4.46,40.41c-.72,3.31-1.34,6.65-2.11,9.95l-2.51,9.86-2.95,9.73c-.46,1.64-1.06,3.22-1.63,4.82l-1.7,4.79a258.3,258.3,0,0,1-17,36.85,237.73,237.73,0,0,1-22.77,33.56A262.91,262.91,0,0,1,557.37,594.72Z"/><path class="cls-2" d="M394.7,118.07c.16,8.43-1.75,14.28-4.51,18.31a19.66,19.66,0,0,1-4.72,4.81,20.55,20.55,0,0,1-5.4,2.82,27.15,27.15,0,0,1-2.75.78c-.91.23-1.81.41-2.68.55a31.41,31.41,0,0,1-4.79.36c-1.42,0-2.6,0-3.43-.08s-1.32-.13-1.32-.13a82.94,82.94,0,0,1,2.59-15,36.63,36.63,0,0,1,4.15-9.61,17.75,17.75,0,0,1,5-5.34,12.54,12.54,0,0,1,5.27-1.94,14.59,14.59,0,0,1,8.9,1.93A18.74,18.74,0,0,1,394.7,118.07ZM379,131a15.74,15.74,0,0,0,7.22-.45c3.56-1.06,7.14-4.06,7-11.77a8.18,8.18,0,0,0-5.7-2.11C384.33,117,380.65,120.16,379,131Z"/><path class="cls-2" d="M359.54,83.81s.57-.17,1.58-.4a34.63,34.63,0,0,1,4.19-.71,51,51,0,0,1,5.94-.28c1.09,0,2.22.08,3.36.19s2.3.35,3.45.61a26.59,26.59,0,0,1,6.72,2.5,19,19,0,0,1,5.64,4.82c3.2,4.08,5,10,4.47,18.38a21.38,21.38,0,0,1-3.81,2.49,17.51,17.51,0,0,1-8.93,2.06,13,13,0,0,1-5.42-1.66,20.31,20.31,0,0,1-5.7-4.75,43.79,43.79,0,0,1-5.8-9A98.15,98.15,0,0,1,359.54,83.81Zm33.78,24.38c.47-7.71-3.4-10.76-7.45-11.88a19.79,19.79,0,0,0-8.13,0c2.72,10.76,6.48,13.62,9.69,14A8.64,8.64,0,0,0,393.32,108.19Z"/><path class="cls-2" d="M426,120.5c-.75,8.57-3.36,14.22-6.66,18.06a19.6,19.6,0,0,1-5.41,4.36,23.55,23.55,0,0,1-5.89,2.27,35.15,35.15,0,0,1-10.75.62c-1.46-.15-2.68-.35-3.54-.47s-1.35-.26-1.35-.26c4.78-24.09,13.87-30.43,21.1-30.54a13.28,13.28,0,0,1,5,.9,19.73,19.73,0,0,1,4,2A17.23,17.23,0,0,1,426,120.5Zm-17.69,11.37a15.42,15.42,0,0,0,2.34.47,18,18,0,0,0,5.19-.11c3.79-.71,7.83-3.38,8.49-11.22a8.53,8.53,0,0,0-5.67-2.73C415.42,118.2,411.26,121,408.34,131.87Z"/><path class="cls-2" d="M393.3,81.89s.61-.11,1.68-.24a33.51,33.51,0,0,1,4.42-.25,40.05,40.05,0,0,1,13.18,1.89,25.41,25.41,0,0,1,6.7,3.28,20.15,20.15,0,0,1,5.33,5.51c2.88,4.45,4.1,10.68,2.62,19.15a25.64,25.64,0,0,1-4.21,2.09,20.64,20.64,0,0,1-4.36,1.16,17,17,0,0,1-5.12-.07C406.39,113.11,398.55,106,393.3,81.89Zm32.39,28.4c1.33-7.78-2.35-11.27-6.43-12.83a17,17,0,0,0-5.74-1,20.74,20.74,0,0,0-2.69.09c1.66,11.19,5.25,14.5,8.53,15.23A9.18,9.18,0,0,0,425.69,110.29Z"/><path class="cls-2" d="M458.18,126.61c-1.74,8.6-5.08,14.07-8.9,17.48a20.69,20.69,0,0,1-6.08,3.85,25.68,25.68,0,0,1-6.32,1.58,29.16,29.16,0,0,1-6,.1,47.28,47.28,0,0,1-5.15-.68c-1.49-.29-2.73-.63-3.6-.89l-1.36-.44c3.79-11.91,8.19-19.21,12.62-23.52s8.8-5.39,12.55-5a17.21,17.21,0,0,1,9,4A20.31,20.31,0,0,1,458.18,126.61Zm-19.55,9.44a17.41,17.41,0,0,0,2.37.71,16.55,16.55,0,0,0,5.36.54c4-.37,8.47-2.47,10-10.36a9.87,9.87,0,0,0-1.5-1.6,7.37,7.37,0,0,0-4.06-1.88C447.44,123.09,442.86,125.3,438.63,136.05Z"/><path class="cls-2" d="M428.54,83.6a16.55,16.55,0,0,1,1.77,0c1.12,0,2.72.07,4.62.26a45.33,45.33,0,0,1,6.4,1,42.84,42.84,0,0,1,7.06,2.38A26.16,26.16,0,0,1,455,91.38a20.47,20.47,0,0,1,4.93,6.18c2.47,4.94,3,11.37.56,19.79a22.68,22.68,0,0,1-4.58,1.58,18.72,18.72,0,0,1-9.93,0c-3.62-1.08-7.28-3.61-10.36-9.08S429.94,96.16,428.54,83.6ZM459,116.22c2.24-7.72-1.15-11.84-5.22-13.8a20.34,20.34,0,0,0-5.83-1.78,21.48,21.48,0,0,0-2.79-.19c.49,11.46,3.8,15.42,7.14,16.45a9.15,9.15,0,0,0,4.59,0A10.2,10.2,0,0,0,459,116.22Z"/><path class="cls-2" d="M490.72,136.71c-2.78,8.5-6.86,13.65-11.21,16.69a21.2,21.2,0,0,1-6.69,3.09,23.45,23.45,0,0,1-6.71.85,39.63,39.63,0,0,1-6.23-.61,45.7,45.7,0,0,1-5.22-1.35,33.9,33.9,0,0,1-5-1.89c5.24-11.61,10.64-18.64,15.67-22.35a20.06,20.06,0,0,1,7.23-3.55,14.75,14.75,0,0,1,6.31,0,17.35,17.35,0,0,1,8.83,5.23,22.59,22.59,0,0,1,2.25,2.73A9.33,9.33,0,0,1,490.72,136.71Zm-21.27,7.17a19.36,19.36,0,0,0,7.85,2.2c4.15.25,9-1.45,11.53-9.25a9.51,9.51,0,0,0-5.34-4.21c-1.71-.46-3.84-.18-6.23,1.46S472.23,138.73,469.45,143.88Z"/><path class="cls-2" d="M464.9,89.48A48.65,48.65,0,0,1,478,92.29a36.34,36.34,0,0,1,7.05,3.28,30.28,30.28,0,0,1,6.35,5,21.31,21.31,0,0,1,4.38,7c2,5.27,1.87,11.85-1.66,20.1,0,0-.5.17-1.38.4a25.6,25.6,0,0,1-3.55.68,20.86,20.86,0,0,1-10.27-1.24,15.57,15.57,0,0,1-5.22-3.65,22.08,22.08,0,0,1-4.46-6.83C466.68,111,464.94,102.42,464.9,89.48Zm27.81,36.8c3.21-7.56.13-12.06-3.82-14.68a21.31,21.31,0,0,0-5.85-2.46,22.59,22.59,0,0,0-2.85-.59c-.41,5.89.14,9.92,1.21,12.65a8.55,8.55,0,0,0,4.31,4.93A10.12,10.12,0,0,0,492.71,126.28Z"/><path class="cls-2" d="M523.07,151.27c-3.88,8.28-8.69,12.95-13.5,15.42a23.19,23.19,0,0,1-7.26,2.3,27.67,27.67,0,0,1-7,0,31.19,31.19,0,0,1-6.33-1.44,47.72,47.72,0,0,1-5.24-2,39.61,39.61,0,0,1-3.56-1.83c-.86-.45-1.34-.75-1.34-.75,6.77-11.21,13.07-17.45,18.74-20.71a19.63,19.63,0,0,1,7.85-2.62,14.45,14.45,0,0,1,6.54.76,18.59,18.59,0,0,1,8.48,6.48A22.09,22.09,0,0,1,523.07,151.27Zm-22.74,4.46a20.05,20.05,0,0,0,2.32,1.33,18,18,0,0,0,5.49,1.95,12.46,12.46,0,0,0,3.35.12,9.9,9.9,0,0,0,3.42-.94c2.26-1.1,4.46-3.25,6.21-7.05a10.69,10.69,0,0,0-1.19-2,8.32,8.32,0,0,0-3.81-3C512.63,144.88,507.3,145.9,500.33,155.73Z"/><path class="cls-2" d="M501.91,99.89s.7.11,1.89.38,2.86.78,4.82,1.46a52,52,0,0,1,6.54,2.69,48.55,48.55,0,0,1,6.91,4.27,29.22,29.22,0,0,1,6,5.94,21.07,21.07,0,0,1,3.72,7.6c1.44,5.67.52,12.35-4.1,20.24a24.49,24.49,0,0,1-5.19.4A21.77,21.77,0,0,1,512,140.25a17.86,17.86,0,0,1-5-4.34,24,24,0,0,1-3.79-7.57C501.24,122.12,500.5,112.94,501.91,99.89Zm24.45,41c2.09-3.63,2.5-6.69,1.9-9.26a10.26,10.26,0,0,0-1.56-3.48,13.79,13.79,0,0,0-2.56-2.67,23.47,23.47,0,0,0-5.72-3.34,20.33,20.33,0,0,0-2.9-.93c-2.16,11.77.37,16.68,3.65,18.58a10.2,10.2,0,0,0,4.8,1.28A10.83,10.83,0,0,0,526.36,140.93Z"/><path class="cls-2" d="M554.6,170.52c-5,7.89-10.5,11.9-15.75,13.77a24.94,24.94,0,0,1-14.92.36,44.29,44.29,0,0,1-11.44-5.08c-1.45-.92-2.66-1.67-3.47-2.28s-1.28-1-1.28-1a83.05,83.05,0,0,1,11.67-12.28,38.65,38.65,0,0,1,10.07-6.24c6.23-2.54,11.2-1.79,15,.06a20.54,20.54,0,0,1,8,7.76A23.23,23.23,0,0,1,554.6,170.52Zm-23.92,1.36a19.66,19.66,0,0,0,2.21,1.7,28,28,0,0,0,2.43,1.43,17.59,17.59,0,0,0,3,1.28,11.24,11.24,0,0,0,7.08.08c2.44-.79,5-2.65,7.22-6.28a11.13,11.13,0,0,0-1-2.23,9.19,9.19,0,0,0-3.57-3.55,8.36,8.36,0,0,0-6.84-.29C538.34,165.05,534.84,167.41,530.68,171.88Z"/><path class="cls-2" d="M539,115.34s.71.22,1.9.67a47.72,47.72,0,0,1,4.84,2.08,51.24,51.24,0,0,1,13,9c4.23,4,7.53,9.25,8.37,15.12s-1,12.67-6.7,20a25.9,25.9,0,0,1-5.36-.36,22.17,22.17,0,0,1-10.43-4.11c-3.45-2.5-6.28-6.69-7.62-13.29a48.18,48.18,0,0,1-.61-12.17A102,102,0,0,1,539,115.34Zm20.29,45.11c2.59-3.4,3.39-6.46,3.1-9.17a12.19,12.19,0,0,0-3.51-6.82,21.72,21.72,0,0,0-2.77-2.46,25,25,0,0,0-2.74-1.72,26.82,26.82,0,0,0-2.86-1.36c-1.85,5.87-2.23,10.1-1.77,13.16a9.24,9.24,0,0,0,3.28,6.26,10.38,10.38,0,0,0,4.81,1.94A11.64,11.64,0,0,0,559.25,160.45Z"/><path class="cls-2" d="M584.52,194.67a39.11,39.11,0,0,1-9.13,8.17A27.37,27.37,0,0,1,571,205.1a25.22,25.22,0,0,1-4.32,1.31,22.73,22.73,0,0,1-8.07.2,29.33,29.33,0,0,1-7.24-2c-1.12-.47-2.18-1-3.22-1.56s-2-1.11-3-1.69a60.08,60.08,0,0,1-4.9-3.54,40.06,40.06,0,0,1-4.45-4A83.25,83.25,0,0,1,549.24,183a46.34,46.34,0,0,1,5.88-3.15,32,32,0,0,1,5.25-1.79,22,22,0,0,1,8.85-.46,17.75,17.75,0,0,1,6.57,2.7,18,18,0,0,1,2.5,2,21.19,21.19,0,0,1,2,2.34,25.52,25.52,0,0,1,2.68,4.7,21.59,21.59,0,0,1,1.26,3.75C584.44,194.1,584.52,194.67,584.52,194.67Zm-24.67-2.1a22.44,22.44,0,0,0,2,2.06,24.52,24.52,0,0,0,5.22,3.53c4.21,2,9.89,2.44,15.44-4.22a9.24,9.24,0,0,0-.72-2.4,10,10,0,0,0-3.2-4.15C575.42,185,569.47,184.68,559.85,192.57Z"/><path class="cls-2" d="M575.34,136.19a63.22,63.22,0,0,1,6.59,3.77,58.48,58.48,0,0,1,6.13,4.67c1.07.92,2.14,1.91,3.19,3a44.34,44.34,0,0,1,3,3.4,34.66,34.66,0,0,1,4.75,7.78,24.45,24.45,0,0,1,1.93,8.88,20.87,20.87,0,0,1-.46,4.68,23.17,23.17,0,0,1-1.65,4.85,34.68,34.68,0,0,1-7.28,9.9s-.58,0-1.56-.22-2.32-.48-3.91-.92a26.74,26.74,0,0,1-5.07-2,21.86,21.86,0,0,1-2.59-1.63,20.58,20.58,0,0,1-2.5-2,18.15,18.15,0,0,1-4.06-5.9,25.32,25.32,0,0,1-2.1-8.75,40.91,40.91,0,0,1,0-5.74,59.47,59.47,0,0,1,.83-6.71A103.45,103.45,0,0,1,575.34,136.19Zm15.24,48.9c6.22-6.18,4.72-12,1.59-16.36a23.31,23.31,0,0,0-5.14-5,27.91,27.91,0,0,0-2.76-1.83c-5.27,11.47-3.71,17-.89,20a10.7,10.7,0,0,0,4.68,2.7A15.31,15.31,0,0,0,590.58,185.09Z"/><path class="cls-2" d="M612,223.83c-7.23,6.52-13.88,8.92-19.82,9.27a23.48,23.48,0,0,1-8.24-1,28.6,28.6,0,0,1-7.14-3.14,51.54,51.54,0,0,1-5.92-4.24c-1.74-1.49-3.24-3-4.55-4.31a41.54,41.54,0,0,1-4-4.73c22.34-16.38,35.9-14.1,42.63-7.8a21.77,21.77,0,0,1,6.13,10.36,22.25,22.25,0,0,1,.81,4C612,223.22,612,223.83,612,223.83Zm-24.92-5.89a22,22,0,0,0,1.81,2.41,23.5,23.5,0,0,0,4.88,4.39c4,2.72,9.76,4,16.32-2a11.63,11.63,0,0,0-.44-2.55,10.72,10.72,0,0,0-2.72-4.73,8.17,8.17,0,0,0-2.82-1.79,10.83,10.83,0,0,0-4.16-.55C596.7,213.3,592.5,214.63,587.07,217.94Z"/><path class="cls-2" d="M610.14,162.74a67.76,67.76,0,0,1,6.25,4.85,54.28,54.28,0,0,1,5.7,5.68,47.67,47.67,0,0,1,5.49,7.4,38.49,38.49,0,0,1,3.85,8.66,25.2,25.2,0,0,1,.8,9.38c-.67,6.29-4.32,12.63-12.11,18.41,0,0-.59-.14-1.56-.46s-2.34-.82-3.89-1.53a26.32,26.32,0,0,1-9.63-7.38C599.44,200.34,597.21,187.81,610.14,162.74ZM619.43,215c7.15-5.35,6.37-11.53,3.76-16.46a25.7,25.7,0,0,0-4.61-5.93,27.58,27.58,0,0,0-2.58-2.29c-3.43,5.45-4.94,9.67-5.27,12.94a11.41,11.41,0,0,0,.3,4.24,9.07,9.07,0,0,0,1.47,3.13,11.29,11.29,0,0,0,4.41,3.47A13.45,13.45,0,0,0,619.43,215Z"/><path class="cls-2" d="M636,257.9c-8.23,5.55-15.35,7-21.35,6.38a24.94,24.94,0,0,1-8.33-2.27,26.75,26.75,0,0,1-3.56-2c-.55-.37-1.09-.75-1.62-1.15s-1.09-.78-1.6-1.19a39.75,39.75,0,0,1-5.48-5.23c-.79-.9-1.51-1.8-2.17-2.67s-1.33-1.67-1.89-2.45a44.79,44.79,0,0,1-3.48-5.45,83.48,83.48,0,0,1,16.63-6.9,39,39,0,0,1,12.72-1.62,23.49,23.49,0,0,1,9.11,2.31,17.31,17.31,0,0,1,6,4.78A24.51,24.51,0,0,1,635.92,252,26.7,26.7,0,0,1,636,257.9ZM611.48,248s.14.29.41.77.68,1.14,1.17,1.94a23.07,23.07,0,0,0,4.3,5.3,13.14,13.14,0,0,0,7.09,3.38c2.76.37,6-.31,9.78-2.88a12.35,12.35,0,0,0-.05-2.71,10.3,10.3,0,0,0-2.16-5.24,9.66,9.66,0,0,0-6.77-3.49,19,19,0,0,0-5.84.35A41.91,41.91,0,0,0,611.48,248Z"/><path class="cls-2" d="M642.32,195.09a70.76,70.76,0,0,1,5.74,5.92c.8.93,1.67,2,2.53,3.06s1.68,2.35,2.51,3.63a63.23,63.23,0,0,1,4.64,8.42c.33.75.66,1.5.94,2.28s.52,1.58.75,2.38a35.45,35.45,0,0,1,1,4.85,25.75,25.75,0,0,1-.34,9.67c-1.62,6.41-6.17,12.31-14.88,17a29,29,0,0,1-5.22-2.93,26,26,0,0,1-8.84-9,24.05,24.05,0,0,1-2.62-7.27,27.15,27.15,0,0,1,.24-9.65A53.69,53.69,0,0,1,633,211,107.1,107.1,0,0,1,642.32,195.09ZM644.81,250c4-2.18,6-4.89,6.84-7.76a13.82,13.82,0,0,0-.8-8.51,30.57,30.57,0,0,0-3.82-6.84,24.07,24.07,0,0,0-1.69-2c-.43-.46-.7-.72-.7-.72a44.11,44.11,0,0,0-4.78,6.83,22.84,22.84,0,0,0-2.3,5.59,10.49,10.49,0,0,0,.8,7.83,13.09,13.09,0,0,0,4.06,4.22A12.57,12.57,0,0,0,644.81,250Z"/><path class="cls-2" d="M655.64,296.63c-9.14,4.33-16.62,4.67-22.56,3.06A27.23,27.23,0,0,1,625,296a34.42,34.42,0,0,1-6.23-5.51,41.48,41.48,0,0,1-4.82-6.19c-.67-1-1.27-2.07-1.82-3.06s-1.13-1.9-1.6-2.78a46.77,46.77,0,0,1-2.8-6.08,83.14,83.14,0,0,1,17.86-4.48,47.68,47.68,0,0,1,7.16-.38c1.11,0,2.16.1,3.18.2s1.93.29,2.84.48a24.48,24.48,0,0,1,8.93,3.82,21.85,21.85,0,0,1,3.17,2.74,17.45,17.45,0,0,1,2.26,3.13,23.78,23.78,0,0,1,2.6,6.59,22.81,22.81,0,0,1,.67,6A28.07,28.07,0,0,1,655.64,296.63ZM632.2,282.55s.1.32.3.85.52,1.28.88,2.18a24.76,24.76,0,0,0,3.62,6.1c3.47,4,8.62,7.27,17,3.25a13.17,13.17,0,0,0,.34-2.78,13.75,13.75,0,0,0-.22-2.76,10.25,10.25,0,0,0-1.17-3,10.14,10.14,0,0,0-6.39-4.66,19.73,19.73,0,0,0-6-.58A41.31,41.31,0,0,0,632.2,282.55Z"/><path class="cls-2" d="M670.81,233.22a77.43,77.43,0,0,1,5.05,7c.71,1.08,1.44,2.26,2.19,3.53s1.39,2.69,2.06,4.14a65.81,65.81,0,0,1,3.55,9.4,38.94,38.94,0,0,1,1.41,10.22,26,26,0,0,1-1.74,9.89c-2.61,6.33-8,11.62-17.55,15a31.37,31.37,0,0,1-4.89-3.84,46.28,46.28,0,0,1-4.15-4.53,24.18,24.18,0,0,1-3.5-6.18,28.05,28.05,0,0,1-1.07-3.74,21.67,21.67,0,0,1-.54-4.14,28.28,28.28,0,0,1,1.59-9.85c.31-.92.66-1.86,1.06-2.83s.81-1.92,1.29-2.93a58.54,58.54,0,0,1,3.57-6.35A106.33,106.33,0,0,1,670.81,233.22ZM665.68,290c8.68-3.14,10-9.88,8.5-15.73a32,32,0,0,0-2.94-7.63,19.08,19.08,0,0,0-1.4-2.32c-.38-.55-.61-.85-.61-.85a45.35,45.35,0,0,0-5.83,6.24,22.37,22.37,0,0,0-3.13,5.37,10.91,10.91,0,0,0-.29,8.14A11.39,11.39,0,0,0,661.6,286a13.36,13.36,0,0,0,1.84,2.14A13.76,13.76,0,0,0,665.68,290Z"/><path class="cls-2" d="M669.66,339.6c-9.9,2.9-17.55,2-23.36-.62a31.28,31.28,0,0,1-13-11.78c-.37-.6-.72-1.2-1.07-1.8s-.72-1.18-1.06-1.78c-.67-1.18-1.26-2.37-1.8-3.54s-1-2.32-1.41-3.42-.75-2.17-1.13-3.13a48.78,48.78,0,0,1-2-6.64,83.77,83.77,0,0,1,18.78-1.71,47.36,47.36,0,0,1,7.3.78,36.18,36.18,0,0,1,5.93,1.71,25.77,25.77,0,0,1,8.55,5.37,20.42,20.42,0,0,1,4.54,6.95,24.51,24.51,0,0,1,1.69,7.17,31.45,31.45,0,0,1-.35,6.33A28.21,28.21,0,0,1,669.66,339.6Zm-21.55-18.35a26.87,26.87,0,0,0,.67,3.32,26.23,26.23,0,0,0,2.82,6.82,14.22,14.22,0,0,0,5.92,5.88c2.69,1.29,6.19,1.69,10.71.32a13.67,13.67,0,0,0,.73-2.79,12.66,12.66,0,0,0-.45-6.14C666.82,324.25,661.55,320,648.11,321.25Z"/><path class="cls-2" d="M694.46,277a80.94,80.94,0,0,1,4.17,8,41.74,41.74,0,0,1,1.61,4c.52,1.44,1,3,1.51,4.59s.93,3.27,1.31,5c.2.86.38,1.73.54,2.6s.25,1.78.34,2.67c.72,7.18.22,14.58-3.44,20.64s-9.79,10.56-20,12.45a33,33,0,0,1-4.42-4.75,32.07,32.07,0,0,1-3.41-5.37,26.78,26.78,0,0,1-2.67-6.9,25.09,25.09,0,0,1-.36-8.38,28.69,28.69,0,0,1,3-9.82A45,45,0,0,1,676,296.2a66.8,66.8,0,0,1,4.56-5.94A107.32,107.32,0,0,1,694.46,277Zm-13.67,57.43c4.65-.91,7.5-3,9.15-5.67a15.32,15.32,0,0,0,1.9-9.07,34.46,34.46,0,0,0-1.9-8.31,35.26,35.26,0,0,0-1.49-3.62c-11.51,7.6-13.32,14-12.34,18.74a13.27,13.27,0,0,0,2.66,5.74A14.69,14.69,0,0,0,680.79,334.44Z"/><path class="cls-2" d="M676.82,386.11a39.35,39.35,0,0,1-13.57-.45,28.88,28.88,0,0,1-5.3-1.72,31.11,31.11,0,0,1-4.48-2.46,27.42,27.42,0,0,1-6.82-6.52,41.47,41.47,0,0,1-2.44-3.8,35.58,35.58,0,0,1-2.05-4c-.6-1.33-1.11-2.68-1.56-4s-.78-2.68-1.19-3.95a57.11,57.11,0,0,1-1.61-7.12c-.17-1.06-.3-2-.4-2.91s-.23-1.62-.32-2.25c-.15-1.25-.2-2-.2-2,30.33-1,41,10.46,43.48,21a28.57,28.57,0,0,1-3.54,20.11Zm-18.76-22.5a27.69,27.69,0,0,0,.22,3.51c.11,1.05.37,2.24.59,3.53a23.72,23.72,0,0,0,1.09,4,14.63,14.63,0,0,0,5.13,7c2.46,1.79,5.88,2.8,10.67,2.16a14.41,14.41,0,0,0,1.25-2.74,12.89,12.89,0,0,0,.42-6.38,11,11,0,0,0-4.76-7C669.62,365.65,665,364.1,658.06,363.61Z"/><path class="cls-2" d="M711.86,326s.38.88.95,2.43c.28.77.64,1.71,1,2.81s.66,2.34,1,3.7c.68,2.72,1.36,5.92,1.88,9.37a46.19,46.19,0,0,1,.48,5.37c.07,1.83.09,3.7,0,5.57a54.72,54.72,0,0,1-.48,5.59,37.14,37.14,0,0,1-1.3,5.44,29.56,29.56,0,0,1-4.94,9.6,21.36,21.36,0,0,1-3.9,3.81,24.6,24.6,0,0,1-5,2.92,34.41,34.41,0,0,1-13.34,2.66,35.34,35.34,0,0,1-3.57-5.64A31.36,31.36,0,0,1,680.52,366C679.74,355.1,685.52,341.52,711.86,326Zm-22.93,56.72c4.82-.14,8.07-1.79,10.2-4.26a16.32,16.32,0,0,0,3.27-9,30.47,30.47,0,0,0,.07-4.76,28.31,28.31,0,0,0-.57-4.11,37.18,37.18,0,0,0-1-4c-6.37,2.92-10.25,5.94-12.49,8.86a12.26,12.26,0,0,0-3,8.29,14.69,14.69,0,0,0,1.87,6.34A15.44,15.44,0,0,0,688.93,382.71Z"/><path class="cls-2" d="M676.24,435.11a39.33,39.33,0,0,1-13.56-2.81,28.74,28.74,0,0,1-9.22-6,29.26,29.26,0,0,1-5.65-7.86,36.42,36.42,0,0,1-3.22-8.73c-.17-.74-.32-1.48-.45-2.21s-.32-1.46-.44-2.19c-.27-1.45-.46-2.87-.6-4.25-.3-2.76-.26-5.35-.38-7.58A53.6,53.6,0,0,1,643,386a83.87,83.87,0,0,1,19.09,4.72,50.43,50.43,0,0,1,7,3.33,35.76,35.76,0,0,1,5.3,3.81,27.73,27.73,0,0,1,6.65,8.48,23.34,23.34,0,0,1,2.14,8.72c.43,5.67-1.48,10.76-3.25,14.34a34.35,34.35,0,0,1-2.48,4.2A16.93,16.93,0,0,1,676.24,435.11Zm-15-26.33a29.3,29.3,0,0,0-.44,3.64,30.15,30.15,0,0,0,.49,8c1,5.77,4.45,11.77,14.28,12.17A14.79,14.79,0,0,0,677.2,430a14.2,14.2,0,0,0,1.61-6.47,11,11,0,0,0-3.7-8C672.43,412.86,668.08,410.47,661.23,408.78Z"/><path class="cls-2" d="M721.62,379.35a91.09,91.09,0,0,1,1.47,9.69,69.07,69.07,0,0,1,.27,10c-.06,1.83-.17,3.7-.36,5.61-.09.95-.19,1.9-.34,2.86s-.36,1.92-.56,2.87a51.63,51.63,0,0,1-3.65,11,30.22,30.22,0,0,1-6.72,9,23.68,23.68,0,0,1-10,5.4,34.64,34.64,0,0,1-13.89.41s-.34-.63-.84-1.75a40.82,40.82,0,0,1-1.88-4.67,37.44,37.44,0,0,1-1.81-14.73,27.23,27.23,0,0,1,2.44-8.74,31.29,31.29,0,0,1,6.23-9.06,50.21,50.21,0,0,1,5.06-4.56,63,63,0,0,1,6.43-4.53A109.5,109.5,0,0,1,721.62,379.35ZM689,433.72c9.76,1.44,14-4.68,15.87-11.29a36.65,36.65,0,0,0,.92-9.22,39.62,39.62,0,0,0-.27-4.24c-6.93,1.9-11.39,4.34-14.18,6.95a13.53,13.53,0,0,0-4.31,8,15.15,15.15,0,0,0,.7,6.84A16.79,16.79,0,0,0,689,433.72Z"/><path class="cls-2" d="M666.85,485.27c-10.69-2.39-17.3-7.36-21.29-13a35.47,35.47,0,0,1-5.88-18.53,51.27,51.27,0,0,1,0-9.11c.32-2.86.5-5.55.9-7.83s.78-4.19,1.11-5.52l.49-2.1a82.2,82.2,0,0,1,18.37,8.15,44.09,44.09,0,0,1,11.15,9.47,27.87,27.87,0,0,1,5.08,9.85,23,23,0,0,1,.85,4.79,26,26,0,0,1-.2,4.53,30.52,30.52,0,0,1-2.21,8,35.87,35.87,0,0,1-3.68,6.11A32.47,32.47,0,0,1,666.85,485.27Zm-10.32-29.63s-.13.37-.31,1-.49,1.55-.76,2.65a30.55,30.55,0,0,0-1,8.24,24.71,24.71,0,0,0,.55,4.62,13.41,13.41,0,0,0,1.85,4.35c1.8,2.7,4.82,5,9.73,6a15,15,0,0,0,2.15-2.37,15.15,15.15,0,0,0,2.85-6.34,12.22,12.22,0,0,0-2.31-8.87,21.39,21.39,0,0,0-4.71-4.73A33.77,33.77,0,0,0,661,457.9Q659,456.75,656.53,455.64Z"/><path class="cls-2" d="M722.44,435.93l0,.74c0,.48.08,1.19,0,2.09,0,1.79-.11,4.35-.35,7.4a71.79,71.79,0,0,1-1.43,10.31,85.67,85.67,0,0,1-3.27,11.45c-3.14,7.56-7.48,14.7-14.1,18.79s-14.67,5.3-25.06,1.75a37.71,37.71,0,0,1-1.57-7.07,38.63,38.63,0,0,1-.31-7.15A31.05,31.05,0,0,1,677.6,466a28.44,28.44,0,0,1,1.63-4.27,30.62,30.62,0,0,1,2.35-4.27,33.11,33.11,0,0,1,8-8.21,56.74,56.74,0,0,1,13.09-7.35A115.71,115.71,0,0,1,722.44,435.93Zm-42.56,50.16c4.78,1.57,8.52,1,11.47-.76a14.77,14.77,0,0,0,3.84-3.48,18.45,18.45,0,0,0,2.71-4.56,41.56,41.56,0,0,0,2.65-9.29c.21-1.31.36-2.41.41-3.19s0-1.23,0-1.23c-1.81.19-3.47.44-5,.75a39.23,39.23,0,0,0-4.24,1.05,24.39,24.39,0,0,0-6.28,2.86,13.41,13.41,0,0,0-5.74,7.47,16,16,0,0,0-.59,7.13A17.58,17.58,0,0,0,679.88,486.09Z"/><path class="cls-2" d="M647.86,534.88c-10.28-4.39-16-10.67-18.86-17.17a28.28,28.28,0,0,1-1.67-5,38.1,38.1,0,0,1-.92-5.06,44,44,0,0,1,.19-9.95,53.56,53.56,0,0,1,1.77-9.28c.43-1.43.73-2.85,1.14-4.16s.79-2.55,1.19-3.68c.78-2.27,1.65-4.11,2.12-5.44s.87-2.06.87-2.06a105.6,105.6,0,0,1,9.59,5.76,69.14,69.14,0,0,1,7.41,5.83,45,45,0,0,1,9.42,11.66,28.09,28.09,0,0,1,3.26,11,26.62,26.62,0,0,1,0,5.06,24.39,24.39,0,0,1-1.06,4.61,32.74,32.74,0,0,1-3.78,7.81,35.85,35.85,0,0,1-4.87,5.57A34,34,0,0,1,647.86,534.88Zm-4.69-32.12s-.19.34-.5,1l-1.24,2.58a32.37,32.37,0,0,0-2.59,8.22,21.39,21.39,0,0,0-.26,2.41,19.4,19.4,0,0,0-.07,2.41,14,14,0,0,0,1,4.77c1.28,3.09,3.89,5.94,8.62,7.91a16.41,16.41,0,0,0,2.63-2,16.15,16.15,0,0,0,4.1-6,13,13,0,0,0-.63-9.48C652.65,511,649.34,507,643.17,502.76Z"/><path class="cls-2" d="M713.1,494.26s-.12,1.07-.42,2.93a74.19,74.19,0,0,1-1.71,7.54c-.41,1.54-.89,3.21-1.44,4.95a56.69,56.69,0,0,1-1.91,5.4,92.23,92.23,0,0,1-5.51,11.16,53.29,53.29,0,0,1-7.83,9.94,32.82,32.82,0,0,1-4.67,3.94,30.82,30.82,0,0,1-5.29,2.86c-7.36,3.08-15.8,2.77-25.56-2.75a41,41,0,0,1-.19-7.51,46.12,46.12,0,0,1,1.07-7.37,32.64,32.64,0,0,1,2.78-8.25,34.06,34.06,0,0,1,2.44-4.08,28.65,28.65,0,0,1,3.17-4,36.32,36.32,0,0,1,9.54-7,57.75,57.75,0,0,1,14.57-5.21c2.93-.67,6.17-1.22,9.65-1.67S709,494.43,713.1,494.26Zm-52.29,43.83c4.49,2.48,8.36,2.6,11.68,1.3a15.49,15.49,0,0,0,4.55-2.86,20,20,0,0,0,2-2,25.56,25.56,0,0,0,1.64-2.23,43.78,43.78,0,0,0,4.47-9c.24-.65.45-1.25.62-1.79l.38-1.41c.19-.79.28-1.25.28-1.25-7.38-.51-12.71.36-16.46,2a14,14,0,0,0-7.21,6.61,17.06,17.06,0,0,0-2,7.17A17.62,17.62,0,0,0,660.81,538.09Z"/><path class="cls-2" d="M618.74,581.89a40,40,0,0,1-10.64-10.21,30.11,30.11,0,0,1-4.81-10.8,39.25,39.25,0,0,1,1.65-20.7,55.76,55.76,0,0,1,3.6-9.11c.72-1.37,1.32-2.75,2-4s1.29-2.45,1.92-3.52,1.22-2.06,1.77-2.91l.79-1.2.63-1c.77-1.24,1.27-1.94,1.27-1.94a101.94,101.94,0,0,1,8.52,7.63,67.89,67.89,0,0,1,6.31,7.29A45.46,45.46,0,0,1,638.89,545a29.43,29.43,0,0,1,1.09,11.8,27.63,27.63,0,0,1-1.07,5.15,30,30,0,0,1-2,4.49,33.44,33.44,0,0,1-5.39,7.25,41.46,41.46,0,0,1-6.06,4.76,39,39,0,0,1-4.76,2.65A13.08,13.08,0,0,1,618.74,581.89Zm1.85-33.54s-1,1.3-2.48,3.28a34.4,34.4,0,0,0-4.25,7.89,26.93,26.93,0,0,0-1.34,4.82,14.47,14.47,0,0,0,.05,5c.67,3.39,2.7,6.78,7.06,9.67a16.28,16.28,0,0,0,3-1.58,16.82,16.82,0,0,0,5.33-5.3,13.17,13.17,0,0,0,1.32-9.76C628.43,558.42,626,553.79,620.59,548.35Z"/><path class="cls-2" d="M692.61,552.47s-.33,1.08-1,2.93c-.17.46-.35,1-.56,1.52s-.48,1.13-.75,1.75c-.55,1.25-1.18,2.64-1.91,4.15s-1.53,3.12-2.43,4.8a56.13,56.13,0,0,1-3,5.17,95.88,95.88,0,0,1-7.79,10.41c-6.07,6.53-13.25,12.11-21.37,13.78a25.06,25.06,0,0,1-12.33-.32,34.38,34.38,0,0,1-12.84-7.28l.26-2.16a48,48,0,0,1,1.1-5.51,43.75,43.75,0,0,1,2.6-7.3,36.76,36.76,0,0,1,4.47-7.89,31.31,31.31,0,0,1,3.3-3.69,32.94,32.94,0,0,1,4-3.46,37.92,37.92,0,0,1,11-5.37A59,59,0,0,1,671,551.34c3.08-.16,6.46-.13,10,0S688.46,551.91,692.61,552.47ZM631.13,587.6c4,3.37,7.88,4.22,11.48,3.51a16,16,0,0,0,5.16-2.07,21.6,21.6,0,0,0,4.51-3.58,47.5,47.5,0,0,0,6.33-8.41,28.61,28.61,0,0,0,2.21-4.3c-7.32-1.86-12.91-2-17-1a15.14,15.14,0,0,0-8.62,5.38,18,18,0,0,0-3.46,7A19.34,19.34,0,0,0,631.13,587.6Z"/><path class="cls-2" d="M336.72,116.8a46.9,46.9,0,0,1,4.16-4,56,56,0,0,1,4.71-3.62,46.57,46.57,0,0,1,6-3.3,35.15,35.15,0,0,1,3.37-1.32,25.5,25.5,0,0,1,3.53-.84,21.35,21.35,0,0,1,7.22-.09,17.48,17.48,0,0,1,6.9,2.94,19.55,19.55,0,0,1,3.11,2.79,25,25,0,0,1,2.79,3.9,22.23,22.23,0,0,1-2.29,3.8,22.5,22.5,0,0,1-7,6.57,18.93,18.93,0,0,1-5.46,2,19.86,19.86,0,0,1-7,0,32.22,32.22,0,0,1-8.84-2.72A70.63,70.63,0,0,1,336.72,116.8Zm40.07-3.1a8.59,8.59,0,0,0-5.78-4.41,11.15,11.15,0,0,0-6.37.8,24.94,24.94,0,0,0-7,4.6c3.66,2.83,6.59,4.16,9,4.57a8.31,8.31,0,0,0,5.83-.8,10.19,10.19,0,0,0,3.28-3A12.17,12.17,0,0,0,376.79,113.7Z"/><path d="M587.12,627.82l-2-2.23A314,314,0,0,0,616,593.13l7-8.79,6.55-9.1,1.63-2.28,1.53-2.35,3-4.71c1-1.57,2-3.13,3-4.71l2.82-4.85c3.88-6.39,7.26-13.07,10.66-19.73L657,526.44c.41-.84.78-1.7,1.12-2.57l1.06-2.6,2.12-5.19a304.62,304.62,0,0,0,13.34-42.79A299,299,0,0,0,681.22,429l.38-5.59.18-2.8.06-2.8c.07-3.74.2-7.48.21-11.22l-.27-11.21c0-1.87-.21-3.73-.32-5.6l-.39-5.6a286.58,286.58,0,0,0-20.68-86.94L658.22,292c-.75-1.71-1.39-3.47-2.23-5.14l-4.83-10.12c-.39-.85-.82-1.68-1.27-2.5l-1.33-2.47-2.66-4.94c-1.7-3.33-3.68-6.51-5.6-9.71l-2.89-4.81-.73-1.2-.77-1.17-1.56-2.33c-2.1-3.09-4.12-6.24-6.28-9.29l-6.68-9c-1.09-1.52-2.29-3-3.46-4.42l-3.53-4.36A291.79,291.79,0,0,0,465.82,125a286.62,286.62,0,0,0-44-8.38A300.58,300.58,0,0,0,377,115l-.12-3a302.59,302.59,0,0,1,45.25,1.66,289.63,289.63,0,0,1,44.48,8.47,294.84,294.84,0,0,1,150.11,96.5l3.56,4.41c1.19,1.47,2.39,2.92,3.49,4.46l6.75,9.1c2.19,3.08,4.23,6.26,6.35,9.39l1.57,2.35.79,1.18.73,1.22,2.92,4.85c1.94,3.24,3.94,6.45,5.66,9.81l2.68,5,1.34,2.5c.46.83.9,1.66,1.29,2.52l4.88,10.23c.85,1.69,1.5,3.47,2.26,5.2l2.19,5.22a305.7,305.7,0,0,1,13.89,43.1,308.85,308.85,0,0,1,7,44.74l.4,5.65c.11,1.88.32,3.76.32,5.65l.27,11.33c0,3.78-.14,7.55-.21,11.33l-.06,2.83-.18,2.83-.38,5.65A303.8,303.8,0,0,1,677.57,474a310,310,0,0,1-13.48,43.23L662,522.43l-1.07,2.62c-.35.88-.72,1.75-1.13,2.6L655,537.93c-3.44,6.73-6.85,13.47-10.77,19.93l-2.86,4.9c-1,1.6-2.05,3.17-3.07,4.76l-3.08,4.75-1.54,2.38L632,577l-6.62,9.2-7,8.88A318.26,318.26,0,0,1,587.12,627.82Z"/><polygon points="119.84 241.93 133.51 250.76 146.13 240.5 141.95 256.22 155.62 265.06 139.37 265.94 135.19 281.67 129.32 266.49 113.07 267.38 125.7 257.11 119.84 241.93"/><polygon points="164.66 187.21 178.32 196.05 190.95 185.78 186.77 201.51 200.44 210.34 184.19 211.23 180.01 226.96 174.14 211.78 157.89 212.66 170.52 202.39 164.66 187.21"/><polygon points="218.42 143.5 232.09 152.33 244.72 142.06 240.54 157.79 254.2 166.63 237.95 167.51 233.77 183.24 227.91 168.06 211.66 168.95 224.28 158.68 218.42 143.5"/><polygon points="282 117.92 295.66 126.75 308.29 116.49 304.11 132.22 317.78 141.05 301.53 141.94 297.35 157.67 291.48 142.48 275.23 143.37 287.86 133.1 282 117.92"/><path class="cls-1" d="M570.65,677.39l-37.77-57.87A250.94,250.94,0,0,1,389,660.2l-4.75-.11c-.8,0-1.59,0-2.38-.07l-2.37-.19-9.47-.71c-3.15-.34-6.28-.8-9.42-1.18-1.57-.21-3.15-.34-4.71-.63l-4.66-.84-4.67-.83-2.34-.42-2.31-.54-9.24-2.12c-3.05-.82-6.08-1.73-9.13-2.57s-6-1.87-9-2.88c-6-1.88-11.86-4.37-17.75-6.66l-8.64-3.91-2.16-1-2.11-1.08-4.22-2.16a240,240,0,0,1-32.3-19.88c-1.28-.94-2.61-1.79-3.84-2.79l-3.73-2.94c-2.48-2-5-3.84-7.38-6s-4.8-4.13-7.17-6.23l-6.87-6.56a271.27,271.27,0,0,1-25-28.54,277,277,0,0,1-20.43-32,263.13,263.13,0,0,1-15.37-34.65l-3-9c-.93-3-1.74-6.08-2.62-9.11-.41-1.53-.93-3-1.25-4.57l-1.06-4.63-1.07-4.61c-.17-.78-.38-1.54-.52-2.32l-.41-2.33-1.67-9.34-1.21-9.42-.3-2.35-.16-1.18-.08-1.18-.36-4.74-.36-4.74c-.06-.79-.14-1.57-.18-2.37l-.05-2.37a246.92,246.92,0,0,1,1.22-38,252,252,0,0,1,6.9-37.28l-66.8-17.69a320.14,320.14,0,0,0-10.36,95.76l.08,3c.05,1,.14,2,.21,3l.45,6,.47,6,.12,1.5.19,1.5.37,3c.51,4,1,8,1.56,12l2.12,11.91.53,3c.18,1,.44,2,.65,2.95l1.36,5.9,1.37,5.89c.42,2,1.06,3.89,1.58,5.84,1.11,3.87,2.16,7.77,3.36,11.62L92.42,516A333.19,333.19,0,0,0,112,560.17a344.33,344.33,0,0,0,26,40.72,341.22,341.22,0,0,0,31.83,36.32l8.75,8.33c3,2.69,6.07,5.3,9.11,7.94s6.23,5.11,9.38,7.62l4.76,3.72c1.57,1.26,3.26,2.37,4.88,3.56a309.27,309.27,0,0,0,41.14,25.33l5.39,2.75,2.7,1.37,2.75,1.25,11,5c7.49,3,15,6.08,22.64,8.53,3.82,1.29,7.63,2.63,11.53,3.66s7.75,2.24,11.65,3.27l11.79,2.72,2.95.68,3,.54,5.95,1.07,6,1.05c2,.36,4,.55,6,.82,4,.5,8,1.06,12,1.48l12.05.92,3,.22c1,.07,2,.07,3,.11l6,.15a320.19,320.19,0,0,0,183.34-51.89Z"/><path d="M91.59,364.07l-.13,0A10.13,10.13,0,0,1,83,353c.32-3.89.73-7.78,1.18-11.67a5.81,5.81,0,0,1,7-5.15l11,2.59a5.71,5.71,0,0,1,4.14,7.27c-1.09,3.47-2.15,7-3.11,10.49A10.49,10.49,0,0,1,91.59,364.07Z"/><path d="M106.36,349.21v-.13a9.64,9.64,0,0,1,8.16-10.66q5.44-.85,10.86-1.55a5.87,5.87,0,0,1,6.62,5c.33,3.42.74,6.82,1.2,10.19a4.57,4.57,0,0,1-1.28,3.9,5.63,5.63,0,0,1-4.08,1.72c-3.66.05-7.35.13-11,.24A10,10,0,0,1,106.36,349.21Z"/><path d="M124.84,358.73l.12-.05a11.12,11.12,0,0,1,13.18,3.71c2,2.8,4,5.53,6.08,8.2,1.89,2.43,1,5.55-1.83,6.9-3.26,1.5-6.45,3.08-9.69,4.72a6,6,0,0,1-8-2.34q-2.34-4.59-4.53-9.34A8.78,8.78,0,0,1,124.84,358.73Z"/><path d="M122.4,377.73l.09.08c3.9,3.29,4.64,8.52,1.71,12.45l-3,4.18-3,4.27a5.88,5.88,0,0,1-8.24,1.35c-3-2.19-5.92-4.44-8.87-6.76a5.47,5.47,0,0,1-.39-8.25c2.65-2.53,5.31-5,8-7.38A10.61,10.61,0,0,1,122.4,377.73Z"/><path d="M102.1,382.17l0,.12a10.41,10.41,0,0,1-12.39,5.91q-5.31-1.57-10.58-3.22a5.65,5.65,0,0,1-3.47-3.17,6.37,6.37,0,0,1,0-4.91l2.33-5.52,2.43-5.45a5.55,5.55,0,0,1,8.07-2.53c3.13,2,6.26,3.94,9.42,5.83A10.33,10.33,0,0,1,102.1,382.17Z"/><path d="M91.59,364.07l-.13,0A10.13,10.13,0,0,1,83,353c.32-3.89.73-7.78,1.18-11.67a5.81,5.81,0,0,1,7-5.15l11,2.59a5.71,5.71,0,0,1,4.14,7.27c-1.09,3.47-2.15,7-3.11,10.49A10.49,10.49,0,0,1,91.59,364.07Z"/><path d="M121.71,367.86a11.22,11.22,0,0,1-1.13,3.57,12.27,12.27,0,0,1-3.22,3.95,13.45,13.45,0,0,1-9.44,3l-.43,0a12.78,12.78,0,0,1-4.63-1.37,12.38,12.38,0,0,1-6.45-8.58,13.16,13.16,0,0,1-.1-4.21,5.4,5.4,0,0,1,.1-.58,12.35,12.35,0,0,1,7.19-9,12.57,12.57,0,0,1,4.41-1,12.7,12.7,0,0,1,3.06.22,13.46,13.46,0,0,1,7.36,4.06,12.62,12.62,0,0,1,2.55,4A11.49,11.49,0,0,1,121.71,367.86Zm-5-.73a7.73,7.73,0,0,0-6.51-8.56A7.54,7.54,0,1,0,108,373.48,7.74,7.74,0,0,0,116.72,367.13Z"/><path d="M89.34,430.5h-.12a9.83,9.83,0,0,1-7-2.27,10.13,10.13,0,0,1-3.67-6.73l-1.35-11.63a5.74,5.74,0,0,1,5.64-6.5l11.26.16a5.77,5.77,0,0,1,5.64,6.21l-.78,10.91a10.9,10.9,0,0,1-2.93,6.7A10.25,10.25,0,0,1,89.34,430.5Z"/><path d="M100.59,412.84l0-.12a9.53,9.53,0,0,1,5.62-12.17c3.4-1.33,6.83-2.61,10.26-3.85a5.87,5.87,0,0,1,7.53,3.43c1.09,3.28,2.16,6.52,3.41,9.71,1.11,2.83-.75,5.88-4,6.65q-5.37,1.25-10.73,2.59A10,10,0,0,1,100.59,412.84Z"/><path d="M120.68,418.18l.1-.07a11.08,11.08,0,0,1,13.65.81c2.44,2.32,5.12,4.55,7.73,6.72,2.37,2,2.19,5.21-.38,7.14l-2.16,1.64-2.09,1.65-4.16,3.38a6,6,0,0,1-8.34-.57c-2.29-2.65-4.3-5.38-6.4-8.17a8.89,8.89,0,0,1-1.71-6.64,8.57,8.57,0,0,1,.41-1.66,9.33,9.33,0,0,1,.81-1.57A9.85,9.85,0,0,1,120.68,418.18Z"/><path d="M122.29,437.28l.11.06c4.59,2.37,6.44,7.32,4.31,11.79-1.37,3.12-2.68,6.29-4,9.53a5.93,5.93,0,0,1-7.78,3.09q-5-2.26-10.1-4.72a5.35,5.35,0,0,1-2.15-8q3.12-4.56,6.25-8.91a9.92,9.92,0,0,1,6.11-3.88A11,11,0,0,1,122.29,437.28Z"/><path d="M103.47,445.94l0,.12a10.53,10.53,0,0,1-10.92,8.43c-3.66-.27-7.33-.57-11-.89a6,6,0,0,1-5.11-7.16l1-5.88,1.3-5.84a5.55,5.55,0,0,1,7.34-4.19q5.23,1.91,10.45,3.68a10.36,10.36,0,0,1,5.63,4.61A9.86,9.86,0,0,1,103.47,445.94Z"/><path d="M89.34,430.5h-.12a9.83,9.83,0,0,1-7-2.27,10.13,10.13,0,0,1-3.67-6.73l-1.35-11.63a5.74,5.74,0,0,1,5.64-6.5l11.26.16a5.77,5.77,0,0,1,5.64,6.21l-.78,10.91a10.9,10.9,0,0,1-2.93,6.7A10.25,10.25,0,0,1,89.34,430.5Z"/><path d="M119.58,427.77a11.11,11.11,0,0,1-.35,3.74,12.36,12.36,0,0,1-2.37,4.54,13.29,13.29,0,0,1-8.54,4.92l-.42.06a13,13,0,0,1-4.84-.35,11.93,11.93,0,0,1-8.09-7,12.84,12.84,0,0,1-1-4.09,5.78,5.78,0,0,1,0-.58,12.4,12.4,0,0,1,1.24-5.9,12.74,12.74,0,0,1,8-6.37,13.2,13.2,0,0,1,3-.44,13.36,13.36,0,0,1,8,2.4A12.15,12.15,0,0,1,117.5,422,11.53,11.53,0,0,1,119.58,427.77Zm-5,.36a7.32,7.32,0,0,0-2.67-5.06,8,8,0,0,0-5.58-1.92,7.84,7.84,0,0,0-5.42,2.5A7.45,7.45,0,0,0,99,429.22a7.56,7.56,0,0,0,8.35,7A7.78,7.78,0,0,0,114.55,428.13Z"/><path d="M101.28,495.93l-.12,0a10.21,10.21,0,0,1-12.39-6.5c-.74-1.82-1.33-3.67-1.94-5.53L85,478.36a5.71,5.71,0,0,1,4.06-7.56l11-2.25A5.81,5.81,0,0,1,107,473.4l.7,5.42c.24,1.81.46,3.63.82,5.42A10.38,10.38,0,0,1,101.28,495.93Z"/><path d="M108.48,476.24l-.07-.11a9.86,9.86,0,0,1-1.23-7.12,9.26,9.26,0,0,1,.53-1.72,9.55,9.55,0,0,1,.92-1.61,10.21,10.21,0,0,1,2.71-2.65q4.6-3,9.23-6a5.85,5.85,0,0,1,8.08,1.74c.87,1.49,1.66,3,2.59,4.42l2.79,4.32c1.65,2.53.44,5.92-2.57,7.37-3.33,1.59-6.64,3.2-9.9,4.83a10.52,10.52,0,0,1-7.32.81A9.61,9.61,0,0,1,108.48,476.24Z"/><path d="M129.18,477.15l.08-.09a10.86,10.86,0,0,1,6.49-3.42,11.19,11.19,0,0,1,7.07,1.26q4.53,2.53,9,4.87a4.22,4.22,0,0,1,2.32,3.15A4.61,4.61,0,0,1,153,486.8q-3.42,4.08-6.79,8.34a6,6,0,0,1-8.25,1.24c-2.67-2.13-5.45-4.29-8.1-6.56A8.94,8.94,0,0,1,129.18,477.15Z"/><path d="M135,495.4l.12,0a9.25,9.25,0,0,1,5.57,4,8.19,8.19,0,0,1,.72,1.49,8,8,0,0,1,.5,1.6,8.76,8.76,0,0,1,0,3.46c-.69,3.35-1.37,6.77-2,10.22a5.84,5.84,0,0,1-6.89,4.69c-3.7-.69-7.22-1.54-10.85-2.42a5.54,5.54,0,0,1-3.86-7.31c.62-1.69,1.34-3.39,2.06-5.08l2.17-5A10.61,10.61,0,0,1,135,495.4Z"/><path d="M118.39,508v.13a10.5,10.5,0,0,1-2.33,6.9,10.17,10.17,0,0,1-6.37,3.65q-5.47.81-11,1.53a5.72,5.72,0,0,1-4.51-1.4,6.27,6.27,0,0,1-2-4.47c-.14-4-.27-8-.35-11.94a5.63,5.63,0,0,1,6.32-5.7c3.67.49,7.26,1,11,1.34A10.19,10.19,0,0,1,118.39,508Z"/><path d="M101.28,495.93l-.12,0a10.21,10.21,0,0,1-12.39-6.5c-.74-1.82-1.33-3.67-1.94-5.53L85,478.36a5.71,5.71,0,0,1,4.06-7.56l11-2.25A5.81,5.81,0,0,1,107,473.4l.7,5.42c.24,1.81.46,3.63.82,5.42A10.38,10.38,0,0,1,101.28,495.93Z"/><path d="M130.23,486.74a11.37,11.37,0,0,1,.4,3.74,11.82,11.82,0,0,1-1.19,4.9,13.43,13.43,0,0,1-7.31,6.67l-.41.15a12.62,12.62,0,0,1-14.31-4.37,12.43,12.43,0,0,1-1.79-3.8,3.82,3.82,0,0,1-.14-.56,12.23,12.23,0,0,1,6.28-14,13,13,0,0,1,2.87-1.08A13.42,13.42,0,0,1,123,479a12.73,12.73,0,0,1,4,2.53A11.15,11.15,0,0,1,130.23,486.74Zm-4.84,1.43a7.73,7.73,0,0,0-9.52-5,7.61,7.61,0,0,0-5.42,9.47,7.53,7.53,0,0,0,9.71,5A7.82,7.82,0,0,0,125.39,488.17Z"/><path d="M127.16,557.23l-.12.06a9.94,9.94,0,0,1-7.36.93,10.47,10.47,0,0,1-6.1-4.6l-3.13-5-1.57-2.48c-.51-.84-1-1.7-1.46-2.55a5.85,5.85,0,0,1,2.42-8.31l10.29-4.59a5.67,5.67,0,0,1,7.68,3.29c.29.86.57,1.73.89,2.58l1,2.54,2,5.09a10.6,10.6,0,0,1,.11,7.36A10.13,10.13,0,0,1,127.16,557.23Z"/><path d="M129.85,536.48l-.09-.09a9.78,9.78,0,0,1,.07-13.45c2.51-2.64,5-5.23,7.68-7.81a6.09,6.09,0,0,1,4.24-1.73,5.61,5.61,0,0,1,4,1.67l7.15,7.37a4.56,4.56,0,0,1,1.1,1.83,4.74,4.74,0,0,1,.26,2.05,5.65,5.65,0,0,1-2.19,3.83q-4.32,3.39-8.6,6.86A10.19,10.19,0,0,1,129.85,536.48Z"/><path d="M150.39,532.81l.06-.11a11.14,11.14,0,0,1,12.73-5l4.87,1.49,2.42.72,2.49.64c3,.77,4.23,3.76,2.73,6.59-1.68,3.17-3.35,6.41-4.85,9.63a6.08,6.08,0,0,1-7.81,3c-3.1-1.49-6.11-3.1-9.22-4.72a8.94,8.94,0,0,1-2.78-2.25,7.32,7.32,0,0,1-1.57-3A9.31,9.31,0,0,1,150.39,532.81Z"/><path d="M159.91,549.43H160c5.09.26,9,3.9,8.93,8.84,0,.87,0,1.74,0,2.6l.11,2.57.24,5.18a5.92,5.92,0,0,1-5.74,6.09c-3.68.06-7.41.07-11.17,0a5.42,5.42,0,0,1-5.29-6.35Q148,563,149,557.7A10.66,10.66,0,0,1,159.91,549.43Z"/><path d="M146.51,565.24l0,.12a10.46,10.46,0,0,1-6.29,12.24c-3.44,1.3-6.89,2.59-10.35,3.84a6.06,6.06,0,0,1-7.7-4.29l-.8-2.88-.69-2.93-1.35-5.82a5.52,5.52,0,0,1,4.86-6.89q5.57-.48,11.06-1.1a10.12,10.12,0,0,1,8.43,3,10.5,10.5,0,0,1,1.21,1.37A9.88,9.88,0,0,1,146.51,565.24Z"/><path d="M127.16,557.23l-.12.06a9.94,9.94,0,0,1-7.36.93,10.47,10.47,0,0,1-6.1-4.6l-3.13-5-1.57-2.48c-.51-.84-1-1.7-1.46-2.55a5.85,5.85,0,0,1,2.42-8.31l10.29-4.59a5.67,5.67,0,0,1,7.68,3.29c.29.86.57,1.73.89,2.58l1,2.54,2,5.09a10.6,10.6,0,0,1,.11,7.36A10.13,10.13,0,0,1,127.16,557.23Z"/><path d="M153.4,542a10.88,10.88,0,0,1,1.3,3.52,12.38,12.38,0,0,1-.19,5.1,13.6,13.6,0,0,1-2,4.51,13.3,13.3,0,0,1-3.68,3.6l-.36.23a13.15,13.15,0,0,1-4.54,1.73,12.27,12.27,0,0,1-10.25-3,12.78,12.78,0,0,1-2.67-3.27q-.15-.26-.27-.51a11.39,11.39,0,0,1-1.28-5.92,12.64,12.64,0,0,1,1.57-5.62,12.45,12.45,0,0,1,2.88-3.48,12.58,12.58,0,0,1,2.56-1.68,13.47,13.47,0,0,1,8.33-1.23,12.32,12.32,0,0,1,4.42,1.63,11.21,11.21,0,0,1,2.35,1.89A13.22,13.22,0,0,1,153.4,542ZM149,544.43a7.45,7.45,0,0,0-1.94-2.19,7.29,7.29,0,0,0-2.54-1.3,8,8,0,0,0-5.87.62,7.83,7.83,0,0,0-4.22,7.52,7.18,7.18,0,0,0,1,2.91A7.79,7.79,0,0,0,149,544.43Z"/><path d="M165.64,611.46l-.09.08a10.23,10.23,0,0,1-14-.65c-1.43-1.33-2.71-2.79-4.07-4.2l-4-4.26a6.13,6.13,0,0,1-1.7-4.51,5.54,5.54,0,0,1,2.21-4.08l9.06-6.7a5.82,5.82,0,0,1,8.26,1.5l2.94,4.61c1,1.52,1.93,3.11,3,4.57A10.37,10.37,0,0,1,165.64,611.46Z"/><path d="M163.86,590.58l-.1-.07a9.48,9.48,0,0,1-2.87-13.12q2.87-4.7,5.82-9.29a5.88,5.88,0,0,1,8.07-1.84l4.21,2.92c1.44.93,2.91,1.83,4.35,2.74,2.57,1.59,2.92,5.16.8,7.75-2.33,2.84-4.67,5.71-6.95,8.58a10.45,10.45,0,0,1-6.27,3.8A9.64,9.64,0,0,1,163.86,590.58Z"/><path d="M183,582.66l0-.12a11.15,11.15,0,0,1,11.36-7.67q5.19.39,10.24.63a4.28,4.28,0,0,1,3.45,1.87,4.75,4.75,0,0,1,.61,4q-1.4,5.14-2.64,10.44a6,6,0,0,1-7,4.59c-3.32-.81-6.76-1.59-10.11-2.54A8.93,8.93,0,0,1,183,582.66Z"/><path d="M196,596.77l.12,0a9.25,9.25,0,0,1,6.75,1.3,8,8,0,0,1,1.28,1,8.85,8.85,0,0,1,1.13,1.24,8.62,8.62,0,0,1,1.44,3.16c.8,3.32,1.6,6.72,2.51,10.1a5.85,5.85,0,0,1-4.28,7.15c-3.65.92-7.21,1.65-10.87,2.38a5.53,5.53,0,0,1-6.57-5c-.15-1.79-.21-3.64-.27-5.47l-.14-5.46A10.59,10.59,0,0,1,196,596.77Z"/><path d="M186.22,615.16l.06.12a10.49,10.49,0,0,1,.78,7.23,10.13,10.13,0,0,1-4.24,6q-4.63,3-9.32,6a5.75,5.75,0,0,1-4.69.62,6.22,6.22,0,0,1-3.72-3.19c-1.81-3.58-3.62-7.12-5.33-10.67a5.63,5.63,0,0,1,3.32-7.83c3.54-1.1,7-2.2,10.5-3.4A10.19,10.19,0,0,1,186.22,615.16Z"/><path d="M165.64,611.46l-.09.08a10.23,10.23,0,0,1-14-.65c-1.43-1.33-2.71-2.79-4.07-4.2l-4-4.26a6.13,6.13,0,0,1-1.7-4.51,5.54,5.54,0,0,1,2.21-4.08l9.06-6.7a5.82,5.82,0,0,1,8.26,1.5l2.94,4.61c1,1.52,1.93,3.11,3,4.57A10.37,10.37,0,0,1,165.64,611.46Z"/><path d="M188,590.92a11.23,11.23,0,0,1,2,3.22,12.15,12.15,0,0,1,1,5,13.38,13.38,0,0,1-3.81,9.13l-.31.31a12.81,12.81,0,0,1-4,2.64,12.05,12.05,0,0,1-14-3.26c-.13-.15-.25-.29-.37-.45a12.35,12.35,0,0,1-2.27-11.26,12.9,12.9,0,0,1,2.09-4.05,13.53,13.53,0,0,1,2.15-2.2,13.29,13.29,0,0,1,7.82-3,13,13,0,0,1,4.74.59A11.25,11.25,0,0,1,188,590.92Zm-3.78,3.33a7.75,7.75,0,0,0-10.77-.54,7.55,7.55,0,1,0,10,11.29A7.84,7.84,0,0,0,184.23,594.25Z"/><path d="M214.86,656.16l-.08.11a9.9,9.9,0,0,1-6.29,3.92,10.27,10.27,0,0,1-7.48-1.6l-4.91-3.19c-1.64-1.06-3.29-2.11-4.86-3.28a5.84,5.84,0,0,1-1.28-8.56l7.4-8.49a5.65,5.65,0,0,1,8.34-.23c1.24,1.34,2.57,2.58,3.88,3.84l4,3.78a10.87,10.87,0,0,1,3.19,6.62A10.18,10.18,0,0,1,214.86,656.16Z"/><path d="M208.6,636.19l-.12,0a9.77,9.77,0,0,1-5.59-12.23c1.18-3.45,2.37-6.85,3.69-10.3a6,6,0,0,1,3.12-3.36,5.67,5.67,0,0,1,4.36-.18l9.58,3.69a4.94,4.94,0,0,1,2.87,3,5.64,5.64,0,0,1-.37,4.39q-2.5,4.9-4.94,9.85A10.13,10.13,0,0,1,208.6,636.19Z"/><path d="M225.7,624.25v-.12a11.12,11.12,0,0,1,9.45-9.91c3.4-.46,6.69-.87,10.08-1.53,3-.55,5.41,1.65,5.24,4.85l-.26,5.42c-.05,1.78-.08,3.55-.09,5.35a6.08,6.08,0,0,1-5.83,6c-1.76,0-3.44-.08-5.16-.15l-5.2-.25a8.66,8.66,0,0,1-6.18-3A9.34,9.34,0,0,1,225.7,624.25Z"/><path d="M241.31,635.36l.11,0c4.76-2,9.77-.22,11.82,4.28.7,1.61,1.5,3.08,2.28,4.62l2.39,4.61a5.92,5.92,0,0,1-2.66,7.94q-5,2.4-10.13,4.69a5.38,5.38,0,0,1-4.56,0,5.59,5.59,0,0,1-2.91-3.51q-1.49-5.29-2.8-10.49A10.62,10.62,0,0,1,241.31,635.36Z"/><path d="M235.78,655.32l.08.1a10.46,10.46,0,0,1-.59,13.75q-3.86,3.95-7.78,7.84a6.06,6.06,0,0,1-8.78-.69c-2.63-3-5-6.23-7.45-9.36a5.52,5.52,0,0,1,1.52-8.29q4.84-2.77,9.57-5.63a10.21,10.21,0,0,1,7.16-1.33A10.35,10.35,0,0,1,235.78,655.32Z"/><path d="M214.86,656.16l-.08.11a9.9,9.9,0,0,1-6.29,3.92,10.27,10.27,0,0,1-7.48-1.6l-4.91-3.19c-1.64-1.06-3.29-2.11-4.86-3.28a5.84,5.84,0,0,1-1.28-8.56l7.4-8.49a5.65,5.65,0,0,1,8.34-.23c1.24,1.34,2.57,2.58,3.88,3.84l4,3.78a10.87,10.87,0,0,1,3.19,6.62A10.18,10.18,0,0,1,214.86,656.16Z"/><path d="M232.29,631.31a10.93,10.93,0,0,1,2.64,2.66,12.28,12.28,0,0,1,2,4.71,13.66,13.66,0,0,1-1.79,9.75c-.07.13-.15.24-.23.36a13.08,13.08,0,0,1-3.39,3.48,12.23,12.23,0,0,1-10.56,1.62,13,13,0,0,1-3.79-1.86,5.07,5.07,0,0,1-.46-.35,11.59,11.59,0,0,1-2.18-2.19,12.8,12.8,0,0,1-1.47-2.62,12.62,12.62,0,0,1,.22-10.14,13,13,0,0,1,1.63-2.6,13.49,13.49,0,0,1,7-4.62,12.26,12.26,0,0,1,4.69-.37,11.39,11.39,0,0,1,2.92.74A11.16,11.16,0,0,1,232.29,631.31Zm-3,4.07a7.06,7.06,0,0,0-2.69-1.16,7.6,7.6,0,0,0-2.85-.11,8,8,0,0,0-5.07,3,7.89,7.89,0,0,0-1.6,5.76,7.74,7.74,0,0,0,.93,2.83,7.76,7.76,0,1,0,11.28-10.34Z"/><path d="M272.56,689.25l-.06.12c-2.07,4.83-7.67,7.12-13,5.27-1.86-.61-3.65-1.37-5.47-2.09l-5.44-2.19a5.72,5.72,0,0,1-3.15-8l5.41-9.89a5.81,5.81,0,0,1,8.14-2.11l4.6,2.95c1.54,1,3.06,2,4.66,2.88A10.39,10.39,0,0,1,272.56,689.25Z"/><path d="M262.16,671.05l-.12,0a9.85,9.85,0,0,1-6.24-3.65,9.74,9.74,0,0,1-1.87-7q.63-5.48,1.4-10.89a5.86,5.86,0,0,1,6.54-5.05c1.69.3,3.36.61,5.05.89l5.1.65c3,.37,4.81,3.47,4,6.71-.93,3.56-1.85,7.15-2.7,10.69a10.56,10.56,0,0,1-4.11,6.1A9.62,9.62,0,0,1,262.16,671.05Z"/><path d="M276.22,655.83l0-.13a11,11,0,0,1,1.58-7.16A11.09,11.09,0,0,1,283.3,644q4.86-1.83,9.54-3.73a4.24,4.24,0,0,1,3.91.26,4.66,4.66,0,0,1,2.24,3.36q.9,5.24,2,10.57a6,6,0,0,1-4.38,7.1c-3.35.67-6.79,1.39-10.23,2A8.94,8.94,0,0,1,276.22,655.83Z"/><path d="M293.92,663.16l.1-.07a9.3,9.3,0,0,1,6.66-1.66,8.84,8.84,0,0,1,1.61.41,8.67,8.67,0,0,1,1.54.65,8.76,8.76,0,0,1,2.64,2.25c2.11,2.68,4.28,5.41,6.52,8.12a5.84,5.84,0,0,1-.87,8.28c-2.92,2.38-5.84,4.52-8.85,6.73a5.54,5.54,0,0,1-8.08-1.78c-.89-1.56-1.72-3.2-2.54-4.84l-2.43-4.89A10.62,10.62,0,0,1,293.92,663.16Z"/><path d="M292.79,684l.1.08a10.54,10.54,0,0,1,3.77,6.24,10.16,10.16,0,0,1-1.33,7.22q-2.93,4.69-5.92,9.38a5.73,5.73,0,0,1-4,2.54,6.24,6.24,0,0,1-4.73-1.33c-3.16-2.49-6.28-5-9.34-7.44a5.63,5.63,0,0,1-.28-8.5c2.75-2.49,5.43-4.93,8.11-7.51A10.19,10.19,0,0,1,292.79,684Z"/><path d="M272.56,689.25l-.06.12c-2.07,4.83-7.67,7.12-13,5.27-1.86-.61-3.65-1.37-5.47-2.09l-5.44-2.19a5.72,5.72,0,0,1-3.15-8l5.41-9.89a5.81,5.81,0,0,1,8.14-2.11l4.6,2.95c1.54,1,3.06,2,4.66,2.88A10.39,10.39,0,0,1,272.56,689.25Z"/><path d="M284.22,661.21a11.29,11.29,0,0,1,3.12,2.11,11.83,11.83,0,0,1,3,4.08,13.37,13.37,0,0,1,.37,9.88c0,.14-.09.28-.14.41A13.16,13.16,0,0,1,288,681.8a12.71,12.71,0,0,1-10,4,12.56,12.56,0,0,1-4.06-1.08,5,5,0,0,1-.52-.26,12.44,12.44,0,0,1-6.8-9.26,12.89,12.89,0,0,1,1.23-7.45,13.36,13.36,0,0,1,5.86-6,12.9,12.9,0,0,1,4.54-1.45A11.2,11.2,0,0,1,284.22,661.21Zm-2,4.62a7.74,7.74,0,0,0-10,4,7.54,7.54,0,1,0,13.81,6A7.82,7.82,0,0,0,282.19,665.83Z"/><path d="M336.07,709.07l0,.13a9.94,9.94,0,0,1-4.05,6.23,10.62,10.62,0,0,1-7.45,1.67l-5.81-.8-2.91-.4-2.88-.54a5.85,5.85,0,0,1-4.79-7.21l3.14-10.83a5.67,5.67,0,0,1,7.46-3.74l2.55,1,2.59.87,5.19,1.74a10.45,10.45,0,0,1,5.68,4.69A10,10,0,0,1,336.07,709.07Z"/><path d="M322,693.62h-.12a9.8,9.8,0,0,1-10.23-8.74c-.39-3.62-.74-7.22-1-10.91a6,6,0,0,1,1.41-4.36,5.65,5.65,0,0,1,3.88-2l10.24-.71a4.4,4.4,0,0,1,2.11.35A4.6,4.6,0,0,1,330,668.4a5.61,5.61,0,0,1,1.51,4.13c-.13,3.66-.24,7.33-.31,11A10.2,10.2,0,0,1,322,693.62Z"/><path d="M332.42,675.56l-.05-.12a11.15,11.15,0,0,1,4.38-13L341,659.7c1.41-.93,2.8-1.83,4.19-2.85,2.53-1.81,5.61-.83,6.81,2.14l2.05,5c.7,1.67,1.42,3.34,2.17,5a6.07,6.07,0,0,1-2.74,7.91q-4.69,2-9.55,4A8.7,8.7,0,0,1,332.42,675.56Z"/><path d="M351.26,679l.09-.09a10.13,10.13,0,0,1,2.88-2.15,8.9,8.9,0,0,1,3.27-1,8.46,8.46,0,0,1,6.36,2c1.32,1.09,2.66,2.26,4,3.3l4.12,3.12a5.91,5.91,0,0,1,.95,8.31q-3.51,4.31-7.2,8.59a5.48,5.48,0,0,1-8.26-.1c-2.39-2.78-4.73-5.48-7-8.31A10.66,10.66,0,0,1,351.26,679Z"/><path d="M354.69,699.46l.11,0a10.4,10.4,0,0,1,5.29,12.67q-1.83,5.21-3.74,10.4a6.09,6.09,0,0,1-8.26,3.14c-1.82-.78-3.6-1.74-5.39-2.63l-5.32-2.72a5.51,5.51,0,0,1-2.13-8.15q3.22-4.56,6.3-9.16a10.25,10.25,0,0,1,5.94-4.26,11.1,11.1,0,0,1,3.6-.29A9.78,9.78,0,0,1,354.69,699.46Z"/><path d="M336.07,709.07l0,.13a9.94,9.94,0,0,1-4.05,6.23,10.62,10.62,0,0,1-7.45,1.67l-5.81-.8-2.91-.4-2.88-.54a5.85,5.85,0,0,1-4.79-7.21l3.14-10.83a5.67,5.67,0,0,1,7.46-3.74l2.55,1,2.59.87,5.19,1.74a10.45,10.45,0,0,1,5.68,4.69A10,10,0,0,1,336.07,709.07Z"/><path d="M341.37,679.19a10.82,10.82,0,0,1,3.52,1.27,12.21,12.21,0,0,1,3.78,3.42,13.74,13.74,0,0,1,2.49,9.65,3,3,0,0,1-.06.42,12.52,12.52,0,0,1-1.6,4.55,12.34,12.34,0,0,1-8.88,5.93,12.75,12.75,0,0,1-4.22-.06l-.57-.12a11.85,11.85,0,0,1-1.5-.44,12.67,12.67,0,0,1-1.39-.66,12.83,12.83,0,0,1-2.45-1.76,12.52,12.52,0,0,1-3.28-4.83,12.29,12.29,0,0,1-.8-4.43,12.85,12.85,0,0,1,.37-3,13.54,13.54,0,0,1,4.43-7.16,12.3,12.3,0,0,1,4.11-2.33A12.43,12.43,0,0,1,341.37,679.19Zm-1,4.94a7.65,7.65,0,0,0-5.55,1.16,8,8,0,0,0-3.32,4.89,7.85,7.85,0,0,0,1,5.88,7.18,7.18,0,0,0,4.88,3.36,7.8,7.8,0,0,0,3-15.29Z"/><path d="M402.32,714.69v.13a9.78,9.78,0,0,1-2.61,6.91,10.26,10.26,0,0,1-6.9,3.31l-11.69.77a5.94,5.94,0,0,1-2.5-.36,6,6,0,0,1-2-1.32,5.53,5.53,0,0,1-1.69-4.33l.72-11.24a5.58,5.58,0,0,1,4.12-5.07,5.8,5.8,0,0,1,2.36-.2L393,704.62a10.83,10.83,0,0,1,6.55,3.27A10.28,10.28,0,0,1,402.32,714.69Z"/><path d="M385.24,702.55l-.12,0a9.56,9.56,0,0,1-11.87-6.29q-1.74-5.22-3.34-10.42a5.91,5.91,0,0,1,3.8-7.38l5-1.37,2.46-.68c.81-.25,1.63-.53,2.44-.8,2.88-1,5.84,1,6.45,4.32q1,5.43,2.05,10.85A10,10,0,0,1,385.24,702.55Z"/><path d="M391.56,682.75l-.07-.1A11.08,11.08,0,0,1,393,669.06c2.43-2.33,4.79-4.9,7.09-7.36,2.09-2.25,5.32-1.87,7.12.69q3,4.4,6.26,8.78a6,6,0,0,1-1,8.28l-4.19,3c-1.42,1-2.84,2-4.29,3A8.76,8.76,0,0,1,391.56,682.75Z"/><path d="M410.72,682.06l.07-.11a9.44,9.44,0,0,1,5.34-4.31,8.46,8.46,0,0,1,6.65.58c3.06,1.65,6.16,3.06,9.32,4.55a5.92,5.92,0,0,1,2.7,7.93q-2.51,4.92-5.21,9.86a5.46,5.46,0,0,1-8.08,1.73L417.17,699l-4.25-3.43A10.59,10.59,0,0,1,410.72,682.06Z"/><path d="M418.44,701.38l.12,0a10.35,10.35,0,0,1,7.87,11.23q-.68,5.48-1.44,11a6,6,0,0,1-7.39,4.8c-3.9-1-7.76-1.86-11.59-2.89a5.6,5.6,0,0,1-3.82-7.57q2.18-5.1,4.19-10.21A10.24,10.24,0,0,1,418.44,701.38Z"/><path d="M402.32,714.69v.13a9.78,9.78,0,0,1-2.61,6.91,10.26,10.26,0,0,1-6.9,3.31l-11.69.77a5.94,5.94,0,0,1-2.5-.36,6,6,0,0,1-2-1.32,5.53,5.53,0,0,1-1.69-4.33l.72-11.24a5.58,5.58,0,0,1,4.12-5.07,5.8,5.8,0,0,1,2.36-.2L393,704.62a10.83,10.83,0,0,1,6.55,3.27A10.28,10.28,0,0,1,402.32,714.69Z"/><path d="M401.09,684.35a11.23,11.23,0,0,1,3.72.57,12.82,12.82,0,0,1,4.42,2.49,13.44,13.44,0,0,1,4.49,8.83c0,.14,0,.28,0,.43a12.86,12.86,0,0,1-.59,4.79,12.52,12.52,0,0,1-7.4,7.8,13.1,13.1,0,0,1-4.14.76h-.58A12,12,0,0,1,391,704.38a13,13,0,0,1-1.74-4.18,13.36,13.36,0,0,1,2.51-11,12.2,12.2,0,0,1,3.5-3.11A11.28,11.28,0,0,1,401.09,684.35Zm.11,5a7.21,7.21,0,0,0-5.18,2.37,8.08,8.08,0,0,0-2.19,5.49,7.76,7.76,0,0,0,2.22,5.53,7.51,7.51,0,0,0,5.47,2.18,7.38,7.38,0,0,0,5.38-2.4,7.83,7.83,0,0,0,2-5.63,8,8,0,0,0-2.42-5.38A7.38,7.38,0,0,0,401.2,689.4Z"/><path d="M468.25,706l0,.13a9.77,9.77,0,0,1-1.07,7.31,10.41,10.41,0,0,1-2.49,2.9,10.76,10.76,0,0,1-3.55,1.82c-3.74,1.12-7.48,2.31-11.27,3.25a5.78,5.78,0,0,1-7.36-4.49l-1.69-11.13a5.73,5.73,0,0,1,5.19-6.59c3.65-.19,7.26-.64,10.89-1a10.17,10.17,0,0,1,3.78.31,10.26,10.26,0,0,1,7.54,7.51Z"/><path d="M449,697.89l-.11.06a9.85,9.85,0,0,1-7.19.8,9.53,9.53,0,0,1-3.25-1.58,10.09,10.09,0,0,1-2.5-2.84q-2.82-4.74-5.49-9.51a5.84,5.84,0,0,1,2.14-8c3.06-1.51,6-3.29,9-4.93,2.63-1.44,5.92-.19,7.22,2.88q2.12,5.07,4.33,10.12A10.12,10.12,0,0,1,449,697.89Z"/><path d="M450.89,677.15l-.09-.09a11.13,11.13,0,0,1-1.47-13.61c.92-1.44,1.84-2.85,2.73-4.3l2.6-4.4c1.54-2.68,4.78-3,7.08-.85q3.9,3.63,8,7.21a6,6,0,0,1,.83,8.3c-2.27,2.55-4.56,5.25-7,7.7a8.9,8.9,0,0,1-6.27,2.76A9.09,9.09,0,0,1,450.89,677.15Z"/><path d="M469.43,672.34l0-.12a9.31,9.31,0,0,1,4.28-5.37,8.51,8.51,0,0,1,6.61-.87c3.34.94,6.67,1.66,10.08,2.43a5.92,5.92,0,0,1,4.36,7.15q-1.38,5.34-2.95,10.76a5.47,5.47,0,0,1-7.52,3.43c-1.67-.75-3.31-1.48-4.95-2.26l-4.89-2.42A10.6,10.6,0,0,1,469.43,672.34Z"/><path d="M481.14,689.53h.12a10.35,10.35,0,0,1,10.11,9.25q.53,5.51,1,11a5.63,5.63,0,0,1-1.64,4.4,6.1,6.1,0,0,1-4.55,1.88l-6-.11c-2-.05-4-.07-6-.21a5.57,5.57,0,0,1-5.36-6.56q1-5.46,1.89-10.89a10.66,10.66,0,0,1,3.59-6.41A10.11,10.11,0,0,1,481.14,689.53Z"/><path d="M468.25,706l0,.13a9.77,9.77,0,0,1-1.07,7.31,10.41,10.41,0,0,1-2.49,2.9,10.76,10.76,0,0,1-3.55,1.82c-3.74,1.12-7.48,2.31-11.27,3.25a5.78,5.78,0,0,1-7.36-4.49l-1.69-11.13a5.73,5.73,0,0,1,5.19-6.59c3.65-.19,7.26-.64,10.89-1a10.17,10.17,0,0,1,3.78.31,10.26,10.26,0,0,1,7.54,7.51Z"/><path d="M460.53,676.65a11,11,0,0,1,3.74-.26,13.17,13.17,0,0,1,4.86,1.5,13.41,13.41,0,0,1,6.29,7.64c.05.13.09.27.13.41a13,13,0,0,1,.45,4.81,12.37,12.37,0,0,1-5.55,9.2,13,13,0,0,1-3.88,1.65c-.18,0-.37.09-.57.12a12.15,12.15,0,0,1-11-3.32,12.48,12.48,0,0,1-2.59-3.69,13,13,0,0,1-.94-2.92,13.55,13.55,0,0,1,1-8.36,12.44,12.44,0,0,1,2.75-3.82A11.84,11.84,0,0,1,460.53,676.65Zm1.18,4.9a7.36,7.36,0,0,0-4.54,3.44,7.92,7.92,0,0,0-1,5.82,7.82,7.82,0,0,0,3.36,4.93,7.43,7.43,0,0,0,5.82,1,7.51,7.51,0,0,0,4.73-3.5,7.77,7.77,0,0,0,.73-5.93,7.94,7.94,0,0,0-3.52-4.73A7.24,7.24,0,0,0,461.71,681.55Z"/><path d="M530.78,683.25l.05.12a9.73,9.73,0,0,1,.54,7.36,10.29,10.29,0,0,1-4.87,5.93c-3.41,1.88-6.79,3.88-10.3,5.62a5.8,5.8,0,0,1-8.16-2.79L504,689a5.73,5.73,0,0,1,3.65-7.55c3.52-1,6.93-2.22,10.41-3.35a10.77,10.77,0,0,1,7.33.19A10.34,10.34,0,0,1,530.78,683.25Z"/><path d="M510.18,679.52l-.09.08a9.83,9.83,0,0,1-10.37,1.49,10.07,10.07,0,0,1-3.06-2.22q-3.78-4-7.42-8.09a5.86,5.86,0,0,1,.36-8.26l2-1.64c.65-.56,1.28-1.14,1.93-1.71l3.81-3.41A5.15,5.15,0,0,1,505,657q3.18,4.5,6.43,9A10.13,10.13,0,0,1,510.18,679.52Z"/><path d="M507.56,658.85l-.11-.07a11.11,11.11,0,0,1-4.38-13c1.2-3.17,2.28-6.45,3.31-9.67.93-2.91,4-3.93,6.73-2.37q4.59,2.72,9.38,5.33a6,6,0,0,1,2.59,7.91c-1.66,3-3.32,6.08-5.13,9a8.76,8.76,0,0,1-12.39,2.79Z"/><path d="M524.61,650.12l0-.12a9.64,9.64,0,0,1,3-6.19,8.47,8.47,0,0,1,6.28-2.25c3.46.17,6.86.14,10.37.17a5.94,5.94,0,0,1,5.8,6q-.2,5.51-.56,11.12a5.44,5.44,0,0,1-6.59,5c-3.58-.74-7.09-1.51-10.62-2.44A10.61,10.61,0,0,1,524.61,650.12Z"/><path d="M539.77,664.35l.12,0a10.4,10.4,0,0,1,11.89,6.86q1.69,5.25,3.33,10.54a6.06,6.06,0,0,1-4.67,7.49c-4,.78-7.84,1.59-11.74,2.28a5.6,5.6,0,0,1-6.67-5.25q-.18-5.55-.51-11a10.28,10.28,0,0,1,8.25-10.86Z"/><path d="M530.78,683.25l.05.12a9.73,9.73,0,0,1,.54,7.36,10.29,10.29,0,0,1-4.87,5.93c-3.41,1.88-6.79,3.88-10.3,5.62a5.8,5.8,0,0,1-8.16-2.79L504,689a5.73,5.73,0,0,1,3.65-7.55c3.52-1,6.93-2.22,10.41-3.35a10.77,10.77,0,0,1,7.33.19A10.34,10.34,0,0,1,530.78,683.25Z"/><path d="M516.86,656.26a11.15,11.15,0,0,1,3.61-1,12.49,12.49,0,0,1,5,.39,13.45,13.45,0,0,1,7.81,6.11l.21.37a12.79,12.79,0,0,1,1.49,4.6,12.52,12.52,0,0,1-3.42,10.19,13,13,0,0,1-3.43,2.43c-.18.09-.35.17-.53.24a12.48,12.48,0,0,1-5.95,1,12.61,12.61,0,0,1-5.54-1.88,12.39,12.39,0,0,1-3.34-3,13.35,13.35,0,0,1-1.55-2.65,13.49,13.49,0,0,1-.81-8.37,12.32,12.32,0,0,1,1.86-4.33A11.57,11.57,0,0,1,516.86,656.26Zm2.22,4.53a7.3,7.3,0,0,0-3.69,4.34,8,8,0,0,0,.33,5.9,7.79,7.79,0,0,0,4.35,4.08,7.51,7.51,0,0,0,5.88-.33,7.34,7.34,0,0,0,3.86-4.46,7.79,7.79,0,0,0-.57-5.94,7.93,7.93,0,0,0-4.47-3.86A7.41,7.41,0,0,0,519.08,660.79Z"/><path class="cls-3" d="M267.76,421.37V402.93l-13.73-25h6.38l6.12,12c1.68,3.29,3,5.93,4.32,9H271c1.22-2.83,2.71-5.67,4.38-9l6.25-12H288l-14.56,24.95v18.5Z"/><path class="cls-3" d="M316.09,405.51c0,11.54-8,16.57-15.53,16.57-8.44,0-14.95-6.19-14.95-16.05,0-10.44,6.83-16.57,15.47-16.57C310,389.46,316.09,396,316.09,405.51Zm-24.75.32c0,6.84,3.93,12,9.48,12s9.47-5.09,9.47-12.12c0-5.28-2.64-12-9.34-12S291.34,399.9,291.34,405.83Z"/><path class="cls-3" d="M349.35,412.86c0,3.22.06,6.06.25,8.51h-5l-.32-5.1h-.13a11.74,11.74,0,0,1-10.32,5.81c-4.89,0-10.76-2.71-10.76-13.67V390.17h5.67v17.27c0,5.93,1.81,9.93,7,9.93a8.19,8.19,0,0,0,7.48-5.16,8.32,8.32,0,0,0,.52-2.9V390.17h5.67Z"/><path class="cls-3" d="M358.75,399.9c0-3.67-.06-6.83-.25-9.73h5l.19,6.12h.26c1.42-4.19,4.83-6.83,8.64-6.83a6.11,6.11,0,0,1,1.61.2V395a8.45,8.45,0,0,0-1.94-.2c-4,0-6.83,3-7.6,7.28a16,16,0,0,0-.26,2.65v16.63h-5.61Z"/><path class="cls-3" d="M393.68,421.37V377.92h6.13l13.92,22a125.07,125.07,0,0,1,7.8,14.12l.12-.07c-.51-5.8-.64-11.08-.64-17.85V377.92h5.29v43.45h-5.68l-13.79-22.05a136.59,136.59,0,0,1-8.12-14.5l-.19.07c.32,5.47.45,10.7.45,17.91v18.57Z"/><path class="cls-3" d="M453.17,421.37l-.45-3.94h-.2a11.62,11.62,0,0,1-9.54,4.65c-6.31,0-9.54-4.45-9.54-9,0-7.54,6.71-11.67,18.76-11.61v-.64c0-2.58-.71-7.22-7.09-7.22A15.52,15.52,0,0,0,437,396l-1.29-3.74A19.43,19.43,0,0,1,446,389.46c9.54,0,11.86,6.51,11.86,12.76v11.67a44.71,44.71,0,0,0,.51,7.48Zm-.84-15.92c-6.19-.13-13.21,1-13.21,7a5,5,0,0,0,5.35,5.42,7.77,7.77,0,0,0,7.54-5.22,6.05,6.05,0,0,0,.32-1.81Z"/><path class="cls-3" d="M467,398.61c0-3.22-.07-5.86-.26-8.44h5l.26,5h.19a10.75,10.75,0,0,1,9.8-5.74,9.23,9.23,0,0,1,8.83,6.25h.13a12.91,12.91,0,0,1,3.48-4.06,10.69,10.69,0,0,1,6.9-2.19c4.12,0,10.24,2.71,10.24,13.54v18.37H506V403.71c0-6-2.19-9.61-6.77-9.61a7.35,7.35,0,0,0-6.7,5.16,9.22,9.22,0,0,0-.45,2.83v19.28h-5.54V402.68c0-5-2.19-8.58-6.51-8.58-3.55,0-6.13,2.84-7,5.67a7.91,7.91,0,0,0-.45,2.78v18.82H467Z"/><path class="cls-3" d="M523.86,406.8c.13,7.67,5,10.83,10.7,10.83A20.58,20.58,0,0,0,543.2,416l1,4.06A25.35,25.35,0,0,1,533.79,422c-9.6,0-15.34-6.32-15.34-15.73s5.54-16.82,14.63-16.82c10.19,0,12.89,9,12.89,14.7a22.42,22.42,0,0,1-.19,2.64Zm16.63-4.06c.07-3.61-1.48-9.22-7.86-9.22-5.74,0-8.25,5.29-8.7,9.22Z"/></svg>