<svg id="Layer_1" data-name="Layer 1" xmlns="http://www.w3.org/2000/svg" viewBox="0 0 800 800"><defs><style>.cls-1{fill:#fff;}.cls-2{fill:#231f20;}.cls-3{fill:#14ae4b;}.cls-4{fill:#7e7930;}.cls-5{fill:#00734e;}.cls-6{fill:#94d1b6;}.cls-7{fill:#03572d;}.cls-8{fill:#01493b;}.cls-9{fill:#6ebe44;}.cls-10{fill:#00af4c;}</style></defs><path class="cls-1" d="M688.75,400.87A288.81,288.81,0,0,1,449.09,685.45l-13.94.25.85,1-67.75,1.19q-3.58-.37-7.12-.87-9.64-1.29-19.1-3.21A288.78,288.78,0,0,1,111.25,400.87c0-159.47,129.28-288.75,288.75-288.75S688.75,241.4,688.75,400.87Z"/><path class="cls-2" d="M368.26,688.38q-3.63-.37-7.2-.87c-6.31-.85-12.75-1.93-19.13-3.22a289.35,289.35,0,1,1,107.25,1.65l-12.95.24.15.17.72.82ZM400,112.62c-158.94,0-288.25,129.3-288.25,288.25A288.38,288.38,0,0,0,342.13,683.31c6.36,1.29,12.77,2.37,19.06,3.21,2.37.32,4.76.62,7.11.87l66.62-1.18-.08-.11-.69-.8,1-.1,13.94-.25A288.23,288.23,0,0,0,688.25,400.87C688.25,241.92,558.94,112.62,400,112.62Z"/><path class="cls-3" d="M645.29,553.28a289.37,289.37,0,0,1-196.2,132.17l-13.94.25.85,1-67.75,1.19q-3.58-.37-7.12-.87-9.64-1.29-19.1-3.21a519.61,519.61,0,0,0,43.67-66.4,517.93,517.93,0,0,0,30.67-66L427,562.19q28.83-40.74,57.66-81.49l13,10.71L511,474.79c0,6.56,9,9.85,14.88,6.94,3.7-1.83,6.31-5,8.43-8.62a71.8,71.8,0,0,0,3.34-6.61q12.89-27.92,25.76-55.84c1.67,49.12,57.88,81,65.84,129.55C636.59,536.52,644.14,544.93,645.29,553.28Z"/><path class="cls-4" d="M436,686.69l-67.75,1.19q-3.58-.37-7.12-.87-9.64-1.29-19.1-3.21A289.15,289.15,0,0,1,157.4,557.51a7.19,7.19,0,0,1,4.27.6c5.55-44.65,55.84-75.87,55.61-120.87q12.79,25.06,25.56,50.16c2.73,5.34,5.84,11.07,11.31,13.51a8.09,8.09,0,0,0,1.07.4c5.41,1.63,12.56-1.66,12.29-7.27q6.44,7.35,12.84,14.72,5.73-5.14,11.48-10.26L347.49,571l9.38-10.26a474.22,474.22,0,0,0,78.28,125Z"/><path class="cls-5" d="M622.57,584.83A288.4,288.4,0,0,1,449.09,685.45l-13.94.25-74,1.31q-9.64-1.29-19.1-3.21a287.6,287.6,0,0,1-124.5-59.13c1.78-12.89,5.9-25.09,13.7-35.77,10.54-14.42,27.6-25.86,29.62-43.6,1.43-12.53-5.35-24.54-6.24-37.12a23,23,0,0,1,.61-6.87c2.47-10.53,11.6-20.1,21-15.79,8.43-67.93,84.92-115.42,84.57-183.88l38.9,76.3c4.14,8.14,8.88,16.85,17.21,20.58s20.74-1.36,20.32-10.48l19.52,22.39,17.46-15.59,60.12,78.27,24.57,32q7.13-7.8,14.26-15.61A718.26,718.26,0,0,0,622.57,584.83Z"/><rect class="cls-6" x="182.54" y="453.57" width="6.07" height="108.07"/><path class="cls-7" d="M184.2,419.38,173.72,437l5.24.82-9.37,4.41,7.3,2.21-12.27,7.72h8.83l-12.69,7.72L169,458l-11.86,11.58,13.51-3.86-20.95,13.51H167l-17.23,10.47h22.33l-29.23,17.37,27-5.51L135.4,519.73l34.19-4.68L146.7,530.49l18.48-3.86s-19.3,16-18.2,15.71,32.26-12.68,32.26-12.68l5-3.59Z"/><path class="cls-7" d="M184.2,419.38,194.68,437l-5.24.82,9.37,4.41-7.31,2.21,12.27,7.72H195l12.68,7.72L199.36,458l11.86,11.58-13.51-3.86,20.95,13.51H201.43l17.23,10.47H196.33l29.22,17.37-27-5.51L233,519.73l-34.19-4.68,22.88,15.44-18.47-3.86s19.3,16,18.2,15.71-32.26-12.68-32.26-12.68l-5-3.59Z"/><rect class="cls-6" x="598.69" y="449.49" width="5.9" height="105.1" transform="matrix(0.99, 0.17, -0.17, 0.99, 92.53, -93.63)"/><path class="cls-7" d="M614.67,417.23l-12.91,15.21,4.89,1.65-9.71,2.7,6.65,3.3-13,5.41,8.46,1.43-13.42,5.34,8.24-.5-13.25,9.17,13.58-1.5L571.9,469l16.52,2.8L570.19,479l21.41,3.64-30.84,11.89,26.8-.89-36,11.84,33.53,1.07-24.45,11.08L579,517s-21.11,12.19-20,12.11,33-6.91,33-6.91l5.34-2.63Z"/><path class="cls-7" d="M614.67,417.23l7.18,18.62-5.16-.06,8.27,5.76-7.36.92,10.5,9.4-8.46-1.44,10.9,9.47-7.61-3.2,9.48,13-12.32-5.9L638,480.2l-16.52-2.81,14.81,12.85-21.41-3.64L640.05,508l-25-9.68,30.07,23.05-32-10.05,19.43,18.52-17.08-6.7s15.89,18.47,14.88,18-28.86-17.41-28.86-17.41l-4.17-4.24Z"/><rect class="cls-8" x="567.55" y="488.17" width="7.17" height="109.4"/><path class="cls-9" d="M569.51,453.57l-12.39,17.86,6.19.84-11.07,4.46,8.63,2.23-14.5,7.82H556.8l-15,7.81,9.78-1.95-14,11.72,16-3.91-24.76,13.68h20.36l-20.36,10.6h26.39l-34.54,17.59,31.93-5.59-40.72,18.42,40.4-4.74L525.2,566,547,562.13s-22.8,16.19-21.5,15.91,38.12-12.84,38.12-12.84l5.87-3.63Z"/><path class="cls-9" d="M569.51,453.57l12.38,17.86-6.19.84,11.07,4.46L578.14,479l14.5,7.82H582.21l15,7.81-9.78-1.95,14,11.72-16-3.91,24.76,13.68H589.87l20.36,10.6H583.84l34.54,17.59-31.93-5.59,40.72,18.42-40.4-4.74L613.82,566,592,562.13s22.8,16.19,21.5,15.91-38.12-12.84-38.12-12.84l-5.86-3.63Z"/><rect class="cls-8" x="215.47" y="465.73" width="7.57" height="134.92"/><path class="cls-9" d="M217.53,423.05l-13.07,22,6.54,1-11.71,5.51,9.12,2.75L193.1,464h11l-15.83,9.63,10.32-2.4-14.8,14.45,16.87-4.82-26.16,16.87H196l-21.51,13.08h27.88L165.91,532.5l33.73-6.88-43,22.72,42.68-5.86-28.57,19.28,23.07-4.82s-24.1,20-22.72,19.62,40.27-15.83,40.27-15.83l6.19-4.48Z"/><path class="cls-9" d="M217.53,423.05l13.08,22-6.54,1,11.71,5.51-9.12,2.75L242,464H231l15.83,9.63-10.32-2.4,14.8,14.45-16.87-4.82,26.16,16.87H239.05l21.51,13.08H232.68l36.48,21.68-33.73-6.88,43,22.72-42.68-5.86,28.57,19.28-23.07-4.82s24.1,20,22.72,19.62-40.27-15.83-40.27-15.83l-6.2-4.48Z"/><path class="cls-2" d="M285.14,251.72q0-2.21-.3-10.44-.24-7,.27-21,.31-8.09,1-13.92c.29-2.33.93-3.85,1.93-4.54a2.3,2.3,0,0,1,1.84-.4,2,2,0,0,1,1.35.86,9.94,9.94,0,0,1,1.06,4.3q.09.64.61,6.41,1,10.33,1.71,14.54a143.66,143.66,0,0,0,4.33,19,25.38,25.38,0,0,0,2.62,6.13,6.16,6.16,0,0,0,.62.75c.68.76,1.07,1.2,1.17,1.35a3.09,3.09,0,0,1,.5,2.2,2.13,2.13,0,0,1-.85,1.68,2.05,2.05,0,0,1-2.19,0,5.34,5.34,0,0,1-2-1.89q-6.26-9-9.61-45.69-2,13.83-.63,36.06a27.19,27.19,0,0,1-.25,7,4.86,4.86,0,0,1-1.72,2.94,2.32,2.32,0,0,1-2.51.19,4.1,4.1,0,0,1-1.51-1.35q-5.52-7.92-8-31.52a68.38,68.38,0,0,0-.86,11.87,181.85,181.85,0,0,0,1.8,23q.81,5.43,2.64,14.14,1,4.41-.91,5.72a1.16,1.16,0,0,1-1.08.14,1.27,1.27,0,0,1-.74-.52,16.46,16.46,0,0,1-1.12-4.12q-1.63-7.68-2.11-11.2A182.18,182.18,0,0,1,271,227.17q.49-7.6,1-10.1c.34-1.72.85-2.81,1.53-3.28a2.17,2.17,0,0,1,1.63-.3,2.5,2.5,0,0,1,1.8,1,9.16,9.16,0,0,1,.85,4.07,121.4,121.4,0,0,0,2.72,18.83A72.56,72.56,0,0,0,285.14,251.72Z"/><path class="cls-2" d="M313.21,220.54c1.9-.91,3.41-.21,4.52,2.12q2.22,4.64,1.32,13.8-1,9.94-5.35,12a3.44,3.44,0,0,1-3.86-.47,5.29,5.29,0,0,1-1.57-2q-2.14-4.46-1.56-11.16a26,26,0,0,1,3.13-10.75A8.19,8.19,0,0,1,313.21,220.54Zm2.66,14.92c-.8-.19-1.26-.41-1.38-.67a5.08,5.08,0,0,1,.38-2.07q1.45-5,.42-7.18a1.06,1.06,0,0,0-.44-.48,1,1,0,0,0-1.12-.1c-.74.35-1.49,1.59-2.24,3.72a24.14,24.14,0,0,0-1.51,7.79,14.47,14.47,0,0,0,1,6.43,2,2,0,0,0,.81.9,1.53,1.53,0,0,0,1.45.08q1.68-.8,2.4-4.23a12.58,12.58,0,0,0,.33-2.81A6.45,6.45,0,0,0,315.87,235.46Z"/><path class="cls-2" d="M334.17,232.47a40.73,40.73,0,0,1-1.51,4.49c-.85,2-2,3.33-3.35,3.82a3.27,3.27,0,0,1-3.34-.6,5.33,5.33,0,0,1-1.65-2.45q-1.69-4.69.13-12.2a20.14,20.14,0,0,1,2.13-5.65,4.34,4.34,0,0,1,1.89-2,1.42,1.42,0,0,1,1.11.1,1.31,1.31,0,0,1,.65.67,5,5,0,0,1-.54,2.74,39.77,39.77,0,0,0-2.21,8.26,14.12,14.12,0,0,0,.17,6.19,1.25,1.25,0,0,0,.51.7,1,1,0,0,0,.78,0q1.85-.67,3.26-7.17a36.41,36.41,0,0,0,.75-7.17,13,13,0,0,1,.55-3.85,2.9,2.9,0,0,1,1.54-2,1.39,1.39,0,0,1,1.15.12,1.68,1.68,0,0,1,.88,1c.32.87.18,3.13-.39,6.79a12.48,12.48,0,0,0,.18,5.89,6.67,6.67,0,0,0,2.58,3.43,8.64,8.64,0,0,0,2.5.66,1.73,1.73,0,0,1,1.35,1.24,1.52,1.52,0,0,1-.16,1.33,2.16,2.16,0,0,1-1.19,1,4.94,4.94,0,0,1-3.84-.26A6.83,6.83,0,0,1,335,234.3,19.42,19.42,0,0,1,334.17,232.47Z"/><path class="cls-2" d="M348.09,220.25c.26-.38.49-.76.72-1.13q6-9.57,8.66-10.22c1-.24,1.59.18,1.85,1.26a4.58,4.58,0,0,1-.66,3q-5.15,10.11-3.59,16.5a7.78,7.78,0,0,0,2.09,3.67,3,3,0,0,1,.85,1.23,1.16,1.16,0,0,1-.24,1,1.57,1.57,0,0,1-1,.81c-1,.25-2.05-.19-3.07-1.32a9.32,9.32,0,0,1-2.1-4.23q-1.23-5.07,1.1-12.16-4.32,4.51-6.69,13.88-.64,2.26-1.92,2.58a1.43,1.43,0,0,1-1.16-.2,1.88,1.88,0,0,1-.86-1.22c-.33-1.36.35-5.27,2-11.76q1.35-5.25,2.26-7.71c.62-1.61,1.26-2.49,1.94-2.66a1.39,1.39,0,0,1,1.05.22,1.72,1.72,0,0,1,.82,1.08,4.94,4.94,0,0,1-.52,2.63A41.85,41.85,0,0,0,348.09,220.25Z"/><path class="cls-2" d="M373.68,203.42a61.68,61.68,0,0,0-3.41,9.28q-2.1,7.23-1.64,10.6a2.31,2.31,0,0,0,.61,1.41,1.48,1.48,0,0,0,1.27.33q1.92-.27,4.14-4.24a45.3,45.3,0,0,0,2.46-4.86c.37-.91.83-1.4,1.39-1.48a1.16,1.16,0,0,1,.89.23,1.09,1.09,0,0,1,.41.65q.18,1.41-2.85,6.83-3.65,6.51-7.32,7a4,4,0,0,1-3.5-1.36,5.66,5.66,0,0,1-1.25-3.14,28.17,28.17,0,0,1,1.2-11.17q.45-1.62,2.59-7.88a7,7,0,0,1-1.53.48,2.66,2.66,0,0,1-1.47-.19,1.6,1.6,0,0,1-1-1.23,1.76,1.76,0,0,1,.9-1.68,18.19,18.19,0,0,1,2.77-.89,19.7,19.7,0,0,0,2.58-1.09,68.48,68.48,0,0,1,3.47-7.15c.92-1.68,1.56-2.78,1.93-3.3a2.47,2.47,0,0,1,1.48-1.18,1.42,1.42,0,0,1,1.07.4,1.47,1.47,0,0,1,.59.93q.13,1-1.6,4.24a36.71,36.71,0,0,0-1.68,3.39,27.34,27.34,0,0,1,5.93-2q2.1-.28,2.34,1.47a1.41,1.41,0,0,1-.54,1.4,6.23,6.23,0,0,1-1.94.66,37.63,37.63,0,0,0-5.59,2.25C375.45,202.57,374.55,203,373.68,203.42Z"/><path class="cls-2" d="M424.17,186.94a14.92,14.92,0,0,0-2.1,1.09,4.79,4.79,0,0,1-2.61,1.12,1.54,1.54,0,0,1-1.06-.62,1.64,1.64,0,0,1-.41-1.25c.1-.94,1.5-2.22,4.18-3.82a20.66,20.66,0,0,1,13.07-3,10.88,10.88,0,0,1,10.14,12.33q-.79,7.38-7.32,16.74a59.67,59.67,0,0,1-18.68,17.51q-8.19,4.88-14.07,4.24a4.38,4.38,0,0,1-3.34-1.76,3.81,3.81,0,0,1-.7-2.56q.21-2,3.49-8.57A210.14,210.14,0,0,1,416.6,198Q417.64,196.39,424.17,186.94Zm3.8-1.38c.73.47,1.07.93,1,1.39a12.84,12.84,0,0,1-1.8,3,246.92,246.92,0,0,0-14.8,23.36q-5.64,10.13-5.9,12.55c-.11,1,.32,1.59,1.29,1.69q2.46.27,6.9-1.94,5.54-2.7,12.59-9.72a59.56,59.56,0,0,0,10.5-13.76,28,28,0,0,0,3.69-10.37,6.85,6.85,0,0,0-1.08-5.12,6.59,6.59,0,0,0-4.67-2.15A19.08,19.08,0,0,0,428,185.56Z"/><path class="cls-2" d="M449.68,209.5a1.37,1.37,0,0,1,.94.73,1.44,1.44,0,0,1,.1.9,5.12,5.12,0,0,1-1.61,2,71.25,71.25,0,0,0-7.9,8.68,87.19,87.19,0,0,0-5,7.56c-.69,1.16-1.47,1.64-2.32,1.44a1.47,1.47,0,0,1-1.07-.88,1.62,1.62,0,0,1-.16-1.15q.25-1.12,4.16-7a53.53,53.53,0,0,1,8.69-9.72,20.3,20.3,0,0,1,2.66-2.2A2,2,0,0,1,449.68,209.5Zm10.4-12.31a1.56,1.56,0,0,1,1.29,2.13,5.8,5.8,0,0,1-2.47,3.12,4.4,4.4,0,0,1-3.48,1.13,1.48,1.48,0,0,1-1-.8,1.73,1.73,0,0,1-.18-1.31,5.9,5.9,0,0,1,2.89-3.37A4.14,4.14,0,0,1,460.08,197.19Z"/><path class="cls-2" d="M468.77,212.48a6.19,6.19,0,0,1,3.16,1.9,3,3,0,0,1,.36,2.83,7,7,0,0,1-3,3.68,11.18,11.18,0,0,1-5.62,1.62,8.71,8.71,0,0,1-3-.28c-1-.32-1.4-.94-1.11-1.85a1.58,1.58,0,0,1,1.33-1.12,26.15,26.15,0,0,1,2.7.17,5.9,5.9,0,0,0,2.92-.49,2.55,2.55,0,0,0,1.58-1.53,1.47,1.47,0,0,0-.08-1.28,2.16,2.16,0,0,0-1.21-.79,9.08,9.08,0,0,0-5.26.23q-3.62,1-4.47,3.69a9.74,9.74,0,0,0,.43,5.41q1.19,3.83.49,6a6,6,0,0,1-4.49,4.17,7.63,7.63,0,0,1-4.38-.14,6.54,6.54,0,0,1-4.57-4.25,7.5,7.5,0,0,1,.07-4.68,8.15,8.15,0,0,1,3-4.36,2.72,2.72,0,0,1,2.4-.66c.61.2.84.54.68,1a2.06,2.06,0,0,1-.61.78,8.18,8.18,0,0,0-2,3.45,4.29,4.29,0,0,0,.32,3.47,3.84,3.84,0,0,0,2.26,1.94,3,3,0,0,0,2.55-.24,3.29,3.29,0,0,0,1.32-1.86,8,8,0,0,0-.49-4.58,11.4,11.4,0,0,1-.47-6.92c.78-2.46,2.81-4.2,6.09-5.24A14.89,14.89,0,0,1,468.77,212.48Z"/><path class="cls-2" d="M477.4,226.34a40.26,40.26,0,0,1,7.27-2.19q4.4-.81,5.84-.16a1.93,1.93,0,0,1,.94,1,1.89,1.89,0,0,1,.05,1.59c-.29.63-1.24,1.39-2.86,2.28a46.53,46.53,0,0,0-7.62,5,12,12,0,0,0-3,3.12.91.91,0,0,0,.48,1.37q1.9.85,9.47-3.87c1-.64,1.78-.85,2.28-.62s.61.61.35,1.18q-.61,1.36-5,4a22.61,22.61,0,0,1-7.21,3,6.51,6.51,0,0,1-3.79-.23,2.5,2.5,0,0,1-1.6-2.29,4.15,4.15,0,0,1,.39-2,16.61,16.61,0,0,1,5.45-6.15q1-.71,5.62-4-8.82.38-19.23,10.18c-.72.78-1.4,1-2,.74a1.54,1.54,0,0,1-.89-.95,2,2,0,0,1,.12-1.39q.53-1.16,5.23-5.57,8.75-8.17,15.52-13.52t14.68-11a16,16,0,0,1,2.76-1.72,1.94,1.94,0,0,1,1.56-.06,1.44,1.44,0,0,1,.79,1.16,2.06,2.06,0,0,1-.16,1.29,5.66,5.66,0,0,1-2.32,2.13Q494,213,487,218.3A91.79,91.79,0,0,0,477.4,226.34Z"/><path class="cls-2" d="M490.31,241.56l-.36.59a2.5,2.5,0,0,0-.4,1.48,3.53,3.53,0,0,0,2,2.86q4.14,2.5,13.4-.56a2.93,2.93,0,0,1,2.28-.11,1,1,0,0,1,.44.76.89.89,0,0,1-.1.61q-.78,1.29-5.81,2.45a28.34,28.34,0,0,1-7.68.74,12.89,12.89,0,0,1-6.14-1.65,5.61,5.61,0,0,1-2.87-4.08,5.92,5.92,0,0,1,1-3.82q3.38-5.58,11.88-7.76,6.9-1.78,10.08.13a3,3,0,0,1,1.24,1.47A2.6,2.6,0,0,1,509,237a9.85,9.85,0,0,1-4.22,3.32A20.15,20.15,0,0,1,490.31,241.56Zm2.29-2.14a15.54,15.54,0,0,0,4.71.41,17.13,17.13,0,0,0,6.12-1.81,3.19,3.19,0,0,0,1.35-1.12.67.67,0,0,0-.23-1.05,5.45,5.45,0,0,0-3.22-.19A19.81,19.81,0,0,0,492.6,239.42Z"/><path class="cls-2" d="M515.08,251a76.2,76.2,0,0,1,11.76-.88,35.77,35.77,0,0,1,4.58.29,3.88,3.88,0,0,1,1.36.32,1.53,1.53,0,0,1,.39,1.39,1.4,1.4,0,0,1-.25.88c-.28.37-1,.56-2.32.59-3.35,0-5.36.46-6,1.3-.36.47-.28.91.25,1.32q1.3,1,6.2,1.35a2.25,2.25,0,0,1,1.2.35.89.89,0,0,1,.3.62,1,1,0,0,1-.18.79c-.48.61-2.06.88-4.75.81a10.94,10.94,0,0,1-6.66-1.95,4.23,4.23,0,0,1-1.39-1.92,2.06,2.06,0,0,1,.48-2.07,4.1,4.1,0,0,1,2-1.24,37.83,37.83,0,0,0-10.23,1.43,54.33,54.33,0,0,0-8.67,3.39c-1.2.57-2.14.59-2.83,0a1.23,1.23,0,0,1-.3-1.95q.81-1,6.09-4.17a53.58,53.58,0,0,1,13.59-6.12q3.55-.92,4.74,0a1.47,1.47,0,0,1,.54.81,1.18,1.18,0,0,1-.19,1.07,3.15,3.15,0,0,1-1.61.81L520,249A20.28,20.28,0,0,0,515.08,251Z"/><polygon class="cls-2" points="258.24 253.22 198.61 279.5 179.7 315.7 221.03 313.37 258.24 276.93 258.24 253.22"/><polygon class="cls-2" points="543.84 253.22 603.47 279.5 622.39 315.7 581.05 313.37 543.84 276.93 543.84 253.22"/><path class="cls-10" d="M400,142.57a256.51,256.51,0,0,1,177.69,71.18h23a273.8,273.8,0,0,0-401.4,0h23A256.51,256.51,0,0,1,400,142.57Z"/><path class="cls-1" d="M360.14,524.24a45.06,45.06,0,0,1-6.13,3.93q-4.15,2.24-5.47,2.23c-.93,0-1.4-.74-1.4-2.23a2.56,2.56,0,0,1,.35-1.35,3.48,3.48,0,0,1,1.67-1,90.83,90.83,0,0,0,11.46-6.39q3.42-2.14,4.81-2.14a2.12,2.12,0,0,1,1.67.92,2.08,2.08,0,0,1,.48,1.31q0,1.1-1.71,3.72-12.64,20.47-17.5,32.16a20.63,20.63,0,0,1-1.71,3.54c-.55.79-1.11,1.18-1.66,1.18a2,2,0,0,1-1.58-1,2,2,0,0,1-.43-1.23q0-2.36,6.74-15.57Q356,529.88,360.14,524.24Z"/><path class="cls-1" d="M389.41,541.21q-6.07,3-9.58,3a6.11,6.11,0,0,1-5.38-2.89,8.33,8.33,0,0,1-1.45-4.94q0-7.53,6.7-14.44,6.07-6.3,12.51-6.3a7.44,7.44,0,0,1,5.91,2.58,8.38,8.38,0,0,1,1.92,5.68q0,7.57-5.42,17.11a72,72,0,0,1-9.19,12.08q-7,7.78-9.19,7.79a1.6,1.6,0,0,1-1.14-.53,1.53,1.53,0,0,1-.43-1.05c0-.7.59-1.54,1.79-2.53A55.06,55.06,0,0,0,389.41,541.21Zm2.58-5.16q3.08-6.3,3.07-10.41a7.59,7.59,0,0,0-1.08-4.47,3.69,3.69,0,0,0-3.21-1.49q-4.47,0-8.8,5.21t-4.24,10.2a4.84,4.84,0,0,0,1.07,3.41,4.23,4.23,0,0,0,3.22,1.14,17.15,17.15,0,0,0,6.78-1.75C390.78,537,391.85,536.34,392,536.05Z"/><path class="cls-1" d="M420,541.21q-6.07,3-9.58,3a6.11,6.11,0,0,1-5.38-2.89,8.33,8.33,0,0,1-1.45-4.94q0-7.53,6.7-14.44,6.07-6.3,12.51-6.3a7.44,7.44,0,0,1,5.91,2.58,8.38,8.38,0,0,1,1.92,5.68q0,7.57-5.42,17.11a72,72,0,0,1-9.19,12.08q-7,7.78-9.19,7.79a1.6,1.6,0,0,1-1.14-.53,1.54,1.54,0,0,1-.44-1.05c0-.7.6-1.54,1.8-2.53A55.06,55.06,0,0,0,420,541.21Zm2.58-5.16q3.06-6.3,3.06-10.41a7.6,7.6,0,0,0-1.07-4.47,3.69,3.69,0,0,0-3.21-1.49q-4.47,0-8.8,5.21t-4.24,10.2a4.79,4.79,0,0,0,1.07,3.41,4.21,4.21,0,0,0,3.22,1.14,17.15,17.15,0,0,0,6.78-1.75C421.41,537,422.47,536.34,422.62,536.05Z"/><path class="cls-1" d="M455.61,520.12a6.64,6.64,0,0,1,3.52,3,10.27,10.27,0,0,1,1.16,5.18q0,9.76-7.61,20.74-8.26,11.94-15.84,12-3.76,0-5.64-3.9a13.91,13.91,0,0,1-1.23-6.12q0-8.67,6.35-18.29a58.27,58.27,0,0,1,8.88-10.2q5.87-5.43,8.44-5.42C455,517,455.61,518.05,455.61,520.12Zm-5.69,3.15a44.71,44.71,0,0,0-9.05,10.24q-5.65,8.67-5.65,16.76a8.74,8.74,0,0,0,.66,3.76,3.33,3.33,0,0,0,3,2.1c2,0,4.42-1.54,7.22-4.64a37.2,37.2,0,0,0,7.35-12.6,28.83,28.83,0,0,0,2-9.54,6.83,6.83,0,0,0-1.66-4.63,4,4,0,0,0-3-1.45Z"/><path class="cls-1" d="M328.17,594.16a22.46,22.46,0,0,1,6.72-1.15,3.45,3.45,0,0,1,1.94.5,1.28,1.28,0,0,1,.65,1.07,1,1,0,0,1-.31.74.93.93,0,0,1-.69.32,1.85,1.85,0,0,1-.39-.06,7.74,7.74,0,0,0-2-.31,16.26,16.26,0,0,0-2,.15c-.27.05-1.28.31-3,.79a18.46,18.46,0,0,1-2.78.63,1.35,1.35,0,0,1-1.07-.59,1.87,1.87,0,0,1-.41-1.13c0-.44.38-1,1.13-1.76,1.42-1.39,2.79-2.65,4.11-3.76s2.79-2.25,4.63-3.61q3.15-2.32,4.35-3.39a4.33,4.33,0,0,0,1.78-3.13,1.75,1.75,0,0,0-.56-1.37,1.88,1.88,0,0,0-1.26-.44c-1.31,0-2.84.73-4.61,2.2a4.5,4.5,0,0,1-1.52,1,.78.78,0,0,1-.5-.26A.8.8,0,0,1,332,580c0-.53.63-1.26,1.89-2.22a9.76,9.76,0,0,1,5.81-2.31,3.7,3.7,0,0,1,2.65,1,3.16,3.16,0,0,1,1,2.37,6.83,6.83,0,0,1-2.48,4.82,39.14,39.14,0,0,1-3.91,3.13Q330.15,591.8,328.17,594.16Z"/><path class="cls-1" d="M353.17,583.51a4,4,0,0,1,1.55,1,3.38,3.38,0,0,1,.67,2.24,10,10,0,0,1-3,6.81c-2,2.17-4,3.26-6.13,3.26a3.78,3.78,0,0,1-3.15-1.61,4.16,4.16,0,0,1-.87-2.57c0-1.53.59-2.3,1.78-2.3.71,0,1.07.27,1.07.8a3.17,3.17,0,0,1-.05.46,4.62,4.62,0,0,0-.06.74,2.23,2.23,0,0,0,.5,1.56,1.76,1.76,0,0,0,1.33.59q1.85,0,4-2.59a7.6,7.6,0,0,0,2-4.71,2.68,2.68,0,0,0-.55-1.79,2,2,0,0,0-1.63-.69,2.6,2.6,0,0,0-.82.13,3,3,0,0,1-.76.15c-.43,0-.64-.28-.64-.85a1.6,1.6,0,0,1,.5-1.21,2.82,2.82,0,0,1,1.2-.53,10.38,10.38,0,0,0,3.07-1.26,3.89,3.89,0,0,0,1.28-1.39,2,2,0,0,0,.24-1,1.17,1.17,0,0,0-.34-.93,1.51,1.51,0,0,0-1-.3,5.68,5.68,0,0,0-2.44.6c-.21.11-.73.4-1.54.9a1.32,1.32,0,0,1-.72.21c-.49,0-.74-.27-.74-.8s.36-1,1.09-1.5a8.65,8.65,0,0,1,5-1.81,3.55,3.55,0,0,1,2.46.9,2.94,2.94,0,0,1,1.06,2.28,4.68,4.68,0,0,1-1.52,3.3A10.17,10.17,0,0,1,353.17,583.51Z"/><path class="cls-1" d="M365.07,581.88a33.75,33.75,0,0,0-2.61,4.91,16.12,16.12,0,0,0-1.72,5.79,1.29,1.29,0,0,0,.23.82.81.81,0,0,0,.68.28c.73,0,1.6-.68,2.63-2a23.76,23.76,0,0,0,1.74-2.52c.28-.48.58-.72.89-.72a.66.66,0,0,1,.48.2.58.58,0,0,1,.18.39c0,.54-.71,1.73-2.11,3.59q-2.52,3.34-4.61,3.34a2.21,2.21,0,0,1-1.85-1,3.22,3.22,0,0,1-.46-1.85,15.73,15.73,0,0,1,1.53-6.13c.24-.58.92-2,2-4.19a4,4,0,0,1-.89.15,1.47,1.47,0,0,1-.81-.22.87.87,0,0,1-.47-.76,1,1,0,0,1,.63-.87,9.87,9.87,0,0,1,1.6-.28,13.12,13.12,0,0,0,1.53-.41,36.31,36.31,0,0,1,2.47-3.72,21.2,21.2,0,0,1,1.33-1.7,1.42,1.42,0,0,1,.91-.54.81.81,0,0,1,.57.3.87.87,0,0,1,.26.57,5.58,5.58,0,0,1-1.22,2.24,20.42,20.42,0,0,0-1.19,1.76,15,15,0,0,1,3.45-.65c.8,0,1.2.33,1.2,1a.81.81,0,0,1-.41.74,3.65,3.65,0,0,1-1.13.21,22.13,22.13,0,0,0-3.29.83Z"/><path class="cls-1" d="M373.26,587a22.46,22.46,0,0,1,3.22-2.81,6.64,6.64,0,0,1,3-1.43,1.08,1.08,0,0,1,.71.3,1,1,0,0,1,.39.81,3.75,3.75,0,0,1-.93,1.82,26.51,26.51,0,0,0-2.74,4.35,6.87,6.87,0,0,0-.83,2.31.51.51,0,0,0,.57.58q1.17,0,4-4.17c.37-.57.71-.85,1-.85s.45.18.45.52q0,.86-1.65,3.24a12.43,12.43,0,0,1-3,3.2,3.61,3.61,0,0,1-2,.76,1.42,1.42,0,0,1-1.35-.8,2.45,2.45,0,0,1-.26-1.11,9.45,9.45,0,0,1,1.37-4.42c.22-.39.87-1.5,2-3.34q-4.44,2.24-7.5,9.67c-.19.56-.48.85-.87.85a.86.86,0,0,1-.67-.29,1,1,0,0,1-.26-.73,17.4,17.4,0,0,1,1.39-4.07q2.58-6.21,4.82-10.52t5-9a9.71,9.71,0,0,1,1-1.53,1.09,1.09,0,0,1,.79-.39.82.82,0,0,1,.67.41,1.16,1.16,0,0,1,.22.7,3.18,3.18,0,0,1-.7,1.63q-2.34,3.63-4.67,8A51.26,51.26,0,0,0,373.26,587Z"/><path class="cls-1" d="M408.39,583.88a47.93,47.93,0,0,0-8.26,2.3q-2,2.94-4.39,7.05l-1.15,2c-.2.36-.51.88-.94,1.57s-.94,1.19-1.45,1.19a.89.89,0,0,1-.7-.33.84.84,0,0,1-.28-.63,12.36,12.36,0,0,1,1.63-3.45q.88-1.54,2.7-4.37c.46-.73.83-1.32,1.11-1.78a17.71,17.71,0,0,0-2.4.84,2.12,2.12,0,0,1-.87.24.74.74,0,0,1-.67-.39.91.91,0,0,1-.17-.56,1.11,1.11,0,0,1,.52-1.05,14.56,14.56,0,0,1,3-1.19,25,25,0,0,0,2.59-1c.3-.38,1.1-1.49,2.39-3.33.55-.79,2.12-2.68,4.7-5.65a79.25,79.25,0,0,1,5.74-6.07c1.14-1.1,2-1.65,2.63-1.65a1.25,1.25,0,0,1,1,.46,1.35,1.35,0,0,1,.35.91,6.8,6.8,0,0,1-.61,2.13c-.69,1.79-1.36,3.69-2,5.72-.55,1.8-.92,3.18-1.11,4.13a5.23,5.23,0,0,0,.53,0l1,0c.84,0,1.26.32,1.26,1a1.46,1.46,0,0,1-.27.82,1.09,1.09,0,0,1-.62.49,3.37,3.37,0,0,1-.72,0,7.75,7.75,0,0,0-1.85.16,79.46,79.46,0,0,0-1.65,7.89,46.64,46.64,0,0,0-.56,5.17c0,1-.32,1.57-.94,1.57a1.27,1.27,0,0,1-1.15-.76,2.85,2.85,0,0,1-.3-1.42,41.82,41.82,0,0,1,1.06-8.09C408,586.1,408.22,584.79,408.39,583.88Zm.61-2.35c.13-.42.47-1.54,1-3.37.13-.48.47-1.43,1-2.85s1-2.63,1.29-3.52a16.57,16.57,0,0,0-2.87,2.48,59.83,59.83,0,0,0-7.24,9c.53-.13,1.69-.45,3.45-1C406.14,582.17,407.26,581.91,409,581.53Z"/><path class="cls-1" d="M418.9,592.55a23.46,23.46,0,0,1-1.66,2.09,3.48,3.48,0,0,1-2.5,1.39,1.84,1.84,0,0,1-1.65-.95,3.08,3.08,0,0,1-.41-1.61,12.11,12.11,0,0,1,2.39-6.44,11.39,11.39,0,0,1,2.19-2.58,2.44,2.44,0,0,1,1.4-.72.75.75,0,0,1,.56.26.7.7,0,0,1,.22.48,2.75,2.75,0,0,1-.81,1.34,22.51,22.51,0,0,0-2.73,4,7.91,7.91,0,0,0-1.09,3.31.7.7,0,0,0,.14.46.5.5,0,0,0,.4.17q1.11,0,3.09-3.18a20.23,20.23,0,0,0,1.76-3.65,7.38,7.38,0,0,1,1-1.93,1.66,1.66,0,0,1,1.2-.77.78.78,0,0,1,.58.29,1,1,0,0,1,.29.67,10.83,10.83,0,0,1-1.5,3.52,7.06,7.06,0,0,0-1,3.16,3.73,3.73,0,0,0,.72,2.3,4.86,4.86,0,0,0,1.2.83,1,1,0,0,1,.48.91.87.87,0,0,1-.34.67,1.24,1.24,0,0,1-.82.29,2.76,2.76,0,0,1-2-.87,3.88,3.88,0,0,1-1-2.27A11.21,11.21,0,0,1,418.9,592.55Z"/><path class="cls-1" d="M430.9,594a18.4,18.4,0,0,0,3.45-3.09,22.11,22.11,0,0,0,2.37-3.28c.24-.38.47-.56.72-.56s.52.16.52.5a4.65,4.65,0,0,1-.82,1.95,22.42,22.42,0,0,1-7.7,7.29c-1.59,3.33-2.77,5.59-3.52,6.78-2,3.13-3.89,4.69-5.65,4.69a2.11,2.11,0,0,1-2-1.08,2.85,2.85,0,0,1-.35-1.44q0-3.4,4.39-6.54.69-.53,5.63-3.26c.64-1.35,1.13-2.41,1.48-3.18-1.52,1.6-2.78,2.39-3.78,2.39a1.59,1.59,0,0,1-1.46-.95,2.8,2.8,0,0,1-.33-1.31,9.27,9.27,0,0,1,1.29-4,17.1,17.1,0,0,1,4.39-5.61,6.45,6.45,0,0,1,3.8-1.71,2,2,0,0,1,1.46.63,1.65,1.65,0,0,1,.41,1.21,6.2,6.2,0,0,1-.67,2.48c.33.32.5.56.5.72a.78.78,0,0,1-.22.43q-.58.81-1.89,3A34.79,34.79,0,0,0,430.9,594Zm-4.26,4.48a13.89,13.89,0,0,0-5.07,3.7,7,7,0,0,0-1.46,2.43,2.39,2.39,0,0,0-.13.65,1,1,0,0,0,.13.5.76.76,0,0,0,.68.39q1.35,0,3.15-2.89C425,601.61,425.88,600,426.64,598.49Zm4.1-9.5c-.2-.22-.3-.37-.3-.46s.11-.29.33-.5a10.55,10.55,0,0,0,1.76-2.17,3,3,0,0,0,.54-1.39c0-.39-.18-.59-.54-.59-.63,0-1.52.59-2.68,1.78a15.87,15.87,0,0,0-3.21,4.72,5.56,5.56,0,0,0-.57,2,.9.9,0,0,0,.17.59.65.65,0,0,0,.5.19c.51,0,1.22-.52,2.14-1.56a17,17,0,0,0,1.47-2A3.11,3.11,0,0,0,430.74,589Z"/><path class="cls-1" d="M444.05,592.55a21.88,21.88,0,0,1-1.65,2.09,3.5,3.5,0,0,1-2.5,1.39,1.87,1.87,0,0,1-1.66-.95,3.08,3.08,0,0,1-.41-1.61,12.19,12.19,0,0,1,2.39-6.44,11.15,11.15,0,0,1,2.2-2.58,2.42,2.42,0,0,1,1.39-.72.79.79,0,0,1,.57.26.73.73,0,0,1,.21.48,2.78,2.78,0,0,1-.8,1.34,22.09,22.09,0,0,0-2.74,4,7.91,7.91,0,0,0-1.09,3.31.7.7,0,0,0,.14.46.51.51,0,0,0,.4.17q1.11,0,3.09-3.18a20.23,20.23,0,0,0,1.76-3.65,7.12,7.12,0,0,1,1-1.93,1.63,1.63,0,0,1,1.19-.77.8.8,0,0,1,.59.29.94.94,0,0,1,.28.67,10.83,10.83,0,0,1-1.5,3.52,7,7,0,0,0-1,3.16,3.73,3.73,0,0,0,.72,2.3,5,5,0,0,0,1.19.83,1,1,0,0,1,.48.91.84.84,0,0,1-.34.67,1.2,1.2,0,0,1-.81.29,2.76,2.76,0,0,1-2-.87,3.81,3.81,0,0,1-1-2.27A10,10,0,0,1,444.05,592.55Z"/><path class="cls-1" d="M459.53,581.44a3.48,3.48,0,0,1,2,.48,1.67,1.67,0,0,1,.67,1.46,3.9,3.9,0,0,1-1,2.48,6.3,6.3,0,0,1-2.74,1.82,5,5,0,0,1-1.68.37c-.6,0-.91-.26-.91-.8a.92.92,0,0,1,.52-.83c.09,0,.58-.16,1.48-.37a3.23,3.23,0,0,0,1.48-.76,1.42,1.42,0,0,0,.59-1.08.85.85,0,0,0-.26-.68,1.26,1.26,0,0,0-.79-.22,5.12,5.12,0,0,0-2.78,1,3.28,3.28,0,0,0-1.76,2.74,5.4,5.4,0,0,0,1.15,2.82,5.84,5.84,0,0,1,1.28,3.13,3.37,3.37,0,0,1-1.69,3,4.29,4.29,0,0,1-2.37.68,3.66,3.66,0,0,1-3.17-1.5,4.22,4.22,0,0,1-.77-2.53,4.55,4.55,0,0,1,.87-2.84,1.54,1.54,0,0,1,1.18-.76c.36,0,.54.14.54.43a1.18,1.18,0,0,1-.19.52,4.55,4.55,0,0,0-.5,2.2,2.4,2.4,0,0,0,.76,1.8,2.13,2.13,0,0,0,1.54.65,1.63,1.63,0,0,0,1.33-.56,1.88,1.88,0,0,0,.39-1.22,4.49,4.49,0,0,0-1-2.37,6.45,6.45,0,0,1-1.43-3.63,4.74,4.74,0,0,1,2.37-3.85A8.37,8.37,0,0,1,459.53,581.44Z"/><path class="cls-1" d="M468.83,581.88a35.82,35.82,0,0,0-2.61,4.91,16.26,16.26,0,0,0-1.71,5.79,1.23,1.23,0,0,0,.23.82.81.81,0,0,0,.68.28c.73,0,1.6-.68,2.63-2a27.15,27.15,0,0,0,1.74-2.52c.28-.48.57-.72.89-.72a.66.66,0,0,1,.48.2.57.57,0,0,1,.17.39c0,.54-.7,1.73-2.11,3.59q-2.52,3.34-4.6,3.34a2.21,2.21,0,0,1-1.85-1,3.14,3.14,0,0,1-.46-1.85,15.87,15.87,0,0,1,1.52-6.13c.25-.58.93-2,2.05-4.19a4,4,0,0,1-.89.15,1.45,1.45,0,0,1-.81-.22.88.88,0,0,1-.48-.76,1,1,0,0,1,.63-.87,10.41,10.41,0,0,1,1.61-.28,12.57,12.57,0,0,0,1.52-.41,38.55,38.55,0,0,1,2.48-3.72,21.2,21.2,0,0,1,1.33-1.7,1.42,1.42,0,0,1,.91-.54.81.81,0,0,1,.57.3.87.87,0,0,1,.26.57,5.58,5.58,0,0,1-1.22,2.24,21,21,0,0,0-1.2,1.76,15.09,15.09,0,0,1,3.46-.65c.8,0,1.2.33,1.2,1a.8.8,0,0,1-.42.74,3.5,3.5,0,0,1-1.13.21,22.17,22.17,0,0,0-3.28.83Z"/></svg>