<svg id="Layer_1" data-name="Layer 1" xmlns="http://www.w3.org/2000/svg" viewBox="0 0 800 800"><defs><style>.cls-1{fill:#ff0e8c;}.cls-2{fill:#ab0055;}</style></defs><path class="cls-1" d="M406.15,321.07v69.1H374.54V534.79h0A113.57,113.57,0,0,1,261,421.22V266.53A113.57,113.57,0,0,1,374.54,153h0V289.47h0A31.6,31.6,0,0,1,406.15,321.07ZM539,266.53V421.22A113.57,113.57,0,0,1,425.46,534.79h0V153h0A113.56,113.56,0,0,1,539,266.53Z"/><path class="cls-2" d="M268.69,225.3,527.94,470.2s-34.52,65.86-102.48,64.59Z"/><path d="M204.05,595.19h8.42l10.59,21.18-.3-4V595.19h8.33v36.72h-8.55l-10.37-20.85.22,4.57v16.28h-8.34Z"/><path d="M238.77,595.19h8.55v25.86a4.1,4.1,0,0,0,1,2.87,3.68,3.68,0,0,0,5.24-.07,4.57,4.57,0,0,0,1-3.1V595.19H263v24.1a20.1,20.1,0,0,1-1.29,7.89,8.74,8.74,0,0,1-3.81,4.36,14.65,14.65,0,0,1-7,1.39q-6.65,0-9.38-3.41T238.77,618Z"/><path d="M270.54,595.19h8.34v13.62h7.4V595.19h8.33v36.72h-8.33V616.65h-7.4v15.26h-8.34Z"/><path d="M328.17,631.91h-8.66l-1.4-6.13H309.3l-1.46,6.13h-8.5l9.74-36.72h9.36Zm-11.66-12.73q-1.87-8.2-2.81-15.6h-.11q-1,7.62-2.77,15.6Z"/><path d="M365.48,623.25V632a15.55,15.55,0,0,1-4.74.85A14.51,14.51,0,0,1,349,627.39q-4.5-5.43-4.5-14.29,0-8.24,4.54-13.58a14.43,14.43,0,0,1,11.47-5.35,16.29,16.29,0,0,1,5,.72v8.74a14.36,14.36,0,0,0-4.52-.79,6.43,6.43,0,0,0-5.39,3,12.59,12.59,0,0,0-2.14,7.56,12.77,12.77,0,0,0,2.16,7.83,6.83,6.83,0,0,0,5.76,2.87A12.84,12.84,0,0,0,365.48,623.25Z"/><path d="M382.83,632.82a11.55,11.55,0,0,1-10.15-5.1q-3.49-5.1-3.49-14.73,0-8.9,3.51-13.85a11.31,11.31,0,0,1,9.78-5q6.67,0,10.22,5t3.53,14.22q0,9.25-3.48,14.35A11.29,11.29,0,0,1,382.83,632.82Zm-.3-30.31q-4.51,0-4.51,10.59,0,6.82,1.14,9.1a3.58,3.58,0,0,0,3.32,2.29,3.91,3.91,0,0,0,3.59-2.29q1.24-2.28,1.25-8.94Q387.32,602.51,382.53,602.51Z"/><path d="M405.09,595.19h10.54q2.25,11.88,3.54,20.44l.91-5.7c.37-2.21.76-4.38,1.18-6.49l1.63-8.25h10.75l4.18,36.72h-8.25l-2.23-25.25-5.14,25.25h-5.64l-5.39-25.3L409,631.91h-7.89Z"/><path d="M444.4,595.19h10.32a12.23,12.23,0,0,1,8.74,3.11,12,12,0,0,1,0,16.6q-3.35,3-9.25,3h-1.44v14H444.4Zm8.33,7v8.67a7.09,7.09,0,0,0,4.15-1.08,3.79,3.79,0,0,0,1.33-3.21,4,4,0,0,0-1.29-3.35A7.33,7.33,0,0,0,452.73,602.23Z"/><path d="M472.84,595.19h8.56v25.86a4.1,4.1,0,0,0,1,2.87,3.68,3.68,0,0,0,5.24-.07,4.57,4.57,0,0,0,1-3.1V595.19h8.5v24.1a20.1,20.1,0,0,1-1.29,7.89,8.83,8.83,0,0,1-3.81,4.36,14.65,14.65,0,0,1-7,1.39q-6.66,0-9.38-3.41T472.84,618Z"/><path d="M501.87,595.19h19.88v8.39H516v28.33h-8.44V603.58h-5.69Z"/><path d="M526.93,595.19h16.86V603h-8.53v6.77h7.4v7.62h-7.4v6.68h8.58v7.84H526.93Z"/><path d="M550.42,595.19h9.71q5.88,0,9.3,3a10.42,10.42,0,0,1,3.41,8.22,11.08,11.08,0,0,1-1.29,5.16,8.54,8.54,0,0,1-3.77,3.75l6.65,16.56h-8.8l-6.74-16.72h-.14v16.72h-8.33Zm8.33,7.1V611q5.54-.12,5.53-3.88a4.57,4.57,0,0,0-1.28-3.66A6.78,6.78,0,0,0,558.75,602.29Z"/><path d="M579.14,631.23v-8.56q4,2.31,6.66,2.31a3.45,3.45,0,0,0,2.47-.86,3,3,0,0,0,.91-2.3,3.35,3.35,0,0,0-.73-2.07,13.56,13.56,0,0,0-2.52-2.33,28.23,28.23,0,0,1-6.25-6.15,11,11,0,0,1-1.94-6.34,10.27,10.27,0,0,1,10.75-10.76,17.47,17.47,0,0,1,7,1.51v8.23a13.51,13.51,0,0,0-6-2,3.69,3.69,0,0,0-2.44.76,2.58,2.58,0,0,0-.89,2.08q0,2.31,4.15,5.2a24.92,24.92,0,0,1,5,4.8,10.91,10.91,0,0,1,2.54,7.16,10.32,10.32,0,0,1-3.32,7.88,11.84,11.84,0,0,1-8.45,3.13A15.87,15.87,0,0,1,579.14,631.23Z"/></svg>