<svg id="Layer_1" data-name="Layer 1" xmlns="http://www.w3.org/2000/svg" xmlns:xlink="http://www.w3.org/1999/xlink" viewBox="0 0 800 800"><defs><style>.cls-1{fill:none;}.cls-2{clip-path:url(#clip-path);}.cls-3{fill:#fff;}</style><clipPath id="clip-path"><polygon class="cls-1" points="514.58 1113.65 514.58 888.65 449.69 823.75 449.69 1113.65 514.58 1113.65"/></clipPath></defs><g class="cls-2"><rect x="449.69" y="784.92" width="64.89" height="30.85"/><rect x="464.58" y="747.69" width="35.11" height="30.85"/><rect x="449.69" y="710.46" width="64.89" height="30.85"/><rect x="464.58" y="673.22" width="35.11" height="30.85"/><rect x="449.69" y="635.99" width="64.89" height="30.85"/><rect x="464.58" y="598.75" width="35.11" height="30.85"/></g><path d="M286.29,271.15v94.61H247.81V236.36H297.2q22.55,0,35,11.19Q346,260.06,346,279.3q0,19.63-17.15,33.09L351,365.76H310.66L292,324.05V290.77h3q12.12,0,12.13-10.42,0-9.19-14-9.2Z"/><path d="M420.24,273.52v92.24H381.75V273.52H352.27V236.36h97.36v37.16Z"/><path d="M461.19,365.76v-84q0-22.09,13.22-35.36t35.22-13.27q21.9,0,33.51,12.89t11.61,37.07v82.66H516.27V283.1q0-11.85-8.44-11.85-8.16,0-8.15,11.85v82.66Z"/><path d="M249.66,397.31a64.47,64.47,0,0,1,12.14-1.07c6.65,0,10.93,1.15,14.13,3.74a10.78,10.78,0,0,1,4.28,9.09c0,5-3.28,9.32-8.71,11.31v.15c4.89,1.22,10.62,5.27,10.62,12.9a13.9,13.9,0,0,1-4.35,10.31c-3.59,3.29-9.4,4.82-17.8,4.82a78.77,78.77,0,0,1-10.31-.61Zm6.65,21.08h6c7,0,11.15-3.67,11.15-8.63,0-6-4.58-8.4-11.3-8.4a28.28,28.28,0,0,0-5.88.46Zm0,24.67a35.36,35.36,0,0,0,5.57.3c6.87,0,13.21-2.52,13.21-10,0-7-6-9.93-13.29-9.93h-5.49Z"/><path d="M297.7,396.62V427.1c0,11.53,5.12,16.42,12,16.42,7.64,0,12.52-5,12.52-16.42V396.62h6.72v30c0,15.81-8.32,22.3-19.47,22.3-10.54,0-18.48-6-18.48-22V396.62Z"/><path d="M347.11,396.62V448.1h-6.64V396.62Z"/><path d="M358.72,396.62h6.65v45.9h22v5.58H358.72Z"/><path d="M394.77,397.31a95.33,95.33,0,0,1,14.13-1.07c9.54,0,16.34,2.22,20.85,6.42S437,412.81,437,421.14s-2.6,15.27-7.41,20-12.75,7.41-22.76,7.41a107.64,107.64,0,0,1-12.06-.61Zm6.64,45.52a42.68,42.68,0,0,0,6.72.38c14.21,0,21.92-7.94,21.92-21.84.08-12.14-6.8-19.86-20.85-19.86a37.92,37.92,0,0,0-7.79.69Z"/><path d="M472.29,424h-20v18.56h22.3v5.58H445.63V396.62h27.8v5.58H452.28v16.27h20Z"/><path d="M483.21,397.31A68.94,68.94,0,0,1,496,396.24c7.1,0,11.68,1.3,14.89,4.2a12.82,12.82,0,0,1,4,9.78c0,6.79-4.28,11.3-9.7,13.13v.23c4,1.38,6.34,5,7.56,10.39,1.68,7.18,2.9,12.14,4,14.13h-6.87c-.84-1.45-2-5.88-3.44-12.3-1.52-7.1-4.27-9.77-10.31-10h-6.26v22.3h-6.64Zm6.64,23.45h6.8c7.1,0,11.61-3.9,11.61-9.78,0-6.64-4.81-9.54-11.84-9.62a27.12,27.12,0,0,0-6.57.61Z"/><path d="M523.38,440a23.57,23.57,0,0,0,11.91,3.36c6.8,0,10.77-3.59,10.77-8.78,0-4.81-2.75-7.56-9.7-10.23-8.4-3-13.59-7.34-13.59-14.59,0-8,6.64-14,16.65-14a23.48,23.48,0,0,1,11.38,2.52L549,403.73a20.41,20.41,0,0,0-9.77-2.45c-7,0-9.7,4.2-9.7,7.72,0,4.81,3.13,7.17,10.23,9.92,8.71,3.36,13.14,7.57,13.14,15.13,0,7.94-5.88,14.81-18,14.81-5,0-10.38-1.45-13.13-3.28Z"/><path d="M288.19,491.88V714.2q-10.62-4-21.06-8.76a342.91,342.91,0,0,1-35.62-18.83V491.88Z"/><path d="M382.72,558V718.81H302.37q-3.45-1-6.89-2.16V558Z"/><rect x="388.83" y="519.24" width="93.3" height="202.25"/><path d="M568.49,486.12v204.8q-13.23,7.58-27.11,14A329.81,329.81,0,0,1,502.8,719.8H491.87V486.12Z"/><rect class="cls-3" x="242.31" y="550.12" width="10.08" height="11.85"/><rect class="cls-3" x="265.95" y="550.12" width="10.08" height="11.85"/><rect class="cls-3" x="242.31" y="529.38" width="10.08" height="11.85"/><rect class="cls-3" x="265.95" y="529.38" width="10.08" height="11.85"/><rect class="cls-3" x="242.31" y="570.85" width="10.08" height="11.85"/><rect class="cls-3" x="265.95" y="570.85" width="10.08" height="11.85"/><rect class="cls-3" x="242.31" y="591.58" width="10.08" height="11.85"/><rect class="cls-3" x="265.95" y="591.58" width="10.08" height="11.85"/><rect class="cls-3" x="242.31" y="612.32" width="10.08" height="11.85"/><rect class="cls-3" x="265.95" y="612.32" width="10.08" height="11.85"/><rect class="cls-3" x="242.31" y="633.05" width="10.08" height="11.85"/><rect class="cls-3" x="265.95" y="633.05" width="10.08" height="11.85"/><rect class="cls-3" x="242.31" y="653.79" width="10.08" height="11.85"/><rect class="cls-3" x="265.95" y="653.79" width="10.08" height="11.85"/><rect class="cls-3" x="310" y="569.16" width="23.4" height="48.38"/><rect class="cls-3" x="342.28" y="569.16" width="23.4" height="28.35"/><rect class="cls-3" x="310" y="627.69" width="23.4" height="25.39"/><rect class="cls-3" x="342.28" y="605.62" width="23.4" height="47.47"/><rect class="cls-3" x="405.97" y="537.85" width="13.32" height="159.38"/><rect class="cls-3" x="434.41" y="537.85" width="25.6" height="23.84"/><rect class="cls-3" x="434.41" y="571.73" width="25.6" height="23.84"/><rect class="cls-3" x="434.41" y="605.62" width="25.6" height="23.84"/><rect class="cls-3" x="434.41" y="639.5" width="25.6" height="23.84"/><rect class="cls-3" x="434.41" y="673.39" width="25.6" height="23.84"/><rect class="cls-3" x="508.7" y="525.15" width="13.2" height="15.52"/><rect class="cls-3" x="538.46" y="525.15" width="13.2" height="15.52"/><rect class="cls-3" x="508.7" y="548.85" width="13.2" height="15.52"/><rect class="cls-3" x="538.46" y="548.85" width="13.2" height="15.52"/><rect class="cls-3" x="508.7" y="572.54" width="13.2" height="15.52"/><rect class="cls-3" x="538.46" y="572.54" width="13.2" height="15.52"/><rect class="cls-3" x="508.7" y="596.24" width="13.2" height="15.52"/><rect class="cls-3" x="538.46" y="596.24" width="13.2" height="15.52"/><rect class="cls-3" x="508.7" y="619.94" width="13.2" height="15.52"/><rect class="cls-3" x="538.46" y="619.94" width="13.2" height="15.52"/><rect class="cls-3" x="508.7" y="643.63" width="13.2" height="15.52"/><rect class="cls-3" x="538.46" y="643.63" width="13.2" height="15.52"/><rect class="cls-3" x="508.7" y="667.33" width="13.2" height="15.52"/><rect class="cls-3" x="538.46" y="667.33" width="13.2" height="15.52"/><path d="M728.85,244.35A352.35,352.35,0,1,0,267.13,706.07q10.42,4.41,21.06,8.13,3.63,1.26,7.29,2.45,3.43,1.13,6.89,2.16a352.05,352.05,0,0,0,239-12.74q13.88-5.87,27.11-12.84A352.68,352.68,0,0,0,728.85,244.35ZM568.49,668q-8.26,4.75-16.83,9-6.07,3-12.29,5.84A327.33,327.33,0,0,1,491.87,700q-4.85,1.34-9.74,2.52a329.47,329.47,0,0,1-77.88,9.28q-5.92,0-11.79-.21c-3.26-.11-6.5-.27-9.74-.48a328.18,328.18,0,0,1-87.24-17.71q-3.66-1.29-7.29-2.65a329.6,329.6,0,0,1-56.68-27.82C137.07,604.7,74,500.32,74,381.48,74,199.36,222.14,51.2,404.25,51.2S734.54,199.36,734.54,381.48C734.54,503.85,667.64,610.9,568.49,668Z"/><path d="M104.11,519.24l18-153.48s-27.9,228,109.35,297.13C231.51,662.89,118.46,616.08,104.11,519.24Z"/><path d="M707.79,519.24l-18-153.48s27.9,228-109.35,297.13C580.39,662.89,693.44,616.08,707.79,519.24Z"/></svg>