<svg id="Layer_1" data-name="Layer 1" xmlns="http://www.w3.org/2000/svg" viewBox="0 0 35 35"><defs><style>.cls-1{fill:#fff;}</style></defs><rect x="5" y="11" width="25" height="22"/><path d="M5.88,5H29.12A2.88,2.88,0,0,1,32,7.88V12a0,0,0,0,1,0,0H3a0,0,0,0,1,0,0V7.88A2.88,2.88,0,0,1,5.88,5Z"/><rect class="cls-1" x="8" y="3.82" width="19" height="3.35" rx="1.43"/><rect x="9" y="3.25" width="17" height="3.3" rx="1.43"/><rect x="7" y="13" width="21" height="18"/><path class="cls-1" d="M17.5,19h0A2.5,2.5,0,0,1,20,21.5V32a0,0,0,0,1,0,0H15a0,0,0,0,1,0,0V21.5A2.5,2.5,0,0,1,17.5,19Z"/></svg>