<svg id="Layer_1" data-name="Layer 1" xmlns="http://www.w3.org/2000/svg" viewBox="0 0 600 600"><defs><style>.cls-1{fill:#ffcc50;}.cls-2{fill:#f0ae3a;}</style></defs><polygon class="cls-1" points="415.08 156 396 425.54 300.62 444 300 443.88 300 163.35 300.62 163.38 415.08 156"/><polygon class="cls-2" points="299.38 163.35 299.38 443.88 200.31 424.92 184.92 156 299.38 163.35"/><path d="M268.89,245.58h12.45v64.5c0,25.6-12.59,33.47-29.18,33.47a40.21,40.21,0,0,1-13.3-2.29l1.86-10.15A29.67,29.67,0,0,0,251.16,333c11.15,0,17.73-5,17.73-23.89Z"/><path d="M300.36,326.82a44.12,44.12,0,0,0,22.31,6.29c12.73,0,20.16-6.72,20.16-16.45,0-9-5.14-14.16-18.16-19.16-15.73-5.58-25.46-13.73-25.46-27.32,0-15,12.45-26.17,31.18-26.17,9.87,0,17,2.29,21.31,4.72l-3.43,10.15A38.49,38.49,0,0,0,330,254.31c-13.16,0-18.16,7.86-18.16,14.44,0,9,5.86,13.45,19.16,18.59,16.31,6.3,24.6,14.16,24.6,28.32,0,14.88-11,27.75-33.75,27.75-9.3,0-19.45-2.72-24.6-6.15Z"/></svg>