<svg id="Layer_1" data-name="Layer 1" xmlns="http://www.w3.org/2000/svg" viewBox="0 0 600 600"><defs><style>.cls-1{fill:#ff330e;}.cls-2{fill:#c70000;}.cls-3{fill:#fff;}</style></defs><polygon class="cls-1" points="415 156.1 395.94 425.45 300.62 443.9 300 443.79 300 163.44 300.62 163.48 415 156.1"/><polygon class="cls-2" points="299.38 163.44 299.38 443.79 200.37 424.84 185 156.1 299.38 163.44"/><path class="cls-3" d="M223.62,272.3v20.53h23.73V272.3h6.4v49.06h-6.4v-23H223.62v23h-6.33V272.3Z"/><path class="cls-3" d="M274.06,277.69H259.13V272.3h36.33v5.39h-15v43.67h-6.4Z"/><path class="cls-3" d="M342.25,299.82c-.36-6.85-.8-15.07-.73-21.18h-.21c-1.68,5.75-3.72,11.86-6.19,18.63l-8.66,23.8h-4.81l-7.93-23.36c-2.33-6.92-4.29-13.25-5.68-19.07h-.14c-.15,6.11-.51,14.33-.95,21.69l-1.31,21h-6L303,272.3h8.08L319.47,296c2,6,3.71,11.43,4.95,16.52h.22c1.24-4.95,3-10.33,5.17-16.52l8.73-23.73h8.08l3.06,49.06h-6.19Z"/><path class="cls-3" d="M359.42,272.3h6.34v43.75h21v5.31h-27.3Z"/></svg>