<?xml version="1.0" encoding="utf-8"?>
<!-- Generator: Adobe Illustrator 24.1.0, SVG Export Plug-In . SVG Version: 6.00 Build 0)  -->
<svg version="1.1" id="Layer_1" xmlns="http://www.w3.org/2000/svg" xmlns:xlink="http://www.w3.org/1999/xlink" x="0px" y="0px"
	 viewBox="0 0 800 800" style="enable-background:new 0 0 800 800;" xml:space="preserve">
<style type="text/css">
	.st0{fill:#330000;}
	.st1{fill:#FF9A00;}
</style>
<path class="st0" d="M749.75,803.79H56.87c-35.73,0-64.69-28.96-64.69-64.69V67.15c0-35.73,28.96-64.69,64.69-64.69h692.88
	c35.73,0,64.69,28.96,64.69,64.69V739.1C814.44,774.83,785.48,803.79,749.75,803.79z"/>
<g>
	<path class="st1" d="M492.79,554.73h-66.67l-27.63-82.39H265.41l-27.12,82.39h-53.23l114.83-346.02h76.81L492.79,554.73z
		 M381.77,422.41l-50.44-154.38l-50.44,154.38H381.77z"/>
	<path class="st1" d="M588.62,268.8h-57.8v-60.08h57.8V268.8z M588.62,554.73h-57.8V298.71h57.8V554.73z"/>
</g>
</svg>
