<svg id="Layer_1" data-name="Layer 1" xmlns="http://www.w3.org/2000/svg" viewBox="0 0 600 600"><defs><style>.cls-1{fill:#168e00;}.cls-2{fill:#009934;}</style></defs><path d="M156.44,192.7c0-7.1-.14-12.92-.57-18.6h11.07l.71,11.36h.28c3.41-6.53,11.36-12.92,22.71-12.92,9.51,0,24.28,5.68,24.28,29.24v41h-12.5V203.2c0-11.07-4.11-20.3-15.89-20.3a18.32,18.32,0,0,0-17.6,18.6v41.3H156.44Z"/><path class="cls-1" d="M297.38,207.88c0,25.41-17.6,36.48-34.21,36.48-18.59,0-32.93-13.63-32.93-35.34,0-23,15-36.48,34.07-36.48C284,172.54,297.38,186.88,297.38,207.88Zm-54.51.71c0,15,8.66,26.4,20.87,26.4,11.92,0,20.86-11.21,20.86-26.68,0-11.64-5.82-26.4-20.58-26.4S242.87,195.53,242.87,208.59Z"/><path d="M372.46,142v83c0,6.1.14,13.06.57,17.74H361.81l-.56-11.92H361c-3.83,7.66-12.2,13.48-23.42,13.48-16.6,0-29.38-14.05-29.38-34.92-.14-22.85,14-36.9,30.8-36.9,10.51,0,17.6,5,20.73,10.5H360V142Zm-12.49,60a21.82,21.82,0,0,0-.57-5.25,18.37,18.37,0,0,0-18-14.48c-12.92,0-20.59,11.36-20.59,26.55,0,13.91,6.82,25.4,20.3,25.4,8.38,0,16-5.53,18.31-14.9A21.49,21.49,0,0,0,360,214Z"/><path d="M400.13,210.72c.29,16.89,11.08,23.85,23.57,23.85,8.94,0,14.33-1.56,19-3.55l2.12,8.94c-4.39,2-11.92,4.26-22.85,4.26-21.15,0-33.78-13.91-33.78-34.63s12.21-37.05,32.22-37.05c22.43,0,28.39,19.73,28.39,32.36a45.36,45.36,0,0,1-.43,5.82Zm36.62-8.94c.15-7.95-3.26-20.3-17.31-20.3-12.63,0-18.17,11.64-19.16,20.3Z"/><path class="cls-2" d="M285.28,310.57c.17,4.73-3.27,8.83-9,8.83a8.6,8.6,0,0,1-8.84-8.83,8.81,8.81,0,0,1,9.16-9C281.85,301.57,285.28,305.49,285.28,310.57Z"/><path class="cls-2" d="M353.46,389.86c0,13.91-10.79,23.72-29.59,23.72-8.66,0-16.68-2.13-22.23-5.4l3.6-10.95a37.72,37.72,0,0,0,19,5.71c10.47,0,15.37-5.22,15.37-11.76,0-6.87-4.09-10.63-14.71-14.56-14.23-5.06-20.94-12.92-20.94-22.4,0-12.75,10.3-23.22,27.31-23.22a39.49,39.49,0,0,1,19.46,4.91l-3.6,10.47a30.74,30.74,0,0,0-16.19-4.58c-8.5,0-13.24,4.9-13.24,10.79,0,6.54,4.74,9.48,15,13.41C346.43,371.23,353.46,378.1,353.46,389.86Z"/><path class="cls-2" d="M300,275.36a87,87,0,0,0-58.82,151.08,44.35,44.35,0,0,1,6.34-1.45,81.38,81.38,0,1,1,35.56,17.35,12.82,12.82,0,0,1-3.84,4.5A87,87,0,1,0,300,275.36Zm-30.74,57.45V399c0,14.8-.89,21.83-3.14,26.38a14.25,14.25,0,0,1-7.87,7.22,81.2,81.2,0,0,0,13.63,6.5,22.93,22.93,0,0,0,2.29-2,28,28,0,0,0,4.74-6.48c3.43-6.49,4.74-14.83,4.74-26.06V332.81Z"/><path class="cls-2" d="M300,270.13a92.19,92.19,0,0,0-64.14,158.44,33.14,33.14,0,0,1,5.32-2.13,44.35,44.35,0,0,1,6.34-1.45,81.38,81.38,0,1,1,35.56,17.35,12.82,12.82,0,0,1-3.84,4.5,25.75,25.75,0,0,1-6.56,3.6A92.22,92.22,0,1,0,300,270.13Z"/><path class="cls-2" d="M269.26,332.81V399c0,14.8-.89,21.83-3.14,26.38a14.25,14.25,0,0,1-7.87,7.22,81.2,81.2,0,0,0,13.63,6.5,22.93,22.93,0,0,0,2.29-2,28,28,0,0,0,4.74-6.48c3.43-6.49,4.74-14.83,4.74-26.06V332.81Zm7.36-31.24a8.81,8.81,0,0,0-9.16,9,8.6,8.6,0,0,0,8.84,8.83c5.71,0,9.15-4.1,9-8.83C285.28,305.49,281.85,301.57,276.62,301.57Zm-7.36,31.24V399c0,14.8-.89,21.83-3.14,26.38a14.25,14.25,0,0,1-7.87,7.22,81.2,81.2,0,0,0,13.63,6.5,22.93,22.93,0,0,0,2.29-2,28,28,0,0,0,4.74-6.48c3.43-6.49,4.74-14.83,4.74-26.06V332.81Z"/><path class="cls-2" d="M332.7,366c-10.3-3.93-15-6.87-15-13.41,0-5.89,4.74-10.79,13.24-10.79a30.74,30.74,0,0,1,16.19,4.58l3.6-10.47A39.49,39.49,0,0,0,331.23,331c-17,0-27.31,10.47-27.31,23.22,0,9.48,6.71,17.34,20.94,22.4,10.62,3.93,14.71,7.69,14.71,14.56,0,6.54-4.9,11.76-15.37,11.76a37.72,37.72,0,0,1-19-5.71l-3.6,10.95c5.55,3.27,13.57,5.4,22.23,5.4,18.8,0,29.59-9.81,29.59-23.72C353.46,378.1,346.43,371.23,332.7,366Z"/></svg>