<svg id="Layer_1" data-name="Layer 1" xmlns="http://www.w3.org/2000/svg" viewBox="0 0 600 600"><defs><style>.cls-1{fill:#000229;}.cls-2{fill:#69cfff;}</style></defs><rect class="cls-1" width="600" height="600"/><path class="cls-2" d="M213.27,124h20.36c24.82,7.53,45.62,21.64,64.1,39.44,3.35,3.22,6,3.22,9.31,0,18.47-17.82,39.27-31.91,64.09-39.45h20.36c19.72,6.46,29.15,21.09,32.48,40.67,3.38,19.87,1.43,39.49-3.14,58.84-2,8.31.06,11.94,8.5,14.6,21.93,6.91,42.93,16,59.37,33,17.73,18.39,17.74,42.12,0,60.5-16.66,17.24-38,26.27-60.17,33.29-7.68,2.44-9.7,5.94-7.83,13.49a155.63,155.63,0,0,1,4.67,47.91c-1.57,23.65-8.62,44-33.88,52.44H371.13c-24.81-7.55-45.63-21.62-64.09-39.45-3.33-3.22-6-3.22-9.32,0-18.46,17.83-39.27,31.91-64.09,39.45H213.27c-19.72-6.46-29.16-21.09-32.49-40.67-3.37-19.86-1.43-39.49,3.15-58.84,2-8.31-.06-11.94-8.5-14.6-21.92-6.93-42.94-16-59.36-33-17.74-18.44-17.75-42.11,0-60.5,16.65-17.25,38-26.25,60.17-33.29,7.68-2.44,9.7-5.94,7.83-13.49a155.93,155.93,0,0,1-4.67-47.91C181,152.79,188,132.45,213.27,124Zm89.15,113.83c-9.32,0-18.64.09-27.95,0-5.59-.08-9.58,2.05-12.65,6.85a538.84,538.84,0,0,0-28.74,49.88,14.06,14.06,0,0,0,0,13.66,541,541,0,0,0,28.73,49.88c3.06,4.79,7,6.94,12.62,6.91q27.94-.15,55.9,0c5.61,0,9.57-2.07,12.64-6.86a537.7,537.7,0,0,0,28.74-49.89,14,14,0,0,0,0-13.64A537.61,537.61,0,0,0,343,244.7c-3.06-4.78-7-7-12.61-6.91C321.06,237.93,311.74,237.83,302.42,237.83ZM196.25,420.35c-.29,5.85,1,14.21,3.42,22.37,4.44,15.09,14.92,21.37,30.4,18.17a68.34,68.34,0,0,0,12.11-3.72c16.46-6.75,29.84-18.05,43.1-29.51,3.84-3.31,3.42-6.32.3-10.1-8.64-10.42-17-21.09-25.38-31.71a13.46,13.46,0,0,0-9.06-5.54c-13.69-1.95-27.36-4-41-6.39-5.33-.93-7.87.77-8.9,6C198.82,392.42,196.4,404.87,196.25,420.35Zm0-237.86c.11,15.21,2.58,27.66,5,40.14,1.11,5.87,4.09,7.17,9.6,6.08,9.41-1.86,18.88-4.11,28.39-4.48,12.76-.5,21.85-5.5,28.11-16.59,2.47-4.37,6.12-8.09,9.32-12,15.49-19.13,16.46-13.72-2.24-29.64-12.74-10.83-26.56-20.18-43.32-23.91s-27.37,2.87-31.82,19.43C197.2,169.16,196,177,196.26,182.49Zm212.2,2a75.75,75.75,0,0,0-3.81-25.86c-4.37-13.45-14.16-19.46-28.09-17.05a71.17,71.17,0,0,0-15.34,4.62c-15.83,6.68-28.74,17.69-41.59,28.77-3.69,3.18-3.83,6.13-.56,10,8.67,10.4,17,21.09,25.35,31.73a14.23,14.23,0,0,0,9.83,5.79q20.12,2.76,40.13,6.25c5.16.9,8-.33,9.07-5.76A226.56,226.56,0,0,0,408.46,184.48Zm.35,234c-.78-7.57-1.39-15.16-2.4-22.7-.71-5.3-2.13-10.51-2.92-15.81-.9-6-4.26-7-9.67-5.93-9.69,1.88-19.44,4.12-29.24,4.59-12.12.58-20.66,5.41-26.71,15.86-2.8,4.83-6.71,9.07-10.43,13.3-13.14,14.95-13.35,15.09,1.73,27.94,13,11,26.83,20.75,43.81,24.76S401,458,405.53,441.15A91.17,91.17,0,0,0,408.81,418.52ZM484.65,302.8c.05-9-5-17.84-13.51-24.77-14.95-12.2-32.51-19-50.64-24.74-4.83-1.51-7.27.3-9,4.82-4.76,12.68-9.77,25.26-14.77,37.84a13.79,13.79,0,0,0-.07,10.68q7.64,19.26,15.1,38.62c1.42,3.69,3.51,5.69,7.68,4.44,19.85-6,39-13.42,54.65-27.66C480.14,316.56,484.12,309.85,484.65,302.8Zm-364.56-2.5c.14,9,5.31,17.79,13.84,24.69,14.77,11.93,32.06,18.69,49.9,24.36,5.21,1.66,7.73-.18,9.54-5.09,4.49-12.16,9.35-24.2,14.16-36.25,1.51-3.79,2.28-7.46.68-11.46q-7.82-19.67-15.41-39.4c-1.29-3.35-3.32-5.29-7.08-4.16-21,6.28-41.25,14-57.13,29.85C123.5,287.93,120.29,294.21,120.09,300.3Zm182.3-79.75c5.08,0,10.16,0,15.24,0,4.49,0,7.05-1.54,3.41-5.9-5.74-6.87-10.21-18.44-18.28-18.7-8.89-.28-13,11.89-19,18.73-3.78,4.28-1,5.85,3.41,5.87C292.23,220.57,297.31,220.55,302.39,220.55Zm.23,161.68c-5.36,0-10.72,0-16.08,0-4.45,0-6,2-3,5.68,5,6.14,10.16,12.09,15.35,18,2.39,2.74,5,2.36,7.2-.24,5.15-6,10.34-12,15.28-18.1,2.59-3.22,1.38-5.26-2.68-5.35C313.35,382.17,308,382.25,302.62,382.23Zm67.3-140.33c-2.75-.18-4.66-1-5.89.53s.11,3.19.92,4.6c5.24,9,10.6,18,15.77,27.11,2.64,4.63,4.69,4.42,6.53-.42,2.52-6.6,5-13.22,7.47-19.83,1.86-4.93-.13-7.55-5-8.44C382.75,244.19,375.8,243,369.92,241.9Zm-.84,119.15c6.17-1.15,13.95-2.54,21.71-4.07,4.26-.84,5.52-3.59,4.07-7.55-2.52-6.9-5.08-13.78-7.73-20.63-1.55-4-3.52-5.16-6.13-.63-5.36,9.3-10.8,18.55-16.22,27.81C362.92,359.15,362.71,361.39,369.08,361.05Zm-132-119.38c-27.49.41-31.74,7.27-19.69,31.79.13.25.24.51.35.77,1.94,4.58,3.9,4.07,6.15.16,5.36-9.31,10.8-18.57,16.23-27.83C242.24,242.93,241.36,241.26,237.07,241.67ZM236,361c2,.15,3.91.87,5-.87s-.46-3.2-1.28-4.62c-5.23-9-10.56-18-15.76-27.1-2.29-4-4.35-4.32-6.14.22-2.6,6.56-5,13.21-7.55,19.79-2.05,5.24-.2,8.08,5.19,9C222.34,358.56,229.3,359.79,236,361Z"/><path class="cls-2" d="M302.34,266.44c20.51,0,35.12,14.72,35,35.32-.11,20-14.78,34.55-34.93,34.56-20.51,0-35.13-14.73-35-35.32C267.52,281,282.19,266.45,302.34,266.44Z"/></svg>