<svg id="Layer_1" data-name="Layer 1" xmlns="http://www.w3.org/2000/svg" viewBox="0 0 600 600"><defs><style>.cls-1{fill:#3283ff;}.cls-2{fill:#0068f7;}.cls-3{fill:#fff;}</style></defs><polygon class="cls-1" points="426 142.33 405.11 437.45 300.67 457.67 300 457.54 300 150.38 300.67 150.42 426 142.33"/><polygon class="cls-2" points="299.33 150.38 299.33 457.54 190.84 436.78 174 142.33 299.33 150.38"/><path class="cls-3" d="M273.33,330.68c-3.62,1.81-10.85,3.61-20.11,3.61-21.47,0-37.63-13.55-37.63-38.53,0-23.84,16.16-40,39.78-40,9.49,0,15.47,2,18.07,3.39l-2.37,8A35.78,35.78,0,0,0,255.7,264C237.85,264,226,275.43,226,295.43c0,18.64,10.73,30.62,29.26,30.62,6,0,12.09-1.25,16.05-3.17Z"/><path class="cls-3" d="M284.29,321.19a34.87,34.87,0,0,0,17.63,5c10.06,0,15.93-5.31,15.93-13,0-7.12-4.07-11.19-14.35-15.15-12.43-4.4-20.11-10.84-20.11-21.58,0-11.86,9.83-20.67,24.63-20.67,7.8,0,13.45,1.8,16.84,3.73l-2.72,8a30.25,30.25,0,0,0-14.46-3.62c-10.39,0-14.35,6.22-14.35,11.41,0,7.12,4.63,10.62,15.14,14.69,12.88,5,19.44,11.19,19.44,22.38,0,11.75-8.7,21.91-26.67,21.91-7.34,0-15.37-2.14-19.43-4.85Z"/><path class="cls-3" d="M340,321.19a34.87,34.87,0,0,0,17.63,5c10.05,0,15.93-5.31,15.93-13,0-7.12-4.07-11.19-14.35-15.15-12.43-4.4-20.11-10.84-20.11-21.58,0-11.86,9.83-20.67,24.63-20.67,7.79,0,13.44,1.8,16.83,3.73l-2.71,8a30.25,30.25,0,0,0-14.46-3.62c-10.4,0-14.35,6.22-14.35,11.41,0,7.12,4.63,10.62,15.14,14.69,12.88,5,19.43,11.19,19.43,22.38,0,11.75-8.7,21.91-26.66,21.91-7.35,0-15.37-2.14-19.44-4.85Z"/></svg>