<svg id="Layer_1" data-name="Layer 1" xmlns="http://www.w3.org/2000/svg" viewBox="0 0 600 600"><defs><style>.cls-1{fill:#000229;}.cls-2{fill:#fff;}.cls-3{fill:#ffeb00;}</style></defs><rect class="cls-1" width="600" height="600"/><path class="cls-2" d="M138.2,297.72H111.63v24.64h29.61v7.4H102.81V261.41h36.91v7.41H111.63v21.6H138.2Z"/><path class="cls-2" d="M156.55,280.68l7,10.55c1.82,2.73,3.34,5.27,5,8h.3c1.62-2.94,3.25-5.48,4.87-8.11l6.89-10.45h9.64l-16.73,23.73,17.24,25.35H180.58l-7.2-11.05c-1.92-2.84-3.55-5.58-5.27-8.52h-.2c-1.62,2.94-3.35,5.58-5.17,8.52l-7.1,11.05H145.8l17.44-25.05-16.63-24Z"/><path class="cls-2" d="M199.34,296.7c0-6.28-.2-11.36-.4-16h8l.4,8.42h.21c3.65-6,9.43-9.54,17.44-9.54,11.87,0,20.79,10,20.79,24.95,0,17.65-10.75,26.37-22.31,26.37-6.49,0-12.17-2.84-15.11-7.71h-.2v26.67h-8.83Zm8.83,13.09a20.49,20.49,0,0,0,.4,3.65A13.77,13.77,0,0,0,222,323.88c9.43,0,14.91-7.71,14.91-19,0-9.84-5.18-18.26-14.61-18.26-6.08,0-11.76,4.36-13.49,11.06a14.59,14.59,0,0,0-.6,3.65Z"/><path class="cls-2" d="M257,296c0-5.78-.1-10.75-.4-15.31h7.8l.31,9.63h.4c2.24-6.59,7.61-10.75,13.59-10.75a9.76,9.76,0,0,1,2.54.31v8.42a13,13,0,0,0-3-.31c-6.29,0-10.75,4.77-12,11.46a25.47,25.47,0,0,0-.41,4.16v26.16H257Z"/><path class="cls-2" d="M294.16,306.84c.2,12.07,7.91,17,16.83,17a32.29,32.29,0,0,0,13.59-2.53l1.52,6.38c-3.14,1.42-8.52,3-16.33,3-15.11,0-24.13-9.94-24.13-24.75s8.72-26.47,23-26.47c16,0,20.28,14.1,20.28,23.13a34,34,0,0,1-.3,4.15Zm26.16-6.38C320.42,294.78,318,286,308,286c-9,0-13,8.32-13.69,14.51Z"/><path class="cls-2" d="M338.77,320.64a23.47,23.47,0,0,0,11.77,3.55c6.49,0,9.53-3.25,9.53-7.31,0-4.26-2.53-6.59-9.13-9-8.82-3.15-13-8-13-13.9,0-7.91,6.39-14.4,16.94-14.4A24.43,24.43,0,0,1,367,282.61l-2.24,6.49a19,19,0,0,0-10-2.84c-5.28,0-8.22,3-8.22,6.69,0,4.06,2.94,5.88,9.33,8.32,8.52,3.24,12.88,7.5,12.88,14.8,0,8.62-6.69,14.71-18.36,14.71a28,28,0,0,1-13.79-3.35Z"/><path class="cls-2" d="M378.93,320.64a23.43,23.43,0,0,0,11.76,3.55c6.49,0,9.54-3.25,9.54-7.31,0-4.26-2.54-6.59-9.13-9-8.82-3.15-13-8-13-13.9,0-7.91,6.39-14.4,16.93-14.4a24.43,24.43,0,0,1,12.07,3.05l-2.23,6.49a19.06,19.06,0,0,0-10-2.84c-5.27,0-8.21,3-8.21,6.69,0,4.06,2.94,5.88,9.33,8.32,8.52,3.24,12.88,7.5,12.88,14.8,0,8.62-6.7,14.71-18.36,14.71a28,28,0,0,1-13.79-3.35Z"/><rect class="cls-3" x="422.9" y="250.43" width="82" height="86.32"/><path d="M450.91,274.91h4.47v23.2c0,9.21-4.52,12-10.49,12a14.31,14.31,0,0,1-4.78-.82l.67-3.65a10.62,10.62,0,0,0,3.75.67c4,0,6.38-1.8,6.38-8.59Z"/><path d="M462.22,304.13a15.92,15.92,0,0,0,8,2.26c4.58,0,7.25-2.42,7.25-5.92,0-3.24-1.85-5.09-6.53-6.89-5.66-2-9.16-4.94-9.16-9.82,0-5.4,4.48-9.42,11.21-9.42a15.81,15.81,0,0,1,7.67,1.7l-1.24,3.65a13.87,13.87,0,0,0-6.58-1.64c-4.73,0-6.53,2.83-6.53,5.19,0,3.24,2.11,4.84,6.89,6.69,5.86,2.26,8.85,5.09,8.85,10.18,0,5.35-4,10-12.14,10a17.85,17.85,0,0,1-8.85-2.21Z"/></svg>