<svg id="Layer_1" data-name="Layer 1" xmlns="http://www.w3.org/2000/svg" viewBox="0 0 600 600"><defs><style>.cls-1{fill:#9f9359;}.cls-2{fill:#34ff74;}.cls-3{fill:#16c56b;}</style></defs><rect width="600" height="600"/><path class="cls-1" d="M300.19,481s-.94,42,3.85,50l17.78-6s-18-12.68-15.24-39-2-5.14-2-5.14Z"/><path class="cls-2" d="M300.06,481.33l-.79.81C169.45,387,153.14,218.57,262.85,106l35.81-36.77C293.42,151,278.93,409,300.06,481.33Z"/><path class="cls-3" d="M342.15,443.51,314,474l-8.26,8.93c-21.84-72-11.84-330.21-8-412l1.06-1.15,1.05.76,1,.74C428.22,163.78,446.72,330.46,342.15,443.51Z"/></svg>