<svg id="Layer_1" data-name="Layer 1" xmlns="http://www.w3.org/2000/svg" viewBox="0 0 800 800"><defs><style>.cls-1{fill:#fff;}.cls-2{fill:#231f20;}.cls-3{fill:#8e9200;}.cls-4{fill:#6f00c8;}.cls-5{fill:#00645f;}.cls-6{fill:#f7c300;}.cls-7{fill:#bac0ff;}.cls-8{fill:#00d882;}.cls-9{fill:#ffa307;}.cls-10{fill:#711eff;}.cls-11{fill:#00d84a;}.cls-12{fill:#ffd936;}.cls-13{fill:#ba45ff;}.cls-14{fill:#45ff7b;}.cls-15{fill:#f3ff1e;}.cls-16{fill:#b25cff;}.cls-17{fill:#3bff17;}.cls-18{fill:#ffe4a2;}.cls-19{fill:#d18bff;}.cls-20{fill:#55ffb2;}.cls-21{fill:#001e0f;}</style></defs><path class="cls-1" d="M362.06,203.24V394.08H312.69V203.24Z"/><path class="cls-2" d="M370.06,402.85H304.69V194.48h65.37Zm-49.37-17.54h33.37V212H320.69Z"/><path class="cls-3" d="M353.62,362.83V324.57q0-33.42,16.65-52.81t45.34-19.38q28.71,0,45.41,19.38t16.71,52.81v38.26q0,33.42-16.71,52.87t-45.41,19.46q-28.69,0-45.34-19.46T353.62,362.83Zm49.62-48.46V373q0,15.94,12.37,15.94T428.11,373V314.37q0-15.94-12.5-15.95T403.24,314.37Z"/><path class="cls-2" d="M415.61,443.16c-21.48,0-38.78-7.49-51.42-22.25-12.32-14.4-18.57-33.94-18.57-58.08V324.57c0-24.14,6.25-43.66,18.58-58,12.63-14.71,29.93-22.17,51.41-22.17s38.79,7.45,51.47,22.16c12.38,14.36,18.65,33.89,18.65,58v38.26c0,24.15-6.27,43.69-18.64,58.09C454.41,435.67,437.09,443.16,415.61,443.16Zm0-182.78c-16.83,0-29.68,5.43-39.27,16.59-9.76,11.38-14.72,27.39-14.72,47.6v38.26c0,20.22,5,36.26,14.73,47.67,9.59,11.21,22.43,16.66,39.26,16.66s29.71-5.46,39.34-16.67c9.81-11.41,14.78-27.45,14.78-47.66V324.57c0-20.2-5-36.21-14.77-47.58C445.33,265.81,432.46,260.38,415.61,260.38Zm0,136.6c-4.78,0-20.37-1.72-20.37-23.94V314.37c0-22.22,15.59-23.95,20.37-23.95s20.5,1.73,20.5,23.95V373C436.11,395.26,420.42,397,415.61,397Zm0-90.56c-2.15,0-4.37,0-4.37,7.95V373c0,7.94,2.22,7.94,4.37,7.94s4.5,0,4.5-7.94V314.37C420.11,306.42,417.83,306.42,415.61,306.42Z"/><path class="cls-4" d="M439.91,400V361.72q0-33.42,16.65-52.8t45.34-19.39q28.7,0,45.41,19.39T564,361.72V400q0,33.42-16.71,52.87T501.9,472.31q-28.69,0-45.34-19.45T439.91,400Zm49.62-48.47v58.67q0,15.94,12.37,15.94t12.5-15.94V351.52q0-15.94-12.5-15.95T489.53,351.52Z"/><path class="cls-2" d="M501.9,480.31c-21.49,0-38.79-7.49-51.42-22.25-12.32-14.4-18.57-33.94-18.57-58.07V361.72c0-24.14,6.25-43.66,18.58-58,12.63-14.72,29.93-22.18,51.41-22.18s38.79,7.46,51.47,22.16c12.37,14.36,18.65,33.89,18.65,58V400c0,24.14-6.27,43.68-18.64,58.08C540.7,472.83,523.38,480.31,501.9,480.31Zm0-182.78c-16.84,0-29.68,5.43-39.27,16.6-9.77,11.37-14.72,27.39-14.72,47.59V400c0,20.21,5,36.25,14.73,47.67,9.58,11.2,22.43,16.65,39.26,16.65s29.71-5.45,39.34-16.67C551.05,436.23,556,420.2,556,400V361.72c0-20.2-5-36.21-14.77-47.58C531.62,303,518.74,297.53,501.9,297.53Zm0,136.6c-4.78,0-20.37-1.72-20.37-23.94V351.52c0-22.22,15.59-23.95,20.37-23.95s20.5,1.73,20.5,23.95v58.67C522.4,432.41,506.71,434.13,501.9,434.13Zm0-90.56c-2.15,0-4.37,0-4.37,7.95v58.67c0,7.94,2.22,7.94,4.37,7.94s4.5,0,4.5-7.94V351.52C506.4,343.57,504.11,343.57,501.9,343.57Z"/><path class="cls-5" d="M528.2,445.2V406.94q0-33.42,16.64-52.81t45.35-19.39q28.69,0,45.41,19.39t16.71,52.81V445.2q0,33.42-16.71,52.87t-45.41,19.45q-28.7,0-45.35-19.45T528.2,445.2Zm49.62-48.47v58.68q0,15.94,12.37,15.94t12.5-15.94V396.73q0-15.93-12.5-15.94T577.82,396.73Z"/><path class="cls-2" d="M590.19,525.52c-21.49,0-38.79-7.48-51.42-22.25-12.32-14.39-18.57-33.93-18.57-58.07V406.94c0-24.14,6.25-43.66,18.57-58,12.64-14.71,29.94-22.18,51.42-22.18s38.79,7.46,51.47,22.17c12.37,14.36,18.65,33.88,18.65,58V445.2c0,24.15-6.28,43.69-18.65,58.09C629,518,611.67,525.52,590.19,525.52Zm0-182.78c-16.84,0-29.69,5.43-39.28,16.6-9.76,11.38-14.71,27.39-14.71,47.6V445.2c0,20.22,4.95,36.26,14.72,47.67,9.59,11.21,22.44,16.65,39.27,16.65s29.71-5.45,39.34-16.66c9.8-11.41,14.78-27.45,14.78-47.66V406.94c0-20.2-5-36.21-14.77-47.59C619.9,348.18,607,342.74,590.19,342.74Zm0,136.61c-4.78,0-20.37-1.73-20.37-23.94V396.73c0-22.21,15.59-23.94,20.37-23.94s20.5,1.73,20.5,23.94v58.68C610.69,477.62,595,479.35,590.19,479.35Zm0-90.56c-2.15,0-4.37,0-4.37,7.94v58.68c0,7.94,2.22,7.94,4.37,7.94s4.5,0,4.5-7.94V396.73C594.69,388.79,592.4,388.79,590.19,388.79Z"/><path class="cls-1" d="M329.06,219.24V410.08H279.69V219.24Z"/><path class="cls-2" d="M337.06,418.85H271.69V210.48h65.37Zm-49.37-17.54h33.37V228H287.69Z"/><path class="cls-6" d="M320.62,378.83V340.57q0-33.42,16.65-52.81t45.34-19.38q28.71,0,45.41,19.38t16.71,52.81v38.26q0,33.42-16.71,52.87t-45.41,19.46q-28.69,0-45.34-19.46T320.62,378.83Zm49.62-48.46V389q0,15.94,12.37,15.94T395.11,389V330.37q0-15.94-12.5-15.95T370.24,330.37Z"/><path class="cls-2" d="M382.61,459.16c-21.48,0-38.78-7.49-51.42-22.25-12.32-14.4-18.57-33.94-18.57-58.08V340.57c0-24.14,6.25-43.66,18.58-58,12.63-14.71,29.93-22.17,51.41-22.17s38.79,7.45,51.47,22.16c12.38,14.36,18.65,33.89,18.65,58v38.26c0,24.15-6.27,43.69-18.64,58.09C421.41,451.67,404.09,459.16,382.61,459.16Zm0-182.78c-16.83,0-29.68,5.43-39.27,16.59-9.76,11.38-14.72,27.39-14.72,47.6v38.26c0,20.22,5,36.26,14.73,47.67,9.59,11.21,22.43,16.66,39.26,16.66s29.71-5.46,39.34-16.67c9.81-11.41,14.78-27.45,14.78-47.66V340.57c0-20.2-5-36.21-14.77-47.58C412.33,281.81,399.46,276.38,382.61,276.38Zm0,136.6c-4.78,0-20.37-1.72-20.37-23.94V330.37c0-22.22,15.59-23.95,20.37-23.95s20.5,1.73,20.5,23.95V389C403.11,411.26,387.42,413,382.61,413Zm0-90.56c-2.15,0-4.37,0-4.37,7.95V389c0,7.94,2.22,7.94,4.37,7.94s4.5,0,4.5-7.94V330.37C387.11,322.42,384.83,322.42,382.61,322.42Z"/><path class="cls-7" d="M406.91,416V377.72q0-33.42,16.65-52.8t45.34-19.39q28.69,0,45.41,19.39T531,377.72V416q0,33.42-16.71,52.87T468.9,488.31q-28.69,0-45.34-19.45T406.91,416Zm49.62-48.47v58.67q0,15.94,12.37,15.94t12.5-15.94V367.52q0-15.94-12.5-15.95T456.53,367.52Z"/><path class="cls-2" d="M468.9,496.31c-21.49,0-38.79-7.49-51.42-22.25-12.32-14.4-18.57-33.94-18.57-58.07V377.72c0-24.14,6.25-43.66,18.58-58,12.63-14.72,29.93-22.18,51.41-22.18s38.79,7.46,51.47,22.16c12.37,14.36,18.65,33.89,18.65,58V416c0,24.14-6.27,43.68-18.64,58.08C507.7,488.83,490.38,496.31,468.9,496.31Zm0-182.78c-16.84,0-29.68,5.43-39.27,16.6-9.77,11.37-14.72,27.39-14.72,47.59V416c0,20.21,5,36.25,14.73,47.67,9.58,11.2,22.43,16.65,39.26,16.65s29.71-5.45,39.34-16.67C518.05,452.23,523,436.2,523,416V377.72c0-20.2-5-36.21-14.77-47.58C498.62,319,485.74,313.53,468.9,313.53Zm0,136.6c-4.78,0-20.37-1.72-20.37-23.94V367.52c0-22.22,15.59-23.95,20.37-23.95s20.5,1.73,20.5,23.95v58.67C489.4,448.41,473.71,450.13,468.9,450.13Zm0-90.56c-2.15,0-4.37,0-4.37,7.95v58.67c0,7.94,2.22,7.94,4.37,7.94s4.5,0,4.5-7.94V367.52C473.4,359.57,471.11,359.57,468.9,359.57Z"/><path class="cls-8" d="M495.2,461.2V422.94q0-33.42,16.64-52.81t45.35-19.39q28.69,0,45.41,19.39t16.71,52.81V461.2q0,33.42-16.71,52.87t-45.41,19.45q-28.7,0-45.35-19.45T495.2,461.2Zm49.62-48.47v58.68q0,15.94,12.37,15.94t12.5-15.94V412.73q0-15.93-12.5-15.94T544.82,412.73Z"/><path class="cls-2" d="M557.19,541.52c-21.49,0-38.79-7.48-51.42-22.25-12.32-14.39-18.57-33.93-18.57-58.07V422.94c0-24.14,6.25-43.66,18.57-58,12.64-14.71,29.94-22.18,51.42-22.18s38.79,7.46,51.47,22.17c12.37,14.36,18.65,33.88,18.65,58V461.2c0,24.15-6.28,43.69-18.65,58.09C596,534,578.67,541.52,557.19,541.52Zm0-182.78c-16.84,0-29.69,5.43-39.28,16.6-9.76,11.38-14.71,27.39-14.71,47.6V461.2c0,20.22,4.95,36.26,14.72,47.67,9.59,11.21,22.44,16.65,39.27,16.65s29.71-5.45,39.34-16.66c9.8-11.41,14.78-27.45,14.78-47.66V422.94c0-20.2-5-36.21-14.77-47.59C586.9,364.18,574,358.74,557.19,358.74Zm0,136.61c-4.78,0-20.37-1.73-20.37-23.94V412.73c0-22.21,15.59-23.94,20.37-23.94s20.5,1.73,20.5,23.94v58.68C577.69,493.62,562,495.35,557.19,495.35Zm0-90.56c-2.15,0-4.37,0-4.37,7.94v58.68c0,7.94,2.22,7.94,4.37,7.94s4.5,0,4.5-7.94V412.73C561.69,404.79,559.4,404.79,557.19,404.79Z"/><path class="cls-1" d="M296.06,235.24V426.08H246.69V235.24Z"/><path class="cls-2" d="M304.06,434.85H238.69V226.48h65.37Zm-49.37-17.54h33.37V244H254.69Z"/><path class="cls-9" d="M287.62,394.83V356.57q0-33.42,16.65-52.81t45.34-19.38q28.71,0,45.41,19.38t16.71,52.81v38.26q0,33.42-16.71,52.87t-45.41,19.46q-28.69,0-45.34-19.46T287.62,394.83Zm49.62-48.46V405q0,15.94,12.37,15.94T362.11,405V346.37q0-15.94-12.5-15.95T337.24,346.37Z"/><path class="cls-2" d="M349.61,475.16c-21.48,0-38.78-7.49-51.42-22.25-12.32-14.4-18.57-33.94-18.57-58.08V356.57c0-24.14,6.25-43.66,18.58-58,12.63-14.71,29.93-22.17,51.41-22.17s38.79,7.45,51.47,22.16c12.38,14.36,18.65,33.89,18.65,58v38.26c0,24.15-6.27,43.69-18.64,58.09C388.41,467.67,371.09,475.16,349.61,475.16Zm0-182.78c-16.83,0-29.68,5.43-39.27,16.59-9.76,11.38-14.72,27.39-14.72,47.6v38.26c0,20.22,5,36.26,14.73,47.67,9.59,11.21,22.43,16.66,39.26,16.66s29.71-5.46,39.34-16.67c9.81-11.41,14.78-27.45,14.78-47.66V356.57c0-20.2-5-36.21-14.77-47.58C379.33,297.81,366.46,292.38,349.61,292.38Zm0,136.6c-4.78,0-20.37-1.72-20.37-23.94V346.37c0-22.22,15.59-23.95,20.37-23.95s20.5,1.73,20.5,23.95V405C370.11,427.26,354.42,429,349.61,429Zm0-90.56c-2.15,0-4.37,0-4.37,7.95V405c0,7.94,2.22,7.94,4.37,7.94s4.5,0,4.5-7.94V346.37C354.11,338.42,351.83,338.42,349.61,338.42Z"/><path class="cls-10" d="M373.91,432V393.72q0-33.42,16.65-52.8t45.34-19.39q28.69,0,45.41,19.39T498,393.72V432q0,33.42-16.71,52.87T435.9,504.31q-28.69,0-45.34-19.45T373.91,432Zm49.62-48.47v58.67q0,15.94,12.37,15.94t12.5-15.94V383.52q0-15.94-12.5-15.95T423.53,383.52Z"/><path class="cls-2" d="M435.9,512.31c-21.49,0-38.79-7.49-51.42-22.25-12.32-14.4-18.57-33.94-18.57-58.07V393.72c0-24.14,6.25-43.66,18.58-58,12.63-14.72,29.93-22.18,51.41-22.18s38.79,7.46,51.47,22.16c12.37,14.36,18.65,33.89,18.65,58V432c0,24.14-6.27,43.68-18.64,58.08C474.7,504.83,457.38,512.31,435.9,512.31Zm0-182.78c-16.84,0-29.68,5.43-39.27,16.6-9.77,11.37-14.72,27.39-14.72,47.59V432c0,20.21,5,36.25,14.73,47.67,9.58,11.2,22.43,16.65,39.26,16.65s29.71-5.45,39.34-16.67C485.05,468.23,490,452.2,490,432V393.72c0-20.2-5-36.21-14.77-47.58C465.62,335,452.74,329.53,435.9,329.53Zm0,136.6c-4.78,0-20.37-1.72-20.37-23.94V383.52c0-22.22,15.59-23.95,20.37-23.95s20.5,1.73,20.5,23.95v58.67C456.4,464.41,440.71,466.13,435.9,466.13Zm0-90.56c-2.15,0-4.37,0-4.37,7.95v58.67c0,7.94,2.22,7.94,4.37,7.94s4.5,0,4.5-7.94V383.52C440.4,375.57,438.11,375.57,435.9,375.57Z"/><path class="cls-11" d="M462.2,477.2V438.94q0-33.42,16.64-52.81t45.35-19.39q28.69,0,45.41,19.39t16.71,52.81V477.2q0,33.42-16.71,52.87t-45.41,19.45q-28.7,0-45.35-19.45T462.2,477.2Zm49.62-48.47v58.68q0,15.94,12.37,15.94t12.5-15.94V428.73q0-15.93-12.5-15.94T511.82,428.73Z"/><path class="cls-2" d="M524.19,557.52c-21.49,0-38.79-7.48-51.42-22.25-12.32-14.39-18.57-33.93-18.57-58.07V438.94c0-24.14,6.25-43.66,18.57-58,12.64-14.71,29.94-22.18,51.42-22.18s38.79,7.46,51.47,22.17c12.37,14.36,18.65,33.88,18.65,58V477.2c0,24.15-6.28,43.69-18.65,58.09C563,550,545.67,557.52,524.19,557.52Zm0-182.78c-16.84,0-29.69,5.43-39.28,16.6-9.76,11.38-14.71,27.39-14.71,47.6V477.2c0,20.22,4.95,36.26,14.72,47.67,9.59,11.21,22.44,16.65,39.27,16.65s29.71-5.45,39.34-16.66c9.8-11.41,14.78-27.45,14.78-47.66V438.94c0-20.2-5-36.21-14.77-47.59C553.9,380.18,541,374.74,524.19,374.74Zm0,136.61c-4.78,0-20.37-1.73-20.37-23.94V428.73c0-22.21,15.59-23.94,20.37-23.94s20.5,1.73,20.5,23.94v58.68C544.69,509.62,529,511.35,524.19,511.35Zm0-90.56c-2.15,0-4.37,0-4.37,7.94v58.68c0,7.94,2.22,7.94,4.37,7.94s4.5,0,4.5-7.94V428.73C528.69,420.79,526.4,420.79,524.19,420.79Z"/><path class="cls-1" d="M263.06,251.24V442.08H213.69V251.24Z"/><path class="cls-2" d="M271.06,450.85H205.69V242.48h65.37Zm-49.37-17.54h33.37V260H221.69Z"/><path class="cls-12" d="M254.62,410.83V372.57q0-33.42,16.65-52.81t45.34-19.38q28.71,0,45.41,19.38t16.71,52.81v38.26q0,33.42-16.71,52.87t-45.41,19.46q-28.69,0-45.34-19.46T254.62,410.83Zm49.62-48.46V421q0,15.94,12.37,15.94T329.11,421V362.37q0-15.94-12.5-15.95T304.24,362.37Z"/><path class="cls-2" d="M316.61,491.16c-21.48,0-38.78-7.49-51.42-22.25-12.32-14.4-18.57-33.94-18.57-58.08V372.57c0-24.14,6.25-43.66,18.58-58,12.63-14.71,29.93-22.17,51.41-22.17s38.79,7.45,51.47,22.16c12.38,14.36,18.65,33.89,18.65,58v38.26c0,24.15-6.27,43.69-18.64,58.09C355.41,483.67,338.09,491.16,316.61,491.16Zm0-182.78c-16.83,0-29.68,5.43-39.27,16.59-9.76,11.38-14.72,27.39-14.72,47.6v38.26c0,20.22,5,36.26,14.73,47.67,9.59,11.21,22.43,16.66,39.26,16.66s29.71-5.46,39.34-16.67c9.81-11.41,14.78-27.45,14.78-47.66V372.57c0-20.2-5-36.21-14.77-47.58C346.33,313.81,333.46,308.38,316.61,308.38Zm0,136.6c-4.78,0-20.37-1.72-20.37-23.94V362.37c0-22.22,15.59-23.95,20.37-23.95s20.5,1.73,20.5,23.95V421C337.11,443.26,321.42,445,316.61,445Zm0-90.56c-2.15,0-4.37,0-4.37,7.95V421c0,7.94,2.22,7.94,4.37,7.94s4.5,0,4.5-7.94V362.37C321.11,354.42,318.83,354.42,316.61,354.42Z"/><path class="cls-13" d="M340.91,448V409.72q0-33.42,16.65-52.8t45.34-19.39q28.69,0,45.41,19.39T465,409.72V448q0,33.42-16.71,52.87T402.9,520.31q-28.69,0-45.34-19.45T340.91,448Zm49.62-48.47v58.67q0,15.94,12.37,15.94t12.5-15.94V399.52q0-15.94-12.5-15.95T390.53,399.52Z"/><path class="cls-2" d="M402.9,528.31c-21.49,0-38.79-7.49-51.42-22.25-12.32-14.4-18.57-33.94-18.57-58.07V409.72c0-24.14,6.25-43.66,18.58-58,12.63-14.72,29.93-22.18,51.41-22.18s38.79,7.46,51.47,22.16c12.37,14.36,18.65,33.89,18.65,58V448c0,24.14-6.27,43.68-18.64,58.08C441.7,520.83,424.38,528.31,402.9,528.31Zm0-182.78c-16.84,0-29.68,5.43-39.27,16.6-9.77,11.37-14.72,27.39-14.72,47.59V448c0,20.21,5,36.25,14.73,47.67,9.58,11.2,22.43,16.65,39.26,16.65s29.71-5.45,39.34-16.67C452.05,484.23,457,468.2,457,448V409.72c0-20.2-5-36.21-14.77-47.58C432.62,351,419.74,345.53,402.9,345.53Zm0,136.6c-4.78,0-20.37-1.72-20.37-23.94V399.52c0-22.22,15.59-23.95,20.37-23.95s20.5,1.73,20.5,23.95v58.67C423.4,480.41,407.71,482.13,402.9,482.13Zm0-90.56c-2.15,0-4.37,0-4.37,7.95v58.67c0,7.94,2.22,7.94,4.37,7.94s4.5,0,4.5-7.94V399.52C407.4,391.57,405.11,391.57,402.9,391.57Z"/><path class="cls-14" d="M429.2,493.2V454.94q0-33.42,16.64-52.81t45.35-19.39q28.69,0,45.41,19.39t16.71,52.81V493.2q0,33.42-16.71,52.87t-45.41,19.45q-28.69,0-45.35-19.45T429.2,493.2Zm49.62-48.47v58.68q0,15.94,12.37,15.94t12.5-15.94V444.73q0-15.93-12.5-15.94T478.82,444.73Z"/><path class="cls-2" d="M491.19,573.52c-21.49,0-38.79-7.48-51.42-22.25-12.32-14.39-18.57-33.93-18.57-58.07V454.94c0-24.14,6.25-43.66,18.57-58,12.64-14.71,29.94-22.18,51.42-22.18s38.79,7.46,51.47,22.17c12.37,14.36,18.65,33.88,18.65,58V493.2c0,24.15-6.28,43.69-18.65,58.09C530,566,512.67,573.52,491.19,573.52Zm0-182.78c-16.84,0-29.69,5.43-39.28,16.6-9.76,11.38-14.71,27.39-14.71,47.6V493.2c0,20.22,4.95,36.26,14.72,47.67,9.59,11.21,22.44,16.65,39.27,16.65s29.71-5.45,39.34-16.66c9.8-11.41,14.78-27.45,14.78-47.66V454.94c0-20.2-5-36.21-14.77-47.59C520.9,396.18,508,390.74,491.19,390.74Zm0,136.61c-4.78,0-20.37-1.73-20.37-23.94V444.73c0-22.21,15.59-23.94,20.37-23.94s20.5,1.73,20.5,23.94v58.68C511.69,525.62,496,527.35,491.19,527.35Zm0-90.56c-2.15,0-4.37,0-4.37,7.94v58.68c0,7.94,2.22,7.94,4.37,7.94s4.5,0,4.5-7.94V444.73C495.69,436.79,493.4,436.79,491.19,436.79Z"/><path class="cls-1" d="M230.06,267.24V458.08H180.69V267.24Z"/><path class="cls-2" d="M238.06,466.85H172.69V258.48h65.37Zm-49.37-17.54h33.37V276H188.69Z"/><path class="cls-15" d="M221.62,426.83V388.57q0-33.42,16.65-52.81t45.34-19.38q28.71,0,45.41,19.38t16.71,52.81v38.26q0,33.42-16.71,52.87t-45.41,19.46q-28.69,0-45.34-19.46T221.62,426.83Zm49.62-48.46V437q0,15.94,12.37,15.94T296.11,437V378.37q0-15.94-12.5-15.95T271.24,378.37Z"/><path class="cls-2" d="M283.61,507.16c-21.48,0-38.78-7.49-51.42-22.25-12.32-14.4-18.57-33.94-18.57-58.08V388.57c0-24.14,6.25-43.66,18.58-58,12.63-14.71,29.93-22.17,51.41-22.17s38.79,7.45,51.47,22.16c12.38,14.36,18.65,33.89,18.65,58v38.26c0,24.15-6.27,43.69-18.64,58.09C322.41,499.67,305.09,507.16,283.61,507.16Zm0-182.78c-16.83,0-29.68,5.43-39.27,16.59-9.76,11.38-14.72,27.39-14.72,47.6v38.26c0,20.22,5,36.26,14.73,47.67,9.59,11.21,22.43,16.66,39.26,16.66s29.71-5.46,39.34-16.67c9.81-11.41,14.78-27.45,14.78-47.66V388.57c0-20.2-5-36.21-14.77-47.58C313.33,329.81,300.46,324.38,283.61,324.38Zm0,136.6c-4.78,0-20.37-1.72-20.37-23.94V378.37c0-22.22,15.59-23.95,20.37-23.95s20.5,1.73,20.5,23.95V437C304.11,459.26,288.42,461,283.61,461Zm0-90.56c-2.15,0-4.37,0-4.37,7.95V437c0,7.94,2.22,7.94,4.37,7.94s4.5,0,4.5-7.94V378.37C288.11,370.42,285.83,370.42,283.61,370.42Z"/><path class="cls-16" d="M307.91,464V425.72q0-33.42,16.65-52.8t45.34-19.39q28.69,0,45.41,19.39T432,425.72V464q0,33.42-16.71,52.87T369.9,536.31q-28.69,0-45.34-19.45T307.91,464Zm49.62-48.47v58.67q0,15.94,12.37,15.94t12.5-15.94V415.52q0-15.94-12.5-15.95T357.53,415.52Z"/><path class="cls-2" d="M369.9,544.31c-21.49,0-38.79-7.49-51.42-22.25-12.32-14.4-18.57-33.94-18.57-58.07V425.72c0-24.14,6.25-43.66,18.58-58,12.63-14.72,29.93-22.18,51.41-22.18s38.79,7.46,51.47,22.16c12.37,14.36,18.65,33.89,18.65,58V464c0,24.14-6.27,43.68-18.64,58.08C408.7,536.83,391.38,544.31,369.9,544.31Zm0-182.78c-16.84,0-29.68,5.43-39.27,16.6-9.77,11.37-14.72,27.39-14.72,47.59V464c0,20.21,5,36.25,14.73,47.67,9.58,11.2,22.43,16.65,39.26,16.65s29.71-5.45,39.34-16.67C419.05,500.23,424,484.2,424,464V425.72c0-20.2-5-36.21-14.77-47.58C399.62,367,386.74,361.53,369.9,361.53Zm0,136.6c-4.78,0-20.37-1.72-20.37-23.94V415.52c0-22.22,15.59-23.95,20.37-23.95s20.5,1.73,20.5,23.95v58.67C390.4,496.41,374.71,498.13,369.9,498.13Zm0-90.56c-2.15,0-4.37,0-4.37,7.95v58.67c0,7.94,2.22,7.94,4.37,7.94s4.5,0,4.5-7.94V415.52C374.4,407.57,372.11,407.57,369.9,407.57Z"/><path class="cls-17" d="M396.2,509.2V470.94q0-33.42,16.64-52.81t45.35-19.39q28.69,0,45.41,19.39t16.71,52.81V509.2q0,33.42-16.71,52.87t-45.41,19.45q-28.69,0-45.35-19.45T396.2,509.2Zm49.62-48.47v58.68q0,15.95,12.37,15.94t12.5-15.94V460.73q0-15.93-12.5-15.94T445.82,460.73Z"/><path class="cls-2" d="M458.19,589.52c-21.49,0-38.79-7.48-51.42-22.25-12.32-14.39-18.57-33.93-18.57-58.07V470.94c0-24.14,6.25-43.66,18.57-58,12.64-14.71,29.94-22.18,51.42-22.18s38.79,7.46,51.47,22.17c12.37,14.36,18.65,33.88,18.65,58V509.2c0,24.15-6.28,43.69-18.65,58.09C497,582,479.67,589.52,458.19,589.52Zm0-182.78c-16.84,0-29.69,5.43-39.28,16.6-9.76,11.38-14.71,27.39-14.71,47.6V509.2c0,20.22,4.95,36.26,14.72,47.67,9.59,11.21,22.44,16.65,39.27,16.65s29.71-5.45,39.34-16.66c9.8-11.41,14.78-27.45,14.78-47.66V470.94c0-20.2-5-36.21-14.77-47.59C487.9,412.18,475,406.74,458.19,406.74Zm0,136.61c-4.78,0-20.37-1.73-20.37-23.94V460.73c0-22.21,15.59-23.94,20.37-23.94s20.5,1.73,20.5,23.94v58.68C478.69,541.62,463,543.35,458.19,543.35Zm0-90.56c-2.15,0-4.37,0-4.37,7.94v58.68c0,7.94,2.22,7.94,4.37,7.94s4.5,0,4.5-7.94V460.73C462.69,452.79,460.4,452.79,458.19,452.79Z"/><path class="cls-1" d="M197.06,283.24V474.08H147.69V283.24Z"/><path class="cls-2" d="M205.06,482.85H139.69V274.48h65.37Zm-49.37-17.54h33.37V292H155.69Z"/><path class="cls-18" d="M188.62,442.83V404.57q0-33.42,16.65-52.81t45.34-19.38q28.71,0,45.41,19.38t16.71,52.81v38.26q0,33.42-16.71,52.87t-45.41,19.46q-28.7,0-45.34-19.46T188.62,442.83Zm49.62-48.46V453q0,15.94,12.37,15.94T263.11,453V394.37q0-15.94-12.5-15.95T238.24,394.37Z"/><path class="cls-2" d="M250.61,523.16c-21.48,0-38.78-7.49-51.42-22.25-12.32-14.4-18.57-33.94-18.57-58.08V404.57c0-24.14,6.25-43.66,18.58-58,12.63-14.71,29.93-22.17,51.41-22.17s38.79,7.45,51.47,22.16c12.38,14.36,18.65,33.89,18.65,58v38.26c0,24.15-6.27,43.69-18.64,58.09C289.41,515.67,272.09,523.16,250.61,523.16Zm0-182.78c-16.83,0-29.68,5.43-39.27,16.59-9.76,11.38-14.72,27.39-14.72,47.6v38.26c0,20.22,5,36.26,14.73,47.67,9.59,11.21,22.43,16.66,39.26,16.66s29.71-5.46,39.34-16.67c9.81-11.41,14.78-27.45,14.78-47.66V404.57c0-20.2-5-36.21-14.77-47.58C280.33,345.81,267.46,340.38,250.61,340.38Zm0,136.6c-4.78,0-20.37-1.72-20.37-23.94V394.37c0-22.22,15.59-23.95,20.37-23.95s20.5,1.73,20.5,23.95V453C271.11,475.26,255.42,477,250.61,477Zm0-90.56c-2.15,0-4.37,0-4.37,7.95V453c0,7.94,2.22,7.94,4.37,7.94s4.5,0,4.5-7.94V394.37C255.11,386.42,252.83,386.42,250.61,386.42Z"/><path class="cls-19" d="M274.91,480V441.72q0-33.42,16.65-52.8t45.34-19.39q28.69,0,45.41,19.39T399,441.72V480q0,33.42-16.71,52.87T336.9,552.31q-28.69,0-45.34-19.45T274.91,480Zm49.62-48.47v58.67q0,15.94,12.37,15.94t12.5-15.94V431.52q0-15.94-12.5-15.95T324.53,431.52Z"/><path class="cls-2" d="M336.9,560.31c-21.49,0-38.79-7.49-51.42-22.25-12.32-14.4-18.57-33.94-18.57-58.07V441.72c0-24.14,6.25-43.66,18.58-58,12.63-14.72,29.93-22.18,51.41-22.18s38.79,7.46,51.47,22.16c12.37,14.36,18.65,33.89,18.65,58V480c0,24.14-6.27,43.68-18.64,58.08C375.7,552.83,358.38,560.31,336.9,560.31Zm0-182.78c-16.84,0-29.68,5.43-39.27,16.6-9.77,11.37-14.72,27.39-14.72,47.59V480c0,20.21,5,36.25,14.73,47.67,9.58,11.2,22.43,16.65,39.26,16.65s29.71-5.45,39.34-16.67C386.05,516.23,391,500.2,391,480V441.72c0-20.2-5-36.21-14.77-47.58C366.62,383,353.74,377.53,336.9,377.53Zm0,136.6c-4.78,0-20.37-1.72-20.37-23.94V431.52c0-22.22,15.59-23.95,20.37-23.95s20.5,1.73,20.5,23.95v58.67C357.4,512.41,341.71,514.13,336.9,514.13Zm0-90.56c-2.15,0-4.37,0-4.37,7.95v58.67c0,7.94,2.22,7.94,4.37,7.94s4.5,0,4.5-7.94V431.52C341.4,423.57,339.11,423.57,336.9,423.57Z"/><path class="cls-20" d="M363.2,525.2V486.94q0-33.42,16.64-52.81t45.35-19.39q28.69,0,45.41,19.39t16.71,52.81V525.2q0,33.42-16.71,52.87t-45.41,19.45q-28.69,0-45.35-19.45T363.2,525.2Zm49.62-48.47v58.68q0,15.95,12.37,15.94t12.5-15.94V476.73q0-15.93-12.5-15.94T412.82,476.73Z"/><path class="cls-21" d="M425.19,605.52c-21.49,0-38.79-7.48-51.42-22.25-12.32-14.39-18.57-33.93-18.57-58.07V486.94c0-24.14,6.25-43.66,18.57-58,12.64-14.71,29.94-22.18,51.42-22.18s38.79,7.46,51.47,22.17c12.37,14.36,18.65,33.88,18.65,58V525.2c0,24.15-6.28,43.69-18.65,58.09C464,598,446.67,605.52,425.19,605.52Zm0-182.78c-16.84,0-29.69,5.43-39.28,16.6-9.76,11.38-14.71,27.39-14.71,47.6V525.2c0,20.22,4.95,36.26,14.72,47.67,9.59,11.21,22.44,16.65,39.27,16.65s29.71-5.45,39.34-16.66c9.8-11.41,14.78-27.45,14.78-47.66V486.94c0-20.2-5-36.21-14.77-47.59C454.9,428.18,442,422.74,425.19,422.74Zm0,136.61c-4.78,0-20.37-1.73-20.37-23.94V476.73c0-22.21,15.59-23.94,20.37-23.94s20.5,1.73,20.5,23.94v58.68C445.69,557.62,430,559.35,425.19,559.35Zm0-90.56c-2.15,0-4.37,0-4.37,7.94v58.68c0,7.94,2.22,7.94,4.37,7.94s4.5,0,4.5-7.94V476.73C429.69,468.79,427.4,468.79,425.19,468.79Z"/></svg>