<svg id="Layer_1" data-name="Layer 1" xmlns="http://www.w3.org/2000/svg" xmlns:xlink="http://www.w3.org/1999/xlink" viewBox="0 0 800 800"><defs><style>.cls-1{fill:none;}.cls-2{clip-path:url(#clip-path);}.cls-3{fill:#4a00e4;}.cls-4{fill:#c9007f;}.cls-5{fill:#9800e4;}.cls-6{fill:#7200e4;}.cls-7{fill:#3448e4;}.cls-8{fill:#a100bb;}</style><clipPath id="clip-path"><polygon class="cls-1" points="483.38 1181.33 483.38 956.33 418.49 891.43 418.49 1181.33 483.38 1181.33"/></clipPath></defs><g class="cls-2"><rect x="418.49" y="778.14" width="64.89" height="30.85"/><rect x="433.38" y="740.9" width="35.11" height="30.85"/><rect x="418.49" y="703.67" width="64.89" height="30.85"/><rect x="433.38" y="666.43" width="35.11" height="30.85"/></g><path class="cls-3" d="M201.24,196.76l-1.55,139,20.15.23,1.33-118.89,361.69,4-1.33,118.89,20.16.23,1.55-139ZM580.45,437.07l-1.63,145.79-361.69-4L218.76,433l-20.15-.23-1.85,165.94,402,4.49,1.85-165.94Z"/><path class="cls-4" d="M95,390.42c-.43,1.14-.85,2.35-1.25,3.62a11,11,0,0,0-.61,2.45,1.91,1.91,0,0,0,1.57,2,30.82,30.82,0,0,0,6.91.55v1.25l-37.79-.43v-1.25l4.3-.26a6.27,6.27,0,0,0,4.27-1.83c.93-1,2.24-3.52,4-7.49s3.25-7.64,4.62-11,2.9-7.3,4.62-11.7,3.1-8,4.18-10.89,1.77-4.81,2.09-5.87a9.47,9.47,0,0,0,.5-2.38,2.09,2.09,0,0,0-1.54-2.08,21.54,21.54,0,0,0-6.32-.66l0-1.25,61.44.69L134.1,372.66h-1.48l.21-5a45.14,45.14,0,0,0-2.1-14.74q-2.19-6.63-6-7.13t-5.73-.62q-1.95-.09-3.9-.12l-1.8,0L103,370.44l4.22-.19a22.13,22.13,0,0,0,9.69-4,22.74,22.74,0,0,0,7-8.08l1.56,0-12.11,29.15-1.57,0c.22-.88.44-2,.67-3.47a26.37,26.37,0,0,0,.35-3.63,10.34,10.34,0,0,0-1.41-6.06q-1.47-2.09-4.9-2.13l-4.14-.12Z"/><path class="cls-4" d="M178.17,370.5a8.64,8.64,0,0,1-2.17,5.83,6.74,6.74,0,0,1-5.34,2.36A7.74,7.74,0,0,1,165.8,377a5.35,5.35,0,0,1-2-4.51,5.12,5.12,0,0,1,.69-2.57q.67-1.17,1.47-2.49c0-.46-.25-.7-.77-.71-.78,0-1.85,1-3.2,3a60.07,60.07,0,0,0-4.26,7.65l-11.58,23.37-15.23-.17,13.76-29.52a10.92,10.92,0,0,0,.73-1.82,7.16,7.16,0,0,0,.33-1.91,1.72,1.72,0,0,0-.22-1,.92.92,0,0,0-.78-.32,3.66,3.66,0,0,0-2.2,1,15.84,15.84,0,0,0-2.41,2.43c-.76,1-1.73,2.34-2.89,4.15s-2.1,3.36-2.79,4.65l-1-.4q5-9.39,8.65-12.12a12.79,12.79,0,0,1,8.07-2.69,6.66,6.66,0,0,1,5.56,2.41,10.14,10.14,0,0,1,1.76,6.42A12.87,12.87,0,0,1,157,375a21.13,21.13,0,0,1-.73,2.33l.23.08A59.85,59.85,0,0,1,163,366.58a9.55,9.55,0,0,1,7.89-3.35,6.69,6.69,0,0,1,5.48,2.33A7.68,7.68,0,0,1,178.17,370.5Z"/><path class="cls-4" d="M227.74,364.65,213.9,394.17a20,20,0,0,0-.8,2,8.65,8.65,0,0,0-.57,1.94,1.57,1.57,0,0,0,.26,1,1,1,0,0,0,.82.36,5.72,5.72,0,0,0,3.06-1.52,27,27,0,0,0,4.23-4.37,40.16,40.16,0,0,0,4.09-6.32l1,.48a64.21,64.21,0,0,1-4.57,7.18,20.26,20.26,0,0,1-5.8,5.24,15.33,15.33,0,0,1-8.3,2.06c-2.6,0-4.55-.77-5.83-2.22s-1.91-3.6-1.88-6.46a26.11,26.11,0,0,1-5.89,6.49,11.69,11.69,0,0,1-7.17,2,10.37,10.37,0,0,1-7.65-3.09A10.55,10.55,0,0,1,176,391q.1-9.21,8.67-18.37t18.88-9a8.29,8.29,0,0,1,4.36,1.22,4,4,0,0,1,1.92,3.69l-.26,1.87,2.8-5.9Zm-18.94,4a2.74,2.74,0,0,0-.49-1.84,2,2,0,0,0-1.59-.6c-1,0-2.13.76-3.43,2.31a51.94,51.94,0,0,0-5,8.14q-3.12,5.82-6.24,12.89c-2.08,4.72-3.13,7.77-3.15,9.18a1.8,1.8,0,0,0,.3,1.1,1.17,1.17,0,0,0,.94.4,6.29,6.29,0,0,0,4.63-2.33,41.11,41.11,0,0,0,3.4-4,44.18,44.18,0,0,0,3.15-5.67q2-4,4.72-10.29T208.8,368.65Z"/><path class="cls-4" d="M301.56,390.22a57.83,57.83,0,0,1-7.49,9.66q-3.36,3.28-9.29,3.22a7.37,7.37,0,0,1-6.1-2.65,9.4,9.4,0,0,1-2-6.11,14.11,14.11,0,0,1,.67-4.44,36.08,36.08,0,0,1,1.73-4.08q1.08-2.22,4.51-8.78t3.45-8.51a1.76,1.76,0,0,0-.34-1.25,1.42,1.42,0,0,0-1.12-.4,3.82,3.82,0,0,0-2.28,1.06,22.7,22.7,0,0,0-3.32,3.67,38.7,38.7,0,0,0-3.82,6.28q-1.85,3.69-4.87,10.05l-4.48,9.4c-1,2-1.71,3.59-2.24,4.73l-15.23-.17c.27-.57,1.48-3.19,3.64-7.88s4.3-9.29,6.41-13.82,3.29-7.07,3.56-7.64.54-1.27.84-2.1a6.83,6.83,0,0,0,.45-2.18,2,2,0,0,0-.33-1.3,1.34,1.34,0,0,0-1.05-.44,4,4,0,0,0-2.36,1.07,17.16,17.16,0,0,0-2.72,2.86,43.14,43.14,0,0,0-2.74,3.95,38.53,38.53,0,0,0-2.23,4l-11.74,23.36-15.23-.17,13.84-29.5.76-1.83a6.94,6.94,0,0,0,.62-2.53,1.74,1.74,0,0,0-.3-1.13,1.18,1.18,0,0,0-.94-.36,4.41,4.41,0,0,0-2.23,1,16,16,0,0,0-2.92,2.62,33.46,33.46,0,0,0-2.89,3.71c-.95,1.39-2,3.07-3.1,5l-.94-.48q4.23-8.24,8-11.21a12.49,12.49,0,0,1,7.88-2.92,8.2,8.2,0,0,1,6.14,2.65,8.63,8.63,0,0,1,2.43,6.28,20.7,20.7,0,0,1-.19,2.89,15,15,0,0,1-.49,2.27l.23.08q4.47-8.55,7.82-11.26a11.21,11.21,0,0,1,7.33-2.65,9.88,9.88,0,0,1,6.65,2.3,7.38,7.38,0,0,1,2.55,5.94,11.6,11.6,0,0,1-.42,3.12c-.43,1.09-.73,1.87-.89,2.34a56.75,56.75,0,0,1,6.95-10.41c1.92-2.06,4.81-3.08,8.66-3a9.11,9.11,0,0,1,6.3,2.33q2.47,2.3,2.42,7.06a12.42,12.42,0,0,1-.87,4.67q-.84,2-2.64,5.67T291,393.13c-1.89,3.47-2.83,5.59-2.84,6.38a1.64,1.64,0,0,0,.3,1.09,1,1,0,0,0,.85.4c1.51,0,3.11-.89,4.8-2.71a47.59,47.59,0,0,0,3.88-4.68c.89-1.29,1.77-2.61,2.62-3.95Z"/><path class="cls-4" d="M319.26,385.35a29,29,0,0,0-.9,3.85,24.78,24.78,0,0,0-.44,3.93q0,4.37,1.15,6.18a4,4,0,0,0,3.53,1.83,11.3,11.3,0,0,0,3.21-.39,16.62,16.62,0,0,0,3.31-1.48,19.91,19.91,0,0,0,4-3.15,23.84,23.84,0,0,0,3.37-4.09l1.09.79a32.28,32.28,0,0,1-7.83,7.65,18.33,18.33,0,0,1-10.83,3,18.61,18.61,0,0,1-10.77-3.6q-5-3.53-4.93-10.25.1-9.37,8.68-17.05A28.62,28.62,0,0,1,332,365a14.83,14.83,0,0,1,8.81,2.56q3.41,2.49,3.38,5.7-.07,6.16-7.31,9.17T319.26,385.35Zm.24-.94q5.47-.56,10-6c3-3.62,4.52-6.83,4.56-9.63a4.1,4.1,0,0,0-.3-1.79c-.2-.42-.67-.63-1.39-.64a4.83,4.83,0,0,0-3.46,1.83,30.43,30.43,0,0,0-3.73,5.17c-1.33,2.21-2.45,4.23-3.38,6.06S320.09,382.92,319.5,384.41Z"/><path class="cls-4" d="M388,372.84a8.64,8.64,0,0,1-2.17,5.83,6.74,6.74,0,0,1-5.34,2.36,7.72,7.72,0,0,1-4.86-1.65,5.35,5.35,0,0,1-2-4.52,5.11,5.11,0,0,1,.69-2.56q.67-1.17,1.47-2.49c0-.47-.25-.7-.77-.71q-1.17,0-3.2,3a60.07,60.07,0,0,0-4.26,7.65l-11.58,23.37-15.23-.17,13.76-29.52a10.15,10.15,0,0,0,.72-1.82,6.83,6.83,0,0,0,.34-1.91,1.8,1.8,0,0,0-.22-1,.92.92,0,0,0-.78-.32,3.66,3.66,0,0,0-2.2,1,15.84,15.84,0,0,0-2.41,2.43c-.76,1-1.73,2.34-2.89,4.15s-2.1,3.36-2.79,4.65l-1-.4q5-9.39,8.65-12.13a12.84,12.84,0,0,1,8.07-2.68,6.66,6.66,0,0,1,5.56,2.41,10.14,10.14,0,0,1,1.76,6.42,12.87,12.87,0,0,1-.42,3.12,21.13,21.13,0,0,1-.73,2.33l.23.08a59.85,59.85,0,0,1,6.48-10.78,9.54,9.54,0,0,1,7.89-3.35,6.69,6.69,0,0,1,5.48,2.33A7.68,7.68,0,0,1,388,372.84Z"/><path class="cls-4" d="M430.86,404.86a22.7,22.7,0,0,1-10-2.53q-5-2.47-9.86-5.11-1.56,0-4,2.34a19,19,0,0,0-3.84,5l-1.33,0,11.88-28.29,1.4,0c-.06.72-.12,1.8-.19,3.23s-.11,2.46-.11,3.09a33.6,33.6,0,0,0,.47,6.48,30.34,30.34,0,0,0,2.08,6.31,12.27,12.27,0,0,0,5.4,5.76,18.13,18.13,0,0,0,8.92,2.25,10.59,10.59,0,0,0,7.6-2.65,8.38,8.38,0,0,0,3-6.21,7,7,0,0,0-1.51-4.39q-1.54-2.06-6.24-4.72T423.26,379q-7.59-5.47-7.5-13.44t7.41-13.66a26.91,26.91,0,0,1,17.48-5.66,27.37,27.37,0,0,1,9.51,1.67c2.53,1.17,5.1,2.35,7.69,3.52a4.2,4.2,0,0,0,3.13-1.21,19.28,19.28,0,0,0,2.78-3.72l1.48,0-9.86,23.62H454c.11-.68.2-1.48.26-2.42s.1-2.05.12-3.35a44.47,44.47,0,0,0-.22-5.36,18.29,18.29,0,0,0-1.31-4.85,10,10,0,0,0-3.85-4.5q-2.79-1.86-8-1.92a13.18,13.18,0,0,0-7.4,2.14,6.82,6.82,0,0,0-3.46,5.94,7.55,7.55,0,0,0,1.47,4.54,11.38,11.38,0,0,0,3.51,3.32c1.35.8,3.65,2.11,6.91,3.95S448,371,450,372.32a17.06,17.06,0,0,1,5.21,5.48,14.17,14.17,0,0,1,2.14,7.76q-.09,8.51-7.57,14T430.86,404.86Z"/><path class="cls-4" d="M506.81,393.06a49.71,49.71,0,0,1-6.74,9.26q-3.07,3.12-8.93,3.06a7.84,7.84,0,0,1-6.26-2.57,9.42,9.42,0,0,1-2.08-6.42,15.83,15.83,0,0,1,1.32-6.08q1.2-2.32,3.11-5.94t4.15-7.72c1.49-2.74,2.24-4.82,2.25-6.22a1.85,1.85,0,0,0-.33-1.26,1.37,1.37,0,0,0-1.05-.4,5,5,0,0,0-2.75.83,20.1,20.1,0,0,0-3.71,3.59,30.16,30.16,0,0,0-4.53,7.8l-9.87,23.39-15.15-.17q2.17-5.13,5.46-12.9t7.58-18.07q4.29-10.31,6.1-14.73t2.25-5.68a7,7,0,0,0,.45-2.1c0-1.2-.84-1.81-2.56-1.82l-3.43-.2v-1.25l23,.26-11.15,26a47,47,0,0,1,5.18-5.18q2.08-1.69,6.53-1.64a10.76,10.76,0,0,1,6.81,2.42c2,1.58,3,3.93,2.93,7.06a12,12,0,0,1-.64,4.2q-.6,1.56-2.68,5.83t-4.83,9.32q-2.75,5-2.76,6.21a1.12,1.12,0,0,0,.34.87,1.43,1.43,0,0,0,1,.32q2.1,0,4.44-2.72a52.07,52.07,0,0,0,3.52-4.53c.8-1.19,1.46-2.28,2-3.26Z"/><path class="cls-4" d="M550.42,382.93q-.1,8.82-7.71,15.88a25.74,25.74,0,0,1-18.47,6.94,13.73,13.73,0,0,1-5.92-1.32,19.52,19.52,0,0,1-5.61-4.51q-3-3.24-2.9-9.79.1-8.67,7.63-15.81a25.48,25.48,0,0,1,18.55-7,13.5,13.5,0,0,1,5.92,1.27,16.39,16.39,0,0,1,4.72,3.69,13.14,13.14,0,0,1,3,5.14A18.77,18.77,0,0,1,550.42,382.93Zm-10.65-11.6a3,3,0,0,0-.56-2,2.38,2.38,0,0,0-1.91-.72c-.93,0-2,.61-3.06,1.88a45.55,45.55,0,0,0-4.82,8q-3.15,6.09-6,13.13t-2.92,9.92a3.39,3.39,0,0,0,.6,2.23,2.31,2.31,0,0,0,1.87.76,4,4,0,0,0,2.82-1.68,42.87,42.87,0,0,0,4.42-7.14q2.91-5.43,6.24-13.32T539.77,371.33Z"/><path class="cls-4" d="M600.1,381.06q-.09,8.6-7,17t-16.61,8.29a10.28,10.28,0,0,1-5.68-1.47q-2.17-1.42-2.13-5.49-1.92,4.28-4,9.06c-1.37,3.18-2.26,5.32-2.69,6.41s-.84,2.18-1.25,3.26a8.57,8.57,0,0,0-.61,2.26,1.42,1.42,0,0,0,1.19,1.54,33.19,33.19,0,0,0,5.51.33l0,1.25-29.9-.33V421.9c.32,0,.73,0,1.25-.07s1.35-.14,2.47-.28a5.81,5.81,0,0,0,3-1.33q1.34-1.12,3.9-6.87l16.35-37.61a18.94,18.94,0,0,0,.88-2.3,6.64,6.64,0,0,0,.34-1.83,1.86,1.86,0,0,0-.23-1.05.84.84,0,0,0-.77-.36,3.7,3.7,0,0,0-2.24.91,18.38,18.38,0,0,0-2.72,2.66A47,47,0,0,0,556,378a42,42,0,0,0-2.83,4.77l-1-.48a45.91,45.91,0,0,1,6.91-10.42,11.61,11.61,0,0,1,9-4.24,8.07,8.07,0,0,1,6.26,2.53q2.19,2.49,2.15,7l-.1,2a48.44,48.44,0,0,1,5.56-8.49c1.65-1.88,4-2.81,7.13-2.77a10.61,10.61,0,0,1,7.85,3.56Q600.17,375,600.1,381.06Zm-12.63-8.5a3.92,3.92,0,0,0-.41-2.07,1.45,1.45,0,0,0-1.28-.68c-1.2,0-2.53.86-4,2.61a33.5,33.5,0,0,0-4.3,6.94q-2.07,4.32-4.84,11.35t-2.81,9.85a4.14,4.14,0,0,0,.56,2.39,2,2,0,0,0,1.75.83c1.25,0,2.36-.76,3.34-2.34s2.27-3.87,3.87-6.87a115.9,115.9,0,0,0,5.24-11.81Q587.43,375.46,587.47,372.56Z"/><path class="cls-4" d="M649.37,381.61q-.11,8.59-7,17t-16.61,8.29a10.25,10.25,0,0,1-5.68-1.47q-2.17-1.43-2.13-5.49-1.92,4.27-4,9.06c-1.36,3.18-2.26,5.32-2.68,6.41s-.85,2.18-1.25,3.26a8.18,8.18,0,0,0-.61,2.26,1.42,1.42,0,0,0,1.19,1.54,33.13,33.13,0,0,0,5.5.33V424l-29.9-.33v-1.25c.31,0,.73,0,1.25-.07s1.34-.14,2.46-.28a5.78,5.78,0,0,0,3-1.33q1.35-1.12,3.91-6.87l16.35-37.61a21.54,21.54,0,0,0,.88-2.3,6.58,6.58,0,0,0,.33-1.83,1.87,1.87,0,0,0-.22-1.05.85.85,0,0,0-.78-.36,3.7,3.7,0,0,0-2.23.91,18.39,18.39,0,0,0-2.73,2.66,45.23,45.23,0,0,0-3.2,4.26,40.62,40.62,0,0,0-2.83,4.77l-1-.48a45.58,45.58,0,0,1,6.91-10.42,11.56,11.56,0,0,1,8.95-4.24,8.09,8.09,0,0,1,6.26,2.53c1.46,1.66,2.18,4,2.14,7l-.1,2a48.39,48.39,0,0,1,5.57-8.49c1.65-1.88,4-2.81,7.13-2.77a10.61,10.61,0,0,1,7.85,3.56Q649.44,375.52,649.37,381.61Zm-12.63-8.5a3.92,3.92,0,0,0-.41-2.07,1.45,1.45,0,0,0-1.28-.68q-1.8,0-4,2.61a33.5,33.5,0,0,0-4.3,6.94q-2.07,4.32-4.85,11.35t-2.8,9.85a4,4,0,0,0,.56,2.38,2,2,0,0,0,1.74.84c1.25,0,2.37-.76,3.35-2.34s2.27-3.87,3.86-6.87a113.49,113.49,0,0,0,5.25-11.81Q636.7,376,636.74,373.11Z"/><path class="cls-4" d="M667.32,389.23a29.37,29.37,0,0,0-.9,3.85A26,26,0,0,0,666,397q0,4.37,1.15,6.18a4,4,0,0,0,3.54,1.83,11.39,11.39,0,0,0,3.21-.39,16.57,16.57,0,0,0,3.3-1.48,19.91,19.91,0,0,0,4-3.15,23.84,23.84,0,0,0,3.37-4.09l1.09.79a32.51,32.51,0,0,1-7.83,7.66,18.33,18.33,0,0,1-10.83,3,18.61,18.61,0,0,1-10.77-3.6q-5-3.52-4.93-10.25.11-9.37,8.68-17.05A28.66,28.66,0,0,1,680,368.91a14.81,14.81,0,0,1,8.81,2.56q3.4,2.49,3.38,5.7-.08,6.16-7.31,9.17T667.32,389.23Zm.25-.94q5.46-.56,10-6t4.56-9.63a4.14,4.14,0,0,0-.29-1.79c-.21-.42-.67-.63-1.4-.64a4.83,4.83,0,0,0-3.46,1.83,30.84,30.84,0,0,0-3.73,5.17c-1.32,2.21-2.45,4.24-3.38,6.07A53.64,53.64,0,0,0,667.57,388.29Z"/><path class="cls-4" d="M736,376.72a8.63,8.63,0,0,1-2.17,5.83,6.74,6.74,0,0,1-5.34,2.36,7.74,7.74,0,0,1-4.86-1.65,5.35,5.35,0,0,1-2-4.51,5.12,5.12,0,0,1,.69-2.57q.67-1.17,1.47-2.49c0-.46-.25-.7-.77-.71-.78,0-1.85,1-3.19,3a60,60,0,0,0-4.27,7.65L704,407l-15.23-.17,13.76-29.52a10.92,10.92,0,0,0,.73-1.82,7.16,7.16,0,0,0,.33-1.91,1.72,1.72,0,0,0-.22-1,.92.92,0,0,0-.78-.32,3.68,3.68,0,0,0-2.2,1,15.84,15.84,0,0,0-2.41,2.43c-.76,1-1.73,2.34-2.89,4.15s-2.1,3.36-2.79,4.65l-1-.4q5-9.39,8.65-12.12a12.85,12.85,0,0,1,8.07-2.69,6.66,6.66,0,0,1,5.56,2.41,10.14,10.14,0,0,1,1.76,6.42,12.87,12.87,0,0,1-.42,3.12,21.13,21.13,0,0,1-.73,2.33l.23.08a59.2,59.2,0,0,1,6.49-10.78,9.48,9.48,0,0,1,7.88-3.34,6.65,6.65,0,0,1,5.48,2.32A7.63,7.63,0,0,1,736,376.72Z"/><path class="cls-1" d="M601.69,340.29l-20.16-.23m19.08,97.24-20.16-.23m-361.69-4-20.15-.23M219.84,336l-20.15-.23"/><path class="cls-5" d="M260.62,231.87l-9.85,105.4,14.44.16,8.4-89.9L552.46,273.6l-6.25,67,14.42.16,7.49-80.1Zm265.77,320.6L247.54,526.4l8.69-92.95-14.43-.16-9.92,106.09,307.5,28.75,12.28-131.38-14.44-.16Z"/><path class="cls-6" d="M308.67,272.7,298,337.8l14.55.16,8-48.73,190.24,31.3-3.23,19.6,14.55.17,5.2-31.63Zm170.8,238.07-190.24-31.3,7.5-45.56-14.55-.17-9.47,57.59,218.62,36,15-91.06-14.55-.16Z"/><path class="cls-4" d="M292.77,143.13H199.69V187H323V173.37A30.24,30.24,0,0,0,292.77,143.13Z"/><path class="cls-7" d="M573.5,242.32h93.07a30.24,30.24,0,0,1,30.24,30.24v13.62a0,0,0,0,1,0,0H573.5a0,0,0,0,1,0,0V242.32A0,0,0,0,1,573.5,242.32Z" transform="translate(899.41 -370.91) rotate(90)"/><path class="cls-8" d="M474.51,613h93.07a30.24,30.24,0,0,1,30.24,30.24v13.62a0,0,0,0,1,0,0H474.51a0,0,0,0,1,0,0V613A0,0,0,0,1,474.51,613Z" transform="translate(1072.33 1269.89) rotate(-180)"/><path class="cls-5" d="M103.18,515.91h93.07a30.24,30.24,0,0,1,30.24,30.24v13.62a0,0,0,0,1,0,0H103.18a0,0,0,0,1,0,0V515.91A0,0,0,0,1,103.18,515.91Z" transform="translate(-373 702.68) rotate(-90)"/></svg>